<svg width="245" height="48" viewBox="0 0 245 48" fill="none" xmlns="http://www.w3.org/2000/svg">
<path d="M53.169 37.6391L44.3469 47.0889C43.9593 47.5043 43.4161 47.7401 42.8476 47.7397H1.02609C0.618195 47.7399 0.249078 47.4983 0.0864805 47.1247C-0.0761168 46.7511 -0.00117811 46.3167 0.277242 46.019L9.10041 36.5692C9.48787 36.1541 10.0305 35.9183 10.5986 35.9183H52.4196C52.8274 35.9183 53.1963 36.16 53.3589 36.5334C53.5215 36.9069 53.4469 37.3411 53.169 37.6391ZM44.3469 18.61C43.9595 18.1948 43.4168 17.9592 42.8486 17.9592H1.02609C0.618417 17.9592 0.249573 18.2007 0.0870223 18.5741C-0.0755286 18.9475 -0.00081513 19.3816 0.277242 19.6794L9.10041 29.1297C9.48772 29.545 10.0304 29.7807 10.5986 29.7806H52.4196C52.8274 29.7806 53.1963 29.5389 53.3589 29.1655C53.5215 28.792 53.4469 28.3578 53.169 28.0598L44.3469 18.61ZM1.02609 11.8214H42.8476C43.4161 11.8215 43.9591 11.5858 44.3469 11.1706L53.169 1.72075C53.4469 1.42279 53.5215 0.988558 53.3589 0.615099C53.1963 0.24164 52.8274 7.41503e-08 52.4196 7.41503e-08H10.5986C10.0304 -0.000152646 9.48772 0.235607 9.10041 0.650852L0.277242 10.1007C-0.00117811 10.3984 -0.0761168 10.8328 0.0864805 11.2064C0.249078 11.58 0.618195 11.8216 1.02609 11.8214Z" fill="black"/>
<path d="M76.7817 11.7641H87.6087V15.3462H72.7607V19.1722H87.4319C89.6441 19.1696 91.4367 17.379 91.439 15.1695V11.9407C91.4367 9.73135 89.644 7.94088 87.4319 7.93854H76.6054V4.35647H91.439V0.530396H76.7806C74.5686 0.533026 72.7761 2.32332 72.7735 4.53258V7.76191C72.7761 9.97157 74.5693 11.762 76.7817 11.7641Z" fill="black"/>
<path d="M110.252 0.530396H98.8404C96.6284 0.533026 94.8359 2.32332 94.8333 4.53258V15.1706C94.8356 17.38 96.6282 19.1707 98.8404 19.1733H110.252C112.464 19.1707 114.256 17.38 114.259 15.1706V4.53258C114.256 2.32332 112.464 0.533026 110.252 0.530396ZM110.428 4.35647V15.3462H98.6641V4.35647H110.428Z" fill="black"/>
<path d="M120.193 19.1722H135.992V15.3462H121.538V0.530396H117.707V16.6892C117.709 18.06 118.821 19.1708 120.193 19.1722Z" fill="black"/>
<path d="M155.565 0.530396H142.632C140.84 0.532442 139.388 1.983 139.386 3.77298V19.1722H143.217V13.0939H154.98V19.1722H158.811V3.77298C158.809 1.983 157.357 0.532442 155.565 0.530396ZM154.98 4.35647V9.26783H143.217V4.35647H154.98Z" fill="black"/>
<path d="M177.8 15.3462H177.088L169.899 1.84801C169.469 1.03682 168.625 0.529764 167.706 0.530396H164.694C163.322 0.531858 162.21 1.64268 162.208 3.01339V19.1722H166.039V4.35647H166.903L174.085 17.8546C174.515 18.6662 175.36 19.1733 176.28 19.1722H179.148C180.52 19.1708 181.632 18.06 181.634 16.6892V0.530396H177.803L177.8 15.3462Z" fill="black"/>
<path d="M201.518 0.530396H188.586C186.794 0.532442 185.341 1.98309 185.34 3.77298V19.1722H189.17V13.0939H200.934V19.1722H204.765V3.77298C204.763 1.98279 203.31 0.532149 201.518 0.530396ZM200.934 4.35647V9.26783H189.17V4.35647H200.934Z" fill="black"/>
<path d="M230.417 39.7661H241.179V43.3265H226.42V47.1303H241.004C243.202 47.1273 244.984 45.3479 244.987 43.1519V39.9422C244.984 37.7462 243.202 35.9666 241.004 35.9639H230.241V32.4026H244.987V28.5988H230.417C228.218 28.6014 226.436 30.381 226.433 32.5771V35.7868C226.436 37.9833 228.218 39.7635 230.417 39.7661Z" fill="black"/>
<path d="M83.003 43.3265H81.8627L76.7886 28.5988H72.7607L78.5742 45.4668C78.9176 46.463 79.8561 47.1319 80.911 47.1319H83.9585C85.0133 47.1316 85.9518 46.4629 86.2953 45.4668L92.1082 28.5988H88.0803L83.003 43.3265Z" fill="black"/>
<path d="M95.1747 47.1303H113.351V43.3265H98.9827V39.7661H113.351V35.9629H98.9827V32.4026H113.351V28.5988H95.1747V47.1303Z" fill="black"/>
<path d="M132.011 43.406H131.303L124.159 29.9858C123.731 29.179 122.891 28.675 121.977 28.6761H118.98C117.616 28.6776 116.511 29.7818 116.509 31.1443V47.2093H120.317V32.4815H121.176L128.318 45.9017C128.746 46.7076 129.586 47.2107 130.499 47.2093H133.348C134.712 47.2078 135.818 46.1036 135.819 44.7411V28.6783H132.011V43.406Z" fill="black"/>
<path d="M139.193 32.4816H146.566V47.2093H150.374V32.4816H157.747V28.6783H139.193V32.4816Z" fill="black"/>
<path d="M176.57 40.2075C176.568 41.972 175.136 43.4019 173.369 43.4039H168.076C166.309 43.4019 164.877 41.972 164.875 40.2075V28.6783H161.067V40.965C161.071 44.4121 163.868 47.2055 167.319 47.2093H174.125C177.577 47.2055 180.374 44.4121 180.378 40.965V28.6783H176.57V40.2075Z" fill="black"/>
<path d="M201.927 34.466C201.923 31.2279 199.296 28.604 196.054 28.5988H183.752V47.1303H187.56V40.3327H194.128L197.747 47.1303H202.062L198.224 39.9163C200.457 39.0259 201.924 36.8679 201.927 34.466ZM187.56 32.4026H196.053C197.194 32.4026 198.119 33.3264 198.119 34.466C198.119 35.6056 197.194 36.5294 196.053 36.5294H187.56V32.4026Z" fill="black"/>
<path d="M205.086 47.1303H223.262V43.3265H208.893V39.7661H223.262V35.9629H208.893V32.4026H223.262V28.5988H205.086V47.1303Z" fill="black"/>
</svg>
