<svg width="182" height="70" viewBox="0 0 182 70" fill="none" xmlns="http://www.w3.org/2000/svg">
<path fill-rule="evenodd" clip-rule="evenodd" d="M116.751 58.292C118.356 58.292 119.559 57.892 120.361 57.112C121.132 56.342 121.565 55.2975 121.566 54.208C121.567 53.1186 121.135 52.0733 120.366 51.302L120.36 51.296C119.559 50.509 118.356 50.116 116.751 50.116H108.4V58.292H116.752H116.751ZM116.603 48.387C117.888 48.357 119.163 48.617 120.331 49.15C121.304 49.5891 122.13 50.2998 122.709 51.1966C123.288 52.0935 123.596 53.1384 123.596 54.206C123.596 55.2736 123.288 56.3185 122.709 57.2154C122.13 58.1122 121.304 58.8229 120.331 59.262C119.162 59.795 117.887 60.0555 116.603 60.024H108.4V68.677H106.464V48.387H116.604H116.603ZM136.022 61.548L131.339 50.418L126.623 61.548H136.022ZM136.767 63.276H125.878L123.613 68.677H121.407L130.204 48.387H132.442L141.242 68.677H139.033L136.767 63.276ZM166.098 50.12V56.837H178.388V58.564H166.098V66.961H181.042V68.689H164.162V48.399H181.042V50.121L166.098 50.12ZM10.592 67.559C12.1687 67.5907 13.7263 67.2106 15.111 66.456C16.3985 65.7352 17.4498 64.6572 18.138 63.352C18.8764 61.9191 19.2455 60.3246 19.212 58.713C19.2475 57.0523 18.8789 55.4078 18.138 53.921C17.4563 52.5847 16.4058 51.4717 15.111 50.714C13.7361 49.9289 12.174 49.5315 10.591 49.564C9.00832 49.5308 7.44634 49.9283 6.07202 50.714C4.77647 51.4707 3.72575 52.5839 3.04502 53.921C2.30447 55.4078 1.93624 57.0523 1.97202 58.713C1.93804 60.3249 2.30685 61.9197 3.04502 63.353C3.73024 64.6644 4.78191 65.7484 6.07202 66.473C7.45855 67.2221 9.01653 67.5964 10.592 67.559ZM10.592 69.29C8.66455 69.3282 6.7595 68.8713 5.05902 67.963C3.48325 67.1023 2.18841 65.8065 1.32902 64.23C0.419086 62.5302 -0.0379135 60.6247 0.00202405 58.697C-0.0382496 56.7153 0.418299 54.755 1.33002 52.995C2.17823 51.3851 3.47304 50.0542 5.05902 49.162C6.75286 48.2336 8.66085 47.7663 10.592 47.807C12.523 47.767 14.432 48.233 16.125 49.162C17.711 50.0545 19.006 51.3853 19.855 52.995C20.763 54.755 21.22 56.715 21.181 58.697C21.2191 60.6245 20.7622 62.5295 19.854 64.23C18.9949 65.8063 17.7004 67.1022 16.125 67.963C14.4245 68.8712 12.5195 69.3281 10.592 69.29ZM34.433 58.308C36.037 58.308 37.239 57.915 38.042 57.128C38.8132 56.3626 39.2488 55.3223 39.2531 54.2358C39.2574 53.1493 38.8301 52.1055 38.065 51.334L38.042 51.312C37.239 50.525 36.037 50.132 34.432 50.132H26.085V58.308H34.433ZM34.285 48.401C35.569 48.371 36.844 48.631 38.014 49.161C38.9865 49.6014 39.8114 50.3127 40.39 51.2099C40.9686 52.107 41.2763 53.152 41.2763 54.2195C41.2763 55.287 40.9686 56.332 40.39 57.2291C39.8114 58.1263 38.9865 58.8376 38.014 59.278C36.8438 59.8094 35.5688 60.0698 34.284 60.04H26.084V68.693H24.144V48.401H34.284H34.285ZM45.66 50.12V56.833H57.95V58.564H45.66V66.961H60.604V68.694H43.708V48.4H60.588V50.12H45.66ZM82.349 48.4V68.693H79.694L66.162 50.521V68.693H64.22V48.4H66.846L80.411 66.56V48.4H82.349ZM156.868 65.886C155.317 67.0201 153.431 67.603 151.51 67.542C149.934 67.5759 148.376 67.196 146.992 66.44C145.703 65.7145 144.651 64.6308 143.965 63.32C143.229 61.8861 142.861 60.2915 142.895 58.68C142.855 57.023 143.217 55.38 143.949 53.894C144.631 52.5575 145.682 51.444 146.976 50.685C148.404 49.9087 150.009 49.5144 151.634 49.5403C153.26 49.5663 154.851 50.0115 156.254 50.833C157.4 51.5588 158.335 52.5726 158.966 53.773H161.13C160.383 51.958 159.084 50.4238 157.417 49.387C155.635 48.3046 153.58 47.7562 151.495 47.807C149.565 47.767 147.658 48.237 145.965 49.167C144.376 50.0549 143.081 51.3865 142.237 52.999C141.325 54.7576 140.869 56.7166 140.91 58.697C140.87 60.6263 141.327 62.5334 142.237 64.235C143.095 65.8106 144.39 67.1051 145.966 67.963C147.665 68.873 149.569 69.33 151.495 69.291C154.101 69.291 156.315 68.622 158.135 67.286C159.955 65.9513 161.235 64.0078 161.743 61.809H159.68C159.205 63.4347 158.219 64.8643 156.868 65.886ZM102.613 59.519C101.859 58.7481 100.912 58.1941 99.871 57.915C98.49 57.5558 97.0836 57.3024 95.664 57.157C95.5817 57.1359 95.497 57.1252 95.412 57.125C95.3255 57.1262 95.2392 57.1168 95.155 57.097C93.7535 56.9508 92.3606 56.7315 90.982 56.44C90.069 56.2663 89.207 55.889 88.46 55.336C88.1539 55.0966 87.909 54.7879 87.7456 54.4353C87.5822 54.0827 87.5049 53.6963 87.52 53.308C87.54 52.172 88.1 51.262 89.205 50.578C90.309 49.893 91.885 49.54 93.933 49.518C96.042 49.498 97.698 49.88 98.901 50.666C100.058 51.4673 100.888 52.6587 101.238 54.022H103.358C102.862 51.931 101.838 50.371 100.288 49.339C98.738 48.307 96.68 47.789 94.113 47.787C92.579 47.757 91.05 47.987 89.594 48.473C88.4445 48.8408 87.4181 49.5174 86.627 50.429C85.9303 51.2695 85.5591 52.3325 85.581 53.424C85.5544 53.9579 85.6402 54.4915 85.8328 54.9901C86.0254 55.4888 86.3205 55.9415 86.699 56.319C87.4945 57.0639 88.4571 57.6071 89.506 57.903C90.826 58.276 92.173 58.544 93.536 58.704L93.743 58.734C95.95 59.001 97.56 59.249 98.576 59.479C99.437 59.629 100.246 59.993 100.929 60.537C101.517 61.098 101.824 61.892 101.767 62.703C101.784 63.3933 101.624 64.0765 101.303 64.6877C100.982 65.2989 100.509 65.8177 99.931 66.195C98.706 67.048 96.991 67.475 94.787 67.478C92.582 67.481 90.852 67.028 89.598 66.118C88.4292 65.2393 87.6063 63.9778 87.273 62.554H85.152C85.3675 63.8844 85.9193 65.1377 86.755 66.195C87.6145 67.2267 88.7306 68.0138 89.991 68.477C91.531 69.04 93.163 69.311 94.803 69.278C97.625 69.278 99.817 68.692 101.379 67.518C102.131 66.9748 102.737 66.2552 103.145 65.4226C103.553 64.5899 103.75 63.6697 103.719 62.743C103.716 61.348 103.352 60.273 102.613 59.519ZM74.694 18.753V19.446L75.48 19.411L75.46 18.753H74.694ZM74.726 20.14L74.79 20.834L75.608 20.722L75.528 20.068L74.726 20.14ZM74.883 21.523L75.011 22.205L75.856 22.013L75.716 21.371L74.883 21.523ZM75.144 22.895L75.304 23.576L76.222 23.271L76.022 22.647L75.144 22.895ZM75.496 24.25L75.721 24.919L76.699 24.495L76.446 23.89L75.496 24.25ZM75.973 25.585L76.238 26.251L77.288 25.678L76.979 25.092L75.973 25.585ZM76.535 26.909L76.863 27.549L77.983 26.792L77.625 26.243L76.535 26.909ZM77.22 28.18L77.59 28.805L78.776 27.838L78.367 27.326L77.22 28.18ZM77.99 29.419L78.415 30.019L79.655 28.805L79.205 28.332L77.99 29.419ZM78.872 30.601C79.037 30.786 79.193 30.978 79.349 31.179L80.617 29.691L80.127 29.271L78.872 30.601ZM79.846 31.748L80.372 32.298L81.654 30.481L81.125 30.096L79.846 31.748ZM80.93 32.827L81.515 33.332L82.762 31.175L82.2 30.841L80.93 32.827ZM82.124 33.813L82.765 34.27L83.921 31.764L83.335 31.484L82.124 33.813ZM83.428 34.7L84.117 35.108L85.131 32.245L84.522 32.021L83.428 34.7ZM84.822 35.505L85.552 35.865L86.379 32.615L85.749 32.446L84.822 35.505ZM86.302 36.199L87.077 36.496L87.653 32.866L87.011 32.755L86.302 36.199ZM87.87 36.756L88.676 36.986L88.945 32.999L88.299 32.947L87.87 36.756ZM89.498 37.173L90.34 37.325L90.24 33.02L89.59 33.023L89.498 37.173ZM91.19 37.441L92.056 37.518L91.535 32.918L90.889 32.983L91.19 37.441ZM92.934 37.554L93.817 37.546L92.814 32.702L92.177 32.827L92.934 37.554ZM94.706 37.498L95.6 37.409L94.069 32.374L93.443 32.554L94.706 37.498ZM96.503 37.29C96.799 37.233 97.096 37.157 97.393 37.092L95.287 31.941L94.687 32.181L96.503 37.29ZM98.271 36.832L99.141 36.548L96.451 31.375L95.877 31.663L98.271 36.832ZM99.999 36.223L100.849 35.854L97.561 30.722L97.011 31.062L99.999 36.223ZM101.691 35.445L102.517 34.992L98.607 29.968L98.095 30.357L101.691 35.445ZM103.323 34.503C103.587 34.331 103.84 34.138 104.097 33.953L99.587 29.122L99.105 29.556L103.323 34.503ZM104.843 33.36L105.561 32.735L100.476 28.191L100.044 28.665L104.843 33.36ZM106.258 32.077C106.478 31.848 106.703 31.616 106.916 31.376L101.302 27.193L100.901 27.706L106.258 32.076V32.077ZM107.53 30.622L108.11 29.847L101.992 26.114L101.651 26.656L107.53 30.622ZM108.66 29.041L109.173 28.211L102.601 24.979L102.313 25.553L108.66 29.041ZM109.626 27.341L110.039 26.448L103.106 23.798L102.866 24.395L109.626 27.341ZM110.408 25.537L110.741 24.607L103.499 22.574L103.315 23.192L110.408 25.537ZM111.022 23.66L111.233 22.698L103.776 21.323L103.653 21.953L111.022 23.66ZM111.407 21.724L111.531 20.754L103.941 20.056L103.872 20.69L111.407 21.724ZM111.615 19.775C111.615 19.446 111.647 19.122 111.647 18.793H103.988V19.434L111.615 19.775ZM111.611 17.81L111.531 16.828L103.948 17.498L103.985 18.135L111.611 17.81ZM111.41 15.846L111.241 14.876L103.788 16.222L103.88 16.86L111.41 15.846ZM111.022 13.909L110.741 12.963L103.511 14.972L103.663 15.593L111.022 13.909ZM110.412 12.032L110.044 11.119L103.123 13.745L103.331 14.355L110.412 12.032ZM109.634 10.225C109.489 9.93369 109.337 9.64625 109.177 9.363L102.621 12.57L102.886 13.152L109.634 10.225ZM108.668 8.536L108.123 7.73L102.016 11.432L102.333 11.992L108.668 8.536ZM107.542 6.952L106.932 6.207L101.311 10.352L101.675 10.882L107.542 6.952ZM106.27 5.505L105.577 4.84L100.508 9.346L100.921 9.84L106.27 5.505ZM104.863 4.21L104.118 3.616L99.615 8.412L100.071 8.869L104.863 4.21ZM103.343 3.075L102.537 2.582L98.644 7.565L99.137 7.979L103.343 3.075ZM101.715 2.129L100.881 1.716L97.598 6.808L98.127 7.173L101.715 2.129ZM100.03 1.347L99.17 1.019L96.487 6.15L97.048 6.468L100.03 1.347ZM98.299 0.73L97.42 0.484L95.319 5.594L95.908 5.858L98.299 0.73ZM96.535 0.289L95.64 0.152L94.104 5.144L94.717 5.357L96.535 0.289ZM94.75 0.06L93.86 0.008L92.854 4.811L93.484 4.964L94.75 0.06ZM92.978 0L92.104 0.032L91.574 4.591L92.216 4.686L92.978 0ZM91.246 0.104L90.396 0.216L90.287 4.49L90.933 4.527L91.246 0.104ZM89.558 0.368L88.736 0.553L88.989 4.503L89.639 4.483L89.558 0.368ZM87.926 0.778L87.132 1.034L87.693 4.635L88.339 4.555L87.926 0.778ZM86.358 1.33L85.604 1.655L86.418 4.884L87.052 4.744L86.358 1.33ZM84.875 2.016L84.165 2.41L85.163 5.249L85.789 5.052L84.875 2.016ZM83.475 2.814L82.81 3.24L83.952 5.73L84.55 5.473L83.475 2.814ZM82.172 3.692L81.562 4.166L82.797 6.31L83.367 6.006L82.172 3.692ZM80.977 4.67L80.42 5.196L81.686 7.001L82.236 6.643L80.977 4.67ZM79.895 5.746L79.393 6.31L80.649 7.79L81.162 7.386L79.895 5.746ZM78.917 6.88L78.455 7.462L79.682 8.673L80.155 8.219L78.917 6.88ZM78.026 8.06L77.626 8.673L78.801 9.635L79.229 9.141L78.026 8.06ZM77.252 9.294L76.895 9.919L78.005 10.677L78.391 10.147L77.252 9.294ZM76.567 10.561L76.27 11.211L77.312 11.788L77.649 11.223L76.567 10.561ZM76.006 11.868C75.929 12.092 75.833 12.308 75.749 12.531L76.723 12.954L77.003 12.365L76.006 11.868ZM75.524 13.195L75.324 13.869L76.238 14.173L76.466 13.56L75.524 13.195ZM75.16 14.55L75.027 15.236L75.869 15.433L76.041 14.799L75.16 14.55ZM74.899 15.918L74.799 16.608L75.616 16.724L75.729 16.074L74.899 15.918ZM74.734 17.293L74.698 17.983L75.483 18.023L75.536 17.37L74.734 17.293Z" fill="black"/>
</svg>
