<svg width="182" height="70" viewBox="0 0 182 70" fill="none" xmlns="http://www.w3.org/2000/svg">
<g clip-path="url(#clip0_40_1061)">
<path fill-rule="evenodd" clip-rule="evenodd" d="M116.75 58.292C118.355 58.292 119.558 57.892 120.36 57.112C121.131 56.342 121.565 55.2975 121.566 54.208C121.566 53.1186 121.135 52.0733 120.365 51.302L120.359 51.296C119.558 50.509 118.355 50.116 116.75 50.116H108.399V58.292H116.751H116.75ZM116.602 48.387C117.887 48.357 119.162 48.617 120.33 49.15C121.304 49.5891 122.129 50.2998 122.708 51.1966C123.288 52.0935 123.596 53.1384 123.596 54.206C123.596 55.2736 123.288 56.3185 122.708 57.2154C122.129 58.1122 121.304 58.8229 120.33 59.262C119.162 59.795 117.887 60.0555 116.602 60.024H108.399V68.677H106.463V48.387H116.603H116.602ZM136.021 61.548L131.338 50.418L126.622 61.548H136.021ZM136.766 63.276H125.877L123.612 68.677H121.406L130.203 48.387H132.441L141.241 68.677H139.032L136.766 63.276ZM166.097 50.12V56.837H178.387V58.564H166.097V66.961H181.041V68.689H164.161V48.399H181.041V50.121L166.097 50.12ZM10.5915 67.559C12.1681 67.5907 13.7258 67.2106 15.1105 66.456C16.3979 65.7352 17.4492 64.6572 18.1375 63.352C18.8758 61.9191 19.245 60.3246 19.2115 58.713C19.2469 57.0523 18.8783 55.4078 18.1375 53.921C17.4557 52.5847 16.4053 51.4717 15.1105 50.714C13.7355 49.9289 12.1734 49.5315 10.5905 49.564C9.00777 49.5308 7.44579 49.9283 6.07147 50.714C4.77592 51.4707 3.7252 52.5839 3.04447 53.921C2.30392 55.4078 1.93569 57.0523 1.97147 58.713C1.93749 60.3249 2.3063 61.9197 3.04447 63.353C3.72969 64.6644 4.78136 65.7484 6.07147 66.473C7.458 67.2221 9.01598 67.5964 10.5915 67.559ZM10.5915 69.29C8.664 69.3282 6.75895 68.8713 5.05847 67.963C3.4827 67.1023 2.18786 65.8065 1.32847 64.23C0.418537 62.5302 -0.0384628 60.6247 0.00147473 58.697C-0.0387989 56.7153 0.41775 54.755 1.32947 52.995C2.17769 51.3851 3.47249 50.0542 5.05847 49.162C6.75231 48.2336 8.6603 47.7663 10.5915 47.807C12.5225 47.767 14.4315 48.233 16.1245 49.162C17.7104 50.0545 19.0055 51.3853 19.8545 52.995C20.7625 54.755 21.2195 56.715 21.1805 58.697C21.2186 60.6245 20.7617 62.5295 19.8535 64.23C18.9944 65.8063 17.6999 67.1022 16.1245 67.963C14.424 68.8712 12.5189 69.3281 10.5915 69.29ZM34.4325 58.308C36.0365 58.308 37.2385 57.915 38.0415 57.128C38.8126 56.3626 39.2482 55.3223 39.2525 54.2358C39.2569 53.1493 38.8295 52.1055 38.0645 51.334L38.0415 51.312C37.2385 50.525 36.0365 50.132 34.4315 50.132H26.0845V58.308H34.4325ZM34.2845 48.401C35.5685 48.371 36.8435 48.631 38.0135 49.161C38.9859 49.6014 39.8109 50.3127 40.3895 51.2099C40.968 52.107 41.2758 53.152 41.2758 54.2195C41.2758 55.287 40.968 56.332 40.3895 57.2291C39.8109 58.1263 38.9859 58.8376 38.0135 59.278C36.8433 59.8094 35.5683 60.0698 34.2835 60.04H26.0835V68.693H24.1435V48.401H34.2835H34.2845ZM45.6595 50.12V56.833H57.9495V58.564H45.6595V66.961H60.6035V68.694H43.7075V48.4H60.5875V50.12H45.6595ZM82.3485 48.4V68.693H79.6935L66.1615 50.521V68.693H64.2195V48.4H66.8455L80.4105 66.56V48.4H82.3485ZM156.867 65.886C155.316 67.0201 153.43 67.603 151.509 67.542C149.933 67.5759 148.375 67.196 146.991 66.44C145.702 65.7145 144.651 64.6308 143.964 63.32C143.228 61.8861 142.861 60.2915 142.894 58.68C142.854 57.023 143.216 55.38 143.948 53.894C144.631 52.5575 145.681 51.444 146.975 50.685C148.404 49.9087 150.008 49.5144 151.634 49.5403C153.259 49.5663 154.851 50.0115 156.253 50.833C157.399 51.5588 158.334 52.5726 158.965 53.773H161.129C160.382 51.958 159.083 50.4238 157.416 49.387C155.634 48.3046 153.579 47.7562 151.494 47.807C149.564 47.767 147.657 48.237 145.964 49.167C144.376 50.0549 143.08 51.3865 142.236 52.999C141.325 54.7576 140.869 56.7166 140.909 58.697C140.87 60.6263 141.327 62.5334 142.236 64.235C143.095 65.8106 144.39 67.1051 145.965 67.963C147.664 68.873 149.568 69.33 151.494 69.291C154.1 69.291 156.314 68.622 158.134 67.286C159.954 65.9513 161.234 64.0078 161.742 61.809H159.679C159.204 63.4347 158.218 64.8643 156.867 65.886ZM102.612 59.519C101.859 58.7481 100.912 58.1941 99.8705 57.915C98.4894 57.5558 97.083 57.3024 95.6635 57.157C95.5811 57.1359 95.4965 57.1252 95.4115 57.125C95.325 57.1262 95.2387 57.1168 95.1545 57.097C93.753 56.9508 92.3601 56.7315 90.9815 56.44C90.0685 56.2663 89.2064 55.889 88.4595 55.336C88.1533 55.0966 87.9085 54.7879 87.7451 54.4353C87.5816 54.0827 87.5043 53.6963 87.5195 53.308C87.5395 52.172 88.0995 51.262 89.2045 50.578C90.3085 49.893 91.8845 49.54 93.9325 49.518C96.0415 49.498 97.6975 49.88 98.9005 50.666C100.058 51.4673 100.887 52.6587 101.237 54.022H103.357C102.861 51.931 101.837 50.371 100.287 49.339C98.7375 48.307 96.6795 47.789 94.1125 47.787C92.5785 47.757 91.0495 47.987 89.5935 48.473C88.4439 48.8408 87.4175 49.5174 86.6265 50.429C85.9298 51.2695 85.5585 52.3325 85.5805 53.424C85.5539 53.9579 85.6397 54.4915 85.8322 54.9901C86.0248 55.4888 86.3199 55.9415 86.6985 56.319C87.494 57.0639 88.4566 57.6071 89.5055 57.903C90.8255 58.276 92.1725 58.544 93.5355 58.704L93.7425 58.734C95.9495 59.001 97.5595 59.249 98.5755 59.479C99.4365 59.629 100.245 59.993 100.928 60.537C101.516 61.098 101.823 61.892 101.766 62.703C101.784 63.3933 101.624 64.0765 101.302 64.6877C100.981 65.2989 100.509 65.8177 99.9305 66.195C98.7055 67.048 96.9905 67.475 94.7865 67.478C92.5815 67.481 90.8515 67.028 89.5975 66.118C88.4286 65.2393 87.6057 63.9778 87.2725 62.554H85.1515C85.367 63.8844 85.9188 65.1377 86.7545 66.195C87.614 67.2267 88.7301 68.0138 89.9905 68.477C91.5305 69.04 93.1625 69.311 94.8025 69.278C97.6245 69.278 99.8165 68.692 101.378 67.518C102.13 66.9748 102.736 66.2552 103.145 65.4226C103.553 64.5899 103.75 63.6697 103.718 62.743C103.715 61.348 103.351 60.273 102.612 59.519ZM74.6935 18.753V19.446L75.4795 19.411L75.4595 18.753H74.6935ZM74.7255 20.14L74.7895 20.834L75.6075 20.722L75.5275 20.068L74.7255 20.14ZM74.8825 21.523L75.0105 22.205L75.8555 22.013L75.7155 21.371L74.8825 21.523ZM75.1435 22.895L75.3035 23.576L76.2215 23.271L76.0215 22.647L75.1435 22.895ZM75.4955 24.25L75.7205 24.919L76.6985 24.495L76.4455 23.89L75.4955 24.25ZM75.9725 25.585L76.2375 26.251L77.2875 25.678L76.9785 25.092L75.9725 25.585ZM76.5345 26.909L76.8625 27.549L77.9825 26.792L77.6245 26.243L76.5345 26.909ZM77.2195 28.18L77.5895 28.805L78.7755 27.838L78.3665 27.326L77.2195 28.18ZM77.9895 29.419L78.4145 30.019L79.6545 28.805L79.2045 28.332L77.9895 29.419ZM78.8715 30.601C79.0365 30.786 79.1925 30.978 79.3485 31.179L80.6165 29.691L80.1265 29.271L78.8715 30.601ZM79.8455 31.748L80.3715 32.298L81.6535 30.481L81.1245 30.096L79.8455 31.748ZM80.9295 32.827L81.5145 33.332L82.7615 31.175L82.1995 30.841L80.9295 32.827ZM82.1235 33.813L82.7645 34.27L83.9205 31.764L83.3345 31.484L82.1235 33.813ZM83.4275 34.7L84.1165 35.108L85.1305 32.245L84.5215 32.021L83.4275 34.7ZM84.8215 35.505L85.5515 35.865L86.3785 32.615L85.7485 32.446L84.8215 35.505ZM86.3015 36.199L87.0765 36.496L87.6525 32.866L87.0105 32.755L86.3015 36.199ZM87.8695 36.756L88.6755 36.986L88.9445 32.999L88.2985 32.947L87.8695 36.756ZM89.4975 37.173L90.3395 37.325L90.2395 33.02L89.5895 33.023L89.4975 37.173ZM91.1895 37.441L92.0555 37.518L91.5345 32.918L90.8885 32.983L91.1895 37.441ZM92.9335 37.554L93.8165 37.546L92.8135 32.702L92.1765 32.827L92.9335 37.554ZM94.7055 37.498L95.5995 37.409L94.0685 32.374L93.4425 32.554L94.7055 37.498ZM96.5025 37.29C96.7985 37.233 97.0955 37.157 97.3925 37.092L95.2865 31.941L94.6865 32.181L96.5025 37.29ZM98.2705 36.832L99.1405 36.548L96.4505 31.375L95.8765 31.663L98.2705 36.832ZM99.9985 36.223L100.848 35.854L97.5605 30.722L97.0105 31.062L99.9985 36.223ZM101.69 35.445L102.516 34.992L98.6065 29.968L98.0945 30.357L101.69 35.445ZM103.322 34.503C103.586 34.331 103.839 34.138 104.096 33.953L99.5865 29.122L99.1045 29.556L103.322 34.503ZM104.842 33.36L105.56 32.735L100.475 28.191L100.043 28.665L104.842 33.36ZM106.257 32.077C106.477 31.848 106.702 31.616 106.915 31.376L101.301 27.193L100.9 27.706L106.257 32.076V32.077ZM107.529 30.622L108.109 29.847L101.991 26.114L101.65 26.656L107.529 30.622ZM108.659 29.041L109.172 28.211L102.6 24.979L102.312 25.553L108.659 29.041ZM109.625 27.341L110.038 26.448L103.105 23.798L102.865 24.395L109.625 27.341ZM110.407 25.537L110.74 24.607L103.498 22.574L103.314 23.192L110.407 25.537ZM111.021 23.66L111.232 22.698L103.775 21.323L103.652 21.953L111.021 23.66ZM111.406 21.724L111.53 20.754L103.94 20.056L103.871 20.69L111.406 21.724ZM111.614 19.775C111.614 19.446 111.646 19.122 111.646 18.793H103.987V19.434L111.614 19.775ZM111.61 17.81L111.53 16.828L103.947 17.498L103.984 18.135L111.61 17.81ZM111.409 15.846L111.24 14.876L103.787 16.222L103.879 16.86L111.409 15.846ZM111.021 13.909L110.74 12.963L103.51 14.972L103.662 15.593L111.021 13.909ZM110.411 12.032L110.043 11.119L103.122 13.745L103.33 14.355L110.411 12.032ZM109.633 10.225C109.489 9.93369 109.336 9.64625 109.176 9.363L102.62 12.57L102.885 13.152L109.633 10.225ZM108.667 8.536L108.122 7.73L102.015 11.432L102.332 11.992L108.667 8.536ZM107.541 6.952L106.931 6.207L101.31 10.352L101.674 10.882L107.541 6.952ZM106.269 5.505L105.576 4.84L100.507 9.346L100.92 9.84L106.269 5.505ZM104.862 4.21L104.117 3.616L99.6145 8.412L100.07 8.869L104.862 4.21ZM103.342 3.075L102.536 2.582L98.6435 7.565L99.1365 7.979L103.342 3.075ZM101.714 2.129L100.88 1.716L97.5975 6.808L98.1265 7.173L101.714 2.129ZM100.029 1.347L99.1695 1.019L96.4865 6.15L97.0475 6.468L100.029 1.347ZM98.2985 0.73L97.4195 0.484L95.3185 5.594L95.9075 5.858L98.2985 0.73ZM96.5345 0.289L95.6395 0.152L94.1035 5.144L94.7165 5.357L96.5345 0.289ZM94.7495 0.06L93.8595 0.008L92.8535 4.811L93.4835 4.964L94.7495 0.06ZM92.9775 0L92.1035 0.032L91.5735 4.591L92.2155 4.686L92.9775 0ZM91.2455 0.104L90.3955 0.216L90.2865 4.49L90.9325 4.527L91.2455 0.104ZM89.5575 0.368L88.7355 0.553L88.9885 4.503L89.6385 4.483L89.5575 0.368ZM87.9255 0.778L87.1315 1.034L87.6925 4.635L88.3385 4.555L87.9255 0.778ZM86.3575 1.33L85.6035 1.655L86.4175 4.884L87.0515 4.744L86.3575 1.33ZM84.8745 2.016L84.1645 2.41L85.1625 5.249L85.7885 5.052L84.8745 2.016ZM83.4745 2.814L82.8095 3.24L83.9515 5.73L84.5495 5.473L83.4745 2.814ZM82.1715 3.692L81.5615 4.166L82.7965 6.31L83.3665 6.006L82.1715 3.692ZM80.9765 4.67L80.4195 5.196L81.6855 7.001L82.2355 6.643L80.9765 4.67ZM79.8945 5.746L79.3925 6.31L80.6485 7.79L81.1615 7.386L79.8945 5.746ZM78.9165 6.88L78.4545 7.462L79.6815 8.673L80.1545 8.219L78.9165 6.88ZM78.0255 8.06L77.6255 8.673L78.8005 9.635L79.2285 9.141L78.0255 8.06ZM77.2515 9.294L76.8945 9.919L78.0045 10.677L78.3905 10.147L77.2515 9.294ZM76.5665 10.561L76.2695 11.211L77.3115 11.788L77.6485 11.223L76.5665 10.561ZM76.0055 11.868C75.9285 12.092 75.8325 12.308 75.7485 12.531L76.7225 12.954L77.0025 12.365L76.0055 11.868ZM75.5235 13.195L75.3235 13.869L76.2375 14.173L76.4655 13.56L75.5235 13.195ZM75.1595 14.55L75.0265 15.236L75.8685 15.433L76.0405 14.799L75.1595 14.55ZM74.8985 15.918L74.7985 16.608L75.6155 16.724L75.7285 16.074L74.8985 15.918ZM74.7335 17.293L74.6975 17.983L75.4825 18.023L75.5355 17.37L74.7335 17.293Z" fill="white"/>
</g>
<defs>
<clipPath id="clip0_40_1061">
<rect width="182" height="70" fill="white" transform="translate(-0.000488281)"/>
</clipPath>
</defs>
</svg>
