<svg width="230" height="73" viewBox="0 0 230 73" fill="none" xmlns="http://www.w3.org/2000/svg">
<path fill-rule="evenodd" clip-rule="evenodd" d="M147.853 33.592V29.6432H149.411V28.2467H144.502V29.644H146.06V33.5929L147.853 33.592ZM187.044 29.6363H187.696C187.94 29.6363 188.122 29.6912 188.243 29.7995C188.366 29.9102 188.425 30.064 188.425 30.2624C188.425 30.4625 188.365 30.6162 188.243 30.7244C188.122 30.8352 187.94 30.8876 187.696 30.8876H187.044V29.6363ZM187.044 32.2471H187.529L188.432 33.592H190.347L189.228 31.9431C189.535 31.7917 189.794 31.5566 189.974 31.2646C190.145 30.9778 190.232 30.6445 190.232 30.2624C190.232 29.8553 190.134 29.4997 189.936 29.1948C189.729 28.882 189.436 28.6371 189.092 28.4906C188.727 28.3292 188.299 28.2467 187.807 28.2467H185.25V33.5903H187.046V32.248H187.044V32.2471ZM164.501 28.2467V31.1865C164.501 31.9852 164.73 32.6078 165.184 33.0501C165.641 33.4915 166.276 33.7148 167.091 33.7148C167.906 33.7148 168.542 33.4933 168.998 33.0501C169.455 32.6087 169.682 31.9852 169.682 31.1865V28.2467H167.918V31.1324C167.918 31.524 167.849 31.8091 167.71 31.986C167.572 32.1655 167.368 32.2531 167.106 32.2531C166.842 32.2531 166.64 32.1655 166.501 31.9869C166.363 31.81 166.291 31.5231 166.291 31.1324V28.2467H164.501ZM159.767 21.8373V10.2363H150.489C149.56 10.2363 148.771 10.5652 148.121 11.2231C147.466 11.875 147.138 12.6676 147.138 13.6012V21.8373H149.792V13.584C149.792 13.3925 149.86 13.2302 149.997 13.0902C150.06 13.0238 150.136 12.9712 150.22 12.9357C150.305 12.9003 150.395 12.8827 150.487 12.8841H157.11V21.8347H159.767V21.8373ZM184.303 18.9491C184.23 19.025 184.143 19.0853 184.047 19.1262C183.95 19.1671 183.846 19.1878 183.742 19.187H175.155V21.8364H184.056C184.956 21.8364 185.737 21.5032 186.401 20.8333C187.039 20.1927 187.359 19.3888 187.359 18.4235L187.352 14.7864H177.623V13.6493C177.623 13.4784 177.711 13.3032 177.884 13.1237C177.956 13.0476 178.043 12.9871 178.14 12.946C178.236 12.905 178.34 12.8842 178.445 12.8849H187.349V10.2355H178.445C177.547 10.2355 176.766 10.5687 176.1 11.2386C175.459 11.8801 175.143 12.684 175.143 13.6493V17.2787H184.554V18.5119C184.53 18.6536 184.443 18.8005 184.303 18.9499V18.9491ZM227.035 14.8448C227.035 15.0509 226.975 15.2175 226.853 15.3394C226.792 15.4021 226.719 15.4519 226.638 15.4861C226.558 15.5203 226.471 15.5382 226.384 15.5387H219.437V13.6132C219.437 13.5185 219.457 13.4249 219.495 13.3384C219.534 13.2518 219.589 13.1743 219.659 13.1108C219.722 13.0399 219.799 12.9833 219.885 12.9449C219.972 12.9066 220.065 12.8873 220.16 12.8884H227.035V14.8448ZM229.673 14.8448V10.2363H220.16C219.229 10.2363 218.441 10.5687 217.791 11.2394C217.131 11.9136 216.801 12.7037 216.801 13.6106V21.8399H219.44V18.195H224.963L226.896 21.8399H229.527L227.601 17.9726C228.022 17.8029 228.403 17.5453 228.717 17.2168C229.353 16.5684 229.673 15.7783 229.673 14.8448ZM196.535 21.8373V12.8858H201.318V10.2363H188.943V12.8858H193.896V21.8373H196.535ZM228.051 32.2669C227.944 32.3158 227.767 32.339 227.518 32.339C227.229 32.339 226.928 32.2935 226.614 32.205C226.317 32.1231 226.031 32.0037 225.763 31.8495L225.185 33.1635C225.453 33.3301 225.797 33.4649 226.216 33.5637C226.634 33.6616 227.064 33.7123 227.503 33.7123C228.036 33.7123 228.488 33.6332 228.861 33.4718C229.234 33.3112 229.513 33.0956 229.699 32.8234C229.887 32.5528 229.981 32.248 229.981 31.913C229.981 31.5266 229.879 31.22 229.673 30.9949C229.468 30.7716 229.227 30.6085 228.947 30.5097C228.612 30.3969 228.27 30.3084 227.922 30.2452C227.606 30.1834 227.382 30.1284 227.246 30.0734C227.109 30.0202 227.04 29.9386 227.04 29.833C227.04 29.6097 227.27 29.4963 227.731 29.4963C228.197 29.4963 228.691 29.6294 229.212 29.8931L229.752 28.5877C229.461 28.4244 229.147 28.3071 228.82 28.2398C228.467 28.1602 228.107 28.1205 227.745 28.1213C227.213 28.1213 226.76 28.2012 226.388 28.3592C226.015 28.5181 225.735 28.7337 225.549 29.0068C225.363 29.276 225.264 29.5963 225.267 29.924C225.267 30.3113 225.367 30.6179 225.571 30.8438C225.774 31.0688 226.012 31.2328 226.285 31.3307C226.558 31.4286 226.901 31.5231 227.31 31.609C227.628 31.6777 227.857 31.7378 227.998 31.7919C228.137 31.8469 228.209 31.9311 228.209 32.0436C228.21 32.144 228.157 32.2188 228.051 32.2669ZM205.541 16.2446V13.5076C205.541 13.3444 205.61 13.1932 205.747 13.0541C205.869 12.9365 206.034 12.8789 206.246 12.8789H212.577V16.2446H205.54H205.541ZM215.215 21.8373V10.2363H206.246C205.343 10.2363 204.555 10.5764 203.877 11.2635C203.228 11.9162 202.903 12.7226 202.903 13.6836V21.8399H205.541V18.8941H212.577V21.8399H215.215V21.8373ZM209.984 29.6045V28.2467H205.658V33.592H210.081V32.2316H207.422V31.5308H209.671V30.2306H207.422V29.6045H209.984ZM173.559 16.0377H170.918V19.1973H163.986V13.6493C163.986 13.4475 164.063 13.2714 164.215 13.1237C164.369 12.9657 164.54 12.8858 164.729 12.8858H173.063V10.2363H164.729C163.805 10.2363 163.01 10.5695 162.345 11.2394C161.679 11.9067 161.346 12.7106 161.346 13.6501V21.8373H173.553V16.0377H173.558H173.559ZM104.122 19.1896V19.1973H103.314C103.108 19.1973 102.942 19.1389 102.815 19.0221C102.677 18.8778 102.608 18.7266 102.608 18.5669V13.5084C102.608 13.3496 102.678 13.1975 102.815 13.0533C102.942 12.9373 103.106 12.8789 103.314 12.8789H104.122V12.8858H110.025V18.5678C110.025 18.7266 109.956 18.8769 109.819 19.0221C109.692 19.1389 109.524 19.1973 109.319 19.1973H108.512V19.1887H104.122L104.122 19.1896ZM111.686 20.8127C112.336 20.16 112.661 19.3527 112.661 18.3926V10.2363H103.311C102.409 10.2363 101.62 10.5773 100.943 11.2635C100.293 11.9162 99.9679 12.7235 99.9679 13.6836V18.3951C99.9679 19.3553 100.293 20.1626 100.943 20.8153C101.619 21.4989 102.409 21.8425 103.311 21.8425H109.318C110.221 21.8373 111.011 21.4972 111.686 20.8119V20.8127ZM142.916 21.8364H145.555V10.2355H142.916V21.8364ZM108.512 29.6045V28.2467H104.186V33.592H108.61V32.2316H105.95V31.5308H108.199V30.2306H105.95V29.6045H108.512ZM84.9316 28.2467H83.0026L85.2522 33.592H87.0152L89.2665 28.2467H87.5026L86.203 31.3694L84.9316 28.2467ZM98.3844 21.8373V10.2363H86.5475C85.6181 10.2363 84.829 10.5652 84.1791 11.2231C83.5242 11.875 83.1959 12.6676 83.1959 13.6012V21.8373H85.8498V13.584C85.8498 13.3925 85.9183 13.2302 86.0551 13.0902C86.1181 13.0237 86.1942 12.9711 86.2785 12.9356C86.3628 12.9001 86.4536 12.8826 86.545 12.8841H89.4777V21.8347H92.1154V12.8841H95.7296V21.8347H98.3844V21.8373ZM125.795 31.1633L127.817 33.592H129.292V28.2467H127.545V30.6763L125.523 28.2458H124.048V33.592H125.795V31.1633ZM141.331 21.8373V10.2363H132.054C131.124 10.2363 130.336 10.5652 129.686 11.2231C129.031 11.875 128.703 12.6676 128.703 13.6012V21.8373H131.357V13.584C131.357 13.3925 131.426 13.2302 131.562 13.0902C131.625 13.0237 131.701 12.9711 131.785 12.9356C131.869 12.9001 131.96 12.8826 132.052 12.8841H138.675V21.8347H141.331V21.8373ZM124.48 14.8448C124.48 15.0509 124.421 15.2175 124.299 15.3394C124.238 15.4021 124.165 15.4519 124.085 15.4861C124.004 15.5203 123.918 15.5382 123.831 15.5387H116.884V13.6132C116.884 13.5185 116.904 13.4249 116.942 13.3384C116.98 13.2518 117.036 13.1743 117.106 13.1108C117.168 13.0398 117.245 12.9832 117.331 12.9448C117.418 12.9064 117.511 12.8872 117.605 12.8884H124.48V14.8448ZM127.119 14.8448V10.2363H117.605C116.676 10.2363 115.887 10.5687 115.237 11.2394C114.577 11.9136 114.248 12.7037 114.248 13.6106V21.8399H116.886V18.195H122.409L124.342 21.8399H126.974L125.047 17.9726C125.459 17.8094 125.831 17.5569 126.163 17.2168C126.799 16.5684 127.119 15.7783 127.119 14.8448ZM46.5344 28.4434L0 72.4194L43.7812 25.678C44.8904 24.4933 45.5243 22.9384 45.5609 21.3125C45.5975 19.6867 45.0343 18.1046 43.9796 16.8707L29.5597 0L46.5558 14.6575C47.7452 15.6833 49.261 16.2472 50.8287 16.2472C52.3964 16.2472 53.9122 15.6833 55.1017 14.6575L72.0977 0L57.506 17.0726C56.4848 18.2673 55.9234 19.7899 55.9234 21.3645C55.9234 22.9392 56.4848 24.4618 57.506 25.6565L72.0977 42.7282L55.3026 28.2441C54.0746 27.1838 52.4994 26.6175 50.8804 26.6543C49.2615 26.6911 47.7134 27.3284 46.5344 28.4434Z" fill="#1A1A1A"/>
</svg>
