<svg width="230" height="73" viewBox="0 0 230 73" fill="none" xmlns="http://www.w3.org/2000/svg">
<path fill-rule="evenodd" clip-rule="evenodd" d="M147.853 33.592V29.6432H149.411V28.2467H144.502V29.644H146.06V33.5929L147.853 33.592ZM187.043 29.6363H187.696C187.939 29.6363 188.122 29.6912 188.243 29.7995C188.365 29.9102 188.424 30.064 188.424 30.2624C188.424 30.4625 188.364 30.6162 188.243 30.7244C188.122 30.8352 187.939 30.8876 187.696 30.8876H187.043V29.6363ZM187.043 32.2471H187.528L188.432 33.592H190.346L189.228 31.9431C189.535 31.7917 189.793 31.5566 189.974 31.2646C190.145 30.9778 190.232 30.6445 190.232 30.2624C190.232 29.8553 190.133 29.4997 189.935 29.1948C189.729 28.882 189.436 28.6371 189.092 28.4906C188.726 28.3292 188.299 28.2467 187.806 28.2467H185.25V33.5903H187.045V32.248H187.043V32.2471ZM164.501 28.2467V31.1865C164.501 31.9852 164.73 32.6078 165.184 33.0501C165.641 33.4915 166.276 33.7148 167.091 33.7148C167.905 33.7148 168.542 33.4933 168.997 33.0501C169.455 32.6087 169.681 31.9852 169.681 31.1865V28.2467H167.917V31.1324C167.917 31.524 167.848 31.8091 167.71 31.986C167.571 32.1655 167.368 32.2531 167.105 32.2531C166.842 32.2531 166.639 32.1655 166.501 31.9869C166.362 31.81 166.29 31.5231 166.29 31.1324V28.2467H164.501ZM159.767 21.8373V10.2363H150.489C149.559 10.2363 148.77 10.5652 148.12 11.2231C147.465 11.875 147.137 12.6676 147.137 13.6012V21.8373H149.791V13.584C149.791 13.3925 149.859 13.2302 149.996 13.0902C150.059 13.0238 150.135 12.9712 150.22 12.9357C150.304 12.9003 150.395 12.8827 150.486 12.8841H157.109V21.8347H159.767V21.8373ZM184.302 18.9491C184.23 19.025 184.143 19.0853 184.046 19.1262C183.95 19.1671 183.846 19.1878 183.741 19.187H175.154V21.8364H184.055C184.955 21.8364 185.736 21.5032 186.4 20.8333C187.038 20.1927 187.358 19.3888 187.358 18.4235L187.351 14.7864H177.623V13.6493C177.623 13.4784 177.711 13.3032 177.884 13.1237C177.956 13.0476 178.043 12.9871 178.139 12.946C178.236 12.905 178.34 12.8842 178.444 12.8849H187.349V10.2355H178.444C177.547 10.2355 176.765 10.5687 176.1 11.2386C175.459 11.8801 175.142 12.684 175.142 13.6493V17.2787H184.554V18.5119C184.53 18.6536 184.442 18.8005 184.302 18.9499V18.9491ZM227.034 14.8448C227.034 15.0509 226.974 15.2175 226.852 15.3394C226.791 15.4021 226.718 15.4519 226.638 15.4861C226.557 15.5203 226.471 15.5382 226.384 15.5387H219.437V13.6132C219.437 13.5185 219.457 13.4249 219.495 13.3384C219.533 13.2518 219.589 13.1743 219.659 13.1108C219.722 13.0399 219.799 12.9833 219.885 12.9449C219.971 12.9066 220.065 12.8873 220.159 12.8884H227.034V14.8448ZM229.673 14.8448V10.2363H220.159C219.229 10.2363 218.441 10.5687 217.791 11.2394C217.131 11.9136 216.801 12.7037 216.801 13.6106V21.8399H219.439V18.195H224.963L226.896 21.8399H229.527L227.6 17.9726C228.022 17.8029 228.402 17.5453 228.717 17.2168C229.352 16.5684 229.673 15.7783 229.673 14.8448ZM196.534 21.8373V12.8858H201.318V10.2363H188.942V12.8858H193.895V21.8373H196.534ZM228.05 32.2669C227.943 32.3158 227.766 32.339 227.517 32.339C227.228 32.339 226.927 32.2935 226.614 32.205C226.316 32.1231 226.03 32.0037 225.763 31.8495L225.185 33.1635C225.452 33.3301 225.796 33.4649 226.215 33.5637C226.633 33.6616 227.063 33.7123 227.503 33.7123C228.036 33.7123 228.488 33.6332 228.861 33.4718C229.233 33.3112 229.513 33.0956 229.699 32.8234C229.887 32.5528 229.981 32.248 229.981 31.913C229.981 31.5266 229.878 31.22 229.673 30.9949C229.468 30.7716 229.227 30.6085 228.946 30.5097C228.611 30.3969 228.269 30.3084 227.922 30.2452C227.605 30.1834 227.381 30.1284 227.245 30.0734C227.109 30.0202 227.039 29.9386 227.039 29.833C227.039 29.6097 227.269 29.4963 227.73 29.4963C228.196 29.4963 228.69 29.6294 229.211 29.8931L229.752 28.5877C229.46 28.4244 229.146 28.3071 228.82 28.2398C228.467 28.1602 228.106 28.1205 227.745 28.1213C227.212 28.1213 226.76 28.2012 226.387 28.3592C226.014 28.5181 225.735 28.7337 225.548 29.0068C225.362 29.276 225.264 29.5963 225.266 29.924C225.266 30.3113 225.366 30.6179 225.571 30.8438C225.773 31.0688 226.012 31.2328 226.284 31.3307C226.557 31.4286 226.9 31.5231 227.31 31.609C227.628 31.6777 227.857 31.7378 227.997 31.7919C228.136 31.8469 228.208 31.9311 228.208 32.0436C228.21 32.144 228.157 32.2188 228.05 32.2669ZM205.541 16.2446V13.5076C205.541 13.3444 205.609 13.1932 205.746 13.0541C205.868 12.9365 206.033 12.8789 206.245 12.8789H212.577V16.2446H205.54H205.541ZM215.215 21.8373V10.2363H206.245C205.342 10.2363 204.554 10.5764 203.877 11.2635C203.227 11.9162 202.902 12.7226 202.902 13.6836V21.8399H205.541V18.8941H212.577V21.8399H215.215V21.8373ZM209.984 29.6045V28.2467H205.657V33.592H210.081V32.2316H207.421V31.5308H209.671V30.2306H207.421V29.6045H209.984ZM173.558 16.0377H170.918V19.1973H163.985V13.6493C163.985 13.4475 164.062 13.2714 164.214 13.1237C164.368 12.9657 164.539 12.8858 164.728 12.8858H173.063V10.2363H164.728C163.805 10.2363 163.01 10.5695 162.344 11.2394C161.678 11.9067 161.346 12.7106 161.346 13.6501V21.8373H173.552V16.0377H173.557H173.558ZM104.122 19.1896V19.1973H103.313C103.108 19.1973 102.941 19.1389 102.815 19.0221C102.676 18.8778 102.608 18.7266 102.608 18.5669V13.5084C102.608 13.3496 102.678 13.1975 102.815 13.0533C102.941 12.9373 103.105 12.8789 103.314 12.8789H104.122V12.8858H110.024V18.5678C110.024 18.7266 109.956 18.8769 109.819 19.0221C109.692 19.1389 109.524 19.1973 109.319 19.1973H108.512V19.1887H104.121L104.122 19.1896ZM111.685 20.8127C112.335 20.16 112.66 19.3527 112.66 18.3926V10.2363H103.311C102.409 10.2363 101.619 10.5773 100.942 11.2635C100.292 11.9162 99.9674 12.7235 99.9674 13.6836V18.3951C99.9674 19.3553 100.292 20.1626 100.942 20.8153C101.618 21.4989 102.409 21.8425 103.311 21.8425H109.317C110.221 21.8373 111.011 21.4972 111.685 20.8119V20.8127ZM142.916 21.8364H145.554V10.2355H142.916V21.8364ZM108.512 29.6045V28.2467H104.185V33.592H108.61V32.2316H105.95V31.5308H108.199V30.2306H105.95V29.6045H108.512ZM84.9311 28.2467H83.0022L85.2517 33.592H87.0147L89.266 28.2467H87.5021L86.2025 31.3694L84.9311 28.2467ZM98.3839 21.8373V10.2363H86.5471C85.6177 10.2363 84.8285 10.5652 84.1787 11.2231C83.5237 11.875 83.1954 12.6676 83.1954 13.6012V21.8373H85.8494V13.584C85.8494 13.3925 85.9178 13.2302 86.0546 13.0902C86.1176 13.0237 86.1937 12.9711 86.278 12.9356C86.3624 12.9001 86.4531 12.8826 86.5445 12.8841H89.4772V21.8347H92.1149V12.8841H95.7291V21.8347H98.3839V21.8373ZM125.794 31.1633L127.816 33.592H129.291V28.2467H127.544V30.6763L125.522 28.2458H124.047V33.592H125.794V31.1633ZM141.331 21.8373V10.2363H132.054C131.123 10.2363 130.336 10.5652 129.685 11.2231C129.03 11.875 128.703 12.6676 128.703 13.6012V21.8373H131.356V13.584C131.356 13.3925 131.425 13.2302 131.561 13.0902C131.624 13.0237 131.7 12.9711 131.785 12.9356C131.869 12.9001 131.96 12.8826 132.051 12.8841H138.674V21.8347H141.331V21.8373ZM124.48 14.8448C124.48 15.0509 124.421 15.2175 124.299 15.3394C124.238 15.4021 124.165 15.4519 124.084 15.4861C124.004 15.5203 123.917 15.5382 123.83 15.5387H116.883V13.6132C116.883 13.5185 116.903 13.4249 116.941 13.3384C116.98 13.2518 117.036 13.1743 117.105 13.1108C117.168 13.0398 117.245 12.9832 117.331 12.9448C117.417 12.9064 117.51 12.8872 117.605 12.8884H124.48V14.8448ZM127.119 14.8448V10.2363H117.605C116.675 10.2363 115.886 10.5687 115.236 11.2394C114.576 11.9136 114.247 12.7037 114.247 13.6106V21.8399H116.886V18.195H122.408L124.341 21.8399H126.973L125.047 17.9726C125.458 17.8094 125.83 17.5569 126.163 17.2168C126.799 16.5684 127.119 15.7783 127.119 14.8448ZM46.5339 28.4434L-0.000488281 72.4194L43.7807 25.678C44.8899 24.4933 45.5238 22.9384 45.5604 21.3125C45.597 19.6867 45.0338 18.1046 43.9791 16.8707L29.5592 0L46.5553 14.6575C47.7447 15.6833 49.2606 16.2472 50.8282 16.2472C52.3959 16.2472 53.9117 15.6833 55.1012 14.6575L72.0972 0L57.5055 17.0726C56.4843 18.2673 55.9229 19.7899 55.9229 21.3645C55.9229 22.9392 56.4843 24.4618 57.5055 25.6565L72.0972 42.7282L55.3021 28.2441C54.0741 27.1838 52.4989 26.6175 50.88 26.6543C49.261 26.6911 47.7129 27.3284 46.5339 28.4434Z" fill="white"/>
</svg>
