<svg width="182" height="45" viewBox="0 0 182 45" fill="none" xmlns="http://www.w3.org/2000/svg">
<path fill-rule="evenodd" clip-rule="evenodd" d="M22.2502 44.2781C21.9382 43.6979 21.6378 43.11 21.3123 42.5394C20.3108 40.7738 19.2978 39.015 18.2173 37.1288C20.9772 37.8086 23.6301 37.8297 26.3987 37.1193C26.2417 37.4094 26.1454 37.5942 26.0424 37.7732C24.9022 39.7637 23.7601 41.7523 22.6219 43.7429C22.5256 43.9143 22.4544 44.099 22.3716 44.2781H22.2502ZM35.3976 22.1323C35.3995 29.2969 29.5504 35.1124 22.3359 35.1182C15.0848 35.1249 9.2223 29.3065 9.23 22.1141C9.2377 14.9591 15.1031 9.15415 22.3234 9.15798C29.5427 9.16085 35.3956 14.9697 35.3976 22.1314V22.1323ZM63.2349 20.8944C60.3778 20.8944 57.5197 20.8963 54.6626 20.8934C53.6756 20.8924 53.481 20.7 53.4762 19.7416C53.4743 19.259 53.4762 18.7746 53.4801 18.293C53.4839 17.7817 53.7593 17.5165 54.262 17.4763C54.4835 17.459 54.7079 17.4629 54.9293 17.4629L69.9467 17.4619L70.5553 17.461C72.9704 17.4466 73.085 16.1646 72.9107 14.5838C72.8337 13.9021 72.4042 13.4349 71.7301 13.276C71.2773 13.1723 70.8139 13.1209 70.3493 13.1228C66.6611 13.1113 62.972 13.1323 59.2829 13.1036C58.3777 13.0969 57.4552 13.027 56.5702 12.8441C54.5422 12.4229 53.4079 11.2107 53.2124 9.1666C53.1007 7.99468 53.1334 6.79213 53.2567 5.62021C53.4194 4.06819 54.3159 2.95277 55.8201 2.47979C56.7339 2.19255 57.72 2.00585 58.6772 1.99819C64.2094 1.95223 69.7416 1.97138 75.2738 1.97426C76.0895 1.97426 76.3321 2.21649 76.3476 3.01213C76.3628 3.51438 76.3612 4.017 76.3427 4.51915C76.3167 5.14149 76.0693 5.37415 75.4356 5.41149C75.2527 5.42298 75.0697 5.41532 74.8887 5.41532C69.9034 5.41532 64.9182 5.4134 59.9319 5.42011C59.4687 5.42011 58.995 5.42872 58.5443 5.52351C57.4407 5.75904 57.0565 6.40436 57.1076 7.81564C57.1461 8.91 57.615 9.48351 58.6512 9.65585C59.0287 9.71809 59.4167 9.74202 59.8 9.74394C63.4679 9.74968 67.1368 9.71904 70.8038 9.765C71.8669 9.7784 72.956 9.88947 73.9806 10.1566C75.6513 10.5894 76.6403 11.7641 76.8252 13.4694C76.9436 14.5637 76.9639 15.683 76.8772 16.7783C76.6942 19.102 75.3451 20.4185 72.8934 20.7546C72.1741 20.8522 71.4393 20.8838 70.7133 20.8886C68.2211 20.9049 65.728 20.8953 63.2349 20.8944ZM151.371 11.6071C151.371 10.3414 151.396 9.11777 151.364 7.89798C151.324 6.33255 150.417 5.44021 148.827 5.43064C145.203 5.41149 141.578 5.41149 137.952 5.43064C136.373 5.43926 135.466 6.32106 135.406 7.89702C135.362 9.04117 135.391 10.1882 135.394 11.3323C135.394 11.4262 135.438 11.5181 135.461 11.6071H151.371ZM135.388 15.1219V15.7835C135.388 17.1718 135.395 18.5601 135.382 19.9465C135.376 20.6483 135.128 20.881 134.419 20.8924C133.812 20.902 133.204 20.8972 132.596 20.8944C131.676 20.8886 131.47 20.6799 131.463 19.7416C131.459 19.1576 131.463 18.5754 131.463 17.9914C131.463 14.5944 131.459 11.1964 131.466 7.7984C131.467 7.31872 131.491 6.83426 131.553 6.35745C131.859 3.99447 133.377 2.44628 135.752 2.08915C136.293 2.01094 136.84 1.97285 137.387 1.97521C141.399 1.9666 145.41 1.9666 149.422 1.97138C153.436 1.97713 155.337 3.87862 155.338 7.87308C155.34 11.813 155.34 15.7529 155.338 19.6928C155.338 20.701 155.144 20.8915 154.135 20.8944C153.547 20.8963 152.958 20.902 152.371 20.8915C151.639 20.88 151.389 20.6378 151.383 19.9034C151.371 18.5362 151.379 17.1699 151.379 15.8017V15.1219H135.388ZM162.597 10.7464C162.825 10.7598 163.005 10.778 163.182 10.778C167.21 10.7789 171.237 10.7799 175.264 10.7751C175.608 10.7751 175.956 10.7674 176.293 10.71C177.336 10.529 177.842 9.9517 177.892 8.90042C177.911 8.44085 177.905 7.97649 177.897 7.515C177.873 6.20521 177.264 5.55511 175.955 5.44213C175.714 5.42106 175.469 5.42298 175.227 5.42298C171.241 5.42106 167.253 5.42298 163.267 5.42106H162.597V10.7464ZM162.569 14.3138C162.569 16.1138 162.571 17.9014 162.569 19.688C162.569 20.6962 162.374 20.8905 161.372 20.8944C160.766 20.8963 160.156 20.9039 159.549 20.8905C158.888 20.8752 158.645 20.632 158.605 19.9733C158.596 19.8536 158.6 19.7339 158.6 19.6123V3.27064C158.602 2.16383 158.793 1.97234 159.909 1.97138C165.175 1.97138 170.443 1.95894 175.707 1.98287C176.613 1.98766 177.537 2.06043 178.422 2.24426C180.491 2.67319 181.647 4.02511 181.781 6.11808C181.84 7.03723 181.844 7.96979 181.765 8.88798C181.634 10.4362 180.905 11.6301 179.427 12.2927C179.319 12.3405 179.222 12.4076 179.077 12.4899C179.157 12.5493 179.2 12.5962 179.255 12.6182C181.073 13.3851 181.77 14.85 181.815 16.7027C181.84 17.7874 181.838 18.8732 181.822 19.958C181.811 20.654 181.56 20.88 180.843 20.8915C180.177 20.902 179.508 20.903 178.839 20.8915C178.174 20.8771 177.916 20.6311 177.905 19.9752C177.89 18.9699 177.907 17.9646 177.899 16.9593C177.879 15.2148 177.076 14.2803 175.334 14.2593C171.143 14.2037 166.949 14.2401 162.757 14.2401C162.721 14.2401 162.684 14.2688 162.569 14.3138ZM91.6702 5.42202C89.8271 5.42202 87.984 5.41436 86.1409 5.42489C84.318 5.43447 83.4215 6.32298 83.4099 8.14404C83.3964 10.3529 83.3955 12.5646 83.4109 14.7753C83.4234 16.5466 84.3315 17.4514 86.1226 17.4562C89.8088 17.4705 93.496 17.4696 97.1822 17.4562C98.9859 17.4514 99.8833 16.5926 99.9113 14.7935C99.9459 12.5627 99.945 10.3318 99.9122 8.10096C99.8843 6.26936 98.9907 5.4316 97.1399 5.42394C95.316 5.41628 93.4941 5.42202 91.6702 5.42202ZM91.6461 20.8944C89.519 20.8944 87.3918 20.8991 85.2646 20.8896C84.7788 20.8926 84.2934 20.8599 83.8124 20.7919C81.2423 20.3955 79.6467 18.7497 79.5379 16.1569C79.4281 13.5067 79.4801 10.8517 79.4849 8.19766C79.4859 7.45851 79.5042 6.70404 79.6409 5.98021C80.0473 3.81638 81.4705 2.46447 83.6613 2.09872C84.161 2.01715 84.6666 1.97617 85.1731 1.97617C89.4872 1.96755 93.8032 1.97043 98.1182 1.97426C98.462 1.97426 98.8077 1.99149 99.1496 2.02979C102.012 2.35053 103.736 4.095 103.815 6.96064C103.903 9.95491 103.902 12.9511 103.812 15.9453C103.719 18.9488 101.754 20.7651 98.696 20.8829C98.6151 20.8857 98.5342 20.8886 98.4533 20.8886C96.1836 20.8905 93.9149 20.8905 91.6461 20.8905V20.8944ZM120.074 20.8944C117.642 20.8944 115.211 20.902 112.778 20.8896C112.232 20.8916 111.686 20.8532 111.145 20.7747C108.81 20.4099 107.337 18.9172 107.001 16.5935C106.941 16.1957 106.909 15.7942 106.906 15.3919C106.899 11.3094 106.899 7.22872 106.903 3.14617C106.903 2.18777 107.122 1.97809 108.086 1.97138C108.573 1.96851 109.059 1.97043 109.545 1.97138C110.644 1.9733 110.827 2.14947 110.828 3.22085V13.3554C110.828 13.7978 110.825 14.2411 110.831 14.6834C110.861 16.5791 111.738 17.4562 113.641 17.459C118.343 17.4667 123.045 17.4619 127.749 17.4619C127.951 17.4619 128.153 17.4571 128.355 17.4648C129.092 17.4897 129.321 17.7166 129.342 18.4624C129.356 18.9239 129.355 19.3873 129.343 19.8498C129.324 20.6655 129.101 20.8905 128.281 20.8924C125.546 20.8972 122.81 20.8944 120.074 20.8944ZM55.795 35.2436H66.3992C67.2283 35.2446 67.3333 35.3528 67.3381 36.1905V36.3724C67.3381 37.4649 67.2996 37.5061 66.2239 37.5061H55.7199C55.7199 37.8804 55.7161 38.1763 55.7199 38.4721C55.7344 39.8863 56.2977 40.4512 57.7142 40.4531C61.0567 40.4579 64.4001 40.454 67.7416 40.456C68.7276 40.456 68.8124 40.5421 68.8143 41.5216V41.8835C68.8066 42.6744 68.6891 42.7988 67.8995 42.7998C65.2051 42.8027 62.5117 42.8017 59.8173 42.8007C58.8043 42.8007 57.7903 42.8141 56.7782 42.795C54.4209 42.749 53.1353 41.49 53.0959 39.151C53.065 37.3019 53.065 35.4525 53.0959 33.6035C53.1344 31.2836 54.3901 29.9911 56.7137 29.9652C60.4818 29.924 64.2499 29.9566 68.0189 29.948C68.5813 29.9461 68.8133 30.1816 68.8201 30.7455C68.8413 32.2851 68.8557 32.2851 67.3178 32.2851C64.2778 32.2851 61.2377 32.3282 58.2005 32.2688C56.4094 32.2334 55.4339 32.6614 55.795 35.2436ZM168.484 40.4138C168.69 40.4282 168.865 40.4531 169.041 40.4531C171.654 40.456 174.265 40.4646 176.878 40.4502C178.485 40.4416 179.245 39.6747 179.264 38.0633C179.279 36.9776 179.273 35.8928 179.267 34.808C179.257 33.0128 178.518 32.2669 176.724 32.2612C174.172 32.2545 171.62 32.2583 169.068 32.2612C168.876 32.2621 168.682 32.2909 168.484 32.3062V40.4129V40.4138ZM172.32 29.9269C173.981 29.9269 175.643 29.9221 177.304 29.9307C177.707 29.9327 178.115 29.947 178.514 30.0083C180.55 30.3185 181.779 31.5641 181.874 33.5968C181.961 35.4418 181.97 37.2973 181.871 39.1414C181.75 41.4297 180.201 42.7605 177.713 42.7864C174.473 42.8228 171.231 42.7988 167.989 42.7998C167.524 42.8007 167.058 42.7883 166.592 42.8027C166.061 42.818 165.814 42.5959 165.815 42.052C165.822 38.2529 165.822 34.4537 165.815 30.6555C165.814 30.1002 166.087 29.9202 166.608 29.9231C168.512 29.9346 170.417 29.9279 172.32 29.9269ZM95.9978 40.454C97.2516 40.454 98.5053 40.4655 99.7591 40.4502C100.935 40.4359 101.536 39.8825 101.561 38.7211C101.595 37.1566 101.594 35.5902 101.563 34.0248C101.54 32.8567 100.947 32.2755 99.7841 32.2669C97.2551 32.2497 94.726 32.2497 92.197 32.2669C91.0077 32.2746 90.4039 32.8749 90.3866 34.0602C90.3628 35.586 90.3622 37.112 90.3847 38.6378C90.401 39.8585 91.0039 40.4387 92.2336 40.4512C93.4883 40.4646 94.7421 40.454 95.9968 40.454H95.9978ZM95.966 29.9279C97.4239 29.9279 98.8838 29.9202 100.342 29.9288C102.906 29.9451 104.204 31.2281 104.216 33.7548C104.225 35.504 104.225 37.2523 104.216 39.0016C104.202 41.4641 102.907 42.7768 100.428 42.7931C97.4509 42.8141 94.4725 42.8161 91.494 42.7931C89.0722 42.7759 87.7837 41.4938 87.7519 39.0878C87.7279 37.259 87.725 35.4303 87.7529 33.6016C87.7914 31.2271 89.0818 29.9681 91.468 29.9288H95.966V29.9279ZM79.5802 42.8007C77.8787 42.8007 76.1771 42.8074 74.4765 42.7988C71.8351 42.7873 70.5467 41.5187 70.5332 38.9145C70.5255 37.1872 70.5226 35.4581 70.5332 33.7289C70.5524 31.23 71.8524 29.9374 74.3744 29.9317C77.9384 29.9193 81.5033 29.9269 85.0691 29.9288C85.8607 29.9288 85.9801 30.0514 85.9897 30.8374C86.009 32.2602 86.009 32.2602 84.5472 32.2602C81.4474 32.2602 78.3486 32.2583 75.2498 32.2602C73.7408 32.2631 73.191 32.806 73.1861 34.2929C73.1813 35.7195 73.1784 37.1461 73.1881 38.5727C73.1977 39.8738 73.7774 40.4493 75.0899 40.4531C78.3524 40.4607 81.6121 40.456 84.8736 40.456C85.9059 40.456 85.9868 40.5383 85.9887 41.5446C85.9897 41.6244 85.9897 41.7042 85.9887 41.7839C85.9849 42.7002 85.8886 42.7988 84.9882 42.8007C83.1856 42.8027 81.3829 42.8007 79.5802 42.8007ZM137.346 42.7998C135.949 42.7998 134.552 42.8142 133.154 42.796C130.706 42.7663 129.397 41.4709 129.382 39.0495C129.366 36.2959 129.376 33.5422 129.38 30.7886C129.38 30.0418 129.501 29.9336 130.275 29.9288C130.581 29.926 130.884 29.925 131.187 29.9288C131.897 29.9365 132.03 30.0657 132.03 30.7877C132.034 33.3201 132.03 35.8516 132.033 38.385C132.035 39.9313 132.56 40.4531 134.108 40.455C136.316 40.4579 138.524 40.4598 140.732 40.455C142.144 40.4512 142.716 39.8891 142.722 38.4702C142.731 35.9177 142.722 33.3651 142.727 30.8126C142.727 30.0332 142.83 29.9346 143.593 29.9288C143.919 29.926 144.244 29.9432 144.566 29.925C145.141 29.8915 145.373 30.151 145.368 30.712C145.353 32.1597 145.363 33.6064 145.363 35.0531C145.363 36.2997 145.366 37.5463 145.363 38.791C145.356 41.5503 144.096 42.7931 141.297 42.8007C139.98 42.8036 138.663 42.8007 137.346 42.7998ZM155.561 29.9298C156.978 29.9279 158.396 29.9154 159.814 29.9307C162.222 29.9556 163.543 31.2587 163.557 33.6399C163.572 36.4127 163.563 39.1864 163.56 41.9601C163.559 42.6724 163.429 42.7979 162.701 42.7988C160.782 42.7998 160.92 42.9779 160.922 41.0591C160.922 38.8283 160.926 36.5974 160.92 34.3676C160.917 32.7878 160.385 32.2631 158.804 32.2612C156.637 32.2583 154.47 32.2583 152.303 32.2612C150.769 32.2631 150.23 32.8021 150.227 34.3446C150.221 36.856 150.227 39.3683 150.223 41.8806C150.223 42.6791 150.106 42.7969 149.318 42.7998C147.409 42.8046 147.589 42.9367 147.588 41.0783C147.587 38.6665 147.576 36.2547 147.596 33.8429C147.6 33.3067 147.648 32.7514 147.795 32.2372C148.202 30.7934 149.393 29.9968 151.125 29.9336C151.185 29.9307 151.247 29.9288 151.307 29.9288H155.561V29.9298ZM115.063 35.392H115.885L125.489 35.393C126.364 35.393 126.469 35.5002 126.476 36.3638C126.486 37.7291 126.486 37.7291 125.101 37.7291H115.062C115.062 38.9068 115.06 40.027 115.063 41.1472C115.067 42.9319 115.189 42.8055 113.381 42.7998C112.528 42.7969 112.433 42.7079 112.432 41.8691C112.43 39.1749 112.434 36.4806 112.43 33.7864C112.43 32.8624 112.569 31.9787 113.14 31.2176C113.797 30.3415 114.744 29.9643 115.789 29.9537C119.616 29.9164 123.447 29.9327 127.277 29.9288C127.729 29.9288 127.92 30.15 127.945 30.5971C128.039 32.2382 128.027 32.2602 126.387 32.2602H117.268C115.581 32.2602 115.066 32.7782 115.063 34.4671V35.392ZM18.2077 7.16074L22.2521 0L26.2927 7.155C23.5685 6.46277 20.9676 6.45223 18.2077 7.16074ZM37.5257 18.1781C39.9524 19.552 42.2317 20.8398 44.6285 22.1974C42.2423 23.5474 39.9543 24.8438 37.5401 26.2111C38.2171 23.5091 38.2566 20.9164 37.5257 18.1781ZM7.09704 26.213L0 22.2013C2.39007 20.8474 4.67807 19.553 7.08259 18.1934C6.40178 20.8953 6.37867 23.49 7.09704 26.213ZM38.0197 6.55564L35.8935 14.3301C34.4327 11.9509 32.6098 10.1183 30.1754 8.66872L38.0197 6.55564ZM38.0197 37.7215L30.185 35.6285C32.5924 34.1703 34.4644 32.3598 35.9108 29.9365L38.0197 37.7205V37.7215ZM6.60881 37.7224C7.31948 35.0943 7.99356 32.6039 8.71578 29.9403C10.1544 32.3368 12.0091 34.1607 14.4512 35.6247L6.60881 37.7215V37.7224ZM14.4502 8.65532C12.0236 10.1106 10.1881 11.9183 8.73407 14.333L6.60785 6.55851C9.24444 7.26415 11.7636 7.93723 14.4502 8.65436" fill="black"/>
</svg>
