<svg width="182" height="45" viewBox="0 0 182 45" fill="none" xmlns="http://www.w3.org/2000/svg">
<path fill-rule="evenodd" clip-rule="evenodd" d="M22.2497 44.2781C21.9377 43.6979 21.6373 43.11 21.3118 42.5394C20.3103 40.7738 19.2973 39.015 18.2168 37.1288C20.9767 37.8086 23.6297 37.8297 26.3982 37.1193C26.2412 37.4094 26.1449 37.5942 26.0419 37.7732C24.9017 39.7637 23.7597 41.7523 22.6214 43.7429C22.5251 43.9143 22.4539 44.099 22.3711 44.2781H22.2497ZM35.3971 22.1323C35.399 29.2969 29.55 35.1124 22.3354 35.1182C15.0843 35.1249 9.22181 29.3065 9.22951 22.1141C9.23722 14.9591 15.1026 9.15415 22.3229 9.15798C29.5423 9.16085 35.3951 14.9697 35.3971 22.1314V22.1323ZM63.2344 20.8944C60.3773 20.8944 57.5192 20.8963 54.6621 20.8934C53.6751 20.8924 53.4806 20.7 53.4757 19.7416C53.4738 19.259 53.4757 18.7746 53.4796 18.293C53.4834 17.7817 53.7588 17.5165 54.2615 17.4763C54.483 17.459 54.7074 17.4629 54.9288 17.4629L69.9463 17.4619L70.5548 17.461C72.97 17.4466 73.0845 16.1646 72.9102 14.5838C72.8332 13.9021 72.4037 13.4349 71.7297 13.276C71.2768 13.1723 70.8135 13.1209 70.3488 13.1228C66.6606 13.1113 62.9715 13.1323 59.2824 13.1036C58.3772 13.0969 57.4547 13.027 56.5697 12.8441C54.5417 12.4229 53.4074 11.2107 53.2119 9.1666C53.1002 7.99468 53.1329 6.79213 53.2562 5.62021C53.4189 4.06819 54.3154 2.95277 55.8196 2.47979C56.7334 2.19255 57.7195 2.00585 58.6767 1.99819C64.2089 1.95223 69.7411 1.97138 75.2734 1.97426C76.089 1.97426 76.3317 2.21649 76.3471 3.01213C76.3623 3.51438 76.3607 4.017 76.3423 4.51915C76.3163 5.14149 76.0688 5.37415 75.4351 5.41149C75.2522 5.42298 75.0692 5.41532 74.8882 5.41532C69.9029 5.41532 64.9177 5.4134 59.9314 5.42011C59.4683 5.42011 58.9945 5.42872 58.5438 5.52351C57.4403 5.75904 57.056 6.40436 57.1071 7.81564C57.1456 8.91 57.6146 9.48351 58.6507 9.65585C59.0282 9.71809 59.4163 9.74202 59.7995 9.74394C63.4674 9.74968 67.1363 9.71904 70.8033 9.765C71.8664 9.7784 72.9555 9.88947 73.9801 10.1566C75.6508 10.5894 76.6398 11.7641 76.8247 13.4694C76.9431 14.5637 76.9634 15.683 76.8767 16.7783C76.6937 19.102 75.3446 20.4185 72.8929 20.7546C72.1736 20.8522 71.4388 20.8838 70.7128 20.8886C68.2206 20.9049 65.7275 20.8953 63.2344 20.8944ZM151.371 11.6071C151.371 10.3414 151.396 9.11777 151.364 7.89798C151.323 6.33255 150.416 5.44021 148.826 5.43064C145.203 5.41149 141.577 5.41149 137.952 5.43064C136.372 5.43926 135.465 6.32106 135.406 7.89702C135.361 9.04117 135.39 10.1882 135.393 11.3323C135.393 11.4262 135.437 11.5181 135.46 11.6071H151.371ZM135.387 15.1219V15.7835C135.387 17.1718 135.395 18.5601 135.382 19.9465C135.376 20.6483 135.127 20.881 134.419 20.8924C133.812 20.902 133.203 20.8972 132.596 20.8944C131.675 20.8886 131.47 20.6799 131.462 19.7416C131.458 19.1576 131.462 18.5754 131.462 17.9914C131.462 14.5944 131.458 11.1964 131.465 7.7984C131.466 7.31872 131.49 6.83426 131.553 6.35745C131.858 3.99447 133.377 2.44628 135.751 2.08915C136.293 2.01094 136.839 1.97285 137.386 1.97521C141.398 1.9666 145.41 1.9666 149.422 1.97138C153.435 1.97713 155.337 3.87862 155.338 7.87308C155.34 11.813 155.34 15.7529 155.338 19.6928C155.338 20.701 155.143 20.8915 154.134 20.8944C153.547 20.8963 152.958 20.902 152.37 20.8915C151.638 20.88 151.389 20.6378 151.382 19.9034C151.371 18.5362 151.378 17.1699 151.378 15.8017V15.1219H135.387ZM162.597 10.7464C162.825 10.7598 163.004 10.778 163.181 10.778C167.209 10.7789 171.236 10.7799 175.264 10.7751C175.607 10.7751 175.956 10.7674 176.293 10.71C177.336 10.529 177.841 9.9517 177.892 8.90042C177.911 8.44085 177.904 7.97649 177.896 7.515C177.872 6.20521 177.264 5.55511 175.954 5.44213C175.713 5.42106 175.469 5.42298 175.226 5.42298C171.24 5.42106 167.253 5.42298 163.266 5.42106H162.597V10.7464ZM162.569 14.3138C162.569 16.1138 162.571 17.9014 162.569 19.688C162.569 20.6962 162.373 20.8905 161.372 20.8944C160.765 20.8963 160.156 20.9039 159.548 20.8905C158.887 20.8752 158.645 20.632 158.604 19.9733C158.596 19.8536 158.6 19.7339 158.6 19.6123V3.27064C158.601 2.16383 158.792 1.97234 159.908 1.97138C165.175 1.97138 170.442 1.95894 175.707 1.98287C176.613 1.98766 177.536 2.06043 178.421 2.24426C180.491 2.67319 181.646 4.02511 181.781 6.11808C181.84 7.03723 181.844 7.96979 181.765 8.88798C181.634 10.4362 180.905 11.6301 179.426 12.2927C179.319 12.3405 179.221 12.4076 179.077 12.4899C179.157 12.5493 179.199 12.5962 179.254 12.6182C181.072 13.3851 181.769 14.85 181.815 16.7027C181.84 17.7874 181.838 18.8732 181.821 19.958C181.811 20.654 181.559 20.88 180.843 20.8915C180.177 20.902 179.507 20.903 178.838 20.8915C178.174 20.8771 177.916 20.6311 177.905 19.9752C177.89 18.9699 177.907 17.9646 177.898 16.9593C177.879 15.2148 177.076 14.2803 175.334 14.2593C171.142 14.2037 166.948 14.2401 162.757 14.2401C162.72 14.2401 162.683 14.2688 162.569 14.3138ZM91.6697 5.42202C89.8266 5.42202 87.9835 5.41436 86.1404 5.42489C84.3175 5.43447 83.421 6.32298 83.4094 8.14404C83.396 10.3529 83.395 12.5646 83.4104 14.7753C83.4229 16.5466 84.331 17.4514 86.1221 17.4562C89.8083 17.4705 93.4955 17.4696 97.1817 17.4562C98.9854 17.4514 99.8828 16.5926 99.9108 14.7935C99.9454 12.5627 99.9445 10.3318 99.9117 8.10096C99.8838 6.26936 98.9902 5.4316 97.1394 5.42394C95.3155 5.41628 93.4936 5.42202 91.6697 5.42202ZM91.6457 20.8944C89.5185 20.8944 87.3913 20.8991 85.2641 20.8896C84.7783 20.8926 84.2929 20.8599 83.812 20.7919C81.2418 20.3955 79.6462 18.7497 79.5374 16.1569C79.4276 13.5067 79.4796 10.8517 79.4844 8.19766C79.4854 7.45851 79.5037 6.70404 79.6404 5.98021C80.0468 3.81638 81.47 2.46447 83.6608 2.09872C84.1605 2.01715 84.6662 1.97617 85.1726 1.97617C89.4867 1.96755 93.8027 1.97043 98.1177 1.97426C98.4615 1.97426 98.8072 1.99149 99.1491 2.02979C102.012 2.35053 103.736 4.095 103.815 6.96064C103.903 9.95491 103.902 12.9511 103.812 15.9453C103.718 18.9488 101.754 20.7651 98.6955 20.8829C98.6146 20.8857 98.5337 20.8886 98.4528 20.8886C96.1831 20.8905 93.9144 20.8905 91.6457 20.8905V20.8944ZM120.073 20.8944C117.642 20.8944 115.21 20.902 112.778 20.8896C112.231 20.8916 111.685 20.8532 111.145 20.7747C108.81 20.4099 107.336 18.9172 107 16.5935C106.94 16.1957 106.909 15.7942 106.906 15.3919C106.899 11.3094 106.899 7.22872 106.903 3.14617C106.903 2.18777 107.121 1.97809 108.085 1.97138C108.573 1.96851 109.059 1.97043 109.544 1.97138C110.644 1.9733 110.827 2.14947 110.828 3.22085V13.3554C110.828 13.7978 110.824 14.2411 110.831 14.6834C110.861 16.5791 111.738 17.4562 113.641 17.459C118.343 17.4667 123.045 17.4619 127.748 17.4619C127.95 17.4619 128.153 17.4571 128.355 17.4648C129.091 17.4897 129.321 17.7166 129.342 18.4624C129.355 18.9239 129.354 19.3873 129.343 19.8498C129.324 20.6655 129.1 20.8905 128.281 20.8924C125.546 20.8972 122.809 20.8944 120.073 20.8944ZM55.7946 35.2436H66.3987C67.2278 35.2446 67.3328 35.3528 67.3376 36.1905V36.3724C67.3376 37.4649 67.2991 37.5061 66.2234 37.5061H55.7194C55.7194 37.8804 55.7156 38.1763 55.7194 38.4721C55.7339 39.8863 56.2972 40.4512 57.7137 40.4531C61.0562 40.4579 64.3996 40.454 67.7411 40.456C68.7271 40.456 68.8119 40.5421 68.8138 41.5216V41.8835C68.8061 42.6744 68.6886 42.7988 67.899 42.7998C65.2046 42.8027 62.5112 42.8017 59.8168 42.8007C58.8038 42.8007 57.7898 42.8141 56.7777 42.795C54.4204 42.749 53.1348 41.49 53.0954 39.151C53.0646 37.3019 53.0646 35.4525 53.0954 33.6035C53.1339 31.2836 54.3896 29.9911 56.7132 29.9652C60.4813 29.924 64.2494 29.9566 68.0184 29.948C68.5808 29.9461 68.8129 30.1816 68.8196 30.7455C68.8408 32.2851 68.8552 32.2851 67.3174 32.2851C64.2773 32.2851 61.2372 32.3282 58.2 32.2688C56.4089 32.2334 55.4334 32.6614 55.7946 35.2436ZM168.483 40.4138C168.689 40.4282 168.865 40.4531 169.041 40.4531C171.653 40.456 174.265 40.4646 176.878 40.4502C178.485 40.4416 179.244 39.6747 179.264 38.0633C179.278 36.9776 179.272 35.8928 179.267 34.808C179.257 33.0128 178.517 32.2669 176.723 32.2612C174.172 32.2545 171.62 32.2583 169.068 32.2612C168.875 32.2621 168.682 32.2909 168.483 32.3062V40.4129V40.4138ZM172.32 29.9269C173.981 29.9269 175.642 29.9221 177.303 29.9307C177.707 29.9327 178.115 29.947 178.514 30.0083C180.549 30.3185 181.778 31.5641 181.873 33.5968C181.96 35.4418 181.97 37.2973 181.87 39.1414C181.749 41.4297 180.201 42.7605 177.712 42.7864C174.472 42.8228 171.231 42.7988 167.988 42.7998C167.523 42.8007 167.057 42.7883 166.591 42.8027C166.061 42.818 165.813 42.5959 165.814 42.052C165.822 38.2529 165.822 34.4537 165.814 30.6555C165.813 30.1002 166.087 29.9202 166.608 29.9231C168.511 29.9346 170.416 29.9279 172.32 29.9269ZM95.9973 40.454C97.2511 40.454 98.5048 40.4655 99.7586 40.4502C100.934 40.4359 101.535 39.8825 101.56 38.7211C101.595 37.1566 101.593 35.5902 101.562 34.0248C101.539 32.8567 100.947 32.2755 99.7837 32.2669C97.2546 32.2497 94.7255 32.2497 92.1965 32.2669C91.0072 32.2746 90.4034 32.8749 90.3861 34.0602C90.3624 35.586 90.3617 37.112 90.3842 38.6378C90.4006 39.8585 91.0034 40.4387 92.2331 40.4512C93.4878 40.4646 94.7416 40.454 95.9963 40.454H95.9973ZM95.9655 29.9279C97.4234 29.9279 98.8833 29.9202 100.341 29.9288C102.906 29.9451 104.204 31.2281 104.215 33.7548C104.225 35.504 104.225 37.2523 104.215 39.0016C104.202 41.4641 102.907 42.7768 100.428 42.7931C97.4504 42.8141 94.472 42.8161 91.4935 42.7931C89.0717 42.7759 87.7832 41.4938 87.7514 39.0878C87.7274 37.259 87.7245 35.4303 87.7524 33.6016C87.7909 31.2271 89.0813 29.9681 91.4675 29.9288H95.9655V29.9279ZM79.5797 42.8007C77.8782 42.8007 76.1766 42.8074 74.476 42.7988C71.8346 42.7873 70.5462 41.5187 70.5327 38.9145C70.525 37.1872 70.5221 35.4581 70.5327 33.7289C70.552 31.23 71.852 29.9374 74.374 29.9317C77.9379 29.9193 81.5028 29.9269 85.0686 29.9288C85.8602 29.9288 85.9796 30.0514 85.9892 30.8374C86.0085 32.2602 86.0085 32.2602 84.5467 32.2602C81.4469 32.2602 78.3481 32.2583 75.2493 32.2602C73.7403 32.2631 73.1905 32.806 73.1857 34.2929C73.1808 35.7195 73.178 37.1461 73.1876 38.5727C73.1972 39.8738 73.7769 40.4493 75.0894 40.4531C78.352 40.4607 81.6116 40.456 84.8731 40.456C85.9054 40.456 85.9863 40.5383 85.9883 41.5446C85.9892 41.6244 85.9892 41.7042 85.9883 41.7839C85.9844 42.7002 85.8881 42.7988 84.9877 42.8007C83.1851 42.8027 81.3824 42.8007 79.5797 42.8007ZM137.346 42.7998C135.949 42.7998 134.551 42.8142 133.153 42.796C130.705 42.7663 129.397 41.4709 129.381 39.0495C129.366 36.2959 129.376 33.5422 129.379 30.7886C129.379 30.0418 129.501 29.9336 130.275 29.9288C130.58 29.926 130.884 29.925 131.187 29.9288C131.897 29.9365 132.029 30.0657 132.029 30.7877C132.033 33.3201 132.029 35.8516 132.032 38.385C132.034 39.9313 132.559 40.4531 134.108 40.455C136.316 40.4579 138.524 40.4598 140.732 40.455C142.143 40.4512 142.715 39.8891 142.721 38.4702C142.731 35.9177 142.721 33.3651 142.726 30.8126C142.726 30.0332 142.829 29.9346 143.593 29.9288C143.918 29.926 144.244 29.9432 144.565 29.925C145.14 29.8915 145.372 30.151 145.367 30.712C145.353 32.1597 145.363 33.6064 145.363 35.0531C145.363 36.2997 145.366 37.5463 145.363 38.791C145.356 41.5503 144.095 42.7931 141.297 42.8007C139.98 42.8036 138.662 42.8007 137.346 42.7998ZM155.56 29.9298C156.978 29.9279 158.395 29.9154 159.814 29.9307C162.221 29.9556 163.542 31.2587 163.557 33.6399C163.571 36.4127 163.563 39.1864 163.56 41.9601C163.559 42.6724 163.429 42.7979 162.701 42.7988C160.782 42.7998 160.919 42.9779 160.921 41.0591C160.921 38.8283 160.925 36.5974 160.919 34.3676C160.916 32.7878 160.385 32.2631 158.804 32.2612C156.637 32.2583 154.469 32.2583 152.303 32.2612C150.769 32.2631 150.229 32.8021 150.227 34.3446C150.221 36.856 150.227 39.3683 150.223 41.8806C150.223 42.6791 150.105 42.7969 149.318 42.7998C147.409 42.8046 147.588 42.9367 147.587 41.0783C147.586 38.6665 147.576 36.2547 147.596 33.8429C147.6 33.3067 147.648 32.7514 147.794 32.2372C148.201 30.7934 149.393 29.9968 151.125 29.9336C151.185 29.9307 151.246 29.9288 151.307 29.9288H155.56V29.9298ZM115.062 35.392H115.884L125.489 35.393C126.363 35.393 126.468 35.5002 126.475 36.3638C126.486 37.7291 126.486 37.7291 125.101 37.7291H115.061C115.061 38.9068 115.059 40.027 115.062 41.1472C115.067 42.9319 115.188 42.8055 113.381 42.7998C112.528 42.7969 112.432 42.7079 112.431 41.8691C112.429 39.1749 112.433 36.4806 112.429 33.7864C112.429 32.8624 112.569 31.9787 113.14 31.2176C113.797 30.3415 114.743 29.9643 115.788 29.9537C119.616 29.9164 123.447 29.9327 127.276 29.9288C127.729 29.9288 127.92 30.15 127.945 30.5971C128.039 32.2382 128.026 32.2602 126.386 32.2602H117.267C115.58 32.2602 115.066 32.7782 115.062 34.4671V35.392ZM18.2072 7.16074L22.2517 0L26.2923 7.155C23.568 6.46277 20.9671 6.45223 18.2072 7.16074ZM37.5252 18.1781C39.9519 19.552 42.2312 20.8398 44.628 22.1974C42.2418 23.5474 39.9538 24.8438 37.5397 26.2111C38.2166 23.5091 38.2561 20.9164 37.5252 18.1781ZM7.09655 26.213L-0.000488281 22.2013C2.38959 20.8474 4.67759 19.553 7.0821 18.1934C6.40129 20.8953 6.37818 23.49 7.09655 26.213ZM38.0192 6.55564L35.893 14.3301C34.4322 11.9509 32.6093 10.1183 30.1749 8.66872L38.0192 6.55564ZM38.0192 37.7215L30.1845 35.6285C32.592 34.1703 34.464 32.3598 35.9103 29.9365L38.0192 37.7205V37.7215ZM6.60833 37.7224C7.31899 35.0943 7.99307 32.6039 8.71529 29.9403C10.154 32.3368 12.0086 34.1607 14.4507 35.6247L6.60833 37.7215V37.7224ZM14.4497 8.65532C12.0231 10.1106 10.1877 11.9183 8.73359 14.333L6.60736 6.55851C9.24396 7.26415 11.7631 7.93723 14.4497 8.65436" fill="white"/>
</svg>
