<svg width="190" height="39" viewBox="0 0 190 39" fill="none" xmlns="http://www.w3.org/2000/svg">
<path fill-rule="evenodd" clip-rule="evenodd" d="M154.216 9.69807C151.178 9.69807 148.466 10.9461 146.513 13.0061L132.409 26.2961C131.107 27.4901 129.48 28.1411 127.799 28.0861H127.473C123.73 27.8161 120.693 24.7231 120.423 20.9801C120.259 18.8101 121.018 16.7501 122.483 15.1761C123.947 13.6031 125.954 12.7361 128.123 12.7361C129.914 12.7361 131.704 13.3861 133.061 14.5261C133.711 15.0671 134.687 15.0131 135.231 14.3631C135.773 13.7121 135.719 12.7351 135.067 12.1931C133.114 10.5661 130.674 9.64307 128.124 9.64307C125.14 9.64307 122.32 10.8911 120.259 13.0611C118.198 15.2851 117.166 18.1061 117.384 21.1431C117.764 26.4051 121.995 30.6901 127.256 31.0701H128.016C130.348 31.0701 132.736 30.0941 134.525 28.4121L143.585 19.8961V20.3291C143.585 26.2421 148.411 31.0701 154.325 31.0701C156.223 31.0701 158.121 30.5811 159.749 29.6051C160.097 29.3928 160.349 29.0529 160.45 28.6578C160.551 28.2627 160.494 27.8437 160.291 27.4901C160.079 27.1414 159.739 26.8895 159.344 26.788C158.949 26.6865 158.53 26.7436 158.176 26.9471C156.982 27.6531 155.68 27.9771 154.269 27.9771C150.039 27.9771 146.567 24.5601 146.567 20.2751C146.567 18.2681 147.381 16.4241 148.629 15.0131L148.846 14.7971L148.954 14.6881C150.373 13.336 152.256 12.5791 154.216 12.5731C155.228 12.5724 156.229 12.7712 157.164 13.158C158.099 13.5448 158.948 14.1121 159.664 14.8275C160.379 15.5428 160.946 16.3921 161.333 17.3269C161.72 18.2616 161.919 19.2634 161.918 20.2751V29.4961C161.918 30.3641 162.623 31.0161 163.437 31.0161C164.305 31.0161 164.956 30.3101 164.956 29.4961V20.2761C164.956 14.5261 160.129 9.69807 154.216 9.69807Z" fill="black"/>
<mask id="mask0_2_916" style="mask-type:alpha" maskUnits="userSpaceOnUse" x="169" y="9" width="21" height="30">
<path d="M169.35 9.69702H189.908V38.935H169.35V9.69702Z" fill="white"/>
</mask>
<g mask="url(#mask0_2_916)">
<path fill-rule="evenodd" clip-rule="evenodd" d="M179.168 28.086C177.189 28.095 175.284 27.3369 173.853 25.971C173.272 25.3952 172.778 24.7372 172.388 24.018V16.748C172.496 16.532 172.768 16.152 173.038 15.773C174.503 13.82 176.728 12.681 179.168 12.681C180.18 12.6802 181.182 12.8789 182.117 13.2658C183.052 13.6526 183.901 14.22 184.617 14.9354C185.332 15.6509 185.899 16.5004 186.286 17.4353C186.673 18.3702 186.872 19.3722 186.871 20.384C186.817 24.669 183.4 28.086 179.168 28.086ZM179.168 9.69702C176.618 9.69702 174.286 10.565 172.388 12.138V11.38C172.388 10.512 171.682 9.86102 170.869 9.86102C170.001 9.86102 169.349 10.566 169.349 11.381V37.417C169.349 38.285 170.055 38.937 170.869 38.937C171.737 38.937 172.389 38.231 172.389 37.417V28.737C174.294 30.3179 176.693 31.1819 179.169 31.179C185.081 31.179 189.909 26.352 189.909 20.439C189.854 14.525 185.08 9.69802 179.168 9.69802" fill="black"/>
</g>
<mask id="mask1_2_916" style="mask-type:alpha" maskUnits="userSpaceOnUse" x="0" y="0" width="18" height="32">
<path d="M0 0.855957H17.686V31.07H0V0.855957Z" fill="white"/>
</mask>
<g mask="url(#mask1_2_916)">
<path fill-rule="evenodd" clip-rule="evenodd" d="M16.219 31.07H10.143C4.557 31.07 0 26.514 0 20.927V2.37498C0 1.50698 0.706 0.85498 1.519 0.85498C2.333 0.85498 3.038 1.56098 3.038 2.37498V20.927C3.038 24.832 6.238 28.033 10.143 28.033H16.165C17.033 28.033 17.683 28.737 17.683 29.551C17.738 30.365 17.033 31.071 16.219 31.071" fill="black"/>
</g>
<path fill-rule="evenodd" clip-rule="evenodd" d="M28.587 12.572C24.356 12.572 20.884 16.045 20.884 20.275C20.884 21.848 21.372 23.367 22.186 24.615C22.239 24.506 22.348 24.398 22.456 24.289L32.872 13.874C31.6055 13.0223 30.1132 12.5689 28.587 12.572ZM28.587 31.07C22.674 31.07 17.792 26.242 17.792 20.275C17.7912 18.8572 18.0699 17.4532 18.6121 16.1432C19.1544 14.8332 19.9495 13.6429 20.9521 12.6404C21.9547 11.6379 23.145 10.8429 24.4551 10.3008C25.7651 9.75868 27.1692 9.48012 28.587 9.48104C29.9975 9.47936 31.3945 9.75632 32.6977 10.296C34.0009 10.8357 35.1847 11.6276 36.181 12.626C36.4674 12.9145 36.6281 13.3045 36.6281 13.711C36.6281 14.1175 36.4674 14.5076 36.181 14.796L24.573 26.406C24.463 26.514 24.356 26.568 24.247 26.677C25.5345 27.5277 27.0439 27.9805 28.587 27.979C30.2304 27.9825 31.8301 27.4495 33.143 26.461C33.848 25.971 34.77 26.081 35.259 26.785C35.747 27.491 35.638 28.413 34.934 28.901C33.1145 30.3026 30.8837 31.0653 28.587 31.071V31.07ZM57.824 9.80604C56.7831 9.80821 55.7558 10.0431 54.8173 10.4935C53.8788 10.9438 53.0529 11.5983 52.4 12.409C51.098 10.782 49.145 9.75204 46.921 9.75204C45.2913 9.74382 43.7128 10.3212 42.473 11.379C42.203 11.162 41.877 10.999 41.497 10.999C40.629 10.999 39.977 11.704 39.977 12.519V29.55C39.977 30.418 40.683 31.07 41.497 31.07C42.311 31.07 43.015 30.364 43.015 29.55V16.75C43.015 14.58 44.805 12.843 46.921 12.843C49.091 12.843 50.827 14.633 50.827 16.749V29.497C50.827 30.364 51.532 31.016 52.346 31.016C53.214 31.016 53.865 30.31 53.865 29.496V16.804C53.865 14.634 55.655 12.899 57.77 12.899C59.94 12.899 61.675 14.689 61.675 16.804V29.55C61.675 30.418 62.381 31.07 63.195 31.07C64.062 31.07 64.713 30.364 64.713 29.55V16.803C64.821 12.952 61.675 9.80604 57.824 9.80604ZM77.786 9.80604C75.6851 9.8041 73.6571 10.5767 72.09 11.976C71.873 11.433 71.33 11 70.68 11C69.812 11 69.161 11.704 69.161 12.518V29.55C69.161 30.418 69.867 31.07 70.68 31.07C71.547 31.07 72.199 30.364 72.199 29.55V18.376C72.1981 17.6421 72.342 16.9152 72.6224 16.2369C72.9029 15.5586 73.3144 14.9424 73.8333 14.4234C74.3523 13.9044 74.9686 13.4929 75.6469 13.2124C76.3251 12.932 77.052 12.7881 77.786 12.789C78.52 12.788 79.247 12.9318 79.9253 13.2122C80.6036 13.4926 81.2199 13.9041 81.739 14.4231C82.258 14.9421 82.6695 15.5584 82.9499 16.2367C83.2303 16.9151 83.3741 17.642 83.373 18.376V29.55C83.373 30.418 84.078 31.07 84.892 31.07C85.76 31.07 86.412 30.364 86.412 29.55V18.431C86.4137 17.2978 86.1917 16.1754 85.7589 15.1281C85.326 14.0809 84.6906 13.1293 83.8893 12.3281C83.0879 11.5268 82.1363 10.8916 81.089 10.4588C80.0417 10.026 78.9192 9.8042 77.786 9.80604ZM108.542 31.07H100.786C99.916 31.07 99.266 30.365 99.266 29.55C99.266 28.683 99.972 28.032 100.786 28.032H108.542C108.596 28.032 110.007 28.032 110.874 27.165C111.364 26.675 111.634 25.917 111.634 24.94C111.634 23.964 111.364 23.204 110.874 22.716C110.007 21.848 108.596 21.848 108.596 21.848H104.311C103.986 21.848 101.545 21.794 99.809 20.058C98.779 19.028 98.236 17.618 98.236 15.936C98.236 11.433 102.196 9.91504 104.256 9.75204H111.852C112.72 9.75204 113.372 10.457 113.372 11.27C113.372 12.084 112.666 12.79 111.852 12.79H104.475C103.878 12.843 101.328 13.277 101.328 15.936C101.328 16.804 101.546 17.454 102.034 17.889C102.902 18.757 104.367 18.811 104.421 18.811H108.706C108.923 18.811 111.364 18.811 113.154 20.546C114.293 21.631 114.835 23.096 114.835 24.94C114.835 26.785 114.293 28.249 113.154 29.334C111.309 30.961 109.031 31.07 108.544 31.07H108.542ZM92.269 31.07C92.0694 31.0703 91.8717 31.0312 91.6873 30.9548C91.5029 30.8785 91.3354 30.7665 91.1943 30.6253C91.0533 30.4841 90.9415 30.3164 90.8654 30.1319C90.7894 29.9474 90.7505 29.7496 90.751 29.55V11.65C90.751 10.783 91.455 10.131 92.269 10.131C93.083 10.131 93.788 10.837 93.788 11.651V29.551C93.788 30.365 93.137 31.07 92.268 31.07H92.269ZM90.262 6.33404C90.0194 6.32602 89.788 6.23006 89.611 6.06404C89.231 5.68404 89.231 5.14104 89.611 4.76104L91.673 2.70004C92.052 2.32004 92.594 2.32004 92.974 2.70004L94.981 4.70704C95.361 5.08704 95.361 5.62904 94.981 6.00904C94.601 6.38904 94.06 6.38904 93.68 6.00904L92.323 4.65304L90.913 6.06304C90.75 6.28104 90.479 6.33404 90.263 6.33404" fill="black"/>
</svg>
