<svg width="190" height="39" viewBox="0 0 190 39" fill="none" xmlns="http://www.w3.org/2000/svg">
<path fill-rule="evenodd" clip-rule="evenodd" d="M154.215 9.69807C151.177 9.69807 148.465 10.9461 146.512 13.0061L132.408 26.2961C131.106 27.4901 129.479 28.1411 127.798 28.0861H127.472C123.729 27.8161 120.692 24.7231 120.422 20.9801C120.258 18.8101 121.017 16.7501 122.482 15.1761C123.946 13.6031 125.953 12.7361 128.122 12.7361C129.913 12.7361 131.703 13.3861 133.06 14.5261C133.71 15.0671 134.686 15.0131 135.23 14.3631C135.772 13.7121 135.718 12.7351 135.066 12.1931C133.113 10.5661 130.673 9.64307 128.123 9.64307C125.139 9.64307 122.319 10.8911 120.258 13.0611C118.197 15.2851 117.165 18.1061 117.383 21.1431C117.763 26.4051 121.994 30.6901 127.255 31.0701H128.015C130.347 31.0701 132.735 30.0941 134.524 28.4121L143.584 19.8961V20.3291C143.584 26.2421 148.41 31.0701 154.324 31.0701C156.222 31.0701 158.12 30.5811 159.748 29.6051C160.097 29.3928 160.348 29.0529 160.45 28.6578C160.551 28.2627 160.494 27.8437 160.29 27.4901C160.078 27.1414 159.739 26.8895 159.343 26.788C158.948 26.6865 158.529 26.7436 158.175 26.9471C156.981 27.6531 155.679 27.9771 154.268 27.9771C150.038 27.9771 146.566 24.5601 146.566 20.2751C146.566 18.2681 147.38 16.4241 148.628 15.0131L148.845 14.7971L148.953 14.6881C150.372 13.336 152.255 12.5791 154.215 12.5731C155.227 12.5724 156.229 12.7712 157.164 13.158C158.098 13.5448 158.948 14.1121 159.663 14.8275C160.378 15.5428 160.946 16.3921 161.332 17.3269C161.719 18.2616 161.918 19.2634 161.917 20.2751V29.4961C161.917 30.3641 162.622 31.0161 163.436 31.0161C164.304 31.0161 164.955 30.3101 164.955 29.4961V20.2761C164.955 14.5261 160.128 9.69807 154.215 9.69807Z" fill="white"/>
<mask id="mask0_40_1071" style="mask-type:alpha" maskUnits="userSpaceOnUse" x="169" y="9" width="21" height="30">
<path d="M169.35 9.69702H189.908V38.935H169.35V9.69702Z" fill="white"/>
</mask>
<g mask="url(#mask0_40_1071)">
<path fill-rule="evenodd" clip-rule="evenodd" d="M179.168 28.086C177.189 28.095 175.284 27.3369 173.853 25.971C173.271 25.3952 172.778 24.7372 172.388 24.018V16.748C172.496 16.532 172.768 16.152 173.038 15.773C174.503 13.82 176.728 12.681 179.168 12.681C180.179 12.6802 181.181 12.8789 182.116 13.2658C183.051 13.6526 183.901 14.22 184.616 14.9354C185.332 15.6509 185.899 16.5004 186.286 17.4353C186.673 18.3702 186.871 19.3722 186.871 20.384C186.817 24.669 183.4 28.086 179.168 28.086ZM179.168 9.69702C176.618 9.69702 174.286 10.565 172.388 12.138V11.38C172.388 10.512 171.682 9.86102 170.869 9.86102C170.001 9.86102 169.349 10.566 169.349 11.381V37.417C169.349 38.285 170.055 38.937 170.869 38.937C171.737 38.937 172.389 38.231 172.389 37.417V28.737C174.294 30.3179 176.693 31.1819 179.169 31.179C185.081 31.179 189.909 26.352 189.909 20.439C189.854 14.525 185.08 9.69802 179.168 9.69802" fill="white"/>
</g>
<mask id="mask1_40_1071" style="mask-type:alpha" maskUnits="userSpaceOnUse" x="-1" y="0" width="19" height="32">
<path d="M-0.000488281 0.855957H17.6855V31.07H-0.000488281V0.855957Z" fill="white"/>
</mask>
<g mask="url(#mask1_40_1071)">
<path fill-rule="evenodd" clip-rule="evenodd" d="M16.2185 31.07H10.1425C4.55651 31.07 -0.000488281 26.514 -0.000488281 20.927V2.37498C-0.000488281 1.50698 0.705512 0.85498 1.51851 0.85498C2.33251 0.85498 3.03751 1.56098 3.03751 2.37498V20.927C3.03751 24.832 6.23751 28.033 10.1425 28.033H16.1645C17.0325 28.033 17.6825 28.737 17.6825 29.551C17.7375 30.365 17.0325 31.071 16.2185 31.071" fill="white"/>
</g>
<path fill-rule="evenodd" clip-rule="evenodd" d="M28.5865 12.572C24.3555 12.572 20.8835 16.045 20.8835 20.275C20.8835 21.848 21.3715 23.367 22.1855 24.615C22.2385 24.506 22.3475 24.398 22.4555 24.289L32.8715 13.874C31.605 13.0223 30.1127 12.5689 28.5865 12.572ZM28.5865 31.07C22.6735 31.07 17.7915 26.242 17.7915 20.275C17.7907 18.8572 18.0694 17.4532 18.6116 16.1432C19.1539 14.8332 19.949 13.6429 20.9516 12.6404C21.9542 11.6379 23.1445 10.8429 24.4546 10.3008C25.7646 9.75868 27.1687 9.48012 28.5865 9.48104C29.997 9.47936 31.394 9.75632 32.6972 10.296C34.0004 10.8357 35.1842 11.6276 36.1805 12.626C36.4669 12.9145 36.6276 13.3045 36.6276 13.711C36.6276 14.1175 36.4669 14.5076 36.1805 14.796L24.5725 26.406C24.4625 26.514 24.3555 26.568 24.2465 26.677C25.534 27.5277 27.0434 27.9805 28.5865 27.979C30.2299 27.9825 31.8296 27.4495 33.1425 26.461C33.8475 25.971 34.7695 26.081 35.2585 26.785C35.7465 27.491 35.6375 28.413 34.9335 28.901C33.114 30.3026 30.8832 31.0653 28.5865 31.071V31.07ZM57.8235 9.80604C56.7826 9.80821 55.7553 10.0431 54.8168 10.4935C53.8783 10.9438 53.0524 11.5983 52.3995 12.409C51.0975 10.782 49.1445 9.75204 46.9205 9.75204C45.2908 9.74382 43.7123 10.3212 42.4725 11.379C42.2025 11.162 41.8765 10.999 41.4965 10.999C40.6285 10.999 39.9765 11.704 39.9765 12.519V29.55C39.9765 30.418 40.6825 31.07 41.4965 31.07C42.3105 31.07 43.0145 30.364 43.0145 29.55V16.75C43.0145 14.58 44.8045 12.843 46.9205 12.843C49.0905 12.843 50.8265 14.633 50.8265 16.749V29.497C50.8265 30.364 51.5315 31.016 52.3455 31.016C53.2135 31.016 53.8645 30.31 53.8645 29.496V16.804C53.8645 14.634 55.6545 12.899 57.7695 12.899C59.9395 12.899 61.6745 14.689 61.6745 16.804V29.55C61.6745 30.418 62.3805 31.07 63.1945 31.07C64.0615 31.07 64.7125 30.364 64.7125 29.55V16.803C64.8205 12.952 61.6745 9.80604 57.8235 9.80604ZM77.7855 9.80604C75.6846 9.8041 73.6566 10.5767 72.0895 11.976C71.8725 11.433 71.3295 11 70.6795 11C69.8115 11 69.1605 11.704 69.1605 12.518V29.55C69.1605 30.418 69.8665 31.07 70.6795 31.07C71.5465 31.07 72.1985 30.364 72.1985 29.55V18.376C72.1976 17.6421 72.3415 16.9152 72.6219 16.2369C72.9024 15.5586 73.3139 14.9424 73.8328 14.4234C74.3518 13.9044 74.9681 13.4929 75.6464 13.2124C76.3246 12.932 77.0516 12.7881 77.7855 12.789C78.5195 12.788 79.2465 12.9318 79.9248 13.2122C80.6031 13.4926 81.2194 13.9041 81.7385 14.4231C82.2575 14.9421 82.669 15.5584 82.9494 16.2367C83.2298 16.9151 83.3736 17.642 83.3725 18.376V29.55C83.3725 30.418 84.0775 31.07 84.8915 31.07C85.7595 31.07 86.4115 30.364 86.4115 29.55V18.431C86.4132 17.2978 86.1913 16.1754 85.7584 15.1281C85.3255 14.0809 84.6901 13.1293 83.8888 12.3281C83.0874 11.5268 82.1358 10.8916 81.0885 10.4588C80.0412 10.026 78.9187 9.8042 77.7855 9.80604ZM108.542 31.07H100.786C99.9155 31.07 99.2655 30.365 99.2655 29.55C99.2655 28.683 99.9715 28.032 100.786 28.032H108.542C108.596 28.032 110.007 28.032 110.874 27.165C111.364 26.675 111.634 25.917 111.634 24.94C111.634 23.964 111.364 23.204 110.874 22.716C110.007 21.848 108.596 21.848 108.596 21.848H104.311C103.986 21.848 101.545 21.794 99.8085 20.058C98.7785 19.028 98.2355 17.618 98.2355 15.936C98.2355 11.433 102.196 9.91504 104.256 9.75204H111.852C112.719 9.75204 113.372 10.457 113.372 11.27C113.372 12.084 112.666 12.79 111.852 12.79H104.475C103.878 12.843 101.328 13.277 101.328 15.936C101.328 16.804 101.546 17.454 102.034 17.889C102.901 18.757 104.367 18.811 104.421 18.811H108.706C108.923 18.811 111.364 18.811 113.154 20.546C114.293 21.631 114.835 23.096 114.835 24.94C114.835 26.785 114.293 28.249 113.154 29.334C111.309 30.961 109.031 31.07 108.544 31.07H108.542ZM92.2685 31.07C92.0689 31.0703 91.8712 31.0312 91.6868 30.9548C91.5024 30.8785 91.3349 30.7665 91.1938 30.6253C91.0528 30.4841 90.941 30.3164 90.8649 30.1319C90.7889 29.9474 90.75 29.7496 90.7505 29.55V11.65C90.7505 10.783 91.4545 10.131 92.2685 10.131C93.0825 10.131 93.7875 10.837 93.7875 11.651V29.551C93.7875 30.365 93.1365 31.07 92.2675 31.07H92.2685ZM90.2615 6.33404C90.0189 6.32602 89.7876 6.23006 89.6105 6.06404C89.2305 5.68404 89.2305 5.14104 89.6105 4.76104L91.6725 2.70004C92.0515 2.32004 92.5935 2.32004 92.9735 2.70004L94.9805 4.70704C95.3605 5.08704 95.3605 5.62904 94.9805 6.00904C94.6005 6.38904 94.0595 6.38904 93.6795 6.00904L92.3225 4.65304L90.9125 6.06304C90.7495 6.28104 90.4785 6.33404 90.2625 6.33404" fill="white"/>
</svg>
