<svg width="245" height="48" viewBox="0 0 245 48" fill="none" xmlns="http://www.w3.org/2000/svg">
<path d="M53.1686 37.6391L44.3465 47.0889C43.9589 47.5043 43.4158 47.7401 42.8472 47.7397H1.02573C0.617829 47.7399 0.248712 47.4983 0.0861143 47.1247C-0.076483 46.7511 -0.00154432 46.3167 0.276876 46.019L9.10004 36.5692C9.48751 36.1541 10.0301 35.9183 10.5983 35.9183H52.4192C52.827 35.9183 53.1959 36.16 53.3585 36.5334C53.5212 36.9069 53.4466 37.3411 53.1686 37.6391ZM44.3465 18.61C43.9592 18.1948 43.4165 17.9592 42.8483 17.9592H1.02573C0.618051 17.9592 0.249207 18.2007 0.0866561 18.5741C-0.0758949 18.9475 -0.00118134 19.3816 0.276876 19.6794L9.10004 29.1297C9.48735 29.545 10.0301 29.7807 10.5983 29.7806H52.4192C52.827 29.7806 53.1959 29.5389 53.3585 29.1655C53.5212 28.792 53.4466 28.3578 53.1686 28.0598L44.3465 18.61ZM1.02573 11.8214H42.8472C43.4157 11.8215 43.9588 11.5858 44.3465 11.1706L53.1686 1.72075C53.4466 1.42279 53.5212 0.988558 53.3585 0.615099C53.1959 0.24164 52.827 7.41503e-08 52.4192 7.41503e-08H10.5983C10.0301 -0.000152646 9.48735 0.235607 9.10004 0.650852L0.276876 10.1007C-0.00154432 10.3984 -0.076483 10.8328 0.0861143 11.2064C0.248712 11.58 0.617829 11.8216 1.02573 11.8214Z" fill="white"/>
<path d="M76.7812 11.7641H87.6082V15.3462H72.7603V19.1722H87.4314C89.6436 19.1696 91.4362 17.379 91.4385 15.1695V11.9407C91.4362 9.73135 89.6435 7.94088 87.4314 7.93854H76.6049V4.35647H91.4385V0.530396H76.7802C74.5682 0.533026 72.7756 2.32332 72.773 4.53258V7.76191C72.7756 9.97157 74.5688 11.762 76.7812 11.7641Z" fill="white"/>
<path d="M110.251 0.530396H98.8399C96.6279 0.533026 94.8354 2.32332 94.8328 4.53258V15.1706C94.8351 17.38 96.6277 19.1707 98.8399 19.1733H110.251C112.463 19.1707 114.256 17.38 114.258 15.1706V4.53258C114.256 2.32332 112.463 0.533026 110.251 0.530396ZM110.427 4.35647V15.3462H98.6636V4.35647H110.427Z" fill="white"/>
<path d="M120.193 19.1722H135.992V15.3462H121.538V0.530396H117.707V16.6892C117.708 18.06 118.82 19.1708 120.193 19.1722Z" fill="white"/>
<path d="M155.564 0.530396H142.632C140.84 0.532442 139.387 1.983 139.385 3.77298V19.1722H143.216V13.0939H154.98V19.1722H158.811V3.77298C158.809 1.983 157.356 0.532442 155.564 0.530396ZM154.98 4.35647V9.26783H143.216V4.35647H154.98Z" fill="white"/>
<path d="M177.8 15.3462H177.087L169.898 1.84801C169.468 1.03682 168.624 0.529764 167.705 0.530396H164.694C163.321 0.531858 162.209 1.64268 162.208 3.01339V19.1722H166.038V4.35647H166.902L174.084 17.8546C174.515 18.6662 175.359 19.1733 176.279 19.1722H179.147C180.519 19.1708 181.632 18.06 181.633 16.6892V0.530396H177.802L177.8 15.3462Z" fill="white"/>
<path d="M201.517 0.530396H188.585C186.793 0.532442 185.341 1.98309 185.339 3.77298V19.1722H189.169V13.0939H200.934V19.1722H204.765V3.77298C204.763 1.98279 203.31 0.532149 201.517 0.530396ZM200.933 4.35647V9.26783H189.169V4.35647H200.933Z" fill="white"/>
<path d="M230.416 39.7661H241.179V43.3265H226.419V47.1303H241.003C243.202 47.1273 244.984 45.3479 244.986 43.1519V39.9422C244.984 37.7462 243.202 35.9666 241.003 35.9639H230.241V32.4026H244.987V28.5988H230.416C228.217 28.6014 226.436 30.381 226.433 32.5771V35.7868C226.435 37.9833 228.217 39.7635 230.416 39.7661Z" fill="white"/>
<path d="M83.0025 43.3265H81.8623L76.7881 28.5988H72.7603L78.5737 45.4668C78.9171 46.463 79.8556 47.1319 80.9105 47.1319H83.958C85.0128 47.1316 85.9513 46.4629 86.2948 45.4668L92.1077 28.5988H88.0798L83.0025 43.3265Z" fill="white"/>
<path d="M95.1743 47.1303H113.351V43.3265H98.9823V39.7661H113.351V35.9629H98.9823V32.4026H113.351V28.5988H95.1743V47.1303Z" fill="white"/>
<path d="M132.011 43.406H131.302L124.158 29.9858C123.73 29.179 122.89 28.675 121.976 28.6761H118.98C117.616 28.6776 116.51 29.7818 116.509 31.1443V47.2093H120.317V32.4815H121.175L128.317 45.9017C128.746 46.7076 129.585 47.2107 130.499 47.2093H133.348C134.712 47.2078 135.817 46.1036 135.819 44.7411V28.6783H132.011V43.406Z" fill="white"/>
<path d="M139.193 32.4816H146.566V47.2093H150.374V32.4816H157.747V28.6783H139.193V32.4816Z" fill="white"/>
<path d="M176.569 40.2075C176.567 41.972 175.135 43.4019 173.369 43.4039H168.075C166.309 43.4019 164.877 41.972 164.875 40.2075V28.6783H161.067V40.965C161.071 44.4121 163.868 47.2055 167.319 47.2093H174.125C177.576 47.2055 180.373 44.4121 180.377 40.965V28.6783H176.569V40.2075Z" fill="white"/>
<path d="M201.927 34.466C201.922 31.2279 199.295 28.604 196.053 28.5988H183.751V47.1303H187.559V40.3327H194.128L197.746 47.1303H202.062L198.223 39.9163C200.457 39.0259 201.923 36.8679 201.927 34.466ZM187.559 32.4026H196.053C197.194 32.4026 198.119 33.3264 198.119 34.466C198.119 35.6056 197.194 36.5294 196.053 36.5294H187.559V32.4026Z" fill="white"/>
<path d="M205.085 47.1303H223.261V43.3265H208.893V39.7661H223.261V35.9629H208.893V32.4026H223.261V28.5988H205.085V47.1303Z" fill="white"/>
</svg>
