<svg width="309" height="65" viewBox="0 0 309 65" fill="none" xmlns="http://www.w3.org/2000/svg">
<path fill-rule="evenodd" clip-rule="evenodd" d="M149.534 38.7171C159.162 38.9831 167.805 30.7961 168.06 21.0501C168.33 10.7591 160.437 2.85006 151.157 2.14606C140.228 1.32006 131.693 9.71006 131.287 19.4381C130.844 30.0681 138.85 38.4221 149.534 38.7171ZM170.094 20.4301C170.085 31.8101 160.975 40.8061 149.486 40.7841C138.269 40.7621 129.208 31.6771 129.182 20.4271C129.155 9.08406 138.322 -0.0269401 149.73 5.98549e-05C152.411 -0.00538499 155.067 0.519805 157.545 1.54537C160.022 2.57094 162.272 4.07661 164.165 5.97564C166.058 7.87467 167.557 10.1295 168.575 12.6103C169.593 15.091 170.109 17.7487 170.096 20.4301H170.094ZM73.1155 53.9661C71.7865 56.8681 70.4865 59.7841 69.1035 62.6591C68.8835 63.1171 68.2596 63.7241 67.8866 63.6831C67.3706 63.6271 66.7066 63.1211 66.4706 62.6331C65.4065 60.4391 64.4755 58.1831 63.4846 55.9541C63.1626 55.2301 62.8046 54.5231 62.1716 53.8781C62.1716 56.6511 62.2045 59.4261 62.1415 62.1991C62.1305 62.7141 61.8685 63.4901 61.4865 63.6841C60.4735 64.1921 59.8526 63.6441 59.8485 62.3741C59.8396 57.8811 59.8235 53.3881 59.8775 48.8961C59.8825 48.4211 60.2476 47.6311 60.5876 47.5441C61.3825 47.3401 62.2146 47.2791 62.6976 48.4271C64.2876 52.2191 66.0176 55.9541 67.8276 60.0071C68.3846 58.8311 68.8676 57.8721 69.3006 56.8891C70.5306 54.1001 71.7665 51.3131 72.9445 48.5011C73.3395 47.5551 74.0615 47.2051 74.8745 47.5331C75.3006 47.7031 75.7175 48.4881 75.7255 49.0041C75.7935 53.3421 75.7775 57.6821 75.7576 62.0211C75.7486 63.7801 75.4905 63.9441 73.4595 63.5561V54.0011L73.1155 53.9661ZM257.72 55.2201C259.413 55.1261 260.949 55.1781 262.43 54.9181C263.926 54.6531 264.469 53.6081 264.403 51.9671C264.343 50.4971 263.372 49.8691 262.148 49.7361C260.707 49.5811 259.235 49.7001 257.721 49.7001V55.2201H257.72ZM263.83 56.9311C264.77 58.6831 265.707 60.3171 266.518 62.0111C266.738 62.4691 266.578 63.1061 266.592 63.6631C265.868 63.4811 264.838 63.5331 264.475 63.0671C263.615 61.9601 262.948 60.6551 262.425 59.3421C261.792 57.7471 260.835 56.9811 259.088 57.3201C258.698 57.3961 258.281 57.3301 257.654 57.3301C257.654 59.0631 257.645 60.7261 257.66 62.3891C257.666 63.1431 257.702 63.7861 256.592 63.7921C255.507 63.7971 255.274 63.2161 255.272 62.3601C255.266 57.8201 255.274 53.2811 255.266 48.7431C255.265 47.7571 255.743 47.4091 256.704 47.4401C258.237 47.4901 259.774 47.4411 261.31 47.4581C264.084 47.4921 266.013 48.6381 266.571 50.5581C267.373 53.3241 266.611 55.1601 263.829 56.9311H263.83ZM159.032 55.1061C160.522 55.1061 161.942 55.1921 163.347 55.0821C164.817 54.9691 165.797 53.7301 165.781 52.2611C165.768 50.8971 164.908 49.8481 163.449 49.7231C162 49.6031 160.533 49.6971 159.032 49.6971V55.1071V55.1061ZM165.182 56.8821C166.104 58.6461 167.009 60.2441 167.77 61.9071C167.997 62.4051 167.99 63.5371 167.804 63.6051C167.009 63.8951 166.124 64.0011 165.609 62.9271C164.993 61.6431 164.138 60.4651 163.607 59.1521C163.029 57.7221 162.202 57.0251 160.622 57.3161C160.14 57.4071 159.625 57.3311 158.952 57.3311C158.952 59.1411 158.948 60.8121 158.953 62.4831C158.954 63.1931 158.922 63.7711 157.923 63.7891C156.956 63.8051 156.647 63.3971 156.648 62.5241C156.655 57.9291 156.63 53.3321 156.683 48.7361C156.689 48.3131 157.162 47.5431 157.435 47.5341C159.684 47.4641 161.948 47.4041 164.185 47.6041C166.271 47.7911 167.705 49.1141 168.091 51.1561C168.526 53.4531 167.691 55.3691 165.644 56.6591C165.517 56.7391 165.373 56.7911 165.181 56.8821H165.182ZM106.81 49.7071V61.4941C109.53 61.5231 112.437 62.1271 114.119 59.4391C115.571 57.1211 115.581 54.4011 114.246 51.9941C112.623 49.0691 109.666 49.6761 106.81 49.7071ZM104.404 55.4671C104.403 53.2751 104.435 51.0841 104.39 48.8931C104.368 47.8841 104.652 47.3681 105.769 47.4431C107.901 47.5811 110.073 47.4451 112.162 47.8031C114.856 48.2691 116.559 50.0451 117.132 52.7501C117.803 55.9011 117.695 58.9321 115.412 61.5041C114.041 63.0491 112.197 63.6211 110.22 63.7441C108.691 63.8371 107.152 63.7181 105.62 63.7811C104.637 63.8201 104.39 63.3571 104.397 62.4991C104.42 60.1541 104.405 57.8091 104.404 55.4671ZM204.582 52.5911C203.792 49.6871 201.821 48.6291 199.343 49.6861C198.265 50.1451 197.601 51.0311 197.87 52.0621C198.057 52.7821 198.862 53.5781 199.58 53.8641C200.691 54.3061 201.965 54.3441 203.17 54.5511C205.463 54.9461 206.865 56.1961 207.19 58.1441C207.534 60.2171 206.642 62.0801 204.78 63.1741C202.14 64.7221 198.124 64.2281 196.177 62.0151C195.629 61.3911 195.227 60.5631 195.002 59.7601C194.882 59.3301 195.156 58.4281 195.47 58.3081C196.162 58.0441 196.915 58.1291 197.303 59.1011C198.328 61.6541 200.33 62.4831 202.94 61.5841C204.23 61.1391 204.772 60.2371 204.787 58.9191C204.802 57.6111 203.957 57.1791 202.874 56.9491C201.381 56.6291 199.877 56.3591 198.406 55.9641C196.808 55.5341 195.719 54.5211 195.506 52.8121C195.262 50.8591 195.72 49.2061 197.568 48.1061C200.82 46.1731 205.391 47.3361 206.463 50.4191C207.091 52.2221 206.588 52.8391 204.582 52.5911ZM218.017 49.6651V54.2391C220.1 54.2391 222.172 54.2391 224.247 54.2371C224.97 54.2371 225.669 54.1171 225.694 55.2571C225.719 56.4121 225.072 56.4621 224.231 56.4571C222.199 56.4421 220.165 56.4511 218.054 56.4511V61.5411C220.127 61.5411 222.206 61.5391 224.282 61.5431C224.744 61.5431 225.29 61.4091 225.641 61.6101C226.041 61.8371 226.465 62.3521 226.501 62.7741C226.528 63.0741 225.934 63.7051 225.605 63.7131C222.588 63.7861 219.565 63.7971 216.55 63.7031C216.186 63.6931 215.547 62.9501 215.54 62.5381C215.471 57.845 215.47 53.1512 215.538 48.4581C215.543 48.1221 216.156 47.5161 216.5 47.5081C219.466 47.4291 222.436 47.4271 225.403 47.5061C225.745 47.5151 226.379 48.2081 226.333 48.4961C226.261 48.9261 225.721 49.5981 225.357 49.6131C222.965 49.7131 220.565 49.6651 218.017 49.6651ZM87.6295 49.6661V54.2391C89.6835 54.2391 91.6665 54.2551 93.6496 54.2311C94.5826 54.2181 95.2785 54.3711 95.2505 55.5331C95.2235 56.7201 94.3375 56.4261 93.6936 56.4381C91.7085 56.4751 89.7225 56.4511 87.6476 56.4511V61.5411C89.9016 61.5411 92.1805 61.5201 94.4595 61.5591C94.9256 61.5671 95.5465 61.6601 95.8195 61.9611C96.4266 62.6331 95.8335 63.7441 94.8885 63.7531C91.9686 63.7811 89.0485 63.7451 86.1285 63.7751C85.3166 63.7821 85.0626 63.4481 85.0666 62.6781C85.0845 57.9811 85.0915 53.2831 85.0615 48.5861C85.0565 47.6861 85.4585 47.4421 86.2655 47.4491C89.0826 47.4671 91.8996 47.4691 94.7166 47.4461C95.5366 47.4381 95.9566 47.7101 95.9436 48.5861C95.9325 49.4731 95.4826 49.6911 94.6756 49.6791C92.3765 49.6441 90.0765 49.6661 87.6295 49.6661ZM298.67 56.5641V62.2211C298.67 63.0911 298.632 63.8311 297.381 63.7891C296.098 63.7461 296.367 62.8821 296.364 62.1751C296.346 57.7821 296.355 53.3911 296.354 48.9981C296.354 48.2231 296.236 47.4501 297.45 47.4371C298.721 47.4221 298.67 48.2311 298.67 49.0721V54.1621H306.23C306.23 52.3881 306.246 50.6221 306.224 48.8551C306.214 48.0811 306.218 47.4421 307.294 47.4391C308.294 47.4371 308.677 47.8601 308.674 48.8161C308.662 53.3101 308.67 57.8061 308.666 62.3011C308.666 63.1511 308.473 63.8191 307.381 63.7701C306.281 63.7201 306.22 63.0081 306.226 62.1771C306.241 60.3431 306.23 58.5101 306.23 56.5641H298.67ZM179.12 49.6661V54.2391C181.248 54.2391 183.288 54.2711 185.326 54.2231C186.183 54.2031 186.733 54.4031 186.751 55.3461C186.769 56.3421 186.135 56.4711 185.322 56.4601C183.285 56.4331 181.248 56.4511 179.122 56.4511V61.5411C181.462 61.5411 183.795 61.5091 186.125 61.5691C186.596 61.5811 187.362 61.8391 187.467 62.1571C187.729 62.9431 187.737 63.7971 186.417 63.7771C183.548 63.7321 180.677 63.7451 177.806 63.7751C177.016 63.7821 176.698 63.4831 176.7 62.7031C176.71 58.0021 176.714 53.3031 176.692 48.6021C176.688 47.7351 177.058 47.4381 177.893 47.4461C180.711 47.4711 183.531 47.4681 186.351 47.4461C187.161 47.4411 187.575 47.6861 187.571 48.5811C187.564 49.4901 187.127 49.6891 186.323 49.6781C183.968 49.6461 181.613 49.6661 179.12 49.6661ZM130.953 51.1331L129.021 56.2111H132.876L130.953 51.1331ZM125.688 63.7401C123.861 63.8351 123.956 62.9611 124.262 62.1421C125.408 59.0501 126.616 55.9791 127.803 52.9011C128.37 51.4311 129.003 49.9861 129.483 48.4911C129.757 47.6381 130.263 47.2591 131.036 47.4911C131.569 47.6491 132.256 48.0401 132.44 48.5011C134.23 52.9751 135.94 57.4831 137.64 61.9941C137.866 62.5991 138.37 63.4451 137.241 63.7051C136.462 63.8851 135.563 63.9951 135.373 62.7911C135.335 62.5481 135.163 62.3281 135.065 62.0961C134.576 60.9371 134.367 59.0991 133.546 58.7731C132.129 58.2061 130.334 58.5331 128.703 58.5931C128.396 58.6051 127.983 59.0601 127.836 59.4011C127.355 60.5171 127.031 61.7011 126.533 62.8071C126.323 63.2661 125.826 63.5951 125.688 63.7401ZM45.2285 51.0461L43.3446 56.2541H47.1366L45.2285 51.0461ZM48.0215 58.5921C47.7225 58.5771 47.4705 58.5521 47.2175 58.5521C45.6845 58.5631 43.8475 58.0681 42.7085 58.7441C41.6955 59.3431 41.4635 61.2441 40.8705 62.5621C40.7055 62.9281 40.5575 63.4691 40.2705 63.5761C39.7805 63.7561 39.1345 63.7901 38.6595 63.6111C38.4655 63.5371 38.3785 62.6871 38.5235 62.2931C40.2325 57.6821 41.9666 53.0811 43.7826 48.5131C43.9686 48.0431 44.7456 47.5011 45.2126 47.5331C45.7666 47.5701 46.5686 48.0781 46.7676 48.5791C48.5876 53.1471 50.3166 57.7531 52.0065 62.3721C52.1405 62.7361 51.7835 63.2781 51.6555 63.7401C51.0095 63.4871 50.0315 63.4171 49.7805 62.9531C49.0425 61.5891 48.5925 60.0731 48.0215 58.5921ZM240.61 51.0921L238.726 56.2121H242.568L240.61 51.0921ZM237.81 58.5501C237.288 59.8851 236.7 61.1301 236.319 62.4321C235.877 63.9421 234.958 63.9741 233.503 63.4921C234.01 62.0711 234.471 60.6981 234.987 59.3431C236.345 55.7831 237.69 52.2191 239.132 48.6931C239.344 48.1781 239.998 47.6851 240.555 47.4961C241.4 47.2101 241.88 47.7101 242.199 48.5831C243.834 53.0671 245.569 57.5121 247.202 61.9971C247.38 62.4871 247.282 63.5371 247.027 63.6441C246.186 63.9941 245.352 63.8371 245.003 62.7181C244.669 61.6551 244.146 60.6501 243.825 59.5811C243.599 58.8311 243.268 58.5011 242.445 58.5351C240.915 58.5951 239.379 58.5501 237.81 58.5501ZM8.85155 56.2631C8.22155 54.5991 7.63155 53.0311 6.90255 51.1041L4.94455 56.2631H8.85155ZM4.04555 58.5501C3.53055 59.9631 3.04055 61.2901 2.56555 62.6231C2.24255 63.5211 1.62055 64.0311 0.687551 63.7131C-0.425449 63.3361 0.0895508 62.4331 0.329551 61.7871C1.92527 57.504 3.55198 53.2326 5.20955 48.9731C5.50955 48.2011 5.74355 47.3801 6.96255 47.4111C8.16255 47.4431 8.31055 48.1851 8.62055 49.0181C10.1986 53.2551 11.8506 57.4631 13.3906 61.7111C13.6016 62.2941 13.5546 63.4921 13.2586 63.6331C12.3416 64.0681 11.5746 63.7201 11.2106 62.5591C10.7906 61.2121 10.4826 59.4261 9.49755 58.7691C8.49655 58.1001 6.72755 58.5731 5.29555 58.5511C4.93855 58.5451 4.58055 58.5501 4.04555 58.5501ZM274.364 55.6281C274.42 52.8801 275.099 50.4321 277.362 48.5731C280.322 46.1421 286.374 46.9971 287.422 50.6031C287.61 51.2531 287.62 52.4531 287.265 52.6691C286.292 53.2631 285.685 52.6391 285.28 51.5751C284.231 48.8121 280.392 48.5291 278.181 50.9911C276.091 53.3151 276.334 58.5691 278.627 60.7101C280.871 62.8051 284.221 62.1391 285.403 59.3251C285.774 58.4391 286.415 58.0511 287.174 58.4991C287.518 58.7001 287.698 59.6091 287.572 60.0981C287.06 62.1081 285.626 63.3021 283.652 63.7641C278.081 65.0671 274.328 61.7561 274.364 55.6281ZM23.9016 61.5431C26.2586 61.5431 28.3996 61.5491 30.5416 61.5391C31.3266 61.5351 31.9246 61.6051 31.9256 62.6651C31.9266 63.7271 31.3536 63.7801 30.5536 63.7741C27.9936 63.7501 25.4346 63.7321 22.8766 63.7831C21.9416 63.8001 21.5386 63.4041 21.5366 62.5451C21.5246 57.9051 21.5276 53.2621 21.5306 48.6201C21.5306 47.6901 22.0496 47.4261 22.9226 47.4441C23.9256 47.4661 23.9056 48.0901 23.9046 48.7911C23.8976 52.4141 23.9016 56.0361 23.9016 59.6581V61.5431Z" fill="white"/>
<path fill-rule="evenodd" clip-rule="evenodd" d="M155.592 23.273L149.664 12.879C148.433 14.991 147.29 16.926 146.172 18.875C145.16 20.639 144.177 22.42 143.173 24.188C142.998 24.496 142.849 24.95 142.582 25.051C142.011 25.266 141.37 25.293 140.756 25.397C140.723 24.897 140.483 24.286 140.686 23.917C143.169 19.4226 145.695 14.952 148.264 10.506C148.405 10.2561 148.61 10.0484 148.859 9.9042C149.107 9.76 149.389 9.68454 149.676 9.68556C149.964 9.68658 150.245 9.76404 150.493 9.90999C150.74 10.0559 150.944 10.2651 151.084 10.516C153.614 14.924 156.128 19.344 158.616 23.776C159.335 25.056 159.032 25.516 157.53 25.519C154.153 25.527 150.773 25.547 147.396 25.473C146.82 25.463 145.761 25.001 145.766 24.769C145.796 23.739 146.439 23.219 147.6 23.251C150.154 23.321 152.715 23.273 155.592 23.273ZM149.521 30.973C146.916 30.973 144.311 30.963 141.706 30.979C140.859 30.984 140.187 30.879 140.134 29.804C140.07 28.518 140.992 28.773 141.704 28.772C146.965 28.756 152.226 28.769 157.489 28.756C158.304 28.755 159.055 28.734 159.053 29.866C159.049 30.989 158.317 30.988 157.49 30.982C154.834 30.958 152.178 30.972 149.521 30.972" fill="white"/>
</svg>
