<svg width="132" height="75" viewBox="0 0 132 75" fill="none" xmlns="http://www.w3.org/2000/svg">
<path fill-rule="evenodd" clip-rule="evenodd" d="M14.207 50.417C21.814 43.785 25.889 35.494 25.869 25.381C25.849 15.258 21.769 6.95897 13.917 0.180975C14.551 0.121975 14.91 0.0609748 15.269 0.0609748C23.534 0.0539748 31.802 -0.0910252 40.062 0.0909748C50.966 0.331975 58.996 5.34698 63.682 15.292C68.907 26.387 64.372 40.686 53.81 46.946C49.514 49.492 44.916 50.76 39.918 50.73C31.873 50.685 23.828 50.72 15.783 50.72H14.371L14.207 50.417ZM64.35 50.1C78.285 36.225 88.27 20.131 93.07 0.909975C97.996 20.135 107.965 36.312 121.868 50.259C112.482 46.951 102.92 45.205 93.061 45.183C83.253 45.162 73.749 46.944 64.35 50.1ZM4.888 72.598C5.475 72.598 5.957 72.536 6.335 72.411C7.009 72.179 7.562 71.733 7.992 71.073C8.335 70.544 8.582 69.867 8.734 69.039C8.821 68.546 8.865 68.089 8.865 67.666C8.865 66.043 8.549 64.783 7.918 63.886C7.287 62.987 6.272 62.538 4.87 62.538H1.792V72.598H4.888ZM0 61.014H5.236C7.014 61.014 8.393 61.654 9.372 62.931C10.246 64.084 10.684 65.561 10.684 67.363C10.684 68.754 10.425 70.011 9.909 71.135C8.999 73.121 7.436 74.115 5.219 74.115H0V61.015V61.014ZM13.279 61.014H22.785V62.618H15.009V66.596H22.197V68.112H15.009V72.553H22.919V74.114H13.279V61.014ZM25.461 61.014H34.548V62.618H27.234V66.596H33.665V68.158H27.235V74.114H25.46L25.461 61.014ZM36.85 74.114H38.641V61.014H36.85V74.114ZM52.363 68.745L50.346 62.957L48.25 68.745H52.363ZM49.421 61.015H51.424L56.177 74.113H54.234L52.866 70.189H47.726L46.306 74.113H44.486L49.421 61.014V61.015ZM57.779 61.014H59.553V72.554H66.127V74.114H57.779V61.014ZM67.936 61.014H69.711V72.554H76.284V74.114H67.936V61.014ZM78.495 74.114H80.288V61.014H78.495V74.114ZM89.934 68.745L87.917 62.957L85.822 68.745H89.934ZM86.992 61.015H88.996L93.749 74.113H91.806L90.438 70.189H85.298L83.877 74.113H82.057L86.992 61.014V61.015ZM95.35 61.014H97.44L103.975 71.598V61.014H105.669V74.114H103.675L97.045 63.542V74.114H95.35V61.014ZM117.806 61.968C118.711 62.842 119.213 63.834 119.314 64.948H117.582C117.39 64.102 117.007 63.434 116.432 62.94C115.856 62.447 115.049 62.2 114.01 62.2C112.743 62.2 111.719 62.654 110.94 63.56C110.16 64.468 109.771 65.86 109.771 67.733C109.771 69.269 110.122 70.514 110.827 71.469C111.53 72.424 112.58 72.902 113.976 72.902C115.261 72.902 116.24 72.399 116.91 71.394C117.267 70.864 117.533 70.169 117.707 69.307H119.438C119.285 70.687 118.78 71.843 117.922 72.777C116.893 73.9 115.506 74.461 113.761 74.461C112.256 74.461 110.993 74.001 109.97 73.079C108.624 71.859 107.952 69.976 107.952 67.43C107.952 65.496 108.456 63.911 109.467 62.673C110.561 61.329 112.068 60.656 113.99 60.656C115.628 60.656 116.901 61.094 117.806 61.968ZM121.9 61.014H131.406V62.618H123.629V66.596H130.817V68.112H123.629V72.553H131.539V74.114H121.899L121.9 61.014Z" fill="black"/>
</svg>
