<svg width="132" height="75" viewBox="0 0 132 75" fill="none" xmlns="http://www.w3.org/2000/svg">
<path fill-rule="evenodd" clip-rule="evenodd" d="M14.2065 50.417C21.8135 43.785 25.8885 35.494 25.8685 25.381C25.8485 15.258 21.7685 6.95897 13.9165 0.180975C14.5505 0.121975 14.9095 0.0609748 15.2685 0.0609748C23.5335 0.0539748 31.8015 -0.0910252 40.0615 0.0909748C50.9655 0.331975 58.9955 5.34698 63.6815 15.292C68.9065 26.387 64.3715 40.686 53.8095 46.946C49.5135 49.492 44.9155 50.76 39.9175 50.73C31.8725 50.685 23.8275 50.72 15.7825 50.72H14.3705L14.2065 50.417ZM64.3495 50.1C78.2845 36.225 88.2695 20.131 93.0695 0.909975C97.9955 20.135 107.965 36.312 121.868 50.259C112.482 46.951 102.92 45.205 93.0605 45.183C83.2525 45.162 73.7485 46.944 64.3495 50.1ZM4.88751 72.598C5.47451 72.598 5.95651 72.536 6.33451 72.411C7.00851 72.179 7.56151 71.733 7.99151 71.073C8.33451 70.544 8.58151 69.867 8.73351 69.039C8.82051 68.546 8.86451 68.089 8.86451 67.666C8.86451 66.043 8.54851 64.783 7.91751 63.886C7.28651 62.987 6.27151 62.538 4.86951 62.538H1.79151V72.598H4.88751ZM-0.000488281 61.014H5.23551C7.01351 61.014 8.39251 61.654 9.37151 62.931C10.2455 64.084 10.6835 65.561 10.6835 67.363C10.6835 68.754 10.4245 70.011 9.90851 71.135C8.99851 73.121 7.43551 74.115 5.21851 74.115H-0.000488281V61.015V61.014ZM13.2785 61.014H22.7845V62.618H15.0085V66.596H22.1965V68.112H15.0085V72.553H22.9185V74.114H13.2785V61.014ZM25.4605 61.014H34.5475V62.618H27.2335V66.596H33.6645V68.158H27.2345V74.114H25.4595L25.4605 61.014ZM36.8495 74.114H38.6405V61.014H36.8495V74.114ZM52.3625 68.745L50.3455 62.957L48.2495 68.745H52.3625ZM49.4205 61.015H51.4235L56.1765 74.113H54.2335L52.8655 70.189H47.7255L46.3055 74.113H44.4855L49.4205 61.014V61.015ZM57.7785 61.014H59.5525V72.554H66.1265V74.114H57.7785V61.014ZM67.9355 61.014H69.7105V72.554H76.2835V74.114H67.9355V61.014ZM78.4945 74.114H80.2875V61.014H78.4945V74.114ZM89.9335 68.745L87.9165 62.957L85.8215 68.745H89.9335ZM86.9915 61.015H88.9955L93.7485 74.113H91.8055L90.4375 70.189H85.2975L83.8765 74.113H82.0565L86.9915 61.014V61.015ZM95.3495 61.014H97.4395L103.975 71.598V61.014H105.669V74.114H103.675L97.0445 63.542V74.114H95.3495V61.014ZM117.806 61.968C118.711 62.842 119.213 63.834 119.314 64.948H117.582C117.39 64.102 117.007 63.434 116.432 62.94C115.856 62.447 115.049 62.2 114.01 62.2C112.743 62.2 111.719 62.654 110.94 63.56C110.16 64.468 109.771 65.86 109.771 67.733C109.771 69.269 110.122 70.514 110.827 71.469C111.53 72.424 112.58 72.902 113.976 72.902C115.261 72.902 116.24 72.399 116.91 71.394C117.267 70.864 117.533 70.169 117.707 69.307H119.438C119.285 70.687 118.78 71.843 117.922 72.777C116.893 73.9 115.506 74.461 113.761 74.461C112.256 74.461 110.993 74.001 109.97 73.079C108.624 71.859 107.952 69.976 107.952 67.43C107.952 65.496 108.456 63.911 109.467 62.673C110.561 61.329 112.068 60.656 113.99 60.656C115.628 60.656 116.901 61.094 117.806 61.968ZM121.9 61.014H131.406V62.618H123.629V66.596H130.817V68.112H123.629V72.553H131.539V74.114H121.899L121.9 61.014Z" fill="white"/>
</svg>
