<svg width="115" height="57" viewBox="0 0 115 57" fill="none" xmlns="http://www.w3.org/2000/svg">
<path fill-rule="evenodd" clip-rule="evenodd" d="M71.036 0C71.085 17.743 71.139 35.485 71.168 53.229C71.17 53.917 70.944 54.606 70.759 55.673H60.656V16.566L59.846 16.163C59.036 16.993 58.16 17.77 57.427 18.662C48.045 30.072 38.695 41.509 29.299 52.909C28.376 54.029 27.207 54.951 25.719 55.545C29.82 48.482 35.512 42.707 40.484 36.124V22.5C34.884 28.087 30.994 34.197 25.479 39.738L10.626 21.608V55.265C6.827 56.614 3.398 56.015 0 55.876V4.298H9.392C15.643 10.46 19.86 17.521 25.989 23.192L41.473 4.766H51.911C51.99 10.359 52.061 15.506 52.132 20.651L53.092 20.889L70.17 0H71.036ZM79.996 5.303H112.493C110.198 12.053 107.021 17.898 104.051 24.308C111.618 28.431 115.531 34.553 114.529 43.237C114.141 46.601 113.085 49.557 109.625 51.86L103.24 44.345C102.598 34.533 102.509 34.423 92.869 31.57L90.029 27.982L95.718 15.745H79.996V5.303Z" fill="black"/>
</svg>
