<svg width="115" height="57" viewBox="0 0 115 57" fill="none" xmlns="http://www.w3.org/2000/svg">
<path fill-rule="evenodd" clip-rule="evenodd" d="M71.0355 0C71.0845 17.743 71.1385 35.485 71.1675 53.229C71.1695 53.917 70.9435 54.606 70.7585 55.673H60.6555V16.566L59.8455 16.163C59.0355 16.993 58.1595 17.77 57.4265 18.662C48.0445 30.072 38.6945 41.509 29.2985 52.909C28.3755 54.029 27.2065 54.951 25.7185 55.545C29.8195 48.482 35.5115 42.707 40.4835 36.124V22.5C34.8835 28.087 30.9935 34.197 25.4785 39.738L10.6255 21.608V55.265C6.82651 56.614 3.39751 56.015 -0.000488281 55.876V4.298H9.39151C15.6425 10.46 19.8595 17.521 25.9885 23.192L41.4725 4.766H51.9105C51.9895 10.359 52.0605 15.506 52.1315 20.651L53.0915 20.889L70.1695 0H71.0355ZM79.9955 5.303H112.493C110.198 12.053 107.021 17.898 104.051 24.308C111.618 28.431 115.531 34.553 114.529 43.237C114.141 46.601 113.085 49.557 109.625 51.86L103.24 44.345C102.598 34.533 102.509 34.423 92.8685 31.57L90.0285 27.982L95.7175 15.745H79.9955V5.303Z" fill="white"/>
</svg>
