<svg width="158" height="69" viewBox="0 0 158 69" fill="none" xmlns="http://www.w3.org/2000/svg">
<path fill-rule="evenodd" clip-rule="evenodd" d="M96.497 55.405C96.548 59.496 96.418 63.429 96.579 67.365H99.043C99.083 66.995 99.133 66.732 99.134 66.468C99.144 64.616 99.108 62.763 99.154 60.913C99.205 58.806 100.399 57.593 102.477 57.428C102.85 57.399 103.221 57.353 103.724 57.301V55.142C101.606 54.698 100.214 55.719 98.959 57.204L98.351 55.405H96.497ZM77.753 57.378V55.263H74.451L74.249 52.915C73.215 52.525 72.614 52.798 72.414 53.743C72.195 54.783 71.637 55.496 70.644 55.909C70.121 56.126 69.946 56.564 70.184 57.167L71.718 57.561C71.718 58.242 71.716 58.841 71.718 59.437C71.723 60.964 71.654 62.497 71.752 64.017C71.94 66.957 73.56 68.212 76.467 67.757C76.938 67.682 77.391 67.492 77.869 67.351C77.904 67.005 77.963 66.738 77.95 66.474C77.937 66.22 77.85 65.97 77.796 65.724C77.216 65.764 76.726 65.834 76.24 65.825C75.143 65.805 74.482 65.366 74.44 64.333C74.35 62.06 74.412 59.783 74.412 57.378H77.753ZM120.379 67.075C122.736 67.985 125.066 68.175 127.393 67.183C128.666 66.64 129.291 65.548 129.318 64.187C129.344 62.904 128.846 61.832 127.655 61.211C126.882 60.807 126.07 60.478 125.278 60.111C124.733 59.859 124.171 59.634 123.656 59.332C123.166 59.045 122.7 58.567 122.989 58.005C123.202 57.59 123.731 57.17 124.183 57.083C124.856 56.955 125.593 57.065 126.288 57.174C126.926 57.272 127.544 57.504 128.288 57.707C128.558 57.093 128.806 56.524 129.082 55.892C126.83 54.983 124.707 54.685 122.538 55.428C120.505 56.126 119.658 58.308 120.809 60.051C121.232 60.693 121.981 61.176 122.674 61.569C123.618 62.107 124.664 62.466 125.641 62.95C126.298 63.277 126.861 63.737 126.724 64.596C126.617 65.269 125.964 65.81 124.976 65.794C123.898 65.774 122.823 65.551 121.751 65.387C121.301 65.318 120.861 65.172 120.379 65.051V67.075ZM66.822 67.417C66.822 66.361 66.827 65.447 66.822 64.534C66.81 62.574 66.86 60.608 66.762 58.651C66.663 56.661 65.659 55.558 63.709 55.156C61.957 54.796 60.35 55.113 58.992 56.359C58.888 56.456 58.735 56.499 58.548 56.595L57.958 55.351L56.238 55.444V67.388H58.678C58.706 66.773 58.751 66.242 58.754 65.711C58.765 64.131 58.731 62.551 58.771 60.971C58.789 60.271 58.848 59.546 59.053 58.883C59.483 57.494 60.548 56.886 62.109 57.004C63.39 57.099 63.949 57.696 64.177 59.282C64.262 59.873 64.298 60.473 64.304 61.072C64.321 62.759 64.3 64.449 64.318 66.137C64.322 66.55 64.418 66.96 64.476 67.417H66.822ZM91.505 67.437C91.821 65.424 91.755 56.643 91.441 55.468H89.086C89.086 57.314 89.102 59.048 89.079 60.78C89.067 61.65 89.077 62.536 88.914 63.383C88.575 65.147 87.341 66.013 85.615 65.826C84.268 65.68 83.595 64.798 83.558 62.971C83.518 60.957 83.554 58.939 83.541 56.924C83.539 56.451 83.472 55.978 83.433 55.491H80.925C80.925 58.344 80.915 61.063 80.935 63.781C80.939 64.211 81.06 64.643 81.166 65.065C81.483 66.331 82.268 67.173 83.527 67.54C85.63 68.154 87.518 67.777 89.169 66.186C89.427 66.662 89.645 67.064 89.849 67.437H91.505ZM117.058 62.239C116.998 60.992 117.052 59.952 116.87 58.956C116.616 57.569 115.894 56.391 114.606 55.704C111.866 54.24 107.386 54.9 106.5 59.46C106.256 60.717 106.287 62.09 106.496 63.358C106.852 65.526 108.192 66.939 110.369 67.541C112.007 67.994 113.616 67.836 115.221 67.452C116.592 67.124 116.748 66.742 116.205 65.168C115.695 65.308 115.186 65.508 114.659 65.579C113.745 65.702 112.811 65.863 111.901 65.797C109.993 65.658 108.928 64.204 109.277 62.239H117.058ZM52.341 62.251C52.341 61.323 52.372 60.672 52.335 60.023C52.177 57.247 50.605 55.385 48.009 55.075C45.316 54.753 42.996 55.839 42.057 58.58C41.441 60.376 41.442 62.24 41.987 64.052C42.547 65.922 43.851 67.056 45.754 67.557C47.338 67.975 48.892 67.84 50.448 67.474C51.878 67.137 51.996 66.905 51.62 65.17C51.105 65.301 50.597 65.482 50.075 65.55C49.106 65.674 48.119 65.86 47.158 65.786C45.342 65.646 44.363 64.32 44.508 62.251H52.341ZM33.8 67.431L39.4 51.508H36.65L32.386 64.208L28.086 51.509H25.38L30.975 67.43H33.8V67.431ZM157.988 44.875V68.132H0.0669883C0.0669883 45.857 0.0649883 23.584 0.0849883 1.309C0.0849883 0.88 -0.245012 0.303 0.395988 0C0.389988 14.627 0.380988 29.255 0.380988 43.882C0.380988 44.189 0.471988 44.496 0.535988 44.898H156.346C156.893 44.898 157.44 44.883 157.987 44.875H157.988Z" fill="white"/>
<path fill-rule="evenodd" clip-rule="evenodd" d="M155.136 42.171C155.479 39.911 155.379 3.844 155.046 2.717C150.951 2.388 4.41001 2.553 3.175 2.888V42.171H155.135H155.136ZM157.988 44.875C157.441 44.883 156.894 44.898 156.347 44.898L2.566 44.899H0.536005C0.473005 44.496 0.380005 44.19 0.380005 43.882C0.381005 29.255 0.390005 14.627 0.397005 0H157.987V44.875H157.988ZM33.8 67.43H30.975L25.38 51.51H28.085L32.384 64.207C33.799 59.996 35.216 55.775 36.648 51.507H39.398L33.798 67.431L33.8 67.43ZM49.69 60.18C49.7 58.099 48.845 57.023 47.224 57C45.521 56.979 44.489 58.16 44.524 60.18H49.69ZM52.34 62.25H44.51C44.364 64.32 45.344 65.646 47.16 65.786C48.12 65.861 49.108 65.674 50.076 65.55C50.599 65.483 51.106 65.3 51.622 65.17C51.997 66.906 51.88 67.138 50.449 67.475C48.894 67.84 47.339 67.975 45.756 67.558C43.853 67.057 42.549 65.921 41.988 64.053C41.443 62.241 41.443 60.376 42.058 58.58C42.997 55.839 45.318 54.753 48.011 55.076C50.606 55.386 52.179 57.246 52.337 60.024C52.374 60.672 52.342 61.324 52.342 62.251L52.34 62.25ZM114.44 60.202C114.277 57.912 113.357 56.896 111.66 57.003C110.047 57.104 109.077 58.374 109.273 60.203H114.441L114.44 60.202ZM117.059 62.239H109.278C108.928 64.204 109.994 65.659 111.901 65.797C112.811 65.863 113.746 65.702 114.66 65.579C115.187 65.509 115.696 65.307 116.206 65.169C116.749 66.741 116.592 67.124 115.222 67.452C113.616 67.836 112.008 67.994 110.369 67.542C108.192 66.939 106.853 65.526 106.497 63.358C106.287 62.089 106.256 60.718 106.501 59.46C107.387 54.9 111.866 54.24 114.607 55.704C115.895 56.391 116.616 57.569 116.87 58.956C117.053 59.952 116.997 60.992 117.059 62.239ZM91.505 67.438H89.85L89.17 66.187C87.52 67.777 85.631 68.155 83.528 67.541C82.269 67.173 81.484 66.331 81.168 65.066C81.061 64.644 80.94 64.21 80.938 63.782C80.916 61.064 80.926 58.345 80.926 55.492H83.434C83.474 55.979 83.54 56.452 83.544 56.924C83.555 58.94 83.519 60.958 83.559 62.972C83.595 64.798 84.269 65.681 85.616 65.827C87.342 66.013 88.576 65.147 88.916 63.383C89.078 62.537 89.068 61.65 89.08 60.781C89.103 59.048 89.087 57.315 89.087 55.469H91.442C91.756 56.644 91.822 65.424 91.506 67.438H91.505ZM66.823 67.417H64.477C64.417 66.96 64.323 66.55 64.319 66.138C64.301 64.449 64.322 62.76 64.305 61.071C64.3022 60.4725 64.2598 59.8749 64.178 59.282C63.95 57.696 63.39 57.1 62.11 57.004C60.549 56.887 59.484 57.494 59.054 58.884C58.849 59.546 58.79 60.271 58.772 60.971C58.732 62.551 58.765 64.131 58.755 65.711C58.752 66.242 58.707 66.773 58.677 67.389H56.239V55.444L57.959 55.352L58.549 56.596C58.736 56.499 58.889 56.456 58.993 56.359C60.35 55.113 61.958 54.795 63.71 55.156C65.66 55.559 66.663 56.661 66.763 58.651C66.861 60.608 66.811 62.573 66.823 64.534C66.827 65.447 66.823 66.361 66.823 67.417ZM120.38 67.075V65.051C120.862 65.172 121.3 65.318 121.752 65.388C122.822 65.552 123.899 65.774 124.976 65.794C125.963 65.81 126.616 65.269 126.724 64.596C126.86 63.737 126.299 63.277 125.641 62.95C124.664 62.466 123.619 62.107 122.674 61.57C121.982 61.176 121.233 60.693 120.81 60.052C119.658 58.307 120.506 56.126 122.538 55.429C124.708 54.685 126.83 54.983 129.083 55.892L128.289 57.707C127.545 57.503 126.927 57.272 126.288 57.174C125.594 57.065 124.857 56.955 124.184 57.084C123.732 57.17 123.203 57.59 122.989 58.005C122.699 58.567 123.166 59.045 123.656 59.332C124.172 59.635 124.734 59.859 125.278 60.112C126.071 60.478 126.882 60.807 127.655 61.212C128.847 61.832 129.344 62.904 129.319 64.187C129.292 65.548 128.667 66.64 127.394 67.183C125.067 68.175 122.737 67.984 120.38 67.075ZM77.753 57.378H74.413C74.413 59.782 74.349 62.061 74.44 64.333C74.482 65.366 75.143 65.805 76.24 65.825C76.727 65.834 77.215 65.764 77.796 65.724C77.85 65.971 77.938 66.221 77.95 66.475C77.963 66.738 77.904 67.005 77.87 67.352C77.391 67.492 76.938 67.683 76.467 67.756C73.56 68.212 71.941 66.956 71.752 64.018C71.654 62.496 71.723 60.964 71.718 59.438C71.716 58.84 71.718 58.242 71.718 57.562L70.184 57.167C69.946 56.565 70.121 56.126 70.644 55.909C71.637 55.496 72.195 54.783 72.415 53.743C72.615 52.798 73.215 52.525 74.249 52.915L74.451 55.264H77.753V57.378ZM96.497 55.405H98.351C98.531 55.933 98.715 56.48 98.959 57.205C100.214 55.719 101.606 54.698 103.724 55.142V57.302C103.221 57.353 102.85 57.399 102.477 57.428C100.399 57.592 99.205 58.806 99.153 60.913C99.108 62.763 99.143 64.616 99.134 66.468C99.134 66.732 99.082 66.995 99.044 67.365H96.579C96.419 63.429 96.549 59.496 96.497 55.405Z" fill="black"/>
<path fill-rule="evenodd" clip-rule="evenodd" d="M32.196 22.0761C32.196 23.1761 32.194 24.0991 32.196 25.0241C32.203 27.3161 32.138 29.6111 32.242 31.8991C32.34 34.0451 33.132 35.9001 35.371 36.6221C37.85 37.4221 40.308 37.1621 42.804 36.1451C42.743 34.8111 43.023 33.5391 42.627 32.2601C42.105 32.3471 41.675 32.4231 41.244 32.4911C40.759 32.5681 40.276 32.6931 39.789 32.7031C38.167 32.7371 37.469 32.0911 37.443 30.4751C37.407 28.3471 37.432 26.2191 37.431 24.0901V21.9421H42.606V17.9681H37.386V14.1081H33.999C33.719 14.8351 33.402 15.4751 33.227 16.1521C32.893 17.4521 32.141 18.3201 30.954 18.9661C29.427 19.7971 29.416 20.0061 29.929 21.9041L32.196 22.0761ZM148.412 36.6511C148.459 36.2611 148.506 36.0471 148.506 35.8341C148.506 31.7971 148.554 27.7601 148.481 23.7241C148.421 20.5081 146.661 18.3511 143.631 17.8181C140.933 17.3431 138.387 17.6901 136.431 19.9131C136.299 20.0651 136.118 20.1761 135.859 20.3881L135.009 18.1061H131.234C130.924 20.3261 131.014 35.4561 131.329 36.6131H136.324V34.9081C136.327 32.3451 136.282 29.7791 136.36 27.2181C136.39 26.1991 136.57 25.1461 136.903 24.1841C137.465 22.5541 139.112 21.7251 140.866 22.0161C142.339 22.2611 143.108 23.2461 143.232 25.0901C143.276 25.7421 143.275 26.3981 143.277 27.0531C143.281 29.7801 143.273 32.5081 143.284 35.2351C143.286 35.7001 143.362 36.1651 143.404 36.6511H148.412ZM112.621 22.6711C113.293 22.4151 113.781 22.1621 114.301 22.0461C115.521 21.7721 116.753 21.3991 117.988 21.3661C120.161 21.3071 121.06 22.5571 120.608 24.9001C119.938 24.9001 119.235 24.8881 118.531 24.9031C116.611 24.9441 114.716 25.1231 112.881 25.7531C110.548 26.5551 109.275 28.1911 109.163 30.6201C109.02 33.7251 110.273 36.2101 113.28 36.8311C115.959 37.3861 118.515 37.0951 120.608 35.0591C120.825 34.847 121.082 34.6761 121.378 34.4391L122.373 36.6321C123.605 36.7521 124.773 36.7981 125.992 36.5971C126.025 36.0391 126.072 35.6101 126.072 35.1801C126.078 31.6871 126.084 28.1931 126.068 24.7001C126.065 24.0501 125.973 23.3961 125.903 22.7471C125.607 20.0131 123.976 18.4281 121.425 17.7221C119.445 17.1771 117.425 17.1891 115.409 17.5681C113.861 17.8581 112.332 18.1981 110.958 19.2041L112.621 22.6711ZM51.619 36.6621V34.8771C51.623 32.3121 51.559 29.7451 51.662 27.1841C51.707 26.0641 51.942 24.8981 52.356 23.8581C52.918 22.4481 54.654 21.7291 56.205 22.0251C57.595 22.2911 58.379 23.2791 58.515 24.9931C58.569 25.6451 58.57 26.3031 58.571 26.9561C58.576 29.6301 58.569 32.3041 58.577 34.9771C58.577 35.5071 58.627 36.0371 58.663 36.7211H63.708C63.751 36.2311 63.803 35.9161 63.803 35.5991C63.806 31.7251 63.842 27.8511 63.786 23.9771C63.748 21.3241 62.742 19.1741 60.096 18.1571C57.629 17.2071 54.004 17.4471 52.193 19.6311C52.016 19.8431 51.768 19.9961 51.619 20.1231C51.619 18.5031 51.631 16.9281 51.615 15.3531C51.599 13.7451 51.688 12.1291 51.552 10.4531C49.714 10.5261 48.092 10.2951 46.505 10.6001C46.174 13.3611 46.302 35.5011 46.654 36.6621H51.619ZM15.366 22.9981C15.428 22.4081 15.454 21.8101 15.559 21.2281C16.009 18.7291 17.455 17.0941 19.934 16.4751C21.586 16.0631 23.273 15.9211 24.974 16.2231C25.279 16.2781 25.592 16.2841 26.077 16.3281C26.054 14.8351 26.316 13.4581 25.923 12.0621C25.598 11.9731 25.34 11.8471 25.078 11.8421C23.877 11.8051 22.668 11.7221 21.474 11.8031C15.888 12.1851 12.589 14.9541 11.203 19.8701C10.361 22.8581 10.238 25.9211 10.643 28.9531C11.377 34.4381 15.065 37.3971 20.496 37.0051C23.501 36.7881 25.822 35.4001 27.063 32.5791C28.211 29.9651 28.223 27.2661 27.185 24.6161C26.424 22.6771 25.002 21.3661 22.932 20.8771C20.07 20.2011 17.514 20.6331 15.366 22.9981ZM100.211 36.7341C101.853 36.6251 103.399 36.9081 104.97 36.5461V12.1961H97.818C96.802 15.2731 95.823 18.3291 94.784 21.3661C93.759 24.3571 92.944 27.4281 91.597 30.7041L85.834 12.1861H78.69V36.6001H83.492L83.238 18.3651L83.394 18.3451L89.05 36.6501H93.923L99.973 18.3771L100.21 18.4401V36.7341H100.211ZM155.136 42.1711H3.17401V2.88805C4.41001 2.55305 150.951 2.38805 155.046 2.71805C155.379 3.84405 155.479 39.9111 155.136 42.1711ZM49.69 60.1801H44.525C44.489 58.1601 45.521 56.9791 47.224 57.0001C48.844 57.0231 49.701 58.0991 49.69 60.1801ZM114.44 60.2021H109.273C109.077 58.3741 110.047 57.1041 111.661 57.0031C113.357 56.8961 114.277 57.9131 114.441 60.2031" fill="white"/>
<path fill-rule="evenodd" clip-rule="evenodd" d="M100.21 36.734V18.44C100.131 18.42 100.052 18.398 99.974 18.377C97.96 24.459 95.946 30.54 93.924 36.651H89.05L83.395 18.343L83.239 18.364L83.493 36.599H78.69V12.188H85.833L91.596 30.706C92.943 27.429 93.758 24.359 94.783 21.366C95.823 18.331 96.803 15.275 97.817 12.198H104.97V36.548C103.398 36.909 101.853 36.627 100.21 36.736V36.734ZM22.855 28.559C22.733 26.491 22.093 25.325 20.692 24.822C19.13 24.26 17.342 24.812 16.32 26.172C14.766 28.244 16.234 32.141 18.767 32.666C20.188 32.962 21.712 32.25 22.27 30.902C22.575 30.166 22.667 29.342 22.855 28.559ZM15.366 22.998C17.514 20.633 20.069 20.202 22.931 20.877C25.001 21.366 26.423 22.677 27.184 24.617C28.224 27.267 28.21 29.965 27.062 32.58C25.822 35.4 23.502 36.788 20.496 37.005C15.064 37.398 11.376 34.439 10.643 28.954C10.237 25.921 10.36 22.859 11.203 19.871C12.588 14.955 15.887 12.186 21.473 11.803C22.668 11.721 23.876 11.805 25.078 11.841C25.339 11.848 25.598 11.974 25.922 12.063C26.315 13.457 26.054 14.835 26.076 16.329C25.592 16.285 25.278 16.279 24.973 16.224C23.273 15.921 21.585 16.064 19.933 16.476C17.454 17.094 16.01 18.73 15.559 21.229C15.453 21.811 15.429 22.408 15.366 22.998ZM51.618 36.662H46.653C46.303 35.502 46.173 13.362 46.504 10.6C48.091 10.295 49.714 10.526 51.551 10.452C51.687 12.129 51.598 13.745 51.615 15.353C51.63 16.928 51.618 18.503 51.618 20.123C51.768 19.996 52.015 19.843 52.192 19.631C54.003 17.446 57.628 17.206 60.097 18.156C62.741 19.174 63.747 21.324 63.785 23.977C63.841 27.851 63.806 31.725 63.803 35.6C63.803 35.916 63.75 36.231 63.707 36.721H58.662C58.627 36.037 58.577 35.507 58.576 34.977C58.568 32.304 58.576 29.63 58.57 26.957C58.57 26.302 58.568 25.645 58.515 24.993C58.378 23.279 57.595 22.291 56.205 22.025C54.653 21.729 52.917 22.448 52.355 23.858C51.941 24.9206 51.7064 26.0445 51.661 27.184C51.559 29.745 51.622 32.312 51.618 34.877V36.662ZM120.763 27.916C120.106 27.916 119.606 27.849 119.132 27.93C118.061 28.111 116.949 28.228 115.955 28.626C114.747 29.108 114.267 30.644 114.681 32C114.97 32.947 115.866 33.434 117.201 33.367C119.081 33.275 120.414 32.183 120.741 30.328C120.87 29.601 120.763 28.83 120.763 27.916ZM112.621 22.671L110.958 19.204C112.332 18.198 113.861 17.858 115.408 17.568C117.426 17.189 119.445 17.178 121.425 17.723C123.975 18.428 125.607 20.013 125.903 22.747C125.973 23.397 126.065 24.049 126.068 24.7C126.084 28.193 126.078 31.687 126.073 35.181C126.072 35.611 126.025 36.039 125.992 36.597C124.774 36.798 123.605 36.752 122.372 36.632L121.379 34.438C121.082 34.676 120.825 34.848 120.608 35.06C118.515 37.095 115.958 37.386 113.28 36.831C110.273 36.209 109.02 33.726 109.163 30.621C109.275 28.191 110.548 26.555 112.882 25.752C114.716 25.122 116.612 24.944 118.531 24.903C119.235 24.888 119.938 24.9 120.608 24.9C121.06 22.558 120.161 21.308 117.988 21.366C116.753 21.399 115.522 21.772 114.302 22.046C113.782 22.162 113.292 22.416 112.621 22.671ZM148.412 36.651H143.405C143.361 36.165 143.285 35.701 143.284 35.235C143.272 32.508 143.281 29.781 143.276 27.052C143.275 26.398 143.276 25.742 143.232 25.09C143.107 23.245 142.339 22.26 140.866 22.017C139.112 21.726 137.464 22.552 136.902 24.185C136.572 25.1635 136.389 26.1857 136.359 27.218C136.282 29.779 136.327 32.344 136.324 34.908V36.614H131.329C131.014 35.456 130.924 20.327 131.234 18.107H135.009L135.859 20.387C136.118 20.175 136.298 20.065 136.432 19.913C138.387 17.69 140.932 17.343 143.632 17.818C146.661 18.352 148.421 20.508 148.48 23.723C148.554 27.76 148.506 31.798 148.506 35.834C148.506 36.047 148.458 36.259 148.412 36.651ZM32.196 22.076L29.929 21.904C29.416 20.005 29.427 19.797 30.954 18.966C32.141 18.32 32.893 17.452 33.227 16.152C33.402 15.475 33.719 14.835 33.999 14.108H37.386V17.968H42.606V21.942H37.43V24.09C37.43 26.22 37.406 28.347 37.442 30.475C37.468 32.091 38.166 32.737 39.788 32.703C40.275 32.693 40.758 32.568 41.243 32.491C41.673 32.423 42.103 32.347 42.626 32.261C43.022 33.539 42.742 34.811 42.803 36.145C40.307 37.161 37.849 37.421 35.37 36.622C33.132 35.9 32.339 34.045 32.24 31.899C32.137 29.611 32.202 27.316 32.195 25.024C32.193 24.099 32.195 23.175 32.195 22.076" fill="black"/>
<path fill-rule="evenodd" clip-rule="evenodd" d="M22.855 28.559C22.667 29.343 22.575 30.166 22.27 30.902C21.712 32.25 20.188 32.962 18.767 32.666C16.234 32.141 14.767 28.244 16.32 26.173C17.342 24.813 19.13 24.26 20.692 24.822C22.093 25.325 22.733 26.491 22.855 28.559ZM120.763 27.916C120.763 28.83 120.87 29.601 120.742 30.328C120.414 32.183 119.082 33.275 117.202 33.368C115.866 33.434 114.97 32.948 114.681 32C114.267 30.644 114.747 29.108 115.955 28.626C116.949 28.228 118.061 28.111 119.132 27.93C119.606 27.85 120.106 27.916 120.762 27.916" fill="white"/>
</svg>
