<svg width="158" height="69" viewBox="0 0 158 69" fill="none" xmlns="http://www.w3.org/2000/svg">
<path fill-rule="evenodd" clip-rule="evenodd" d="M96.4966 55.405C96.5476 59.496 96.4176 63.429 96.5786 67.365H99.0426C99.0826 66.995 99.1326 66.732 99.1336 66.468C99.1436 64.616 99.1076 62.763 99.1536 60.913C99.2046 58.806 100.399 57.593 102.477 57.428C102.85 57.399 103.221 57.353 103.724 57.301V55.142C101.606 54.698 100.214 55.719 98.9586 57.204L98.3506 55.405H96.4966ZM77.7526 57.378V55.263H74.4506L74.2486 52.915C73.2146 52.525 72.6136 52.798 72.4136 53.743C72.1946 54.783 71.6366 55.496 70.6436 55.909C70.1206 56.126 69.9456 56.564 70.1836 57.167L71.7176 57.561C71.7176 58.242 71.7156 58.841 71.7176 59.437C71.7226 60.964 71.6536 62.497 71.7516 64.017C71.9396 66.957 73.5596 68.212 76.4666 67.757C76.9376 67.682 77.3906 67.492 77.8686 67.351C77.9036 67.005 77.9626 66.738 77.9496 66.474C77.9366 66.22 77.8496 65.97 77.7956 65.724C77.2156 65.764 76.7256 65.834 76.2396 65.825C75.1426 65.805 74.4816 65.366 74.4396 64.333C74.3496 62.06 74.4116 59.783 74.4116 57.378H77.7526ZM120.379 67.075C122.736 67.985 125.066 68.175 127.393 67.183C128.666 66.64 129.291 65.548 129.318 64.187C129.344 62.904 128.846 61.832 127.655 61.211C126.882 60.807 126.07 60.478 125.278 60.111C124.733 59.859 124.171 59.634 123.656 59.332C123.166 59.045 122.7 58.567 122.989 58.005C123.202 57.59 123.731 57.17 124.183 57.083C124.856 56.955 125.593 57.065 126.288 57.174C126.926 57.272 127.544 57.504 128.288 57.707C128.558 57.093 128.806 56.524 129.082 55.892C126.83 54.983 124.707 54.685 122.538 55.428C120.505 56.126 119.658 58.308 120.809 60.051C121.232 60.693 121.981 61.176 122.674 61.569C123.618 62.107 124.664 62.466 125.641 62.95C126.298 63.277 126.861 63.737 126.724 64.596C126.617 65.269 125.964 65.81 124.976 65.794C123.898 65.774 122.823 65.551 121.751 65.387C121.301 65.318 120.861 65.172 120.379 65.051V67.075ZM66.8216 67.417C66.8216 66.361 66.8266 65.447 66.8216 64.534C66.8096 62.574 66.8596 60.608 66.7616 58.651C66.6626 56.661 65.6586 55.558 63.7086 55.156C61.9566 54.796 60.3496 55.113 58.9916 56.359C58.8876 56.456 58.7346 56.499 58.5476 56.595L57.9576 55.351L56.2376 55.444V67.388H58.6776C58.7056 66.773 58.7506 66.242 58.7536 65.711C58.7646 64.131 58.7306 62.551 58.7706 60.971C58.7886 60.271 58.8476 59.546 59.0526 58.883C59.4826 57.494 60.5476 56.886 62.1086 57.004C63.3896 57.099 63.9486 57.696 64.1766 59.282C64.2616 59.873 64.2976 60.473 64.3036 61.072C64.3206 62.759 64.2996 64.449 64.3176 66.137C64.3216 66.55 64.4176 66.96 64.4756 67.417H66.8216ZM91.5046 67.437C91.8206 65.424 91.7546 56.643 91.4406 55.468H89.0856C89.0856 57.314 89.1016 59.048 89.0786 60.78C89.0666 61.65 89.0766 62.536 88.9136 63.383C88.5746 65.147 87.3406 66.013 85.6146 65.826C84.2676 65.68 83.5946 64.798 83.5576 62.971C83.5176 60.957 83.5536 58.939 83.5406 56.924C83.5386 56.451 83.4716 55.978 83.4326 55.491H80.9246C80.9246 58.344 80.9146 61.063 80.9346 63.781C80.9386 64.211 81.0596 64.643 81.1656 65.065C81.4826 66.331 82.2676 67.173 83.5266 67.54C85.6296 68.154 87.5176 67.777 89.1686 66.186C89.4266 66.662 89.6446 67.064 89.8486 67.437H91.5046ZM117.058 62.239C116.998 60.992 117.052 59.952 116.87 58.956C116.616 57.569 115.894 56.391 114.606 55.704C111.866 54.24 107.386 54.9 106.5 59.46C106.256 60.717 106.287 62.09 106.496 63.358C106.852 65.526 108.192 66.939 110.369 67.541C112.007 67.994 113.616 67.836 115.221 67.452C116.592 67.124 116.748 66.742 116.205 65.168C115.695 65.308 115.186 65.508 114.659 65.579C113.745 65.702 112.811 65.863 111.901 65.797C109.993 65.658 108.928 64.204 109.277 62.239H117.058ZM52.3406 62.251C52.3406 61.323 52.3716 60.672 52.3346 60.023C52.1766 57.247 50.6046 55.385 48.0086 55.075C45.3156 54.753 42.9956 55.839 42.0566 58.58C41.4406 60.376 41.4416 62.24 41.9866 64.052C42.5466 65.922 43.8506 67.056 45.7536 67.557C47.3376 67.975 48.8916 67.84 50.4476 67.474C51.8776 67.137 51.9956 66.905 51.6196 65.17C51.1046 65.301 50.5966 65.482 50.0746 65.55C49.1056 65.674 48.1186 65.86 47.1576 65.786C45.3416 65.646 44.3626 64.32 44.5076 62.251H52.3406ZM33.7996 67.431L39.3996 51.508H36.6496L32.3856 64.208L28.0856 51.509H25.3796L30.9746 67.43H33.7996V67.431ZM157.988 44.875V68.132H0.0665611C0.0665611 45.857 0.0645611 23.584 0.0845611 1.309C0.0845611 0.88 -0.245439 0.303 0.395561 0C0.389561 14.627 0.380561 29.255 0.380561 43.882C0.380561 44.189 0.471561 44.496 0.535561 44.898H156.346C156.893 44.898 157.44 44.883 157.987 44.875H157.988Z" fill="#18191F"/>
<path fill-rule="evenodd" clip-rule="evenodd" d="M155.136 42.171C155.479 39.911 155.379 3.844 155.046 2.717C150.951 2.388 4.40952 2.553 3.17452 2.888V42.171H155.135H155.136ZM157.988 44.875C157.441 44.883 156.894 44.898 156.347 44.898L2.56552 44.899H0.535517C0.472517 44.496 0.379517 44.19 0.379517 43.882C0.380517 29.255 0.389517 14.627 0.396517 0H157.987V44.875H157.988ZM33.7995 67.43H30.9745L25.3795 51.51H28.0845L32.3835 64.207C33.7985 59.996 35.2155 55.775 36.6475 51.507H39.3975L33.7975 67.431L33.7995 67.43ZM49.6895 60.18C49.6995 58.099 48.8445 57.023 47.2235 57C45.5205 56.979 44.4885 58.16 44.5235 60.18H49.6895ZM52.3395 62.25H44.5095C44.3635 64.32 45.3435 65.646 47.1595 65.786C48.1195 65.861 49.1075 65.674 50.0755 65.55C50.5985 65.483 51.1055 65.3 51.6215 65.17C51.9965 66.906 51.8795 67.138 50.4485 67.475C48.8935 67.84 47.3385 67.975 45.7555 67.558C43.8525 67.057 42.5485 65.921 41.9875 64.053C41.4425 62.241 41.4425 60.376 42.0575 58.58C42.9965 55.839 45.3175 54.753 48.0105 55.076C50.6055 55.386 52.1785 57.246 52.3365 60.024C52.3735 60.672 52.3415 61.324 52.3415 62.251L52.3395 62.25ZM114.44 60.202C114.277 57.912 113.357 56.896 111.66 57.003C110.047 57.104 109.077 58.374 109.273 60.203H114.441L114.44 60.202ZM117.059 62.239H109.278C108.928 64.204 109.994 65.659 111.901 65.797C112.811 65.863 113.746 65.702 114.66 65.579C115.187 65.509 115.696 65.307 116.206 65.169C116.749 66.741 116.592 67.124 115.222 67.452C113.616 67.836 112.008 67.994 110.369 67.542C108.192 66.939 106.853 65.526 106.497 63.358C106.287 62.089 106.256 60.718 106.501 59.46C107.387 54.9 111.866 54.24 114.607 55.704C115.895 56.391 116.616 57.569 116.87 58.956C117.053 59.952 116.997 60.992 117.059 62.239ZM91.5045 67.438H89.8495L89.1695 66.187C87.5195 67.777 85.6305 68.155 83.5275 67.541C82.2685 67.173 81.4835 66.331 81.1675 65.066C81.0605 64.644 80.9395 64.21 80.9375 63.782C80.9155 61.064 80.9255 58.345 80.9255 55.492H83.4335C83.4735 55.979 83.5395 56.452 83.5435 56.924C83.5545 58.94 83.5185 60.958 83.5585 62.972C83.5945 64.798 84.2685 65.681 85.6155 65.827C87.3415 66.013 88.5755 65.147 88.9155 63.383C89.0775 62.537 89.0675 61.65 89.0795 60.781C89.1025 59.048 89.0865 57.315 89.0865 55.469H91.4415C91.7555 56.644 91.8215 65.424 91.5055 67.438H91.5045ZM66.8225 67.417H64.4765C64.4165 66.96 64.3225 66.55 64.3185 66.138C64.3005 64.449 64.3215 62.76 64.3045 61.071C64.3017 60.4725 64.2593 59.8749 64.1775 59.282C63.9495 57.696 63.3895 57.1 62.1095 57.004C60.5485 56.887 59.4835 57.494 59.0535 58.884C58.8485 59.546 58.7895 60.271 58.7715 60.971C58.7315 62.551 58.7645 64.131 58.7545 65.711C58.7515 66.242 58.7065 66.773 58.6765 67.389H56.2385V55.444L57.9585 55.352L58.5485 56.596C58.7355 56.499 58.8885 56.456 58.9925 56.359C60.3495 55.113 61.9575 54.795 63.7095 55.156C65.6595 55.559 66.6625 56.661 66.7625 58.651C66.8605 60.608 66.8105 62.573 66.8225 64.534C66.8265 65.447 66.8225 66.361 66.8225 67.417ZM120.38 67.075V65.051C120.862 65.172 121.3 65.318 121.752 65.388C122.822 65.552 123.899 65.774 124.976 65.794C125.963 65.81 126.616 65.269 126.724 64.596C126.86 63.737 126.299 63.277 125.641 62.95C124.664 62.466 123.619 62.107 122.674 61.57C121.982 61.176 121.233 60.693 120.81 60.052C119.658 58.307 120.506 56.126 122.538 55.429C124.708 54.685 126.83 54.983 129.083 55.892L128.289 57.707C127.545 57.503 126.927 57.272 126.288 57.174C125.594 57.065 124.857 56.955 124.184 57.084C123.732 57.17 123.203 57.59 122.989 58.005C122.699 58.567 123.166 59.045 123.656 59.332C124.172 59.635 124.734 59.859 125.278 60.112C126.071 60.478 126.882 60.807 127.655 61.212C128.847 61.832 129.344 62.904 129.319 64.187C129.292 65.548 128.667 66.64 127.394 67.183C125.067 68.175 122.737 67.984 120.38 67.075ZM77.7525 57.378H74.4125C74.4125 59.782 74.3485 62.061 74.4395 64.333C74.4815 65.366 75.1425 65.805 76.2395 65.825C76.7265 65.834 77.2145 65.764 77.7955 65.724C77.8495 65.971 77.9375 66.221 77.9495 66.475C77.9625 66.738 77.9035 67.005 77.8695 67.352C77.3905 67.492 76.9375 67.683 76.4665 67.756C73.5595 68.212 71.9405 66.956 71.7515 64.018C71.6535 62.496 71.7225 60.964 71.7175 59.438C71.7155 58.84 71.7175 58.242 71.7175 57.562L70.1835 57.167C69.9455 56.565 70.1205 56.126 70.6435 55.909C71.6365 55.496 72.1945 54.783 72.4145 53.743C72.6145 52.798 73.2145 52.525 74.2485 52.915L74.4505 55.264H77.7525V57.378ZM96.4965 55.405H98.3505C98.5305 55.933 98.7145 56.48 98.9585 57.205C100.214 55.719 101.606 54.698 103.724 55.142V57.302C103.221 57.353 102.85 57.399 102.477 57.428C100.399 57.592 99.2045 58.806 99.1525 60.913C99.1075 62.763 99.1425 64.616 99.1335 66.468C99.1335 66.732 99.0815 66.995 99.0435 67.365H96.5785C96.4185 63.429 96.5485 59.496 96.4965 55.405Z" fill="white"/>
<path fill-rule="evenodd" clip-rule="evenodd" d="M32.1956 22.0761C32.1956 23.1761 32.1936 24.0991 32.1956 25.0241C32.2026 27.3161 32.1376 29.6111 32.2416 31.8991C32.3396 34.0451 33.1316 35.9001 35.3706 36.6221C37.8496 37.4221 40.3076 37.1621 42.8036 36.1451C42.7426 34.8111 43.0226 33.5391 42.6266 32.2601C42.1046 32.3471 41.6746 32.4231 41.2436 32.4911C40.7586 32.5681 40.2756 32.6931 39.7886 32.7031C38.1666 32.7371 37.4686 32.0911 37.4426 30.4751C37.4066 28.3471 37.4316 26.2191 37.4306 24.0901V21.9421H42.6056V17.9681H37.3856V14.1081H33.9986C33.7186 14.8351 33.4016 15.4751 33.2266 16.1521C32.8926 17.4521 32.1406 18.3201 30.9536 18.9661C29.4266 19.7971 29.4156 20.0061 29.9286 21.9041L32.1956 22.0761ZM148.412 36.6511C148.459 36.2611 148.506 36.0471 148.506 35.8341C148.506 31.7971 148.554 27.7601 148.481 23.7241C148.421 20.5081 146.661 18.3511 143.631 17.8181C140.933 17.3431 138.387 17.6901 136.431 19.9131C136.299 20.0651 136.118 20.1761 135.859 20.3881L135.009 18.1061H131.234C130.924 20.3261 131.014 35.4561 131.329 36.6131H136.324V34.9081C136.327 32.3451 136.282 29.7791 136.36 27.2181C136.39 26.1991 136.57 25.1461 136.903 24.1841C137.465 22.5541 139.112 21.7251 140.866 22.0161C142.339 22.2611 143.108 23.2461 143.232 25.0901C143.276 25.7421 143.275 26.3981 143.277 27.0531C143.281 29.7801 143.273 32.5081 143.284 35.2351C143.286 35.7001 143.362 36.1651 143.404 36.6511H148.412ZM112.621 22.6711C113.293 22.4151 113.781 22.1621 114.301 22.0461C115.521 21.7721 116.753 21.3991 117.988 21.3661C120.161 21.3071 121.06 22.5571 120.608 24.9001C119.938 24.9001 119.235 24.8881 118.531 24.9031C116.611 24.9441 114.716 25.1231 112.881 25.7531C110.548 26.5551 109.275 28.1911 109.163 30.6201C109.02 33.7251 110.273 36.2101 113.28 36.8311C115.959 37.3861 118.515 37.0951 120.608 35.0591C120.825 34.847 121.082 34.6761 121.378 34.4391L122.373 36.6321C123.605 36.7521 124.773 36.7981 125.992 36.5971C126.025 36.0391 126.072 35.6101 126.072 35.1801C126.078 31.6871 126.084 28.1931 126.068 24.7001C126.065 24.0501 125.973 23.3961 125.903 22.7471C125.607 20.0131 123.976 18.4281 121.425 17.7221C119.445 17.1771 117.425 17.1891 115.409 17.5681C113.861 17.8581 112.332 18.1981 110.958 19.2041L112.621 22.6711ZM51.6186 36.6621V34.8771C51.6226 32.3121 51.5586 29.7451 51.6616 27.1841C51.7066 26.0641 51.9416 24.8981 52.3556 23.8581C52.9176 22.4481 54.6536 21.7291 56.2046 22.0251C57.5946 22.2911 58.3786 23.2791 58.5146 24.9931C58.5686 25.6451 58.5696 26.3031 58.5706 26.9561C58.5756 29.6301 58.5686 32.3041 58.5766 34.9771C58.5766 35.5071 58.6266 36.0371 58.6626 36.7211H63.7076C63.7506 36.2311 63.8026 35.9161 63.8026 35.5991C63.8056 31.7251 63.8416 27.8511 63.7856 23.9771C63.7476 21.3241 62.7416 19.1741 60.0956 18.1571C57.6286 17.2071 54.0036 17.4471 52.1926 19.6311C52.0156 19.8431 51.7676 19.9961 51.6186 20.1231C51.6186 18.5031 51.6306 16.9281 51.6146 15.3531C51.5986 13.7451 51.6876 12.1291 51.5516 10.4531C49.7136 10.5261 48.0916 10.2951 46.5046 10.6001C46.1736 13.3611 46.3016 35.5011 46.6536 36.6621H51.6186ZM15.3656 22.9981C15.4276 22.4081 15.4536 21.8101 15.5586 21.2281C16.0086 18.7291 17.4546 17.0941 19.9336 16.4751C21.5856 16.0631 23.2726 15.9211 24.9736 16.2231C25.2786 16.2781 25.5916 16.2841 26.0766 16.3281C26.0536 14.8351 26.3156 13.4581 25.9226 12.0621C25.5976 11.9731 25.3396 11.8471 25.0776 11.8421C23.8766 11.8051 22.6676 11.7221 21.4736 11.8031C15.8876 12.1851 12.5886 14.9541 11.2026 19.8701C10.3606 22.8581 10.2376 25.9211 10.6426 28.9531C11.3766 34.4381 15.0646 37.3971 20.4956 37.0051C23.5006 36.7881 25.8216 35.4001 27.0626 32.5791C28.2106 29.9651 28.2226 27.2661 27.1846 24.6161C26.4236 22.6771 25.0016 21.3661 22.9316 20.8771C20.0696 20.2011 17.5136 20.6331 15.3656 22.9981ZM100.211 36.7341C101.853 36.6251 103.399 36.9081 104.97 36.5461V12.1961H97.8176C96.8016 15.2731 95.8226 18.3291 94.7836 21.3661C93.7586 24.3571 92.9436 27.4281 91.5966 30.7041L85.8336 12.1861H78.6896V36.6001H83.4916L83.2376 18.3651L83.3936 18.3451L89.0496 36.6501H93.9226L99.9726 18.3771L100.21 18.4401V36.7341H100.211ZM155.136 42.1711H3.17358V2.88805C4.40958 2.55305 150.951 2.38805 155.046 2.71805C155.379 3.84405 155.479 39.9111 155.136 42.1711ZM49.6896 60.1801H44.5246C44.4886 58.1601 45.5206 56.9791 47.2236 57.0001C48.8436 57.0231 49.7006 58.0991 49.6896 60.1801ZM114.44 60.2021H109.273C109.077 58.3741 110.047 57.1041 111.661 57.0031C113.357 56.8961 114.277 57.9131 114.441 60.2031" fill="#18191F"/>
<path fill-rule="evenodd" clip-rule="evenodd" d="M100.21 36.734V18.44C100.131 18.42 100.052 18.398 99.9736 18.377C97.9596 24.459 95.9456 30.54 93.9236 36.651H89.0496L83.3946 18.343L83.2386 18.364L83.4926 36.599H78.6896V12.188H85.8326L91.5956 30.706C92.9426 27.429 93.7576 24.359 94.7826 21.366C95.8226 18.331 96.8026 15.275 97.8166 12.198H104.97V36.548C103.398 36.909 101.853 36.627 100.21 36.736V36.734ZM22.8546 28.559C22.7326 26.491 22.0926 25.325 20.6916 24.822C19.1296 24.26 17.3416 24.812 16.3196 26.172C14.7656 28.244 16.2336 32.141 18.7666 32.666C20.1876 32.962 21.7116 32.25 22.2696 30.902C22.5746 30.166 22.6666 29.342 22.8546 28.559ZM15.3656 22.998C17.5136 20.633 20.0686 20.202 22.9306 20.877C25.0006 21.366 26.4226 22.677 27.1836 24.617C28.2236 27.267 28.2096 29.965 27.0616 32.58C25.8216 35.4 23.5016 36.788 20.4956 37.005C15.0636 37.398 11.3756 34.439 10.6426 28.954C10.2366 25.921 10.3596 22.859 11.2026 19.871C12.5876 14.955 15.8866 12.186 21.4726 11.803C22.6676 11.721 23.8756 11.805 25.0776 11.841C25.3386 11.848 25.5976 11.974 25.9216 12.063C26.3146 13.457 26.0536 14.835 26.0756 16.329C25.5916 16.285 25.2776 16.279 24.9726 16.224C23.2726 15.921 21.5846 16.064 19.9326 16.476C17.4536 17.094 16.0096 18.73 15.5586 21.229C15.4526 21.811 15.4286 22.408 15.3656 22.998ZM51.6176 36.662H46.6526C46.3026 35.502 46.1726 13.362 46.5036 10.6C48.0906 10.295 49.7136 10.526 51.5506 10.452C51.6866 12.129 51.5976 13.745 51.6146 15.353C51.6296 16.928 51.6176 18.503 51.6176 20.123C51.7676 19.996 52.0146 19.843 52.1916 19.631C54.0026 17.446 57.6276 17.206 60.0966 18.156C62.7406 19.174 63.7466 21.324 63.7846 23.977C63.8406 27.851 63.8056 31.725 63.8026 35.6C63.8026 35.916 63.7496 36.231 63.7066 36.721H58.6616C58.6266 36.037 58.5766 35.507 58.5756 34.977C58.5676 32.304 58.5756 29.63 58.5696 26.957C58.5696 26.302 58.5676 25.645 58.5146 24.993C58.3776 23.279 57.5946 22.291 56.2046 22.025C54.6526 21.729 52.9166 22.448 52.3546 23.858C51.9405 24.9206 51.706 26.0445 51.6606 27.184C51.5586 29.745 51.6216 32.312 51.6176 34.877V36.662ZM120.763 27.916C120.106 27.916 119.606 27.849 119.132 27.93C118.061 28.111 116.949 28.228 115.955 28.626C114.747 29.108 114.267 30.644 114.681 32C114.97 32.947 115.866 33.434 117.201 33.367C119.081 33.275 120.414 32.183 120.741 30.328C120.87 29.601 120.763 28.83 120.763 27.916ZM112.621 22.671L110.958 19.204C112.332 18.198 113.861 17.858 115.408 17.568C117.426 17.189 119.445 17.178 121.425 17.723C123.975 18.428 125.607 20.013 125.903 22.747C125.973 23.397 126.065 24.049 126.068 24.7C126.084 28.193 126.078 31.687 126.073 35.181C126.072 35.611 126.025 36.039 125.992 36.597C124.774 36.798 123.605 36.752 122.372 36.632L121.379 34.438C121.082 34.676 120.825 34.848 120.608 35.06C118.515 37.095 115.958 37.386 113.28 36.831C110.273 36.209 109.02 33.726 109.163 30.621C109.275 28.191 110.548 26.555 112.882 25.752C114.716 25.122 116.612 24.944 118.531 24.903C119.235 24.888 119.938 24.9 120.608 24.9C121.06 22.558 120.161 21.308 117.988 21.366C116.753 21.399 115.522 21.772 114.302 22.046C113.782 22.162 113.292 22.416 112.621 22.671ZM148.412 36.651H143.405C143.361 36.165 143.285 35.701 143.284 35.235C143.272 32.508 143.281 29.781 143.276 27.052C143.275 26.398 143.276 25.742 143.232 25.09C143.107 23.245 142.339 22.26 140.866 22.017C139.112 21.726 137.464 22.552 136.902 24.185C136.571 25.1635 136.388 26.1857 136.359 27.218C136.282 29.779 136.327 32.344 136.324 34.908V36.614H131.329C131.014 35.456 130.924 20.327 131.234 18.107H135.009L135.859 20.387C136.118 20.175 136.298 20.065 136.432 19.913C138.387 17.69 140.932 17.343 143.632 17.818C146.661 18.352 148.421 20.508 148.48 23.723C148.554 27.76 148.506 31.798 148.506 35.834C148.506 36.047 148.458 36.259 148.412 36.651ZM32.1956 22.076L29.9286 21.904C29.4156 20.005 29.4266 19.797 30.9536 18.966C32.1406 18.32 32.8926 17.452 33.2266 16.152C33.4016 15.475 33.7186 14.835 33.9986 14.108H37.3856V17.968H42.6056V21.942H37.4296V24.09C37.4296 26.22 37.4056 28.347 37.4416 30.475C37.4676 32.091 38.1656 32.737 39.7876 32.703C40.2746 32.693 40.7576 32.568 41.2426 32.491C41.6726 32.423 42.1026 32.347 42.6256 32.261C43.0216 33.539 42.7416 34.811 42.8026 36.145C40.3066 37.161 37.8486 37.421 35.3696 36.622C33.1316 35.9 32.3386 34.045 32.2396 31.899C32.1366 29.611 32.2016 27.316 32.1946 25.024C32.1926 24.099 32.1946 23.175 32.1946 22.076" fill="white"/>
<path fill-rule="evenodd" clip-rule="evenodd" d="M22.8546 28.559C22.6666 29.343 22.5746 30.166 22.2696 30.902C21.7116 32.25 20.1876 32.962 18.7666 32.666C16.2336 32.141 14.7666 28.244 16.3196 26.173C17.3416 24.813 19.1296 24.26 20.6916 24.822C22.0926 25.325 22.7326 26.491 22.8546 28.559ZM120.763 27.916C120.763 28.83 120.87 29.601 120.742 30.328C120.414 32.183 119.082 33.275 117.202 33.368C115.866 33.434 114.97 32.948 114.681 32C114.267 30.644 114.747 29.108 115.955 28.626C116.949 28.228 118.061 28.111 119.132 27.93C119.606 27.85 120.106 27.916 120.762 27.916" fill="#18191F"/>
</svg>
