<svg width="107" height="104" viewBox="0 0 107 104" fill="none" xmlns="http://www.w3.org/2000/svg">
<path fill-rule="evenodd" clip-rule="evenodd" d="M71.411 38.641C71.329 38.801 71.296 38.894 71.239 38.969C70.424 40.056 69.606 41.14 68.788 42.223C67.999 43.269 67.207 44.313 66.419 45.358C65.111 47.093 63.807 48.83 62.5 50.566C61.73 51.586 60.956 52.603 60.187 53.622C58.898 55.332 57.612 57.042 56.324 58.752C55.545 59.786 54.764 60.817 53.985 61.85L50.12 66.98L47.724 70.154C46.474 71.811 45.221 73.467 43.974 75.127C43.292 76.035 42.622 76.951 41.945 77.86C41.486 78.475 41.024 79.086 40.561 79.698C39.481 81.124 38.4 82.549 37.323 83.978C37.252 84.071 37.212 84.186 37.139 84.328C37.326 84.338 37.452 84.353 37.578 84.352L98.682 84.328C98.696 84.328 98.714 84.316 98.723 84.304C98.732 84.294 98.734 84.275 98.752 84.221C98.691 84.108 98.623 83.966 98.542 83.831C97.77 82.544 96.995 81.258 96.222 79.971L93.728 75.823L91.263 71.714L88.747 67.524L86.256 63.372L83.739 59.182L81.321 55.158L77.547 48.871C76.724 47.501 75.9 46.134 75.082 44.762C73.976 42.91 72.877 41.054 71.773 39.202C71.685 39.055 71.588 38.914 71.411 38.642V38.641ZM31.937 84.426L29.761 87.28C29.48 87.648 29.205 88.021 28.909 88.375C28.8169 88.4759 28.6943 88.544 28.56 88.569C28.2925 88.6087 28.0224 88.6274 27.752 88.625C18.676 88.628 9.599 88.627 0.524 88.629C0.349 88.629 0.175 88.647 0 88.656V88.56C0.068 88.495 0.152 88.441 0.2 88.365C0.497 87.891 0.79 87.415 1.076 86.936C2.148 85.139 3.215 83.34 4.287 81.544C5.073 80.229 5.867 78.917 6.655 77.604C7.518 76.165 8.378 74.727 9.241 73.289C10.006 72.017 10.775 70.747 11.539 69.475C12.434 67.983 13.327 66.489 14.222 64.996L16.665 60.932L19.155 56.785L21.595 52.72L24.16 48.45L26.527 44.51C27.399 43.058 28.268 41.606 29.14 40.155C29.937 38.827 30.736 37.5 31.534 36.173C31.896 35.573 32.265 34.974 32.619 34.368C32.793 34.07 32.995 33.926 33.376 33.928C46.664 33.939 59.952 33.938 73.239 33.938H73.673C73.87 34.231 74.069 34.5 74.24 34.788C74.935 35.953 75.619 37.126 76.314 38.292C77.148 39.692 77.989 41.085 78.827 42.482L81.294 46.588C82.124 47.971 82.953 49.354 83.784 50.736L86.225 54.799L88.764 59.03L91.231 63.136L93.768 67.367L96.162 71.348L98.702 75.578L101.141 79.643C101.996 81.067 102.85 82.491 103.706 83.913C104.504 85.241 105.3 86.569 106.102 87.893C106.224 88.093 106.374 88.275 106.511 88.464V88.656C106.288 88.647 106.065 88.629 105.842 88.629C80.868 88.627 55.894 88.629 30.92 88.625C30.592 88.625 30.265 88.588 29.852 88.565C30.068 88.266 30.231 88.033 30.402 87.807C31.114 86.865 31.831 85.925 32.543 84.983C33.889 83.198 35.231 81.41 36.577 79.624C37.374 78.566 38.176 77.51 38.973 76.454C40.252 74.757 41.53 73.06 42.809 71.365C43.598 70.32 44.39 69.278 45.179 68.233C46.449 66.55 47.717 64.867 48.985 63.184L51.438 59.934L55.219 54.924C56.026 53.854 56.836 52.785 57.643 51.714L60.154 48.387L62.607 45.137C63.877 43.454 65.143 41.77 66.416 40.089C66.935 39.403 67.47 38.726 67.994 38.042C68.108 37.894 68.208 37.735 68.361 37.514H67.363C67.251 37.51 67.14 37.505 67.028 37.505C56.874 37.505 46.72 37.506 36.565 37.497C36.117 37.497 35.747 37.528 35.579 38.024C35.536 38.155 35.41 38.254 35.336 38.377C34.44 39.869 33.547 41.365 32.65 42.857C31.902 44.103 31.15 45.347 30.402 46.593C29.474 48.141 28.551 49.693 27.622 51.24C26.891 52.458 26.153 53.673 25.421 54.892C24.54 56.357 23.663 57.824 22.784 59.288L20.415 63.232C19.544 64.684 18.674 66.136 17.802 67.587C17.029 68.874 16.252 70.16 15.479 71.447C14.1867 73.5959 12.8974 75.7466 11.611 77.899C10.914 79.065 10.233 80.24 9.535 81.405C9.035 82.24 8.515 83.065 8.008 83.895C7.936 84.013 7.884 84.145 7.784 84.347H8.452C16.08 84.347 23.707 84.347 31.335 84.351C31.536 84.351 31.737 84.401 31.937 84.426Z" fill="black"/>
<path fill-rule="evenodd" clip-rule="evenodd" d="M68.057 33.076C67.833 33.082 67.61 33.094 67.386 33.094H39.182C38.974 33.094 38.766 33.086 38.559 33.082C38.639 32.927 38.708 32.764 38.799 32.615C39.402 31.618 40.014 30.627 40.616 29.629C41.49 28.18 42.356 26.726 43.229 25.275C44.001 23.989 44.777 22.704 45.549 21.418C46.405 19.994 47.258 18.569 48.113 17.145C48.926 15.79 49.743 14.437 50.553 13.08C51.248 11.914 51.931 10.74 52.627 9.57501C52.835 9.22601 53.067 8.89301 53.313 8.51501C53.703 9.15001 54.07 9.72901 54.423 10.315C55.208 11.613 55.989 12.913 56.77 14.214C57.625 15.637 58.478 17.061 59.332 18.485L61.726 22.468C62.58 23.891 63.439 25.313 64.289 26.739C64.999 27.933 65.703 29.133 66.409 30.328C66.466 30.425 66.541 30.51 66.598 30.605C67.085 31.428 67.572 32.252 68.057 33.076Z" fill="#D2D2D2"/>
<path fill-rule="evenodd" clip-rule="evenodd" d="M68.057 33.076C67.572 32.252 67.085 31.428 66.597 30.605C66.541 30.51 66.466 30.425 66.41 30.328C65.703 29.133 65 27.933 64.289 26.739C63.439 25.313 62.579 23.891 61.726 22.468L59.332 18.485C58.478 17.061 57.625 15.637 56.77 14.214C55.989 12.913 55.208 11.613 54.423 10.315C54.07 9.729 53.703 9.15 53.313 8.515C53.068 8.893 52.835 9.226 52.627 9.575C51.931 10.74 51.247 11.914 50.553 13.08C49.743 14.437 48.926 15.79 48.113 17.145L45.55 21.418C44.777 22.704 44 23.989 43.229 25.275C42.357 26.726 41.489 28.18 40.616 29.629C40.014 30.627 39.402 31.618 38.799 32.615C38.708 32.764 38.639 32.927 38.559 33.082C37.439 33.091 36.322 33.1 35.203 33.106C34.646 33.109 34.09 33.107 33.475 33.107C33.661 32.568 33.955 32.153 34.217 31.722C34.275 31.626 34.349 31.541 34.406 31.445C35.098 30.277 35.784 29.106 36.478 27.94C37.344 26.486 38.215 25.035 39.087 23.585C39.835 22.34 40.59 21.098 41.337 19.853C42.249 18.334 43.156 16.811 44.067 15.292C44.855 13.977 45.649 12.666 46.437 11.352C47.293 9.93 48.145 8.505 48.999 7.081C49.804 5.74 50.608 4.397 51.417 3.058C52.003 2.09 52.597 1.125 53.189 0.159C53.219 0.108 53.264 0.065 53.319 0C53.675 0.574 54.029 1.122 54.363 1.682C55.067 2.861 55.756 4.049 56.459 5.228C57.277 6.599 58.102 7.967 58.924 9.335L61.392 13.438C62.238 14.847 63.081 16.259 63.927 17.668C64.741 19.023 65.557 20.377 66.37 21.732C67.216 23.141 68.06 24.553 68.907 25.962C69.712 27.303 70.515 28.645 71.325 29.983C71.837 30.83 72.364 31.668 72.879 32.512C72.976 32.671 73.053 32.843 73.166 33.06C73.039 33.082 72.969 33.104 72.899 33.104C71.365 33.106 69.829 33.106 68.295 33.104C68.215 33.104 68.135 33.086 68.057 33.076Z" fill="black"/>
<path fill-rule="evenodd" clip-rule="evenodd" d="M31.937 84.428C31.737 84.402 31.537 84.353 31.334 84.353C23.707 84.349 16.08 84.349 8.452 84.349H7.784C7.884 84.146 7.936 84.015 8.008 83.897C8.515 83.066 9.034 82.241 9.535 81.407C10.233 80.241 10.915 79.067 11.611 77.901C12.897 75.747 14.188 73.598 15.479 71.449C16.251 70.161 17.029 68.876 17.801 67.589C18.674 66.138 19.543 64.686 20.415 63.234L22.783 59.29C23.663 57.825 24.54 56.359 25.42 54.894C26.153 53.674 26.891 52.46 27.622 51.241C28.552 49.694 29.474 48.143 30.402 46.595C31.149 45.348 31.902 44.105 32.65 42.859C33.546 41.366 34.44 39.871 35.336 38.379C35.41 38.256 35.536 38.157 35.579 38.026C35.747 37.53 36.117 37.499 36.565 37.499C46.719 37.508 56.875 37.506 67.028 37.507C67.139 37.507 67.25 37.512 67.363 37.516C66.953 38.045 66.538 38.573 66.133 39.106C64.953 40.656 63.777 42.211 62.6 43.765C62.157 44.35 61.716 44.938 61.277 45.527C60.628 46.397 59.988 47.276 59.333 48.142C58.188 49.659 57.033 51.168 55.886 52.684C54.961 53.907 54.046 55.138 53.124 56.363C51.884 58.008 50.641 59.65 49.4 61.293L45.65 66.266L41.895 71.239C40.645 72.895 39.39 74.549 38.138 76.205C37.368 77.224 36.6 78.245 35.828 79.264C34.718 80.728 33.605 82.188 32.496 83.652C32.303 83.906 32.123 84.169 31.937 84.428Z" fill="#C2C2C2"/>
<path fill-rule="evenodd" clip-rule="evenodd" d="M48.05 98.209C48.157 98.079 48.21 98.024 48.254 97.962C48.866 97.065 49.474 96.166 50.092 95.272C50.418 94.8 50.758 94.336 51.092 93.869C51.367 93.484 51.747 93.324 52.212 93.349C52.696 93.376 53.009 93.707 52.999 94.189C52.9955 94.3173 52.9814 94.4451 52.957 94.571C52.609 96.455 52.259 98.338 51.907 100.221C51.891 100.313 51.863 100.404 51.826 100.551C51.429 100.551 51.034 100.566 50.642 100.547C50.35 100.531 50.276 100.396 50.332 100.092C50.622 98.539 50.912 96.985 51.2 95.432C51.21 95.371 51.207 95.307 51.214 95.156C51.078 95.296 50.984 95.374 50.914 95.47C50.6779 95.7907 50.4479 96.1157 50.224 96.445C49.57 97.41 48.921 98.379 48.267 99.344C48.033 99.688 47.792 100.024 47.549 100.36C47.461 100.48 47.421 100.669 47.209 100.648C46.988 100.627 46.995 100.431 46.949 100.292C46.539 99.016 46.135 97.737 45.731 96.46C45.653 96.217 45.583 95.97 45.499 95.73C45.4518 95.5914 45.377 95.4638 45.279 95.355C44.894 97.064 44.646 98.789 44.321 100.48C44.268 100.509 44.241 100.534 44.214 100.538C43.701 100.62 43.509 100.503 43.628 99.924C43.997 98.109 44.311 96.284 44.647 94.463C44.659 94.4 44.677 94.339 44.694 94.277C44.848 93.647 45.093 93.392 45.573 93.354C46.128 93.309 46.56 93.566 46.796 94.091C46.855 94.221 46.893 94.361 46.933 94.499C47.186 95.374 47.433 96.249 47.691 97.123C47.789 97.457 47.908 97.785 48.05 98.209ZM80.49 99.773C81.193 99.773 81.834 99.817 82.466 99.761C83.218 99.695 83.832 99.296 84.263 98.687C84.973 97.684 85.093 96.557 84.793 95.388C84.635 94.772 84.227 94.313 83.57 94.252C82.892 94.189 82.205 94.238 81.471 94.238L80.489 99.773H80.49ZM79.809 103.27C79.385 103.27 78.971 103.283 78.56 103.266C78.312 103.256 78.247 103.161 78.291 102.872C78.386 102.239 78.496 101.609 78.611 100.982C79.053 98.544 79.501 96.11 79.947 93.675C79.957 93.629 79.978 93.586 80.007 93.508C80.118 93.498 80.24 93.473 80.362 93.473C81.305 93.47 82.249 93.464 83.192 93.474C83.837 93.481 84.458 93.591 85.052 93.874C85.952 94.302 86.459 95.038 86.616 95.976C86.836 97.276 86.421 98.424 85.486 99.339C84.832 99.98 84.003 100.349 83.092 100.456C82.443 100.532 81.785 100.528 81.132 100.554C80.892 100.564 80.654 100.556 80.353 100.556C80.173 101.458 79.995 102.341 79.808 103.27H79.809ZM27.462 94.235L26.42 99.768C27.148 99.768 27.82 99.821 28.48 99.753C29.0772 99.689 29.626 99.3949 30.01 98.933C30.906 97.887 31.11 96.681 30.766 95.385C30.605 94.779 30.168 94.322 29.529 94.252C28.853 94.176 28.163 94.235 27.462 94.235ZM26.296 100.552L25.799 103.27C25.354 103.27 24.941 103.285 24.529 103.265C24.227 103.252 24.159 103.131 24.218 102.813C24.478 101.433 24.741 100.053 24.997 98.673C25.147 97.855 25.276 97.034 25.431 96.218C25.601 95.326 25.79 94.438 25.975 93.521C26.058 93.506 26.148 93.474 26.238 93.474C27.245 93.471 28.253 93.451 29.258 93.484C29.701 93.497 30.162 93.555 30.576 93.704C31.931 94.184 32.551 95.016 32.593 96.424C32.64 97.994 31.962 99.284 30.392 100.041C29.654 100.396 28.877 100.534 28.071 100.551C27.497 100.562 26.923 100.552 26.296 100.552ZM35.42 96.803C35.983 96.803 36.51 96.833 37.032 96.798C37.987 96.731 38.492 96.048 38.315 95.118C38.217 94.607 37.95 94.302 37.433 94.253C36.93 94.206 36.42 94.243 35.903 94.243L35.42 96.803ZM35.32 97.233L34.727 100.555C34.327 100.555 33.947 100.563 33.567 100.553C33.215 100.545 33.145 100.471 33.197 100.113C33.29 99.496 33.402 98.885 33.51 98.272C33.723 97.062 33.934 95.85 34.156 94.642C34.225 94.269 34.326 93.902 34.41 93.546C34.456 93.518 34.483 93.49 34.509 93.49C35.579 93.485 36.649 93.469 37.718 93.486C38.218 93.493 38.671 93.659 39.1 93.954C39.938 94.53 39.958 96.244 39.135 96.831C38.735 97.115 38.333 97.345 37.842 97.407C37.719 97.423 37.6 97.467 37.437 97.507L37.966 98.449C38.276 99.007 38.595 99.561 38.892 100.124C39.038 100.4 38.945 100.544 38.629 100.552C38.184 100.564 37.738 100.555 37.292 100.555C36.67 99.446 36.065 98.363 35.455 97.281C35.444 97.261 35.399 97.259 35.321 97.232L35.32 97.233ZM75.525 94.934C75.22 95.288 73.868 97.841 73.795 98.182H76.037C75.867 97.095 75.699 96.039 75.525 94.934ZM76.155 98.965C75.259 98.965 74.399 98.968 73.539 98.963C73.339 98.963 73.273 99.098 73.195 99.243C72.998 99.607 72.796 99.969 72.589 100.329C72.47 100.537 72.073 100.645 71.89 100.517C71.753 100.42 71.745 100.287 71.823 100.137C72.131 99.541 72.435 98.944 72.743 98.348C72.8 98.235 72.875 98.13 72.933 98.018C73.606 96.712 74.273 95.405 74.955 94.105C75.0708 93.8788 75.2198 93.6712 75.397 93.489C75.91 92.967 76.665 93.167 76.831 93.88C76.967 94.47 77.043 95.075 77.139 95.673C77.312 96.745 77.475 97.818 77.653 98.889C77.718 99.282 77.827 99.667 77.894 100.06C77.964 100.464 77.889 100.546 77.481 100.554C77.148 100.561 76.814 100.555 76.443 100.555L76.155 98.965ZM99.598 98.185C99.413 97.075 99.285 96.029 99.012 94.986C98.672 95.507 98.399 96.04 98.121 96.573C97.849 97.097 97.575 97.621 97.28 98.185H99.598ZM99.998 100.555C99.898 99.997 99.807 99.499 99.708 98.963C99.054 98.963 98.43 99.011 97.816 98.951C97.138 98.884 96.696 99.063 96.48 99.751C96.392 100.031 96.177 100.271 95.987 100.583C95.794 100.543 95.526 100.563 95.396 100.439C95.191 100.244 95.44 100.03 95.533 99.846C96.166 98.593 96.812 97.346 97.457 96.099C97.817 95.406 98.174 94.71 98.554 94.029C98.683 93.795 98.856 93.575 99.051 93.395C99.427 93.047 100.215 93.155 100.359 93.782C100.476 94.294 100.559 94.815 100.644 95.334C100.851 96.611 101.047 97.889 101.254 99.165C101.309 99.496 101.402 99.819 101.454 100.149C101.5 100.433 101.42 100.537 101.138 100.549C100.773 100.566 100.407 100.554 99.998 100.554V100.555ZM105.432 100.545C104.794 100.545 104.156 100.571 103.52 100.537C102.918 100.504 102.529 100.066 102.5 99.464C102.496 99.3044 102.509 99.1447 102.54 98.988C102.904 96.977 103.266 94.965 103.639 92.956C103.826 91.953 104.034 90.955 104.242 89.909C104.678 89.909 105.107 89.897 105.535 89.914C105.794 89.924 105.859 90.044 105.803 90.356C105.675 91.079 105.542 91.802 105.407 92.524L104.173 99.066C104.155 99.16 104.13 99.255 104.126 99.35C104.115 99.646 104.21 99.76 104.506 99.786C104.696 99.803 104.89 99.79 105.081 99.794C105.531 99.804 105.61 99.904 105.514 100.351C105.501 100.411 105.464 100.467 105.432 100.545ZM59.144 94.208H56.954C56.826 94.208 56.698 94.204 56.57 94.21C56.206 94.226 56.103 94.285 56.031 94.628C55.908 95.205 55.817 95.788 55.702 96.43C55.914 96.438 56.082 96.45 56.25 96.452C56.762 96.454 57.274 96.45 57.786 96.454C58.267 96.457 58.322 96.521 58.248 96.984C58.238 97.044 58.214 97.103 58.186 97.202H55.576C55.432 97.908 55.283 98.576 55.166 99.249C55.091 99.666 55.186 99.773 55.609 99.785C56.2 99.802 56.792 99.792 57.383 99.794C57.496 99.794 57.608 99.79 57.719 99.794C58.096 99.812 58.16 99.894 58.092 100.273C58.079 100.351 58.054 100.427 58.032 100.521C57.953 100.533 57.876 100.554 57.8 100.554C56.713 100.556 55.625 100.562 54.54 100.551C54.335 100.548 54.113 100.519 53.936 100.429C53.54 100.226 53.456 99.846 53.517 99.441C53.624 98.73 53.748 98.021 53.879 97.314C54.047 96.404 54.23 95.496 54.409 94.588C54.542 93.901 54.864 93.576 55.552 93.493C55.932 93.447 56.318 93.462 56.702 93.459C57.373 93.455 58.045 93.457 58.716 93.458C59.336 93.46 59.398 93.563 59.144 94.208ZM12.827 94.208H10.45C9.84999 94.211 9.78899 94.265 9.67899 94.874C9.58899 95.376 9.50199 95.878 9.40099 96.453H10.229C10.628 96.453 11.028 96.45 11.427 96.453C12.011 96.458 12.081 96.569 11.864 97.201H9.22999C9.09499 97.941 8.95499 98.645 8.83999 99.35C8.79599 99.629 8.91799 99.764 9.21799 99.782C9.58399 99.804 9.95199 99.792 10.32 99.794C10.655 99.794 10.99 99.789 11.326 99.794C11.766 99.803 11.824 99.879 11.735 100.32C11.723 100.382 11.703 100.442 11.68 100.527C11.557 100.537 11.434 100.555 11.31 100.555C10.304 100.558 9.29699 100.531 8.29199 100.564C7.61799 100.587 7.06199 100.221 7.22199 99.308C7.49199 97.768 7.76599 96.228 8.04999 94.688C8.19999 93.881 8.64399 93.488 9.46499 93.47C10.485 93.446 11.509 93.456 12.531 93.46C12.904 93.463 12.979 93.567 12.911 93.933C12.898 94.011 12.866 94.083 12.826 94.208H12.827ZM15.5 96.453H17.29C17.417 96.453 17.545 96.449 17.673 96.454C18.043 96.469 18.116 96.558 18.053 96.92C18.04 96.998 18.021 97.074 17.995 97.194H15.373C15.237 97.945 15.096 98.661 14.982 99.382C14.942 99.634 15.065 99.758 15.345 99.78C15.631 99.803 15.919 99.792 16.208 99.794C16.623 99.795 17.038 99.79 17.455 99.795C17.904 99.801 17.962 99.875 17.88 100.307C17.868 100.37 17.85 100.431 17.827 100.521C17.707 100.533 17.586 100.555 17.465 100.555C16.458 100.557 15.449 100.53 14.443 100.564C13.718 100.59 13.205 100.177 13.37 99.268C13.647 97.744 13.932 96.221 14.182 94.691C14.292 94.009 14.791 93.469 15.597 93.465C16.38 93.46 17.163 93.46 17.947 93.458C18.17 93.457 18.395 93.454 18.617 93.459C19.06 93.467 19.13 93.553 19.043 93.974C19.031 94.035 19.003 94.094 18.965 94.208H18.225C17.618 94.209 17.011 94.212 16.403 94.208C16.153 94.206 15.952 94.282 15.893 94.545C15.761 95.15 15.642 95.759 15.5 96.453ZM2.54299 99.763C2.71299 99.773 2.88299 99.791 3.05299 99.791C3.78799 99.796 4.52299 99.793 5.25899 99.793C5.91699 99.794 5.94299 99.829 5.79099 100.517C5.68099 100.53 5.55799 100.555 5.43599 100.555C3.88599 100.557 2.33599 100.556 0.785988 100.555C0.688988 100.555 0.585988 100.571 0.498988 100.541C0.343988 100.491 0.259988 100.376 0.349988 100.211C0.401988 100.114 0.479988 100.028 0.547988 99.941C1.32399 98.966 2.09799 97.993 2.87799 97.021C3.42599 96.335 3.98799 95.659 4.53099 94.971C4.69099 94.769 4.93399 94.591 4.84799 94.232C4.69199 94.224 4.53599 94.21 4.37999 94.209C3.66099 94.207 2.94099 94.209 2.22199 94.207C1.59399 94.207 1.52899 94.107 1.76599 93.457H5.72699C5.85499 93.457 5.98399 93.452 6.10999 93.467C6.63699 93.531 6.87599 93.932 6.61099 94.394C6.38199 94.792 6.08499 95.155 5.79499 95.515C5.25599 96.187 4.69799 96.845 4.15199 97.511C3.68799 98.08 3.22799 98.653 2.76999 99.228C2.66399 99.361 2.57499 99.508 2.47999 99.65L2.54299 99.763ZM70.864 99.198C70.934 99.233 70.967 99.242 70.989 99.263C71.392 99.648 71.389 99.727 70.941 100.067C70.082 100.72 69.093 100.808 68.067 100.715C67.8128 100.687 67.562 100.635 67.318 100.558C65.269 99.952 64.669 97.595 65.364 96.084C65.397 96.01 65.424 95.935 65.454 95.861C66.285 93.849 68.432 92.871 70.602 93.385C71.104 93.503 71.553 93.758 71.916 94.139C72.221 94.461 72.214 94.543 71.847 94.809C71.797 94.845 71.74 94.874 71.648 94.929C71.52 94.823 71.378 94.725 71.258 94.605C70.424 93.769 68.479 93.652 67.518 94.997C66.719 96.113 66.498 97.363 66.855 98.692C67.075 99.506 67.609 99.906 68.45 99.978C69.216 100.045 69.904 99.839 70.54 99.424C70.645 99.354 70.75 99.278 70.864 99.198Z" fill="black"/>
<path fill-rule="evenodd" clip-rule="evenodd" d="M91.59 93.472H96.075C96.732 93.472 96.765 93.519 96.582 94.212H94.819L93.643 100.556C93.251 100.556 92.888 100.561 92.525 100.555C92.107 100.548 92.043 100.482 92.108 100.075C92.213 99.413 92.327 98.752 92.448 98.094C92.671 96.9 92.902 95.71 93.126 94.518C93.141 94.44 93.144 94.362 93.156 94.221C92.776 94.221 92.413 94.221 92.051 94.219C91.404 94.218 91.361 94.153 91.59 93.472Z" fill="#010101"/>
<path fill-rule="evenodd" clip-rule="evenodd" d="M88.64 93.472C89.087 93.472 89.47 93.462 89.852 93.476C90.182 93.489 90.269 93.623 90.211 93.933C89.9795 95.1555 89.7525 96.3788 89.53 97.603C89.355 98.56 89.19 99.519 89.01 100.545C88.555 100.545 88.098 100.562 87.643 100.543C87.41 100.533 87.383 100.34 87.416 100.149C87.482 99.755 87.546 99.362 87.62 98.969C87.84 97.794 88.066 96.619 88.286 95.444C88.405 94.802 88.516 94.159 88.64 93.472ZM41.836 93.472C42.231 93.472 42.597 93.465 42.963 93.475C43.335 93.485 43.414 93.58 43.344 93.955C43.195 94.755 43.026 95.552 42.88 96.352C42.651 97.609 42.435 98.868 42.211 100.126C42.191 100.251 42.155 100.374 42.113 100.554C41.703 100.554 41.293 100.565 40.883 100.55C40.631 100.54 40.555 100.444 40.59 100.168C40.642 99.773 40.72 99.38 40.79 98.988C41.073 97.368 41.357 95.746 41.648 94.126C41.688 93.91 41.769 93.701 41.836 93.472Z" fill="black"/>
<path fill-rule="evenodd" clip-rule="evenodd" d="M89.716 91.521C90.242 91.512 90.576 91.8049 90.572 92.2689C90.568 92.7289 90.191 93.0689 89.681 93.0719C89.247 93.0749 88.859 92.7149 88.858 92.3099C88.857 91.8949 89.256 91.528 89.716 91.521Z" fill="#030303"/>
<path fill-rule="evenodd" clip-rule="evenodd" d="M42.835 93.072C42.358 93.078 42.035 92.773 42.031 92.315C42.026 91.847 42.359 91.529 42.859 91.521C43.372 91.512 43.674 91.777 43.685 92.241C43.695 92.731 43.353 93.067 42.835 93.072Z" fill="#020202"/>
<path fill-rule="evenodd" clip-rule="evenodd" d="M71.411 38.641C71.588 38.914 71.685 39.055 71.773 39.202C72.877 41.054 73.976 42.91 75.082 44.762C75.9 46.134 76.724 47.502 77.547 48.872L81.321 55.158L83.739 59.182L86.256 63.372L88.747 67.523L91.263 71.714L93.728 75.824L96.222 79.971C96.995 81.258 97.77 82.544 98.542 83.831C98.623 83.966 98.691 84.108 98.752 84.221C98.734 84.275 98.732 84.293 98.723 84.304C98.714 84.316 98.696 84.328 98.682 84.328L37.578 84.352C37.452 84.353 37.326 84.338 37.139 84.327C37.212 84.187 37.252 84.071 37.323 83.978C38.4 82.549 39.481 81.124 40.561 79.698C41.024 79.086 41.486 78.475 41.945 77.86C42.622 76.951 43.292 76.035 43.974 75.127C45.221 73.467 46.474 71.811 47.724 70.154L50.12 66.979L53.985 61.85C54.764 60.817 55.545 59.786 56.324 58.752C57.612 57.042 58.898 55.332 60.187 53.622C60.956 52.603 61.73 51.586 62.5 50.566C63.807 48.83 65.111 47.093 66.419 45.358C67.207 44.312 67.999 43.269 68.788 42.223C69.606 41.14 70.424 40.056 71.239 38.969C71.296 38.894 71.329 38.8 71.411 38.641Z" fill="#A5A5A5"/>
<path fill-rule="evenodd" clip-rule="evenodd" d="M80.49 99.773L81.471 94.238C82.205 94.238 82.892 94.189 83.571 94.252C84.227 94.313 84.635 94.772 84.793 95.388C85.093 96.556 84.973 97.684 84.263 98.688C83.833 99.296 83.218 99.695 82.466 99.761C81.834 99.817 81.193 99.773 80.489 99.773H80.49ZM27.462 94.235C28.162 94.235 28.852 94.176 29.529 94.252C30.168 94.322 30.605 94.779 30.766 95.385C31.111 96.681 30.906 97.887 30.01 98.932C29.6262 99.3942 29.0773 99.6887 28.48 99.753C27.82 99.821 27.148 99.768 26.42 99.768L27.462 94.235Z" fill="white"/>
<path fill-rule="evenodd" clip-rule="evenodd" d="M35.42 96.803C35.585 95.927 35.74 95.1 35.903 94.243C36.42 94.243 36.93 94.206 37.433 94.253C37.95 94.302 38.217 94.606 38.315 95.118C38.493 96.048 37.987 96.732 37.032 96.798C36.51 96.833 35.982 96.803 35.42 96.803Z" fill="#FEFEFE"/>
<path fill-rule="evenodd" clip-rule="evenodd" d="M75.525 94.934L76.037 98.182H73.795C73.868 97.842 75.22 95.288 75.525 94.934ZM99.598 98.185H97.28C97.575 97.621 97.849 97.097 98.12 96.573C98.399 96.04 98.673 95.507 99.012 94.986C99.285 96.029 99.412 97.074 99.598 98.186" fill="#FDFDFD"/>
</svg>
