<svg width="107" height="104" viewBox="0 0 107 104" fill="none" xmlns="http://www.w3.org/2000/svg">
<path fill-rule="evenodd" clip-rule="evenodd" d="M71.4105 38.641C71.3285 38.801 71.2955 38.894 71.2385 38.969C70.4235 40.056 69.6055 41.14 68.7875 42.223C67.9985 43.269 67.2065 44.313 66.4185 45.358C65.1105 47.093 63.8065 48.83 62.4995 50.566C61.7295 51.586 60.9555 52.603 60.1865 53.622C58.8975 55.332 57.6115 57.042 56.3235 58.752C55.5445 59.786 54.7635 60.817 53.9845 61.85L50.1195 66.98L47.7235 70.154C46.4735 71.811 45.2205 73.467 43.9735 75.127C43.2915 76.035 42.6215 76.951 41.9445 77.86C41.4855 78.475 41.0235 79.086 40.5605 79.698C39.4805 81.124 38.3995 82.549 37.3225 83.978C37.2515 84.071 37.2115 84.186 37.1385 84.328C37.3255 84.338 37.4515 84.353 37.5775 84.352L98.6815 84.328C98.6955 84.328 98.7135 84.316 98.7225 84.304C98.7315 84.294 98.7335 84.275 98.7515 84.221C98.6905 84.108 98.6225 83.966 98.5415 83.831C97.7695 82.544 96.9945 81.258 96.2215 79.971L93.7275 75.823L91.2625 71.714L88.7465 67.524L86.2555 63.372L83.7385 59.182L81.3205 55.158L77.5465 48.871C76.7235 47.501 75.8995 46.134 75.0815 44.762C73.9755 42.91 72.8765 41.054 71.7725 39.202C71.6845 39.055 71.5875 38.914 71.4105 38.642V38.641ZM31.9365 84.426L29.7605 87.28C29.4795 87.648 29.2045 88.021 28.9085 88.375C28.8164 88.4759 28.6939 88.544 28.5595 88.569C28.2921 88.6087 28.0219 88.6274 27.7515 88.625C18.6755 88.628 9.59851 88.627 0.523512 88.629C0.348512 88.629 0.174512 88.647 -0.000488281 88.656V88.56C0.0675117 88.495 0.151512 88.441 0.199512 88.365C0.496512 87.891 0.789512 87.415 1.07551 86.936C2.14751 85.139 3.21451 83.34 4.28651 81.544C5.07251 80.229 5.86651 78.917 6.65451 77.604C7.51751 76.165 8.37751 74.727 9.24051 73.289C10.0055 72.017 10.7745 70.747 11.5385 69.475C12.4335 67.983 13.3265 66.489 14.2215 64.996L16.6645 60.932L19.1545 56.785L21.5945 52.72L24.1595 48.45L26.5265 44.51C27.3985 43.058 28.2675 41.606 29.1395 40.155C29.9365 38.827 30.7355 37.5 31.5335 36.173C31.8955 35.573 32.2645 34.974 32.6185 34.368C32.7925 34.07 32.9945 33.926 33.3755 33.928C46.6635 33.939 59.9515 33.938 73.2385 33.938H73.6725C73.8695 34.231 74.0685 34.5 74.2395 34.788C74.9345 35.953 75.6185 37.126 76.3135 38.292C77.1475 39.692 77.9885 41.085 78.8265 42.482L81.2935 46.588C82.1235 47.971 82.9525 49.354 83.7835 50.736L86.2245 54.799L88.7635 59.03L91.2305 63.136L93.7675 67.367L96.1615 71.348L98.7015 75.578L101.141 79.643C101.996 81.067 102.85 82.491 103.706 83.913C104.504 85.241 105.3 86.569 106.102 87.893C106.224 88.093 106.374 88.275 106.511 88.464V88.656C106.288 88.647 106.065 88.629 105.842 88.629C80.8675 88.627 55.8935 88.629 30.9195 88.625C30.5915 88.625 30.2645 88.588 29.8515 88.565C30.0675 88.266 30.2305 88.033 30.4015 87.807C31.1135 86.865 31.8305 85.925 32.5425 84.983C33.8885 83.198 35.2305 81.41 36.5765 79.624C37.3735 78.566 38.1755 77.51 38.9725 76.454C40.2515 74.757 41.5295 73.06 42.8085 71.365C43.5975 70.32 44.3895 69.278 45.1785 68.233C46.4485 66.55 47.7165 64.867 48.9845 63.184L51.4375 59.934L55.2185 54.924C56.0255 53.854 56.8355 52.785 57.6425 51.714L60.1535 48.387L62.6065 45.137C63.8765 43.454 65.1425 41.77 66.4155 40.089C66.9345 39.403 67.4695 38.726 67.9935 38.042C68.1075 37.894 68.2075 37.735 68.3605 37.514H67.3625C67.2505 37.51 67.1395 37.505 67.0275 37.505C56.8735 37.505 46.7195 37.506 36.5645 37.497C36.1165 37.497 35.7465 37.528 35.5785 38.024C35.5355 38.155 35.4095 38.254 35.3355 38.377C34.4395 39.869 33.5465 41.365 32.6495 42.857C31.9015 44.103 31.1495 45.347 30.4015 46.593C29.4735 48.141 28.5505 49.693 27.6215 51.24C26.8905 52.458 26.1525 53.673 25.4205 54.892C24.5395 56.357 23.6625 57.824 22.7835 59.288L20.4145 63.232C19.5435 64.684 18.6735 66.136 17.8015 67.587C17.0285 68.874 16.2515 70.16 15.4785 71.447C14.1862 73.5959 12.8969 75.7466 11.6105 77.899C10.9135 79.065 10.2325 80.24 9.53451 81.405C9.03451 82.24 8.51451 83.065 8.00751 83.895C7.93551 84.013 7.88351 84.145 7.78351 84.347H8.45151C16.0795 84.347 23.7065 84.347 31.3345 84.351C31.5355 84.351 31.7365 84.401 31.9365 84.426Z" fill="white"/>
<path fill-rule="evenodd" clip-rule="evenodd" d="M68.0566 33.076C67.8326 33.082 67.6096 33.094 67.3856 33.094H39.1816C38.9736 33.094 38.7656 33.086 38.5586 33.082C38.6386 32.927 38.7076 32.764 38.7986 32.615C39.4016 31.618 40.0136 30.627 40.6156 29.629C41.4896 28.18 42.3556 26.726 43.2286 25.275C44.0006 23.989 44.7766 22.704 45.5486 21.418C46.4046 19.994 47.2576 18.569 48.1126 17.145C48.9256 15.79 49.7426 14.437 50.5526 13.08C51.2476 11.914 51.9306 10.74 52.6266 9.57501C52.8346 9.22601 53.0666 8.89301 53.3126 8.51501C53.7026 9.15001 54.0696 9.72901 54.4226 10.315C55.2076 11.613 55.9886 12.913 56.7696 14.214C57.6246 15.637 58.4776 17.061 59.3316 18.485L61.7256 22.468C62.5796 23.891 63.4386 25.313 64.2886 26.739C64.9986 27.933 65.7026 29.133 66.4086 30.328C66.4656 30.425 66.5406 30.51 66.5976 30.605C67.0846 31.428 67.5716 32.252 68.0566 33.076Z" fill="#D2D2D2"/>
<path fill-rule="evenodd" clip-rule="evenodd" d="M68.0566 33.076C67.5716 32.252 67.0846 31.428 66.5966 30.605C66.5406 30.51 66.4656 30.425 66.4096 30.328C65.7026 29.133 64.9996 27.933 64.2886 26.739C63.4386 25.313 62.5786 23.891 61.7256 22.468L59.3316 18.485C58.4776 17.061 57.6246 15.637 56.7696 14.214C55.9886 12.913 55.2076 11.613 54.4226 10.315C54.0696 9.729 53.7026 9.15 53.3126 8.515C53.0676 8.893 52.8346 9.226 52.6266 9.575C51.9306 10.74 51.2466 11.914 50.5526 13.08C49.7426 14.437 48.9256 15.79 48.1126 17.145L45.5496 21.418C44.7766 22.704 43.9996 23.989 43.2286 25.275C42.3566 26.726 41.4886 28.18 40.6156 29.629C40.0136 30.627 39.4016 31.618 38.7986 32.615C38.7076 32.764 38.6386 32.927 38.5586 33.082C37.4386 33.091 36.3216 33.1 35.2026 33.106C34.6456 33.109 34.0896 33.107 33.4746 33.107C33.6606 32.568 33.9546 32.153 34.2166 31.722C34.2746 31.626 34.3486 31.541 34.4056 31.445C35.0976 30.277 35.7836 29.106 36.4776 27.94C37.3436 26.486 38.2146 25.035 39.0866 23.585C39.8346 22.34 40.5896 21.098 41.3366 19.853C42.2486 18.334 43.1556 16.811 44.0666 15.292C44.8546 13.977 45.6486 12.666 46.4366 11.352C47.2926 9.93 48.1446 8.505 48.9986 7.081C49.8036 5.74 50.6076 4.397 51.4166 3.058C52.0026 2.09 52.5966 1.125 53.1886 0.159C53.2186 0.108 53.2636 0.065 53.3186 0C53.6746 0.574 54.0286 1.122 54.3626 1.682C55.0666 2.861 55.7556 4.049 56.4586 5.228C57.2766 6.599 58.1016 7.967 58.9236 9.335L61.3916 13.438C62.2376 14.847 63.0806 16.259 63.9266 17.668C64.7406 19.023 65.5566 20.377 66.3696 21.732C67.2156 23.141 68.0596 24.553 68.9066 25.962C69.7116 27.303 70.5146 28.645 71.3246 29.983C71.8366 30.83 72.3636 31.668 72.8786 32.512C72.9756 32.671 73.0526 32.843 73.1656 33.06C73.0386 33.082 72.9686 33.104 72.8986 33.104C71.3646 33.106 69.8286 33.106 68.2946 33.104C68.2146 33.104 68.1346 33.086 68.0566 33.076Z" fill="white"/>
<path fill-rule="evenodd" clip-rule="evenodd" d="M31.9364 84.428C31.7364 84.402 31.5364 84.353 31.3334 84.353C23.7064 84.349 16.0794 84.349 8.45145 84.349H7.78345C7.88345 84.146 7.93545 84.015 8.00745 83.897C8.51445 83.066 9.03345 82.241 9.53445 81.407C10.2324 80.241 10.9144 79.067 11.6104 77.901C12.8964 75.747 14.1874 73.598 15.4784 71.449C16.2504 70.161 17.0284 68.876 17.8004 67.589C18.6734 66.138 19.5424 64.686 20.4144 63.234L22.7824 59.29C23.6624 57.825 24.5394 56.359 25.4194 54.894C26.1524 53.674 26.8904 52.46 27.6214 51.241C28.5514 49.694 29.4734 48.143 30.4014 46.595C31.1484 45.348 31.9014 44.105 32.6494 42.859C33.5454 41.366 34.4394 39.871 35.3354 38.379C35.4094 38.256 35.5354 38.157 35.5784 38.026C35.7464 37.53 36.1164 37.499 36.5644 37.499C46.7184 37.508 56.8744 37.506 67.0274 37.507C67.1384 37.507 67.2494 37.512 67.3624 37.516C66.9524 38.045 66.5374 38.573 66.1325 39.106C64.9524 40.656 63.7764 42.211 62.5994 43.765C62.1564 44.35 61.7154 44.938 61.2764 45.527C60.6274 46.397 59.9874 47.276 59.3324 48.142C58.1874 49.659 57.0324 51.168 55.8854 52.684C54.9604 53.907 54.0454 55.138 53.1234 56.363C51.8834 58.008 50.6404 59.65 49.3994 61.293L45.6494 66.266L41.8944 71.239C40.6444 72.895 39.3894 74.549 38.1374 76.205C37.3674 77.224 36.5994 78.245 35.8274 79.264C34.7174 80.728 33.6044 82.188 32.4954 83.652C32.3024 83.906 32.1224 84.169 31.9364 84.428Z" fill="#C2C2C2"/>
<path fill-rule="evenodd" clip-rule="evenodd" d="M48.0494 98.209C48.1564 98.079 48.2094 98.024 48.2534 97.962C48.8654 97.065 49.4734 96.166 50.0914 95.272C50.4174 94.8 50.7574 94.336 51.0914 93.869C51.3664 93.484 51.7464 93.324 52.2114 93.349C52.6954 93.376 53.0084 93.707 52.9984 94.189C52.9949 94.3173 52.9809 94.4451 52.9564 94.571C52.6084 96.455 52.2584 98.338 51.9064 100.221C51.8904 100.313 51.8624 100.404 51.8254 100.551C51.4284 100.551 51.0334 100.566 50.6414 100.547C50.3494 100.531 50.2754 100.396 50.3314 100.092C50.6214 98.539 50.9114 96.985 51.1994 95.432C51.2094 95.371 51.2064 95.307 51.2134 95.156C51.0774 95.296 50.9834 95.374 50.9134 95.47C50.6773 95.7907 50.4473 96.1157 50.2234 96.445C49.5694 97.41 48.9204 98.379 48.2664 99.344C48.0324 99.688 47.7914 100.024 47.5484 100.36C47.4604 100.48 47.4204 100.669 47.2084 100.648C46.9874 100.627 46.9944 100.431 46.9484 100.292C46.5384 99.016 46.1344 97.737 45.7304 96.46C45.6524 96.217 45.5824 95.97 45.4984 95.73C45.4513 95.5914 45.3764 95.4638 45.2784 95.355C44.8934 97.064 44.6454 98.789 44.3204 100.48C44.2674 100.509 44.2404 100.534 44.2134 100.538C43.7004 100.62 43.5084 100.503 43.6274 99.924C43.9964 98.109 44.3104 96.284 44.6464 94.463C44.6584 94.4 44.6764 94.339 44.6934 94.277C44.8474 93.647 45.0924 93.392 45.5724 93.354C46.1274 93.309 46.5594 93.566 46.7954 94.091C46.8544 94.221 46.8924 94.361 46.9324 94.499C47.1854 95.374 47.4324 96.249 47.6904 97.123C47.7884 97.457 47.9074 97.785 48.0494 98.209ZM80.4894 99.773C81.1924 99.773 81.8334 99.817 82.4654 99.761C83.2174 99.695 83.8314 99.296 84.2624 98.687C84.9724 97.684 85.0924 96.557 84.7924 95.388C84.6344 94.772 84.2264 94.313 83.5694 94.252C82.8914 94.189 82.2044 94.238 81.4704 94.238L80.4884 99.773H80.4894ZM79.8084 103.27C79.3844 103.27 78.9704 103.283 78.5594 103.266C78.3114 103.256 78.2464 103.161 78.2904 102.872C78.3854 102.239 78.4954 101.609 78.6104 100.982C79.0524 98.544 79.5004 96.11 79.9464 93.675C79.9564 93.629 79.9774 93.586 80.0064 93.508C80.1174 93.498 80.2394 93.473 80.3614 93.473C81.3044 93.47 82.2484 93.464 83.1914 93.474C83.8364 93.481 84.4574 93.591 85.0514 93.874C85.9514 94.302 86.4584 95.038 86.6154 95.976C86.8354 97.276 86.4204 98.424 85.4854 99.339C84.8314 99.98 84.0024 100.349 83.0914 100.456C82.4424 100.532 81.7844 100.528 81.1314 100.554C80.8914 100.564 80.6534 100.556 80.3524 100.556C80.1724 101.458 79.9944 102.341 79.8074 103.27H79.8084ZM27.4614 94.235L26.4194 99.768C27.1474 99.768 27.8194 99.821 28.4794 99.753C29.0767 99.689 29.6254 99.3949 30.0094 98.933C30.9054 97.887 31.1094 96.681 30.7654 95.385C30.6044 94.779 30.1674 94.322 29.5284 94.252C28.8524 94.176 28.1624 94.235 27.4614 94.235ZM26.2954 100.552L25.7984 103.27C25.3534 103.27 24.9404 103.285 24.5284 103.265C24.2264 103.252 24.1584 103.131 24.2174 102.813C24.4774 101.433 24.7404 100.053 24.9964 98.673C25.1464 97.855 25.2754 97.034 25.4304 96.218C25.6004 95.326 25.7894 94.438 25.9744 93.521C26.0574 93.506 26.1474 93.474 26.2374 93.474C27.2444 93.471 28.2524 93.451 29.2574 93.484C29.7004 93.497 30.1614 93.555 30.5754 93.704C31.9304 94.184 32.5504 95.016 32.5924 96.424C32.6394 97.994 31.9614 99.284 30.3914 100.041C29.6534 100.396 28.8764 100.534 28.0704 100.551C27.4964 100.562 26.9224 100.552 26.2954 100.552ZM35.4194 96.803C35.9824 96.803 36.5094 96.833 37.0314 96.798C37.9864 96.731 38.4914 96.048 38.3144 95.118C38.2164 94.607 37.9494 94.302 37.4324 94.253C36.9294 94.206 36.4194 94.243 35.9024 94.243L35.4194 96.803ZM35.3194 97.233L34.7264 100.555C34.3264 100.555 33.9464 100.563 33.5664 100.553C33.2144 100.545 33.1444 100.471 33.1964 100.113C33.2894 99.496 33.4014 98.885 33.5094 98.272C33.7224 97.062 33.9334 95.85 34.1554 94.642C34.2244 94.269 34.3254 93.902 34.4094 93.546C34.4554 93.518 34.4824 93.49 34.5084 93.49C35.5784 93.485 36.6484 93.469 37.7174 93.486C38.2174 93.493 38.6704 93.659 39.0994 93.954C39.9374 94.53 39.9574 96.244 39.1344 96.831C38.7344 97.115 38.3324 97.345 37.8414 97.407C37.7184 97.423 37.5994 97.467 37.4364 97.507L37.9654 98.449C38.2754 99.007 38.5944 99.561 38.8914 100.124C39.0374 100.4 38.9444 100.544 38.6284 100.552C38.1834 100.564 37.7374 100.555 37.2914 100.555C36.6694 99.446 36.0644 98.363 35.4544 97.281C35.4434 97.261 35.3984 97.259 35.3204 97.232L35.3194 97.233ZM75.5244 94.934C75.2194 95.288 73.8674 97.841 73.7944 98.182H76.0364C75.8664 97.095 75.6984 96.039 75.5244 94.934ZM76.1544 98.965C75.2584 98.965 74.3984 98.968 73.5384 98.963C73.3384 98.963 73.2724 99.098 73.1944 99.243C72.9974 99.607 72.7954 99.969 72.5884 100.329C72.4694 100.537 72.0724 100.645 71.8894 100.517C71.7524 100.42 71.7444 100.287 71.8224 100.137C72.1304 99.541 72.4344 98.944 72.7424 98.348C72.7994 98.235 72.8744 98.13 72.9324 98.018C73.6054 96.712 74.2724 95.405 74.9544 94.105C75.0703 93.8788 75.2192 93.6712 75.3964 93.489C75.9094 92.967 76.6644 93.167 76.8304 93.88C76.9664 94.47 77.0424 95.075 77.1384 95.673C77.3114 96.745 77.4744 97.818 77.6524 98.889C77.7174 99.282 77.8264 99.667 77.8934 100.06C77.9634 100.464 77.8884 100.546 77.4804 100.554C77.1474 100.561 76.8134 100.555 76.4424 100.555L76.1544 98.965ZM99.5974 98.185C99.4124 97.075 99.2844 96.029 99.0114 94.986C98.6714 95.507 98.3984 96.04 98.1204 96.573C97.8484 97.097 97.5744 97.621 97.2794 98.185H99.5974ZM99.9974 100.555C99.8974 99.997 99.8064 99.499 99.7074 98.963C99.0534 98.963 98.4294 99.011 97.8154 98.951C97.1374 98.884 96.6954 99.063 96.4794 99.751C96.3914 100.031 96.1764 100.271 95.9864 100.583C95.7934 100.543 95.5254 100.563 95.3954 100.439C95.1904 100.244 95.4394 100.03 95.5324 99.846C96.1654 98.593 96.8114 97.346 97.4564 96.099C97.8164 95.406 98.1734 94.71 98.5534 94.029C98.6824 93.795 98.8554 93.575 99.0504 93.395C99.4264 93.047 100.214 93.155 100.358 93.782C100.475 94.294 100.558 94.815 100.643 95.334C100.85 96.611 101.046 97.889 101.253 99.165C101.308 99.496 101.401 99.819 101.453 100.149C101.499 100.433 101.419 100.537 101.137 100.549C100.772 100.566 100.406 100.554 99.9974 100.554V100.555ZM105.431 100.545C104.793 100.545 104.155 100.571 103.519 100.537C102.917 100.504 102.528 100.066 102.499 99.464C102.495 99.3044 102.509 99.1447 102.539 98.988C102.903 96.977 103.265 94.965 103.638 92.956C103.825 91.953 104.033 90.955 104.241 89.909C104.677 89.909 105.106 89.897 105.534 89.914C105.793 89.924 105.858 90.044 105.802 90.356C105.674 91.079 105.541 91.802 105.406 92.524L104.172 99.066C104.154 99.16 104.129 99.255 104.125 99.35C104.114 99.646 104.209 99.76 104.505 99.786C104.695 99.803 104.889 99.79 105.08 99.794C105.53 99.804 105.609 99.904 105.513 100.351C105.5 100.411 105.463 100.467 105.431 100.545ZM59.1434 94.208H56.9534C56.8254 94.208 56.6974 94.204 56.5694 94.21C56.2054 94.226 56.1024 94.285 56.0304 94.628C55.9074 95.205 55.8164 95.788 55.7014 96.43C55.9134 96.438 56.0814 96.45 56.2494 96.452C56.7614 96.454 57.2734 96.45 57.7854 96.454C58.2664 96.457 58.3214 96.521 58.2474 96.984C58.2374 97.044 58.2134 97.103 58.1854 97.202H55.5754C55.4314 97.908 55.2824 98.576 55.1654 99.249C55.0904 99.666 55.1854 99.773 55.6084 99.785C56.1994 99.802 56.7914 99.792 57.3824 99.794C57.4954 99.794 57.6074 99.79 57.7184 99.794C58.0954 99.812 58.1594 99.894 58.0914 100.273C58.0784 100.351 58.0534 100.427 58.0314 100.521C57.9524 100.533 57.8754 100.554 57.7994 100.554C56.7124 100.556 55.6244 100.562 54.5394 100.551C54.3344 100.548 54.1124 100.519 53.9354 100.429C53.5394 100.226 53.4554 99.846 53.5164 99.441C53.6234 98.73 53.7474 98.021 53.8784 97.314C54.0464 96.404 54.2294 95.496 54.4084 94.588C54.5414 93.901 54.8634 93.576 55.5514 93.493C55.9314 93.447 56.3174 93.462 56.7014 93.459C57.3724 93.455 58.0444 93.457 58.7154 93.458C59.3354 93.46 59.3974 93.563 59.1434 94.208ZM12.8264 94.208H10.4494C9.84944 94.211 9.78844 94.265 9.67844 94.874C9.58844 95.376 9.50144 95.878 9.40044 96.453H10.2284C10.6274 96.453 11.0274 96.45 11.4264 96.453C12.0104 96.458 12.0804 96.569 11.8634 97.201H9.22944C9.09444 97.941 8.95444 98.645 8.83944 99.35C8.79544 99.629 8.91744 99.764 9.21744 99.782C9.58344 99.804 9.95144 99.792 10.3194 99.794C10.6544 99.794 10.9894 99.789 11.3254 99.794C11.7654 99.803 11.8234 99.879 11.7344 100.32C11.7224 100.382 11.7024 100.442 11.6794 100.527C11.5564 100.537 11.4334 100.555 11.3094 100.555C10.3034 100.558 9.29644 100.531 8.29144 100.564C7.61744 100.587 7.06144 100.221 7.22144 99.308C7.49144 97.768 7.76544 96.228 8.04944 94.688C8.19944 93.881 8.64344 93.488 9.46444 93.47C10.4844 93.446 11.5084 93.456 12.5304 93.46C12.9034 93.463 12.9784 93.567 12.9104 93.933C12.8974 94.011 12.8654 94.083 12.8254 94.208H12.8264ZM15.4994 96.453H17.2894C17.4164 96.453 17.5444 96.449 17.6724 96.454C18.0424 96.469 18.1154 96.558 18.0524 96.92C18.0394 96.998 18.0204 97.074 17.9944 97.194H15.3724C15.2364 97.945 15.0954 98.661 14.9814 99.382C14.9414 99.634 15.0644 99.758 15.3444 99.78C15.6304 99.803 15.9184 99.792 16.2074 99.794C16.6224 99.795 17.0374 99.79 17.4544 99.795C17.9034 99.801 17.9614 99.875 17.8794 100.307C17.8674 100.37 17.8494 100.431 17.8264 100.521C17.7064 100.533 17.5854 100.555 17.4644 100.555C16.4574 100.557 15.4484 100.53 14.4424 100.564C13.7174 100.59 13.2044 100.177 13.3694 99.268C13.6464 97.744 13.9314 96.221 14.1814 94.691C14.2914 94.009 14.7904 93.469 15.5964 93.465C16.3794 93.46 17.1624 93.46 17.9464 93.458C18.1694 93.457 18.3944 93.454 18.6164 93.459C19.0594 93.467 19.1294 93.553 19.0424 93.974C19.0304 94.035 19.0024 94.094 18.9644 94.208H18.2244C17.6174 94.209 17.0104 94.212 16.4024 94.208C16.1524 94.206 15.9514 94.282 15.8924 94.545C15.7604 95.15 15.6414 95.759 15.4994 96.453ZM2.54244 99.763C2.71244 99.773 2.88244 99.791 3.05244 99.791C3.78744 99.796 4.52244 99.793 5.25844 99.793C5.91644 99.794 5.94244 99.829 5.79044 100.517C5.68044 100.53 5.55744 100.555 5.43544 100.555C3.88544 100.557 2.33544 100.556 0.785438 100.555C0.688438 100.555 0.585438 100.571 0.498438 100.541C0.343438 100.491 0.259438 100.376 0.349438 100.211C0.401438 100.114 0.479438 100.028 0.547438 99.941C1.32344 98.966 2.09744 97.993 2.87744 97.021C3.42544 96.335 3.98744 95.659 4.53044 94.971C4.69044 94.769 4.93344 94.591 4.84744 94.232C4.69144 94.224 4.53544 94.21 4.37944 94.209C3.66044 94.207 2.94044 94.209 2.22144 94.207C1.59344 94.207 1.52844 94.107 1.76544 93.457H5.72644C5.85444 93.457 5.98344 93.452 6.10944 93.467C6.63644 93.531 6.87544 93.932 6.61044 94.394C6.38144 94.792 6.08444 95.155 5.79444 95.515C5.25544 96.187 4.69744 96.845 4.15144 97.511C3.68744 98.08 3.22744 98.653 2.76944 99.228C2.66344 99.361 2.57444 99.508 2.47944 99.65L2.54244 99.763ZM70.8634 99.198C70.9334 99.233 70.9664 99.242 70.9884 99.263C71.3914 99.648 71.3884 99.727 70.9404 100.067C70.0814 100.72 69.0924 100.808 68.0664 100.715C67.8123 100.687 67.5614 100.635 67.3174 100.558C65.2684 99.952 64.6684 97.595 65.3634 96.084C65.3964 96.01 65.4234 95.935 65.4534 95.861C66.2844 93.849 68.4314 92.871 70.6014 93.385C71.1034 93.503 71.5524 93.758 71.9154 94.139C72.2204 94.461 72.2134 94.543 71.8464 94.809C71.7964 94.845 71.7394 94.874 71.6474 94.929C71.5194 94.823 71.3774 94.725 71.2574 94.605C70.4234 93.769 68.4784 93.652 67.5174 94.997C66.7184 96.113 66.4974 97.363 66.8544 98.692C67.0744 99.506 67.6084 99.906 68.4494 99.978C69.2154 100.045 69.9034 99.839 70.5394 99.424C70.6444 99.354 70.7494 99.278 70.8634 99.198Z" fill="white"/>
<path fill-rule="evenodd" clip-rule="evenodd" d="M91.5894 93.472H96.0744C96.7314 93.472 96.7644 93.519 96.5814 94.212H94.8184L93.6424 100.556C93.2504 100.556 92.8874 100.561 92.5244 100.555C92.1064 100.548 92.0424 100.482 92.1074 100.075C92.2124 99.413 92.3264 98.752 92.4474 98.094C92.6704 96.9 92.9014 95.71 93.1254 94.518C93.1404 94.44 93.1434 94.362 93.1554 94.221C92.7754 94.221 92.4124 94.221 92.0504 94.219C91.4034 94.218 91.3604 94.153 91.5894 93.472Z" fill="white"/>
<path fill-rule="evenodd" clip-rule="evenodd" d="M88.6396 93.472C89.0866 93.472 89.4696 93.462 89.8516 93.476C90.1816 93.489 90.2686 93.623 90.2106 93.933C89.979 95.1555 89.752 96.3788 89.5296 97.603C89.3546 98.56 89.1896 99.519 89.0096 100.545C88.5546 100.545 88.0976 100.562 87.6426 100.543C87.4096 100.533 87.3826 100.34 87.4156 100.149C87.4816 99.755 87.5456 99.362 87.6196 98.969C87.8396 97.794 88.0656 96.619 88.2856 95.444C88.4046 94.802 88.5156 94.159 88.6396 93.472ZM41.8356 93.472C42.2306 93.472 42.5966 93.465 42.9626 93.475C43.3346 93.485 43.4136 93.58 43.3436 93.955C43.1946 94.755 43.0256 95.552 42.8796 96.352C42.6506 97.609 42.4346 98.868 42.2106 100.126C42.1906 100.251 42.1546 100.374 42.1126 100.554C41.7026 100.554 41.2926 100.565 40.8826 100.55C40.6306 100.54 40.5546 100.444 40.5896 100.168C40.6416 99.773 40.7196 99.38 40.7896 98.988C41.0726 97.368 41.3566 95.746 41.6476 94.126C41.6876 93.91 41.7686 93.701 41.8356 93.472Z" fill="white"/>
<path fill-rule="evenodd" clip-rule="evenodd" d="M89.7154 91.521C90.2414 91.512 90.5754 91.8049 90.5714 92.2689C90.5674 92.7289 90.1904 93.0689 89.6804 93.0719C89.2464 93.0749 88.8584 92.7149 88.8574 92.3099C88.8564 91.8949 89.2554 91.528 89.7154 91.521Z" fill="white"/>
<path fill-rule="evenodd" clip-rule="evenodd" d="M42.8346 93.072C42.3576 93.078 42.0346 92.773 42.0306 92.315C42.0256 91.847 42.3586 91.529 42.8586 91.521C43.3716 91.512 43.6736 91.777 43.6846 92.241C43.6946 92.731 43.3526 93.067 42.8346 93.072Z" fill="#18191F"/>
<path fill-rule="evenodd" clip-rule="evenodd" d="M71.4104 38.641C71.5874 38.914 71.6844 39.055 71.7724 39.202C72.8764 41.054 73.9754 42.91 75.0814 44.762C75.8994 46.134 76.7234 47.502 77.5464 48.872L81.3204 55.158L83.7384 59.182L86.2554 63.372L88.7464 67.523L91.2624 71.714L93.7274 75.824L96.2214 79.971C96.9944 81.258 97.7694 82.544 98.5414 83.831C98.6224 83.966 98.6904 84.108 98.7514 84.221C98.7334 84.275 98.7314 84.293 98.7224 84.304C98.7134 84.316 98.6954 84.328 98.6814 84.328L37.5774 84.352C37.4514 84.353 37.3254 84.338 37.1384 84.327C37.2114 84.187 37.2514 84.071 37.3224 83.978C38.3994 82.549 39.4804 81.124 40.5604 79.698C41.0234 79.086 41.4854 78.475 41.9444 77.86C42.6214 76.951 43.2914 76.035 43.9734 75.127C45.2204 73.467 46.4734 71.811 47.7234 70.154L50.1194 66.979L53.9844 61.85C54.7634 60.817 55.5444 59.786 56.3234 58.752C57.6114 57.042 58.8974 55.332 60.1864 53.622C60.9554 52.603 61.7294 51.586 62.4994 50.566C63.8064 48.83 65.1104 47.093 66.4184 45.358C67.2064 44.312 67.9984 43.269 68.7874 42.223C69.6054 41.14 70.4234 40.056 71.2384 38.969C71.2954 38.894 71.3284 38.8 71.4104 38.641Z" fill="#A5A5A5"/>
<path fill-rule="evenodd" clip-rule="evenodd" d="M80.4894 99.773L81.4704 94.238C82.2044 94.238 82.8914 94.189 83.5704 94.252C84.2264 94.313 84.6344 94.772 84.7924 95.388C85.0924 96.556 84.9724 97.684 84.2624 98.688C83.8324 99.296 83.2174 99.695 82.4654 99.761C81.8334 99.817 81.1924 99.773 80.4884 99.773H80.4894ZM27.4614 94.235C28.1614 94.235 28.8514 94.176 29.5284 94.252C30.1674 94.322 30.6044 94.779 30.7654 95.385C31.1104 96.681 30.9054 97.887 30.0094 98.932C29.6256 99.3942 29.0768 99.6887 28.4794 99.753C27.8194 99.821 27.1474 99.768 26.4194 99.768L27.4614 94.235Z" fill="#18191F"/>
<path fill-rule="evenodd" clip-rule="evenodd" d="M35.4194 96.803C35.5844 95.927 35.7394 95.1 35.9024 94.243C36.4194 94.243 36.9294 94.206 37.4324 94.253C37.9494 94.302 38.2164 94.606 38.3144 95.118C38.4924 96.048 37.9864 96.732 37.0314 96.798C36.5094 96.833 35.9814 96.803 35.4194 96.803Z" fill="#FEFEFE"/>
<path fill-rule="evenodd" clip-rule="evenodd" d="M75.5244 94.934L76.0364 98.182H73.7944C73.8674 97.842 75.2194 95.288 75.5244 94.934ZM99.5974 98.185H97.2794C97.5744 97.621 97.8484 97.097 98.1194 96.573C98.3984 96.04 98.6724 95.507 99.0114 94.986C99.2844 96.029 99.4114 97.074 99.5974 98.186" fill="#FDFDFD"/>
</svg>
