<svg width="193" height="53" viewBox="0 0 193 53" fill="none" xmlns="http://www.w3.org/2000/svg">
<path fill-rule="evenodd" clip-rule="evenodd" d="M79.1755 52.9859C79.3885 52.0029 79.6075 51.0189 79.8155 50.0359L82.5155 37.1709C84.6196 27.141 86.7253 17.1113 88.8325 7.08195C89.3105 4.80795 89.7925 2.53595 90.2645 0.261947C90.3015 0.0829474 90.3605 0.0129474 90.5505 0.0139474C92.2835 0.0209474 94.0165 0.0179474 95.7505 0.0189474C95.7815 0.0189474 95.8125 0.0289474 95.8835 0.0389474C98.2135 11.0559 100.544 22.0859 102.88 33.1459C102.762 33.1559 102.672 33.1689 102.582 33.1689C101.019 33.1699 99.4545 33.1649 97.8915 33.1739C97.6535 33.1759 97.5735 33.1089 97.5315 32.8669C96.7785 28.5919 96.0135 24.3209 95.2515 20.0479L93.1395 8.20295C93.1275 8.13295 93.0975 8.06595 93.0535 7.92895L90.4475 22.7249H94.6535C94.9515 24.1469 95.2435 25.5449 95.5455 26.9809H89.8555L89.3895 29.7009L87.8255 38.9279C87.3025 42.0149 86.7815 45.1009 86.2575 48.1879C85.9855 49.7879 85.7055 51.3859 85.4295 52.9859H79.1765H79.1755ZM192.501 4.40595C192.363 4.40195 192.226 4.39595 192.088 4.39595C185.483 4.39495 178.881 4.39795 172.277 4.39495C162.846 4.38995 153.414 4.38195 143.982 4.37495H143.582C143.72 4.09695 143.833 3.87595 143.945 3.65295C144.512 2.52495 145.085 1.39995 145.643 0.266947C145.737 0.0749474 145.843 -0.0180526 146.054 0.0169474C146.084 0.0219474 146.118 0.0169474 146.149 0.0169474C161.601 0.0139474 177.05 0.00994736 192.501 0.00794736V4.40595ZM-0.000488281 33.1469V28.9399H0.341512C5.16851 28.9329 9.99651 28.9209 14.8235 28.9199C24.7235 28.9169 34.6245 28.9199 44.5235 28.9179C47.1075 28.9179 49.6905 28.9049 52.2745 28.8979C52.9445 28.8959 53.4045 28.4989 53.4575 27.8209C53.5015 27.2709 53.4885 26.7169 53.4915 26.1659C53.4955 25.2189 53.4795 24.2739 53.4975 23.3289C53.5085 22.6819 53.2495 22.1769 52.7785 21.7649C49.5365 18.9349 46.2895 16.1129 43.0535 13.2749C42.3005 12.6149 41.8975 11.7689 41.9005 10.7509C41.9025 9.88895 41.9025 9.02895 41.9005 8.16795C41.8945 6.39395 41.8825 4.62095 41.8805 2.84595C41.8775 1.24295 42.8865 0.230947 44.4845 0.229947H59.1315V4.37495H58.0695C56.8355 4.37495 55.6025 4.37695 54.3685 4.37495C52.7105 4.36995 51.0515 4.37195 49.3935 4.34495C48.9125 4.33695 48.6125 4.55795 48.4585 4.96095C48.3485 5.25095 48.2945 5.57895 48.2895 5.89095C48.2655 7.33495 48.2735 8.77895 48.2585 10.2229C48.2505 10.8869 48.5085 11.4229 48.9965 11.8489C52.0345 14.5089 55.0785 17.1609 58.1155 19.8199C58.7355 20.3629 59.0535 21.0669 59.1375 21.8799C59.1535 22.0279 59.1495 22.1769 59.1495 22.3259L59.1505 32.7489V33.1469H-0.000488281ZM118.309 18.1119L124.369 33.1699H121.936C120.948 33.1699 119.959 33.1649 118.97 33.1739C118.777 33.1749 118.672 33.1339 118.593 32.9339C116.637 28.0059 114.673 23.0809 112.711 18.1539C112.684 18.0859 112.651 18.0139 112.651 17.9419C112.647 16.9249 112.648 15.9089 112.648 14.8449H118.003V4.64595H111.337V33.1399H105.984V0.0419474H123.322V0.397947L123.332 10.3099C123.335 12.0419 123.341 13.7729 123.342 15.5049C123.344 16.9919 122.514 17.8859 121.015 17.9849C120.221 18.0379 119.423 18.0499 118.627 18.0819C118.535 18.0859 118.442 18.0989 118.309 18.1119ZM75.3395 4.66795H68.7995V33.1579H63.4775V0.262947H78.0465C79.7345 0.262947 80.7925 1.26195 80.8365 2.94695C80.8675 4.12595 80.8445 5.30595 80.8465 6.48495C80.8465 10.5429 80.8175 14.6019 80.8615 18.6589C80.8709 19.2727 80.6597 19.8694 80.2662 20.3406C79.8727 20.8117 79.3231 21.1259 78.7175 21.2259C78.488 21.2698 78.2551 21.2939 78.0215 21.2979C75.3415 21.3069 72.6625 21.3079 69.9835 21.3109C69.9205 21.3109 69.8575 21.3029 69.7685 21.2959V17.0289H75.3385V4.66795H75.3395ZM127.617 33.1519V0.0359474H132.9V13.8759L132.963 13.8939C133.003 13.8179 133.052 13.7459 133.086 13.6669C134.988 9.21995 136.891 4.77395 138.786 0.324947C138.886 0.0909474 139.001 -0.00305264 139.27 -5.26409e-05C141.014 0.0139474 142.758 0.00694736 144.502 0.00694736H144.875C144.645 0.483947 144.433 0.926947 144.218 1.36795C141.646 6.62895 139.074 11.8889 136.503 17.1509C135.347 19.5139 134.193 21.8789 133.046 24.2459C132.973 24.4095 132.937 24.587 132.941 24.7659C132.934 27.4319 132.936 30.0989 132.936 32.7659V33.1519H127.616H127.617Z" fill="white"/>
<path fill-rule="evenodd" clip-rule="evenodd" d="M138.15 17.576C140.641 22.762 143.11 27.901 145.6 33.08C145.488 33.09 145.401 33.105 145.315 33.105C143.539 33.106 141.763 33.102 139.987 33.11C139.781 33.111 139.674 33.057 139.581 32.857C138.131 29.742 136.667 26.633 135.216 23.517C135.158 23.394 135.142 23.197 135.201 23.084C136.137 21.298 137.088 19.52 138.037 17.742C138.057 17.705 138.084 17.672 138.15 17.576ZM83.9246 28.835L82.8846 33.147H69.2976V28.835H83.9246ZM96.3886 0.032959H105.477V4.25796H97.2396L96.3886 0.032959ZM133.364 4.35796V0.037959H138.41C138.38 0.128959 138.359 0.213959 138.324 0.294959C137.763 1.56496 137.196 2.83296 136.643 4.10596C136.553 4.31396 136.44 4.38296 136.217 4.37896C135.366 4.36696 134.516 4.37496 133.665 4.37396C133.572 4.37396 133.478 4.36396 133.364 4.35796ZM59.4756 33.156H63.0216V28.832H59.4756V33.156ZM123.866 4.36196H127.174V0.041959H123.866V4.36196ZM113.135 36.902H112.197L112.155 36.506C112.073 36.498 112 36.486 111.928 36.486C110.973 36.484 110.018 36.486 109.036 36.486V39.217H112.152V38.41H110.622V37.697H113.066C113.066 38.347 113.1 39.001 113.051 39.648C113.026 39.965 112.709 40.108 112.405 40.111C111.141 40.124 109.875 40.122 108.612 40.113C108.266 40.111 107.955 39.773 107.95 39.38C107.935 38.3817 107.936 37.3832 107.953 36.385C107.962 35.886 108.3 35.592 108.796 35.592H112.143C113.009 35.592 113.322 35.996 113.135 36.902ZM99.1596 36.443V39.246C99.8296 39.246 100.466 39.259 101.1 39.243C102.59 39.204 102.792 38.003 102.421 37.083C102.251 36.658 101.917 36.441 101.451 36.443H99.1586H99.1596ZM98.2116 40.131V35.658C98.2566 35.643 98.2946 35.619 98.3336 35.619C99.4066 35.617 100.481 35.589 101.554 35.626C102.65 35.664 103.272 36.24 103.474 37.306C103.767 38.856 102.904 40.027 101.33 40.119C100.305 40.179 99.2736 40.131 98.2116 40.131ZM143.671 37.176H142.676C142.666 36.993 142.656 36.818 142.643 36.614H139.918V39.23H142.695V38.42H143.658C143.658 38.803 143.688 39.183 143.649 39.557C143.616 39.884 143.329 40.109 142.969 40.113C141.833 40.122 140.695 40.123 139.559 40.111C139.166 40.107 138.845 39.761 138.837 39.318C138.815 38.3731 138.817 37.4278 138.841 36.483C138.857 35.945 139.269 35.596 139.813 35.593C140.79 35.59 141.768 35.592 142.746 35.593C143.311 35.593 143.606 35.833 143.666 36.385C143.694 36.634 143.671 36.89 143.671 37.175V37.176ZM152.686 37.428C153.536 37.428 154.36 37.443 155.183 37.421C155.544 37.411 155.477 37.101 155.48 36.865C155.484 36.631 155.4 36.48 155.131 36.483C154.549 36.489 153.966 36.485 153.384 36.485H152.686V37.428ZM152.645 38.291V40.105H151.683V35.613H151.999L155.567 35.614C156.235 35.615 156.54 35.92 156.545 36.585C156.547 36.862 156.546 37.137 156.545 37.413C156.543 37.961 156.276 38.258 155.716 38.283C155.218 38.306 154.718 38.29 154.219 38.291H152.645ZM124.352 38.263H126.278L125.363 36.485L124.352 38.263ZM128.465 40.106C128.064 40.106 127.707 40.11 127.351 40.102C127.3 40.102 127.246 40.049 127.201 40.012C127.169 39.9832 127.144 39.9472 127.13 39.907C126.882 39.242 126.403 39.047 125.719 39.129C125.227 39.189 124.721 39.149 124.222 39.137C124.041 39.133 123.914 39.177 123.845 39.351C123.83 39.391 123.802 39.424 123.781 39.461C123.334 40.215 123.31 40.226 122.361 40.082C122.419 39.975 122.467 39.873 122.523 39.777C123.283 38.464 124.048 37.155 124.799 35.838C124.909 35.645 125.043 35.608 125.249 35.581C125.706 35.524 125.941 35.707 126.161 36.105C126.841 37.339 127.571 38.546 128.283 39.765C128.34 39.862 128.389 39.963 128.465 40.106ZM148.412 38.3L147.492 36.504L146.47 38.3H148.412ZM150.595 40.118C150.204 40.118 149.864 40.131 149.527 40.111C149.435 40.105 149.299 40.015 149.267 39.931C149.007 39.23 148.495 39.06 147.797 39.141C147.347 39.196 146.884 39.17 146.429 39.146C146.177 39.132 146.024 39.211 145.935 39.438C145.932 39.447 145.925 39.456 145.92 39.465C145.455 40.235 145.454 40.235 144.498 40.108C144.546 40.008 144.584 39.918 144.633 39.833C145.398 38.511 146.169 37.192 146.925 35.863C147.035 35.669 147.167 35.629 147.375 35.603C147.83 35.547 148.071 35.726 148.29 36.123C148.976 37.368 149.71 38.586 150.427 39.815C150.475 39.895 150.517 39.979 150.595 40.118ZM169.222 36.5L168.209 38.286H170.134L169.222 36.501V36.5ZM166.212 40.091C166.662 39.315 167.108 38.547 167.552 37.777C167.925 37.135 168.302 36.495 168.666 35.847C168.76 35.681 168.864 35.59 169.064 35.61C169.222 35.626 169.384 35.6 169.541 35.619C169.624 35.629 169.736 35.675 169.774 35.739C170.619 37.174 171.457 38.613 172.333 40.116C171.917 40.116 171.553 40.128 171.192 40.106C171.116 40.102 171.012 39.989 170.98 39.903C170.726 39.255 170.263 39.057 169.587 39.14C169.094 39.2 168.587 39.158 168.089 39.148C167.912 39.146 167.779 39.175 167.713 39.356C167.688 39.425 167.639 39.484 167.601 39.549C167.215 40.195 167.027 40.271 166.213 40.091H166.212ZM160.692 35.632H165.777V36.482H163.747V40.1H162.735V36.493H160.692V35.632ZM120.344 40.107H119.343V36.48H117.296V35.614H122.358V36.449H120.344V40.107ZM174.378 35.616V39.261H177.675V40.087H173.313V35.616H174.378ZM129.464 40.09V35.612H130.406V39.254H133.831V40.091L129.464 40.09ZM105.142 40.122H106.222V35.594H105.142V40.122ZM114.83 40.144H115.922V35.614H114.83V40.144ZM158.259 40.094H159.233V35.635H158.259V40.094Z" fill="white"/>
</svg>
