<svg width="181" height="45" viewBox="0 0 181 45" fill="none" xmlns="http://www.w3.org/2000/svg">
<path fill-rule="evenodd" clip-rule="evenodd" d="M0 21.783L1.704 19.805C3.409 21.476 5.727 22.567 8.249 22.567C11.317 22.567 13.09 21.101 13.09 19.055C13.09 16.67 11.352 15.987 9.102 15.033L5.863 13.601C3.647 12.715 1.057 11.147 1.057 7.841C1.057 4.431 4.125 1.909 8.386 1.909C11.182 1.909 13.636 3.034 15.271 4.67L13.771 6.511C12.306 5.216 10.602 4.431 8.283 4.431C5.692 4.431 3.954 5.659 3.954 7.671C3.954 9.817 6.034 10.601 7.942 11.351L11.079 12.749C13.84 13.84 16.021 15.409 16.021 18.715C16.021 22.26 13.022 25.09 8.113 25.09C4.841 25.09 2.012 23.794 0 21.783ZM32.19 0C33.826 0 35.394 0.307 36.962 0.955L36.315 3.069C34.951 2.488 33.894 2.284 32.462 2.284C29.497 2.284 28.304 3.954 28.304 6.613V8.113H35.224V10.398H28.304V24.681H25.508V10.398H20.77V8.284L25.508 8.115V6.716C25.508 2.694 27.622 0 32.19 0ZM39.96 16.363C39.96 10.977 43.983 7.704 48.415 7.704C53.188 7.704 55.983 10.807 55.983 15.476C55.983 16.125 55.915 16.737 55.847 17.18H41.836V15H54.176L53.461 15.784C53.461 11.864 51.518 9.92 48.483 9.92C45.415 9.92 42.757 12.239 42.757 16.363C42.757 20.659 45.552 22.84 49.233 22.84C51.211 22.84 52.778 22.226 54.278 21.271L55.301 23.112C53.665 24.203 51.551 25.091 48.893 25.091C43.916 25.091 39.961 21.884 39.961 16.362L39.96 16.363ZM63.209 8.113H65.562L65.834 12.033H65.902C67.641 9.341 70.231 7.704 73.3 7.704C74.527 7.704 75.55 7.875 76.572 8.385L75.925 10.806C74.766 10.431 74.152 10.26 72.856 10.26C70.368 10.26 68.016 11.522 66.039 15V24.68H63.209V8.113ZM79.265 8.113H81.515L81.753 10.295H81.822C82.674 8.76 83.697 7.705 85.606 7.705C87.242 7.705 88.264 8.658 88.742 10.567C89.697 8.795 90.719 7.704 92.628 7.704C94.946 7.704 96.31 9.51 96.31 12.817V24.68H93.514V13.022C93.514 11.113 92.969 10.124 91.742 10.124C90.582 10.124 89.969 10.976 89.082 12.681V24.681H86.492V13.021C86.492 11.112 86.015 10.123 84.787 10.123C83.627 10.123 82.877 10.975 82.06 12.68V24.68H79.265V8.112V8.113ZM106.978 2.454C106.978 1.159 107.933 0.272 109.228 0.272C110.524 0.272 111.478 1.159 111.478 2.454C111.478 3.784 110.524 4.637 109.228 4.637C107.933 4.637 106.978 3.784 106.978 2.454ZM108.104 10.397H100.434V8.113H110.933V24.681H108.103V10.397H108.104ZM133.056 16.43C133.056 12.614 130.943 10.057 127.773 10.057C124.602 10.057 122.489 12.614 122.489 16.431C122.489 20.215 124.602 22.738 127.773 22.738C130.943 22.738 133.056 20.215 133.056 16.431V16.43ZM119.591 16.431C119.591 10.875 123.409 7.704 127.773 7.704C132.136 7.704 135.953 10.874 135.953 16.431C135.953 21.919 132.136 25.09 127.773 25.09C123.409 25.09 119.591 21.919 119.591 16.43V16.431ZM141.611 8.113H143.929L144.169 10.908H144.304C146.044 9.101 147.952 7.704 150.544 7.704C154.464 7.704 156.269 10.022 156.269 14.385V24.68H153.44V14.76C153.44 11.624 152.35 10.16 149.656 10.16C147.679 10.16 146.349 11.147 144.441 13.124V24.68H141.611V8.113ZM92.278 44.117H180.194V42.209H92.278V44.117Z" fill="black"/>
</svg>
