<svg width="181" height="45" viewBox="0 0 181 45" fill="none" xmlns="http://www.w3.org/2000/svg">
<path fill-rule="evenodd" clip-rule="evenodd" d="M-0.000488281 21.783L1.70351 19.805C3.40851 21.476 5.72651 22.567 8.24851 22.567C11.3165 22.567 13.0895 21.101 13.0895 19.055C13.0895 16.67 11.3515 15.987 9.10151 15.033L5.86251 13.601C3.64651 12.715 1.05651 11.147 1.05651 7.841C1.05651 4.431 4.12451 1.909 8.38551 1.909C11.1815 1.909 13.6355 3.034 15.2705 4.67L13.7705 6.511C12.3055 5.216 10.6015 4.431 8.28251 4.431C5.69151 4.431 3.95351 5.659 3.95351 7.671C3.95351 9.817 6.03351 10.601 7.94151 11.351L11.0785 12.749C13.8395 13.84 16.0205 15.409 16.0205 18.715C16.0205 22.26 13.0215 25.09 8.11251 25.09C4.84051 25.09 2.01151 23.794 -0.000488281 21.783ZM32.1895 0C33.8255 0 35.3935 0.307 36.9615 0.955L36.3145 3.069C34.9505 2.488 33.8935 2.284 32.4615 2.284C29.4965 2.284 28.3035 3.954 28.3035 6.613V8.113H35.2235V10.398H28.3035V24.681H25.5075V10.398H20.7695V8.284L25.5075 8.115V6.716C25.5075 2.694 27.6215 0 32.1895 0ZM39.9595 16.363C39.9595 10.977 43.9825 7.704 48.4145 7.704C53.1875 7.704 55.9825 10.807 55.9825 15.476C55.9825 16.125 55.9145 16.737 55.8465 17.18H41.8355V15H54.1755L53.4605 15.784C53.4605 11.864 51.5175 9.92 48.4825 9.92C45.4145 9.92 42.7565 12.239 42.7565 16.363C42.7565 20.659 45.5515 22.84 49.2325 22.84C51.2105 22.84 52.7775 22.226 54.2775 21.271L55.3005 23.112C53.6645 24.203 51.5505 25.091 48.8925 25.091C43.9155 25.091 39.9605 21.884 39.9605 16.362L39.9595 16.363ZM63.2085 8.113H65.5615L65.8335 12.033H65.9015C67.6405 9.341 70.2305 7.704 73.2995 7.704C74.5265 7.704 75.5495 7.875 76.5715 8.385L75.9245 10.806C74.7655 10.431 74.1515 10.26 72.8555 10.26C70.3675 10.26 68.0155 11.522 66.0385 15V24.68H63.2085V8.113ZM79.2645 8.113H81.5145L81.7525 10.295H81.8215C82.6735 8.76 83.6965 7.705 85.6055 7.705C87.2415 7.705 88.2635 8.658 88.7415 10.567C89.6965 8.795 90.7185 7.704 92.6275 7.704C94.9455 7.704 96.3095 9.51 96.3095 12.817V24.68H93.5135V13.022C93.5135 11.113 92.9685 10.124 91.7415 10.124C90.5815 10.124 89.9685 10.976 89.0815 12.681V24.681H86.4915V13.021C86.4915 11.112 86.0145 10.123 84.7865 10.123C83.6265 10.123 82.8765 10.975 82.0595 12.68V24.68H79.2645V8.112V8.113ZM106.978 2.454C106.978 1.159 107.933 0.272 109.228 0.272C110.524 0.272 111.478 1.159 111.478 2.454C111.478 3.784 110.524 4.637 109.228 4.637C107.933 4.637 106.978 3.784 106.978 2.454ZM108.104 10.397H100.434V8.113H110.933V24.681H108.103V10.397H108.104ZM133.056 16.43C133.056 12.614 130.943 10.057 127.773 10.057C124.602 10.057 122.489 12.614 122.489 16.431C122.489 20.215 124.602 22.738 127.773 22.738C130.943 22.738 133.056 20.215 133.056 16.431V16.43ZM119.591 16.431C119.591 10.875 123.409 7.704 127.773 7.704C132.136 7.704 135.953 10.874 135.953 16.431C135.953 21.919 132.136 25.09 127.773 25.09C123.409 25.09 119.591 21.919 119.591 16.43V16.431ZM141.611 8.113H143.929L144.169 10.908H144.304C146.044 9.101 147.952 7.704 150.544 7.704C154.464 7.704 156.269 10.022 156.269 14.385V24.68H153.44V14.76C153.44 11.624 152.35 10.16 149.656 10.16C147.679 10.16 146.349 11.147 144.441 13.124V24.68H141.611V8.113ZM92.2775 44.117H180.194V42.209H92.2775V44.117Z" fill="white"/>
</svg>
