<svg width="101" height="120" viewBox="0 0 101 120" fill="none" xmlns="http://www.w3.org/2000/svg">
<path fill-rule="evenodd" clip-rule="evenodd" d="M43.434 17.984C42.239 13.026 40.051 10.845 36.199 10.449C30.736 9.888 27.727 11.391 25.658 15.425C24.109 18.446 24.763 21.625 24.729 24.737C24.681 29.111 26.991 32.174 31.077 33.626C36.588 35.583 42.183 32.448 43.352 26.543H38.661C38.331 27.272 38.116 28.047 37.669 28.653C37.215 29.268 36.534 29.716 36.069 30.132C31.322 30.296 30.611 29.775 29.829 25.439C29.597 24.154 29.4 22.806 29.532 21.523C29.792 18.977 29.454 16.151 32.174 14.295H36.362L39.191 17.984H43.434ZM72.529 39.213V61.748H87.837L87.5 58.47H77.764V52.453L86.031 52.076V48.368H77.871V42.659H87.663V39.213H72.529ZM66.055 22.131C65.901 19.431 65.901 17.591 64.943 15.522C63.16 11.672 59.989 10.06 55.697 10.405C51.806 10.717 49.062 12.354 47.57 16.08C46.295 19.261 46.464 22.513 46.898 25.755C47.864 32.968 54.793 35.008 59.353 33.642C63.787 32.314 65.913 27.624 66.055 21.992V22.131ZM76 82.657H79.824L83.789 90.336H89.221L84.725 81.456C85.229 81.001 85.398 80.791 85.614 80.662C88.554 78.915 89.102 76.107 88.566 73.12C88.046 70.224 85.855 68.854 83.092 68.14C79.204 67.135 75.363 67.76 71.442 67.636V90.29H76V82.657ZM78.736 25.411L82.917 33.355C84.638 33.305 86.28 33.948 87.942 32.779C87.135 31.192 86.41 29.818 85.736 28.421C85.075 27.047 84.466 25.65 83.689 23.943C84.257 23.561 84.715 23.287 85.137 22.965C89.836 19.393 88.166 12.112 82.219 11.005C78.148 10.249 74.214 10.547 70.148 10.605V33.146H75.314V25.411H78.736ZM67.861 61.891V39.338H62.557V52.783L61.986 52.913L54.079 39.328H49.07C48.947 46.972 48.96 54.299 49.034 61.676H53.996V48.655L54.829 48.433C57.522 52.977 60.213 57.522 62.801 61.891H67.861ZM0 0H99.872C99.91 0.525 99.981 1.051 99.981 1.578C99.987 32.873 99.99 64.169 99.983 95.464C99.983 96.352 99.895 97.241 99.834 98.373C98.434 98.436 97.279 98.534 96.123 98.534C64.871 98.543 33.62 98.542 2.368 98.535C1.579 98.535 0.789 98.462 0 98.423V0H0ZM0 104.772C1.49 104.492 2.09 105.297 2.524 106.605C3.474 109.449 4.561 112.246 5.821 115.69C6.511 113.906 6.991 112.705 7.436 111.49C7.888 110.257 8.108 108.89 8.789 107.807C9.437 106.779 9.01 104.701 11.584 104.837C10.22 109.867 8.479 114.492 5.946 119.918C4.966 117.908 4.374 116.81 3.887 115.668C2.567 112.576 1.293 109.463 0 106.36V104.772H0ZM34.471 114.611C34.767 111.184 35.031 108.117 35.311 105.051C35.315 105.003 35.528 104.974 35.643 104.936C36.783 107.12 37.024 113.618 36.108 118.779C33.732 118.215 33.243 115.952 32.069 114.404C30.819 112.757 29.702 111.007 28.252 108.904C27.188 112.393 28.705 115.742 27.123 118.833C25.851 116.612 25.591 111.076 26.393 104.847C29.1 105.146 29.403 107.774 30.703 109.315C32.038 110.895 33.121 112.689 34.471 114.611ZM73.545 109.74C72.741 106.219 72.601 106.149 67.791 106.85V111.61C70.127 111.992 72.023 111.88 73.545 109.74ZM70.702 113.67C70.506 113.645 69.992 113.53 69.478 113.527C68.968 113.524 68.456 113.634 67.778 113.715L67.095 119.265C64.863 116.725 65.907 114.3 65.733 112.128C65.548 109.802 65.691 107.448 65.691 104.662C67.683 104.662 69.229 104.676 70.774 104.658C72.834 104.635 74.406 105.555 75.144 107.416C75.811 109.101 75.547 110.796 74.042 112.094C73.747 112.348 73.524 112.684 73.162 113.104L76.186 119.076C72.733 118.272 72.93 115.344 70.702 113.671V113.67ZM52.248 115.98C52.248 112.607 52.236 109.318 52.266 106.03C52.269 105.668 52.513 105.31 52.731 104.715C54.805 106.043 53.819 108.007 53.958 109.593C54.118 111.421 53.995 113.275 53.995 115.008C56.56 118.076 57 118.122 59.968 115.725C60.883 112.159 59.448 108.271 60.938 104.699C61.512 104.864 61.72 104.869 61.746 104.94C63.252 109.011 63.334 113.204 61.281 116.96C59.477 120.264 55.562 119.77 52.248 115.98ZM98.727 109.246L97.337 106.636C92.858 106.331 92.858 106.331 92.088 109.439C93.419 109.984 94.806 110.586 96.217 111.124C99.181 112.254 100.581 114.267 99.811 116.352C99.041 118.434 95.953 119.678 93.403 118.934C90.983 118.227 90.321 117.38 89.968 114.121C92.596 116.108 94.972 119.729 98.259 115.375C97.092 111.454 92.116 113.141 90.539 109.838C90.209 106.428 90.937 105.1 93.47 104.684C97.191 104.074 98.967 105.19 99.57 108.519L98.727 109.246ZM16.136 113.104V117.182L23.103 117.552C20.944 119.337 18.797 119.509 14.369 118.415V104.94H23.407C21.15 107.417 18.602 105.893 16.27 106.777V110.872L22.682 111.194C20.489 113.398 18.314 112.248 16.136 113.105V113.104ZM87.735 104.962C85.819 107.232 83.423 105.867 81.063 106.894L80.827 110.684L87.017 111.3C85.441 113.608 83.147 112.135 81.171 113.124V117.191L87.763 117.533C85.288 119.839 82.487 118.816 79.367 118.91C78.956 114.226 79.169 109.71 79.225 104.962H87.735ZM43.183 106.754L38.675 105.981C40.929 104.329 46.468 104.174 49.692 105.445C47.996 106.422 47.996 106.422 45.728 106.63C44.461 110.505 46.196 114.776 44.398 118.677C42.681 114.919 44.083 110.86 43.183 106.754Z" fill="black"/>
<path fill-rule="evenodd" clip-rule="evenodd" d="M82.4 19.437C80.687 22.367 78.11 21.47 75.438 21.398V14.506C78.021 13.926 80.375 13.813 82.4 16.169V19.437ZM76.62 71.638C82.681 70.896 84.091 72.185 83.06 77.37C81.088 79.25 78.775 78.711 76.24 78.482C75.99 76.052 75.51 73.798 76.62 71.638ZM61.168 20.512C61.168 22.428 61.256 23.072 61.168 24.509C60.935 28.296 59.714 30.218 55.454 30.218C51.084 29.15 49.929 19.712 53.031 15.629C53.581 14.903 54.868 14.318 55.845 14.155C56.552 14.036 56.697 14.245 58.198 14.275C60.534 15.901 61.168 17.869 61.168 20.512Z" fill="black"/>
</svg>
