<svg width="101" height="120" viewBox="0 0 101 120" fill="none" xmlns="http://www.w3.org/2000/svg">
<path fill-rule="evenodd" clip-rule="evenodd" d="M43.4335 17.984C42.2385 13.026 40.0505 10.845 36.1985 10.449C30.7355 9.888 27.7265 11.391 25.6575 15.425C24.1085 18.446 24.7625 21.625 24.7285 24.737C24.6805 29.111 26.9905 32.174 31.0765 33.626C36.5875 35.583 42.1825 32.448 43.3515 26.543H38.6605C38.3305 27.272 38.1155 28.047 37.6685 28.653C37.2145 29.268 36.5335 29.716 36.0685 30.132C31.3215 30.296 30.6105 29.775 29.8285 25.439C29.5965 24.154 29.3995 22.806 29.5315 21.523C29.7915 18.977 29.4535 16.151 32.1735 14.295H36.3615L39.1905 17.984H43.4335ZM72.5285 39.213V61.748H87.8365L87.4995 58.47H77.7635V52.453L86.0305 52.076V48.368H77.8705V42.659H87.6625V39.213H72.5285ZM66.0545 22.131C65.9005 19.431 65.9005 17.591 64.9425 15.522C63.1595 11.672 59.9885 10.06 55.6965 10.405C51.8055 10.717 49.0615 12.354 47.5695 16.08C46.2945 19.261 46.4635 22.513 46.8975 25.755C47.8635 32.968 54.7925 35.008 59.3525 33.642C63.7865 32.314 65.9125 27.624 66.0545 21.992V22.131ZM75.9995 82.657H79.8235L83.7885 90.336H89.2205L84.7245 81.456C85.2285 81.001 85.3975 80.791 85.6135 80.662C88.5535 78.915 89.1015 76.107 88.5655 73.12C88.0455 70.224 85.8545 68.854 83.0915 68.14C79.2035 67.135 75.3625 67.76 71.4415 67.636V90.29H75.9995V82.657ZM78.7355 25.411L82.9165 33.355C84.6375 33.305 86.2795 33.948 87.9415 32.779C87.1345 31.192 86.4095 29.818 85.7355 28.421C85.0745 27.047 84.4655 25.65 83.6885 23.943C84.2565 23.561 84.7145 23.287 85.1365 22.965C89.8355 19.393 88.1655 12.112 82.2185 11.005C78.1475 10.249 74.2135 10.547 70.1475 10.605V33.146H75.3135V25.411H78.7355ZM67.8605 61.891V39.338H62.5565V52.783L61.9855 52.913L54.0785 39.328H49.0695C48.9465 46.972 48.9595 54.299 49.0335 61.676H53.9955V48.655L54.8285 48.433C57.5215 52.977 60.2125 57.522 62.8005 61.891H67.8605ZM-0.000488281 0H99.8715C99.9095 0.525 99.9805 1.051 99.9805 1.578C99.9865 32.873 99.9895 64.169 99.9825 95.464C99.9825 96.352 99.8945 97.241 99.8335 98.373C98.4335 98.436 97.2785 98.534 96.1225 98.534C64.8705 98.543 33.6195 98.542 2.36751 98.535C1.57851 98.535 0.788512 98.462 -0.000488281 98.423V0H-0.000488281ZM-0.000488281 104.772C1.48951 104.492 2.08951 105.297 2.52351 106.605C3.47351 109.449 4.56051 112.246 5.82051 115.69C6.51051 113.906 6.99051 112.705 7.43551 111.49C7.88751 110.257 8.10751 108.89 8.78851 107.807C9.43651 106.779 9.00951 104.701 11.5835 104.837C10.2195 109.867 8.47851 114.492 5.94551 119.918C4.96551 117.908 4.37351 116.81 3.88651 115.668C2.56651 112.576 1.29251 109.463 -0.000488281 106.36V104.772H-0.000488281ZM34.4705 114.611C34.7665 111.184 35.0305 108.117 35.3105 105.051C35.3145 105.003 35.5275 104.974 35.6425 104.936C36.7825 107.12 37.0235 113.618 36.1075 118.779C33.7315 118.215 33.2425 115.952 32.0685 114.404C30.8185 112.757 29.7015 111.007 28.2515 108.904C27.1875 112.393 28.7045 115.742 27.1225 118.833C25.8505 116.612 25.5905 111.076 26.3925 104.847C29.0995 105.146 29.4025 107.774 30.7025 109.315C32.0375 110.895 33.1205 112.689 34.4705 114.611ZM73.5445 109.74C72.7405 106.219 72.6005 106.149 67.7905 106.85V111.61C70.1265 111.992 72.0225 111.88 73.5445 109.74ZM70.7015 113.67C70.5055 113.645 69.9915 113.53 69.4775 113.527C68.9675 113.524 68.4555 113.634 67.7775 113.715L67.0945 119.265C64.8625 116.725 65.9065 114.3 65.7325 112.128C65.5475 109.802 65.6905 107.448 65.6905 104.662C67.6825 104.662 69.2285 104.676 70.7735 104.658C72.8335 104.635 74.4055 105.555 75.1435 107.416C75.8105 109.101 75.5465 110.796 74.0415 112.094C73.7465 112.348 73.5235 112.684 73.1615 113.104L76.1855 119.076C72.7325 118.272 72.9295 115.344 70.7015 113.671V113.67ZM52.2475 115.98C52.2475 112.607 52.2355 109.318 52.2655 106.03C52.2685 105.668 52.5125 105.31 52.7305 104.715C54.8045 106.043 53.8185 108.007 53.9575 109.593C54.1175 111.421 53.9945 113.275 53.9945 115.008C56.5595 118.076 56.9995 118.122 59.9675 115.725C60.8825 112.159 59.4475 108.271 60.9375 104.699C61.5115 104.864 61.7195 104.869 61.7455 104.94C63.2515 109.011 63.3335 113.204 61.2805 116.96C59.4765 120.264 55.5615 119.77 52.2475 115.98ZM98.7265 109.246L97.3365 106.636C92.8575 106.331 92.8575 106.331 92.0875 109.439C93.4185 109.984 94.8055 110.586 96.2165 111.124C99.1805 112.254 100.581 114.267 99.8105 116.352C99.0405 118.434 95.9525 119.678 93.4025 118.934C90.9825 118.227 90.3205 117.38 89.9675 114.121C92.5955 116.108 94.9715 119.729 98.2585 115.375C97.0915 111.454 92.1155 113.141 90.5385 109.838C90.2085 106.428 90.9365 105.1 93.4695 104.684C97.1905 104.074 98.9665 105.19 99.5695 108.519L98.7265 109.246ZM16.1355 113.104V117.182L23.1025 117.552C20.9435 119.337 18.7965 119.509 14.3685 118.415V104.94H23.4065C21.1495 107.417 18.6015 105.893 16.2695 106.777V110.872L22.6815 111.194C20.4885 113.398 18.3135 112.248 16.1355 113.105V113.104ZM87.7345 104.962C85.8185 107.232 83.4225 105.867 81.0625 106.894L80.8265 110.684L87.0165 111.3C85.4405 113.608 83.1465 112.135 81.1705 113.124V117.191L87.7625 117.533C85.2875 119.839 82.4865 118.816 79.3665 118.91C78.9555 114.226 79.1685 109.71 79.2245 104.962H87.7345ZM43.1825 106.754L38.6745 105.981C40.9285 104.329 46.4675 104.174 49.6915 105.445C47.9955 106.422 47.9955 106.422 45.7275 106.63C44.4605 110.505 46.1955 114.776 44.3975 118.677C42.6805 114.919 44.0825 110.86 43.1825 106.754Z" fill="white"/>
<path fill-rule="evenodd" clip-rule="evenodd" d="M82.3996 19.437C80.6866 22.367 78.1096 21.47 75.4376 21.398V14.506C78.0206 13.926 80.3746 13.813 82.3996 16.169V19.437ZM76.6196 71.638C82.6806 70.896 84.0906 72.185 83.0596 77.37C81.0876 79.25 78.7746 78.711 76.2396 78.482C75.9896 76.052 75.5096 73.798 76.6196 71.638ZM61.1676 20.512C61.1676 22.428 61.2556 23.072 61.1676 24.509C60.9346 28.296 59.7136 30.218 55.4536 30.218C51.0836 29.15 49.9286 19.712 53.0306 15.629C53.5806 14.903 54.8676 14.318 55.8446 14.155C56.5516 14.036 56.6966 14.245 58.1976 14.275C60.5336 15.901 61.1676 17.869 61.1676 20.512Z" fill="white"/>
</svg>
