<svg width="55" height="55" viewBox="0 0 55 55" fill="none" xmlns="http://www.w3.org/2000/svg">
<rect width="55" height="55" rx="27.5" fill="white"/>
<path fill-rule="evenodd" clip-rule="evenodd" d="M20.6002 0.618034C12.0529 3.42776 6.42628 8.10499 2.47993 15.6826C-0.955534 22.2781 -0.802869 33.2112 2.82119 40.0846C8.16247 50.215 16.1699 55.0376 27.5849 54.9998C33.7075 54.9789 35.9765 54.4978 40.0575 52.3534C50.2063 47.0218 55.0377 39.0289 54.9998 27.6346C54.9609 16.1716 49.9279 7.93069 39.7762 2.70665C35.1583 0.331185 24.8808 -0.788322 20.6002 0.618034ZM32.9791 22.559C37.4592 27.0998 38.2405 29.6266 35.1643 29.6266C34.4588 29.6266 33.026 28.6784 31.9803 27.5191C30.0834 25.4155 30.0784 25.4235 29.5805 31.2541C29.2123 35.5618 28.6885 37.0966 27.5849 37.0966C26.4633 37.0966 26.0133 35.6644 25.7888 31.3766L25.4905 25.6565L22.539 27.8338C20.245 29.527 19.322 29.7451 18.392 28.8169C17.4611 27.8876 18.2873 26.5151 22.1029 22.6486C24.802 19.9126 27.2696 17.6746 27.5849 17.6746C27.9002 17.6746 30.3279 19.8728 32.9791 22.559Z" fill="#18191F"/>
</svg>
