<svg width="68" height="68" viewBox="0 0 68 68" fill="none" xmlns="http://www.w3.org/2000/svg">
<g opacity="0.3">
<circle cx="2" cy="2" r="2" fill="white"/>
<circle cx="18" cy="2" r="2" fill="white"/>
<circle cx="34" cy="2" r="2" fill="white"/>
<circle cx="50" cy="2" r="2" fill="white"/>
<circle cx="66" cy="2" r="2" fill="white"/>
<circle cx="2" cy="18" r="2" fill="white"/>
<circle cx="18" cy="18" r="2" fill="white"/>
<circle cx="34" cy="18" r="2" fill="white"/>
<circle cx="50" cy="18" r="2" fill="white"/>
<circle cx="66" cy="18" r="2" fill="white"/>
<circle cx="2" cy="34" r="2" fill="white"/>
<circle cx="18" cy="34" r="2" fill="white"/>
<circle cx="34" cy="34" r="2" fill="white"/>
<circle cx="50" cy="34" r="2" fill="white"/>
<circle cx="66" cy="34" r="2" fill="white"/>
<circle cx="2" cy="50" r="2" fill="white"/>
<circle cx="18" cy="50" r="2" fill="white"/>
<circle cx="34" cy="50" r="2" fill="white"/>
<circle cx="50" cy="50" r="2" fill="white"/>
<circle cx="66" cy="50" r="2" fill="white"/>
<circle cx="2" cy="66" r="2" fill="white"/>
<circle cx="18" cy="66" r="2" fill="white"/>
<circle cx="34" cy="66" r="2" fill="white"/>
<circle cx="50" cy="66" r="2" fill="white"/>
<circle cx="66" cy="66" r="2" fill="white"/>
</g>
</svg>
