<svg width="148" height="86" viewBox="0 0 148 86" fill="none" xmlns="http://www.w3.org/2000/svg">
<path d="M127.847 27.1269V8.75959C127.847 5.22437 125.175 2.38037 121.875 2.38037H103.533C100.233 2.38037 97.5604 5.24412 97.5604 8.75959V77.3705C97.5604 80.9057 100.233 83.7694 103.533 83.7694H121.875C125.175 83.7694 127.847 80.9057 127.847 77.3705V57.0479" fill="#E3F6FD"/>
<path d="M127.847 27.1269V8.75959C127.847 5.22437 125.175 2.38037 121.875 2.38037H103.533C100.233 2.38037 97.5604 5.24412 97.5604 8.75959V77.3705C97.5604 80.9057 100.233 83.7694 103.533 83.7694H121.875C125.175 83.7694 127.847 80.9057 127.847 77.3705V57.0479" stroke="#18191F" stroke-width="3" stroke-miterlimit="10" stroke-linecap="round" stroke-linejoin="round"/>
<path d="M127.848 73.4387H140.42C143.719 73.4387 146.392 70.575 146.392 67.0595V19.0872C146.392 15.5519 143.719 12.708 140.42 12.708H127.848" fill="#E3F6FD"/>
<path d="M127.848 73.4387H140.42C143.719 73.4387 146.392 70.575 146.392 67.0595V19.0872C146.392 15.5519 143.719 12.708 140.42 12.708H127.848" stroke="#18191F" stroke-width="3" stroke-miterlimit="10" stroke-linecap="round" stroke-linejoin="round"/>
<path d="M20.7229 27.1269V8.75959C20.7229 5.22437 23.3958 2.38037 26.6771 2.38037H45.0189C48.3186 2.38037 50.9731 5.24412 50.9731 8.75959V77.3705C50.9731 80.9057 48.3002 83.7694 45.0189 83.7694H26.6771C23.3774 83.7694 20.7229 80.9057 20.7229 77.3705V57.0479" fill="#E3F6FD"/>
<path d="M20.7229 27.1269V8.75959C20.7229 5.22437 23.3958 2.38037 26.6771 2.38037H45.0189C48.3186 2.38037 50.9731 5.24412 50.9731 8.75959V77.3705C50.9731 80.9057 48.3002 83.7694 45.0189 83.7694H26.6771C23.3774 83.7694 20.7229 80.9057 20.7229 77.3705V57.0479" stroke="#18191F" stroke-width="3" stroke-miterlimit="10" stroke-linecap="round" stroke-linejoin="round"/>
<path d="M20.7163 73.4387H8.1443C4.84462 73.4387 2.19012 70.575 2.19012 67.0595V19.0872C2.19012 15.5519 4.86305 12.708 8.1443 12.708H20.7163" fill="#E3F6FD"/>
<path d="M20.7163 73.4387H8.1443C4.84462 73.4387 2.19012 70.575 2.19012 67.0595V19.0872C2.19012 15.5519 4.86305 12.708 8.1443 12.708H20.7163" stroke="#18191F" stroke-width="3" stroke-miterlimit="10" stroke-linecap="round" stroke-linejoin="round"/>
<path d="M97.5904 32.2041H50.9707V50.4713H97.5904V32.2041Z" fill="#E3F6FD" stroke="#18191F" stroke-width="3" stroke-miterlimit="10" stroke-linecap="round" stroke-linejoin="round"/>
</svg>
