<svg width="32" height="32" viewBox="0 0 32 32" fill="none" xmlns="http://www.w3.org/2000/svg">
<path d="M18.571 17.286C18.571 17.6271 18.7065 17.9542 18.9477 18.1953C19.1888 18.4365 19.5159 18.572 19.857 18.572C20.1981 18.572 20.5252 18.4365 20.7663 18.1953C21.0075 17.9542 21.143 17.6271 21.143 17.286C21.143 17.1171 21.1097 16.9499 21.0451 16.7939C20.9805 16.6378 20.8858 16.4961 20.7663 16.3767C20.6469 16.2572 20.5052 16.1625 20.3491 16.0979C20.1931 16.0333 20.0259 16 19.857 16C19.6881 16 19.5209 16.0333 19.3649 16.0979C19.2088 16.1625 19.0671 16.2572 18.9477 16.3767C18.8282 16.4961 18.7335 16.6378 18.6689 16.7939C18.6043 16.9499 18.571 17.1171 18.571 17.286ZM23.714 13.429C23.204 13.429 22.757 13.729 22.554 14.164C23.225 14.675 23.782 15.261 24.193 15.907C24.471 15.7964 24.7017 15.5923 24.8453 15.3298C24.989 15.0673 25.0365 14.763 24.9797 14.4692C24.923 14.1754 24.7655 13.9107 24.5344 13.7206C24.3033 13.5305 24.0132 13.4271 23.714 13.428V13.429ZM16 0C7.164 0 0 7.164 0 16C0 24.836 7.164 32 16 32C24.836 32 32 24.836 32 16C32 7.164 24.836 0 16 0ZM24.75 17.068C24.914 17.55 25 18.054 25 18.571C25 22.121 20.971 25 16 25C11.029 25 7 22.121 7 18.571C7 18.054 7.086 17.55 7.25 17.068C6.87613 16.9039 6.54669 16.6532 6.28893 16.3366C6.03116 16.02 5.85247 15.6466 5.76764 15.2472C5.68281 14.8478 5.69427 14.434 5.80107 14.0399C5.90788 13.6459 6.10696 13.2829 6.38186 12.981C6.65676 12.6792 6.99957 12.4471 7.38194 12.304C7.76432 12.1609 8.17527 12.1108 8.58081 12.158C8.98635 12.2052 9.37483 12.3483 9.71412 12.5754C10.0534 12.8025 10.3338 13.1071 10.532 13.464C11.825 12.757 13.396 12.293 15.107 12.175L17.193 7.493C17.2676 7.32415 17.401 7.1882 17.5685 7.11055C17.7359 7.03289 17.9259 7.01884 18.103 7.071L21.375 8.018C21.5366 7.7177 21.7749 7.4656 22.0656 7.28739C22.3563 7.10918 22.6891 7.01122 23.03 7.0035C23.371 6.99577 23.7078 7.07856 24.0063 7.24343C24.3048 7.4083 24.5543 7.64935 24.7293 7.94202C24.9043 8.2347 24.9986 8.56853 25.0026 8.90952C25.0066 9.2505 24.9201 9.58644 24.7519 9.88312C24.5838 10.1798 24.34 10.4266 24.0454 10.5984C23.7509 10.7702 23.416 10.8608 23.075 10.861C22.6758 10.8604 22.2865 10.736 21.9609 10.505C21.6353 10.274 21.3894 9.94765 21.257 9.571L18.321 8.725L16.786 12.171C18.539 12.279 20.15 12.746 21.471 13.468C21.7473 12.9694 22.1814 12.5768 22.7052 12.352C23.229 12.1271 23.8127 12.0828 24.3644 12.2259C24.9161 12.369 25.4046 12.6916 25.753 13.1427C26.1015 13.5938 26.29 14.148 26.289 14.718C26.2866 15.2164 26.14 15.7035 25.8669 16.1205C25.5938 16.5375 25.2059 16.8665 24.75 17.068ZM18.632 20.032C18.1 20.45 17.05 20.9 16 20.9C14.95 20.9 13.896 20.45 13.368 20.032C13.2089 19.9069 13.0066 19.8502 12.8056 19.8743C12.6047 19.8984 12.4215 20.0014 12.2965 20.1605C12.1715 20.3196 12.1147 20.5219 12.1388 20.7229C12.1629 20.9238 12.2659 21.107 12.425 21.232C13.343 21.961 14.746 22.429 16 22.429C17.254 22.429 18.657 21.961 19.579 21.232C19.6578 21.1701 19.7236 21.0933 19.7727 21.006C19.8218 20.9187 19.8532 20.8225 19.8651 20.723C19.877 20.6236 19.8691 20.5227 19.842 20.4263C19.8149 20.3298 19.769 20.2397 19.707 20.161C19.5815 20.0014 19.3978 19.8982 19.1962 19.874C18.9946 19.8498 18.7917 19.9067 18.632 20.032ZM8.286 13.43C7.98725 13.4296 7.69772 13.5334 7.46718 13.7234C7.23665 13.9134 7.07952 14.1778 7.02282 14.4711C6.96612 14.7644 7.0134 15.0683 7.15651 15.3306C7.29963 15.5928 7.52964 15.797 7.807 15.908C8.217 15.262 8.775 14.676 9.447 14.165C9.34318 13.9449 9.17888 13.759 8.97329 13.6288C8.7677 13.4987 8.52932 13.4297 8.286 13.43ZM10.857 17.287C10.857 17.6281 10.9925 17.9552 11.2337 18.1963C11.4748 18.4375 11.8019 18.573 12.143 18.573C12.4841 18.573 12.8112 18.4375 13.0523 18.1963C13.2935 17.9552 13.429 17.6281 13.429 17.287C13.429 16.9459 13.2935 16.6188 13.0523 16.3777C12.8112 16.1365 12.4841 16.001 12.143 16.001C11.8019 16.001 11.4748 16.1365 11.2337 16.3777C10.9925 16.6188 10.857 16.9459 10.857 17.287Z" fill="#18191F"/>
</svg>
