<svg width="40" height="31" viewBox="0 0 40 31" fill="none" xmlns="http://www.w3.org/2000/svg">
<path d="M33.435 2.98299C30.8393 1.79197 28.1009 0.94973 25.2894 0.477683C24.9097 1.16724 24.5618 1.87425 24.2469 2.59644C21.2517 2.14781 18.2076 2.14781 15.2125 2.59644C14.904 1.87109 14.5562 1.16355 14.1706 0.477051C11.3594 0.955326 8.62118 1.8002 6.02437 2.99058C1.42562 9.50944 -0.651879 17.4802 0.179371 25.4181C3.20013 27.6572 6.57663 29.3574 10.1631 30.4452C10.9672 29.3533 11.6825 28.1973 12.3019 26.9884C11.1346 26.555 10.008 26.0166 8.93562 25.3795C9.21312 25.1708 9.49125 24.962 9.75437 24.7532C12.8819 26.2243 16.2891 26.9865 19.7378 26.9865C23.1865 26.9865 26.5937 26.2243 29.7212 24.7532C29.9912 24.9772 30.2619 25.1859 30.54 25.3795C29.4667 26.0151 28.34 26.5535 27.1731 26.9884C27.7853 28.1998 28.4983 29.3562 29.3044 30.4452C32.8929 29.3602 36.2719 27.6626 39.2956 25.4257C40.1244 17.4809 38.0412 9.50438 33.435 2.98299ZM13.1819 20.894C11.5469 21.0667 9.97499 20.2127 9.22875 18.7449C8.86439 18.0286 8.72556 17.2166 8.83093 16.418C8.9363 15.6195 9.28082 14.8727 9.81812 14.2784C10.3596 13.68 11.0664 13.2603 11.8465 13.0737C12.6267 12.8871 13.4443 12.9422 14.1931 13.232C15.7269 13.8248 16.7375 15.3033 16.7337 16.9501C16.7025 19.1232 15.1662 20.894 13.1819 20.894ZM26.3081 20.894C24.2937 20.6751 22.7675 18.9714 22.7675 16.9425C22.7675 14.9129 24.2937 13.2098 26.3081 12.9903C26.8008 13.0123 27.2843 13.1329 27.7307 13.3449C28.1772 13.557 28.5778 13.8564 28.9094 14.2259C29.2387 14.5929 29.4919 15.0232 29.6539 15.4911C29.8159 15.9591 29.8835 16.4552 29.8525 16.9501C29.8062 19.1232 28.2775 20.894 26.2931 20.894H26.3081Z" fill="#18191F"/>
</svg>
