<svg width="25" height="20" viewBox="0 0 25 20" fill="none" xmlns="http://www.w3.org/2000/svg">
<path d="M19.188 6.04589C19.0249 4.4031 18.2608 2.87844 17.0423 1.76458C15.8239 0.650725 14.2369 0.0261622 12.5861 0.0107887C10.9353 -0.00458474 9.33704 0.590314 8.09804 1.68129C6.85904 2.77226 6.06666 4.28242 5.873 5.92189C2.545 6.45589 0 9.33489 0 12.8139C0 14.6678 0.736444 16.4457 2.04732 17.7566C3.3582 19.0674 5.13614 19.8039 6.99 19.8039H18.056V19.7729C19.8023 19.6279 21.4303 18.8318 22.6171 17.5426C23.8039 16.2534 24.4627 14.5652 24.463 12.8129C24.463 9.54589 22.217 6.81189 19.188 6.04589ZM12.23 18.6379L5.695 11.6479H10.419V5.24289H13.914V11.6499H18.766L12.23 18.6399V18.6379Z" fill="#18191F"/>
</svg>
