<svg width="26" height="20" viewBox="0 0 26 20" fill="none" xmlns="http://www.w3.org/2000/svg">
<g clip-path="url(#clip0_2_1001)">
<path d="M15.903 12.132C14.438 13.302 13.536 13.882 12.623 13.882C11.751 13.882 10.869 13.339 9.506 12.277L1.389 19.417H24.239L15.994 12.062L15.901 12.132H15.903ZM6.281 9.782C4.17886 8.1642 2.08616 6.53417 0.003 4.892V18.352C0.009 18.392 0.017 18.432 0.028 18.472L8.207 11.273C7.614 10.804 6.978 10.32 6.284 9.783L6.281 9.782ZM25.827 18.663C25.865 18.563 25.887 18.458 25.89 18.351V4.32C23.02 6.55 20.155 8.787 17.298 11.033L25.828 18.664L25.827 18.663ZM24.272 0H1.618C1.22815 0.100144 0.872346 0.303121 0.587734 0.587734C0.303121 0.872346 0.100144 1.22815 0 1.618L0 2.893C2.387 4.793 4.978 6.792 7.174 8.486C8.384 9.421 9.47 10.261 10.331 10.929C12.64 12.739 12.64 12.739 14.996 10.856C17.126 9.152 22.861 4.691 25.895 2.332V1.62C25.795 1.22903 25.5916 0.872231 25.3059 0.587146C25.0203 0.302061 24.6632 0.0992312 24.272 0V0Z" fill="#18191F"/>
</g>
<defs>
<clipPath id="clip0_2_1001">
<rect width="26" height="20" fill="white"/>
</clipPath>
</defs>
</svg>
