<svg width="204" height="31" viewBox="0 0 204 31" fill="none" xmlns="http://www.w3.org/2000/svg">
<path d="M132.284 26.6419C132.284 27.1496 132.284 27.2658 132.622 27.579L134.514 29.4759V29.5572H126.123V25.9122C125.718 27.0792 124.964 28.0882 123.966 28.7979C122.968 29.5076 121.777 29.8824 120.56 29.8698C116.248 29.8698 113.118 26.3991 113.118 20.0125C113.118 14.0295 116.496 10.0369 121.237 10.0369C122.266 9.97376 123.289 10.2387 124.163 10.7948C125.037 11.3509 125.718 12.1704 126.111 13.1389V5.09565C126.142 4.91366 126.123 4.72654 126.056 4.555C125.988 4.38346 125.876 4.23418 125.73 4.12367L123.927 2.34117V2.26173L132.284 1.25423V26.6419H132.284ZM126.123 25.484V13.4844C125.825 13.1029 125.445 12.7961 125.012 12.5877C124.578 12.3793 124.104 12.2749 123.625 12.2825C121.585 12.2825 119.615 14.1787 119.615 19.8142C119.615 25.0907 121.315 26.9539 123.431 26.9539C123.962 26.9418 124.483 26.8024 124.951 26.5469C125.418 26.2914 125.82 25.9272 126.123 25.484ZM137.846 29.5572V13.3572C137.873 13.1794 137.856 12.9977 137.797 12.8282C137.738 12.6587 137.639 12.5065 137.508 12.3852L135.65 10.4186V10.3372H144.039V26.7692C144.039 27.2774 144.039 27.393 144.377 27.7056L146.225 29.4875V29.5689L137.846 29.5572ZM137.541 4.413C137.541 2.49488 139.054 0.94165 140.921 0.94165C142.787 0.94165 144.298 2.49617 144.298 4.413C144.298 6.33113 142.787 7.88371 140.921 7.88371C139.054 7.88371 137.542 6.33048 137.542 4.413H137.541ZM166.673 26.6071C166.673 27.1153 166.673 27.2658 167.011 27.579L168.903 29.4759V29.5572H160.469V25.4032C160.102 26.6771 159.343 27.798 158.303 28.6016C157.264 29.4053 155.998 29.8495 154.692 29.8692C150.953 29.8692 148.949 27.0695 148.949 21.7691C148.949 19.2129 148.949 16.4119 149.028 13.2654C149.059 13.0928 149.043 12.915 148.984 12.7504C148.924 12.5857 148.823 12.44 148.69 12.3283L146.834 10.4173V10.3359H155.156V20.9005C155.156 24.3718 155.651 26.6859 157.768 26.6859C158.329 26.6487 158.873 26.4695 159.348 26.1645C159.824 25.8595 160.218 25.4384 160.493 24.9395V13.3675C160.519 13.1897 160.502 13.008 160.443 12.8385C160.384 12.669 160.285 12.5168 160.155 12.3955L158.286 10.4173V10.3359H166.675V26.6058L166.673 26.6071ZM195.232 29.5559C195.232 28.9321 195.344 20.9722 195.344 19.1425C195.344 15.6718 194.815 13.2771 192.439 13.2771C191.847 13.2965 191.269 13.4576 190.75 13.7471C190.231 14.0366 189.787 14.4465 189.454 14.9433C189.693 16.0257 189.806 17.1327 189.792 18.2409C189.792 20.6473 189.713 23.7131 189.679 26.7808C189.617 27.1321 189.746 27.4906 190.017 27.7179L191.909 29.5004V29.5805H183.441C183.441 29.0018 183.554 20.9948 183.554 19.1658C183.554 15.6376 183.024 13.3003 180.682 13.3003C180.112 13.3221 179.556 13.4906 179.068 13.7899C178.579 14.0892 178.174 14.5096 177.889 15.0118V26.815C177.889 27.3246 177.889 27.4402 178.227 27.7521L180.074 29.5346V29.6147H171.696V13.4153C171.722 13.2374 171.706 13.0555 171.647 12.8857C171.588 12.7159 171.489 12.5635 171.358 12.442L169.5 10.418V10.3366H177.891V14.4557C178.669 11.7368 181.148 9.90969 183.904 10.0247C186.696 10.0247 188.589 11.6218 189.388 14.6533C189.812 13.2971 190.654 12.1153 191.789 11.282C192.925 10.4486 194.293 10.0079 195.694 10.0247C199.433 10.0247 201.55 12.8586 201.55 18.2164C201.55 20.7739 201.471 23.6898 201.438 26.7556C201.405 26.9328 201.424 27.1157 201.492 27.2822C201.56 27.4487 201.674 27.5915 201.82 27.6934L203.667 29.4752V29.5566H195.233L195.232 29.5553V29.5559ZM89.842 27.0353L92.3294 29.4759V29.5572H79.7068V29.4759L82.2406 27.0353C82.5113 26.8079 82.641 26.4495 82.5787 26.0975V10.4877C82.5787 9.82896 82.5787 8.93771 82.6912 8.17434L74.1785 29.8692H74.0768L65.2597 9.90905C65.0671 9.4124 65.0105 9.37688 64.8866 9.04169V22.1289C64.781 23.0044 64.9257 23.8922 65.3035 24.6864L68.8516 29.4759V29.5572H59.4371V29.4759L62.9833 24.6734C63.3582 23.883 63.5031 23.0002 63.4008 22.1289V7.66478C63.4593 6.95415 63.2509 6.24735 62.8174 5.68659L60.3046 2.34117V2.26173H69.3136L76.8572 19.1658L83.5008 2.26173H92.3179V2.34182L89.842 5.17573C89.6958 5.28611 89.5826 5.43551 89.515 5.60732C89.4473 5.77913 89.4279 5.96663 89.4588 6.149V26.0975C89.4263 26.2747 89.4453 26.4577 89.5133 26.6242C89.5814 26.7907 89.6955 26.9335 89.842 27.0353ZM99.7166 19.2129V19.293C99.7166 24.2459 102.206 26.2357 105.123 26.2357C107.558 26.321 109.812 24.9182 110.865 22.661H110.944C109.93 27.5564 106.981 29.8692 102.566 29.8692C97.8031 29.8692 93.31 26.9197 93.31 20.0803C93.31 12.8947 97.8139 10.0247 102.792 10.0247C106.8 10.0247 111.068 11.9686 111.068 18.2183V19.2129H99.7172H99.7166ZM99.7166 18.2183H105.269V17.2108C105.269 12.1191 104.244 10.7654 102.702 10.7654C100.833 10.7654 99.6944 12.7908 99.6944 18.2183H99.7166Z" fill="#18191F"/>
<path d="M15.1856 30.3891C23.3323 30.3891 29.9365 23.6776 29.9365 15.3986C29.9365 7.11965 23.3323 0.408203 15.1856 0.408203C7.0389 0.408203 0.434692 7.11965 0.434692 15.3986C0.434692 23.6776 7.0389 30.3891 15.1856 30.3891Z" fill="#18191F"/>
<path d="M38.95 30.3891C43.0232 30.3891 46.3252 23.6776 46.3252 15.3986C46.3252 7.11965 43.0232 0.408203 38.95 0.408203C34.8768 0.408203 31.5749 7.11965 31.5749 15.3986C31.5749 23.6776 34.8768 30.3891 38.95 30.3891Z" fill="#18191F"/>
<path d="M50.4229 30.3891C51.7806 30.3891 52.8811 23.6776 52.8811 15.3986C52.8811 7.11965 51.7806 0.408203 50.4229 0.408203C49.0653 0.408203 47.9648 7.11965 47.9648 15.3986C47.9648 23.6776 49.0653 30.3891 50.4229 30.3891Z" fill="#18191F"/>
</svg>
