<svg width="37" height="30" viewBox="0 0 37 30" fill="none" xmlns="http://www.w3.org/2000/svg">
<path d="M0.471453 26.658C3.86095 28.8416 7.80245 30.0015 11.8281 30C25.5915 30 33.3621 18.3432 32.896 7.88577C34.3458 6.83515 35.5974 5.53271 36.5918 4.03977C35.2385 4.64056 33.8035 5.0349 32.3344 5.20977C33.8823 4.28099 35.0406 2.81714 35.5928 1.09197C34.1394 1.95883 32.5494 2.56962 30.8914 2.89797C29.7744 1.69559 28.294 0.897429 26.6798 0.627301C25.0656 0.357173 23.4078 0.63018 21.9637 1.40397C20.5207 2.17553 19.3724 3.40575 18.6981 4.90257C18.0238 6.3994 17.8614 8.07858 18.2362 9.67797C15.2918 9.53003 12.4111 8.76226 9.78045 7.42432C7.14981 6.08639 4.82784 4.20809 2.96478 1.91097C0.996614 5.30817 2.00158 9.65397 5.25997 11.835C4.08215 11.7995 2.92989 11.481 1.89953 10.9062C1.85657 14.4822 4.35407 17.583 7.84758 18.2922C6.75642 18.5908 5.61157 18.6333 4.50147 18.4164C4.97463 19.8953 5.89615 21.1884 7.13691 22.1143C8.37767 23.0403 9.87548 23.5528 11.4205 23.58C8.31861 26.0205 4.38189 27.1272 0.470856 26.658H0.471453Z" fill="#18191F"/>
</svg>
