<svg width="44" height="44" viewBox="0 0 44 44" fill="none" xmlns="http://www.w3.org/2000/svg">
<path d="M19.9409 0.748941L20.1326 0.702959V0.505838V0.25H24.1175C34.9383 0.25 43.75 9.96562 43.75 22C43.75 34.0383 34.9383 43.75 24.1175 43.75H20.1326V43.4942V43.297L19.9409 43.251C11.1165 41.1353 4.48047 32.4379 4.48047 22C4.48047 11.5582 11.1209 2.86473 19.9409 0.748941Z" fill="#FECF02" stroke="#18191F" stroke-width="0.5"/>
<path d="M32.8058 2.49072C33.0894 2.64527 33.3686 2.80827 33.6439 2.97869H25.5107V2.49072H32.8058Z" fill="#FECF02" stroke="#18191F" stroke-width="0.5"/>
<path d="M36.8576 5.45459C37.0276 5.61396 37.1943 5.77644 37.3582 5.94255H25.5107V5.45459H36.8576Z" fill="#FECF02" stroke="#18191F" stroke-width="0.5"/>
<path d="M39.4497 8.41846C39.5668 8.57865 39.6816 8.74164 39.7935 8.90642H25.5107V8.41846H39.4497Z" fill="#FECF02" stroke="#18191F" stroke-width="0.5"/>
<path d="M41.2531 11.3823C41.335 11.5442 41.4152 11.7067 41.4926 11.8703H25.5107V11.3823H41.2531Z" fill="#FECF02" stroke="#18191F" stroke-width="0.5"/>
<path d="M42.4989 14.3464C42.5544 14.5074 42.6071 14.6698 42.658 14.8344H25.5107V14.3464H42.4989Z" fill="#FECF02" stroke="#18191F" stroke-width="0.5"/>
<path d="M43.2927 17.3103C43.3249 17.4719 43.3558 17.6349 43.3848 17.7983H25.5107V17.3103H43.2927Z" fill="#FECF02" stroke="#18191F" stroke-width="0.5"/>
<path d="M43.6874 20.2742C43.6995 20.437 43.7098 20.5995 43.7174 20.7621H25.5107V20.2742H43.6874Z" fill="#FECF02" stroke="#18191F" stroke-width="0.5"/>
<path d="M43.6874 23.726H25.5107V23.238H43.7174C43.7098 23.4007 43.6995 23.5631 43.6874 23.726Z" fill="#FECF02" stroke="#18191F" stroke-width="0.5"/>
<path d="M43.2927 26.6899H25.5107V26.2019H43.3848C43.3558 26.3653 43.3249 26.5283 43.2927 26.6899Z" fill="#FECF02" stroke="#18191F" stroke-width="0.5"/>
<path d="M42.4989 29.6537H25.5107V29.1658H42.658C42.6071 29.3304 42.5544 29.4928 42.4989 29.6537Z" fill="#FECF02" stroke="#18191F" stroke-width="0.5"/>
<path d="M41.2531 32.6176H25.5107V32.1296H41.4926C41.4152 32.2932 41.335 32.4557 41.2531 32.6176Z" fill="#FECF02" stroke="#18191F" stroke-width="0.5"/>
<path d="M39.4497 35.5815H25.5107V35.0935H39.7935C39.6816 35.2583 39.5668 35.4213 39.4497 35.5815Z" fill="#FECF02" stroke="#18191F" stroke-width="0.5"/>
<path d="M36.8576 38.5453H25.5107V38.0574H37.3582C37.1943 38.2235 37.0276 38.386 36.8576 38.5453Z" fill="#FECF02" stroke="#18191F" stroke-width="0.5"/>
<path d="M32.8058 41.5094H25.5107V41.0215H33.6439C33.3686 41.1919 33.0894 41.3549 32.8058 41.5094Z" fill="#FECF02" stroke="#18191F" stroke-width="0.5"/>
<path d="M19.9409 0.748941L20.1326 0.702959V0.505838V0.25H24.1175C34.9383 0.25 43.75 9.96562 43.75 22C43.75 34.0383 34.9383 43.75 24.1175 43.75H20.1326V43.4942V43.297L19.9409 43.251C11.1165 41.1353 4.48047 32.4379 4.48047 22C4.48047 11.5582 11.1209 2.86473 19.9409 0.748941Z" fill="#FECF02" stroke="#18191F" stroke-width="0.5"/>
<path d="M39.5151 22C39.5151 34.0366 30.7021 43.75 19.8826 43.75C9.06299 43.75 0.25 34.0366 0.25 22C0.25 9.9634 9.06299 0.25 19.8826 0.25C30.7021 0.25 39.5151 9.9634 39.5151 22Z" fill="#FECF02" stroke="#18191F" stroke-width="0.5"/>
<path d="M37.0573 22.0001C37.0573 32.9771 29.3362 41.8137 19.8831 41.8137C10.4301 41.8137 2.70898 32.9771 2.70898 22.0001C2.70898 11.0231 10.4301 2.18652 19.8831 2.18652C29.3362 2.18652 37.0573 11.0231 37.0573 22.0001Z" fill="#FECF02" stroke="#18191F" stroke-width="0.5"/>
<path d="M37.0573 22.0001C37.0573 32.9771 29.3362 41.8137 19.8831 41.8137C10.4301 41.8137 2.70898 32.9771 2.70898 22.0001C2.70898 11.0231 10.4301 2.18652 19.8831 2.18652C29.3362 2.18652 37.0573 11.0231 37.0573 22.0001Z" fill="#FECF02" stroke="#18191F" stroke-width="0.5"/>
<path d="M13.3135 3.6873C7.37299 6.96832 3.28975 13.949 3.28975 22.0001C3.28975 30.0568 7.38113 37.0416 13.3279 40.3198C7.10433 37.3535 2.7041 30.2868 2.7041 22.0001C2.7041 13.7198 7.09756 6.6576 13.3135 3.6873Z" fill="#FECF02" stroke="#18191F" stroke-width="0.5"/>
</svg>
