<svg width="47" height="40" viewBox="0 0 47 40" fill="none" xmlns="http://www.w3.org/2000/svg">
<path d="M46.75 10.7364V29.9236L31.2841 39.0973V19.895L46.75 10.7364Z" fill="#DAB202" stroke="black" stroke-width="0.5"/>
<path d="M30.7841 19.9351V39.1941L0.25 29.4616V10.1949L30.7841 19.9351Z" fill="#FECF02" stroke="black" stroke-width="0.5"/>
<path d="M46.393 10.3668L31.0032 19.4803L0.607123 9.78411L15.9968 0.678233L46.393 10.3668Z" fill="#FED936" stroke="black" stroke-width="0.5"/>
<path d="M7.22967 9.61051V7.38574H15.794V9.61051H7.22967Z" fill="#DEB500" stroke="black" stroke-width="0.5"/>
<path d="M15.7942 9.86072C15.7942 10.263 15.4187 10.7112 14.6143 11.0732C13.8336 11.4245 12.738 11.6484 11.5159 11.6484C10.2938 11.6484 9.19823 11.4245 8.41752 11.0732C7.61315 10.7112 7.23769 10.263 7.23769 9.86072C7.23769 9.4584 7.61316 9.01021 8.41752 8.64824C9.19823 8.29692 10.2938 8.073 11.5159 8.073C12.738 8.073 13.8336 8.29692 14.6143 8.64824C15.4187 9.01021 15.7942 9.4584 15.7942 9.86072Z" fill="#DEB500" stroke="black" stroke-width="0.5"/>
<path d="M15.7942 7.13584C15.7942 7.53816 15.4187 7.98635 14.6143 8.34832C13.8336 8.69964 12.738 8.92356 11.5159 8.92356C10.2938 8.92356 9.19823 8.69964 8.41752 8.34832C7.61316 7.98635 7.23769 7.53816 7.23769 7.13584C7.23769 6.73352 7.61315 6.28534 8.41752 5.92338C9.19823 5.57206 10.2938 5.34814 11.5159 5.34814C12.738 5.34814 13.8336 5.57206 14.6143 5.92338C15.4187 6.28534 15.7942 6.73352 15.7942 7.13584Z" fill="#FED936" stroke="black" stroke-width="0.5"/>
<path d="M15.3801 4.51236V2.2876H23.9444V4.51236H15.3801Z" fill="#DEB500" stroke="black" stroke-width="0.5"/>
<path d="M23.9446 4.76257C23.9446 5.16489 23.5691 5.61307 22.7648 5.97504C21.9841 6.32635 20.8885 6.55027 19.6664 6.55027C18.4402 6.55027 17.3447 6.32632 16.5651 5.97508C15.7622 5.61334 15.3881 5.16526 15.3881 4.76257C15.3881 4.36025 15.7636 3.91207 16.5679 3.5501C17.3487 3.19878 18.4442 2.97485 19.6664 2.97485C20.8885 2.97485 21.984 3.19878 22.7648 3.5501C23.5691 3.91207 23.9446 4.36025 23.9446 4.76257Z" fill="#DEB500" stroke="black" stroke-width="0.5"/>
<path d="M23.9446 2.0377C23.9446 2.44002 23.5691 2.8882 22.7648 3.25017C21.984 3.60149 20.8885 3.82542 19.6664 3.82542C18.4402 3.82542 17.3447 3.60146 16.5651 3.25022C15.7622 2.88847 15.3881 2.44038 15.3881 2.0377C15.3881 1.63538 15.7636 1.1872 16.5679 0.825234C17.3487 0.473919 18.4442 0.25 19.6664 0.25C20.8885 0.25 21.9841 0.473919 22.7648 0.825234C23.5691 1.1872 23.9446 1.63538 23.9446 2.0377Z" fill="#FED936" stroke="black" stroke-width="0.5"/>
<path d="M23.7896 15.0211V12.7964H32.3539V15.0211H23.7896Z" fill="#DEB500" stroke="black" stroke-width="0.5"/>
<path d="M32.3538 15.2711C32.3538 15.6734 31.9783 16.1216 31.174 16.4836C30.3933 16.8349 29.2977 17.0588 28.0756 17.0588C26.8495 17.0588 25.754 16.8348 24.9743 16.4836C24.1714 16.1219 23.7973 15.6738 23.7973 15.2711C23.7973 14.8688 24.1728 14.4206 24.9772 14.0586C25.7578 13.7074 26.8532 13.4834 28.0752 13.4834C29.2973 13.4873 30.3931 13.7131 31.174 14.0645C31.5648 14.2403 31.8659 14.4428 32.0659 14.6545C32.2647 14.865 32.3538 15.0729 32.3538 15.2711Z" fill="#DEB500" stroke="black" stroke-width="0.5"/>
<path d="M32.3537 12.5463C32.3537 12.9486 31.9783 13.3968 31.1739 13.7587C30.3932 14.11 29.2976 14.334 28.0755 14.334C26.8494 14.334 25.7539 14.11 24.9743 13.7588C24.1713 13.397 23.7972 12.9489 23.7972 12.5463C23.7972 12.1439 24.1727 11.6958 24.9771 11.3338C25.7577 10.9825 26.8531 10.7586 28.0751 10.7585C29.2976 10.7624 30.3933 10.9864 31.1741 11.3368C31.9788 11.698 32.3537 12.1443 32.3537 12.5463Z" fill="#FED936" stroke="black" stroke-width="0.5"/>
<path d="M31.6428 10.2821V8.05737H40.207V10.2821H31.6428Z" fill="#DEB500" stroke="black" stroke-width="0.5"/>
<path d="M40.2073 10.5321C40.2073 10.9344 39.8318 11.3826 39.0274 11.7446C38.2467 12.0959 37.1511 12.3198 35.929 12.3198C34.7029 12.3198 33.6074 12.0958 32.8278 11.7446C32.0249 11.3829 31.6508 10.9348 31.6508 10.5321C31.6508 10.1298 32.0262 9.68158 32.8306 9.31962C33.6113 8.9683 34.7069 8.74438 35.929 8.74438C37.1511 8.74438 38.2467 8.9683 39.0274 9.31962C39.8318 9.68158 40.2073 10.1298 40.2073 10.5321Z" fill="#DEB500" stroke="black" stroke-width="0.5"/>
<path d="M40.2073 7.80725C40.2073 8.20957 39.8318 8.65775 39.0274 9.01971C38.2467 9.37103 37.1511 9.59495 35.929 9.59495C34.7029 9.59495 33.6074 9.371 32.8278 9.01976C32.0249 8.65802 31.6508 8.20993 31.6508 7.80725C31.6508 7.40493 32.0262 6.95674 32.8306 6.59478C33.6113 6.24346 34.7069 6.01953 35.929 6.01953C37.1511 6.01953 38.2467 6.24346 39.0274 6.59478C39.8318 6.95674 40.2073 7.40493 40.2073 7.80725Z" fill="#FED936" stroke="black" stroke-width="0.5"/>
</svg>
