<svg width="74" height="40" viewBox="0 0 74 40" fill="none" xmlns="http://www.w3.org/2000/svg">
<path d="M60.7873 27.432L59.6309 26.1319C59.6315 26.1322 59.6322 26.1324 59.6329 26.1327C59.7929 26.1976 59.9528 26.2629 61.5171 26.8972L64.4778 30.2266C63.2639 29.7342 62.7521 29.5272 62.5947 29.4636L62.5922 29.4609L62.4752 29.3293L62.0573 28.8596L60.7873 27.432Z" fill="#FECF02" stroke="#18191F" stroke-width="0.5"/>
<path d="M51.117 15.1944L51.1171 15.1945L51.7343 15.888C50.8974 15.5491 50.8762 15.5405 50.7944 15.5072C50.7228 15.4779 50.6045 15.4297 49.8494 15.1235L46.9755 11.8923C47.0656 11.9303 47.1574 11.969 47.2503 12.0082C47.7691 12.227 48.3203 12.4595 48.7704 12.6487L49.4729 13.3438L51.117 15.1944Z" fill="#FECF02" stroke="#18191F" stroke-width="0.5"/>
<path d="M72.6686 1.20311C52.7462 10.41 51.377 11.0467 50.0011 11.6688C49.7003 11.8049 49.3992 11.9402 48.9039 12.1642C48.2212 11.8775 47.3118 11.4952 46.6688 11.2235C46.7205 11.1997 46.7699 11.1769 46.8179 11.1548C48.3244 10.4609 48.3587 10.4452 70.3719 0.272438C71.0894 0.563824 71.4057 0.691817 71.7485 0.830501C71.9913 0.928725 72.2474 1.03231 72.6686 1.20311Z" fill="#FECF02" stroke="#18191F" stroke-width="0.5"/>
<path d="M47.0106 18.2863L47.0195 18.2787L47.0277 18.2703L49.6776 15.5343C49.7303 15.5556 49.766 15.5701 49.7971 15.5827C49.9735 15.6541 49.9961 15.6632 52.1058 16.5232L49.608 19.1022L45.9834 21.939L42.0555 24.2779L40.0166 25.2508L37.9237 26.1011L35.7879 26.8234L33.6132 27.4215L31.411 27.8914L29.1852 28.2372L26.9438 28.4586L24.7016 28.5556L20.1911 28.3884L15.7423 27.7434L11.4023 26.6321L7.22586 25.0742L3.26371 23.0815L-0.433742 20.6774L-3.82783 17.8775L-6.87999 14.7088L-9.56244 11.1905C-9.72482 10.9407 -9.86024 10.7338 -9.97746 10.5546C-10.5895 9.61927 -10.7056 9.44189 -11.5731 7.883L-11.5731 7.88298C-11.6665 7.71519 -11.7343 7.59359 -11.7836 7.50518C-11.8565 7.37433 -11.8889 7.31616 -11.9039 7.28848C-11.9049 7.28674 -11.9057 7.28523 -11.9064 7.28392C-11.9128 7.26685 -11.9211 7.2485 -11.9339 7.22197C-11.9994 7.08667 -12.2708 6.56198 -13.483 4.30494C-12.2339 4.14233 -10.2211 3.88093 -9.50554 3.78839C-8.02898 6.77929 -7.88759 7.13682 -7.71679 7.4797C-7.59856 7.71705 -7.46623 7.94739 -6.86712 9.03941L-6.86698 9.03966C-6.11717 10.4027 -6.05214 10.495 -4.91241 12.1139C-4.57228 12.5971 -4.13643 13.2161 -3.55811 14.0455L-3.55002 14.0571L-3.54067 14.0678L-0.83206 17.1438L-0.822531 17.1546L-0.811821 17.1642L2.20165 19.8807L2.21246 19.8904L2.22433 19.8988L5.5114 22.2322L5.52317 22.2406L5.53582 22.2475L9.0535 24.1783L9.06609 24.1852L9.07939 24.1907L12.7886 25.7033L12.8019 25.7087L12.8158 25.7126L16.6696 26.7874L16.6836 26.7913L16.698 26.7936L20.6495 27.415L20.6638 27.4173L20.6783 27.4179L24.6806 27.5781L24.6918 27.5786L24.7029 27.578L26.6962 27.4803L26.7036 27.48L26.7108 27.4792L28.7003 27.2642L28.7078 27.2634L28.7153 27.2621L30.693 26.926L30.7006 26.9247L30.708 26.923L32.6662 26.4657L32.6739 26.4639L32.6815 26.4616L34.6123 25.8792L34.6197 25.877L34.627 25.8743L36.5265 25.1707L36.534 25.168L36.5414 25.1647L38.4018 24.3361L38.4091 24.3329L38.4161 24.3292L40.2297 23.3794L40.2405 23.3738L40.2506 23.3671L43.737 21.0845L43.7504 21.0757L43.7626 21.0653L47.0106 18.2863Z" fill="#FECF02" stroke="#18191F" stroke-width="0.5"/>
<path d="M65.2227 30.3141L61.9969 26.6804L62.0682 26.5928L65.113 30.0233L65.113 30.0233L65.2475 30.175L65.2227 30.3141Z" fill="#FECF02" stroke="#18191F" stroke-width="0.5"/>
<path d="M51.7031 14.9364L51.7032 14.9365L52.8246 16.1973L52.6674 16.1834L49.8371 13.0055L49.8319 12.9997L49.8263 12.9941L49.6895 12.8587L49.8972 12.9029L51.7031 14.9364Z" fill="#FECF02" stroke="#18191F" stroke-width="0.5"/>
<path d="M48.9078 12.437L50.0296 12.6715C53.2658 11.1745 69.2283 3.79913 73 2.05593L73.301 1.18433C47.9854 12.8865 51.8627 11.1003 48.9078 12.437Z" fill="#DAB202"/>
<mask id="path-8-inside-1_2_420" fill="white">
<path d="M58.2415 29.2787L54.4072 31.9716L50.5613 34.2894L46.1251 36.271L41.2355 37.7055L36.0841 38.5575L30.7645 38.8155L25.3786 38.4715L20.0239 37.5296L14.7943 35.9857L9.77966 33.8595L5.05816 31.1548L0.69233 27.8911L-3.25919 24.0842L-3.18492 24.2836L0.723605 28.1139L5.05035 31.401L9.74448 34.1291L14.7357 36.2749L19.9457 37.8344L25.2848 38.7881L30.659 39.1399L35.9629 38.8858L41.0987 38.0299L45.9687 36.5876L50.3736 34.5982L54.247 32.2648L58.1086 29.5523L61.6693 26.6873L62.0601 26.2066L58.2415 29.2787Z"/>
</mask>
<path d="M58.2415 29.2787L54.4072 31.9716L50.5613 34.2894L46.1251 36.271L41.2355 37.7055L36.0841 38.5575L30.7645 38.8155L25.3786 38.4715L20.0239 37.5296L14.7943 35.9857L9.77966 33.8595L5.05816 31.1548L0.69233 27.8911L-3.25919 24.0842L-3.18492 24.2836L0.723605 28.1139L5.05035 31.401L9.74448 34.1291L14.7357 36.2749L19.9457 37.8344L25.2848 38.7881L30.659 39.1399L35.9629 38.8858L41.0987 38.0299L45.9687 36.5876L50.3736 34.5982L54.247 32.2648L58.1086 29.5523L61.6693 26.6873L62.0601 26.2066L58.2415 29.2787Z" fill="#FECF02"/>
<path d="M58.2415 29.2787L58.5289 29.6878L58.5422 29.6785L58.5549 29.6682L58.2415 29.2787ZM54.4072 31.9716L54.6653 32.3999L54.6803 32.3909L54.6946 32.3808L54.4072 31.9716ZM50.5613 34.2894L50.7652 34.7459L50.7931 34.7334L50.8193 34.7176L50.5613 34.2894ZM46.1251 36.271L46.2658 36.7508L46.2982 36.7413L46.329 36.7275L46.1251 36.271ZM41.2355 37.7055L41.3171 38.1987L41.3471 38.1938L41.3762 38.1852L41.2355 37.7055ZM36.0841 38.5575L36.1083 39.0569L36.1371 39.0555L36.1657 39.0508L36.0841 38.5575ZM30.7645 38.8155L30.7327 39.3145L30.7607 39.3162L30.7888 39.3149L30.7645 38.8155ZM25.3786 38.4715L25.292 38.964L25.3192 38.9687L25.3467 38.9705L25.3786 38.4715ZM20.0239 37.5296L19.8824 38.0091L19.9095 38.0171L19.9373 38.022L20.0239 37.5296ZM14.7943 35.9857L14.5991 36.446L14.6254 36.4572L14.6527 36.4652L14.7943 35.9857ZM9.77966 33.8595L9.53112 34.2933L9.55701 34.3081L9.58448 34.3198L9.77966 33.8595ZM5.05816 31.1548L4.75879 31.5552L4.78319 31.5735L4.80963 31.5886L5.05816 31.1548ZM0.69233 27.8911L0.345427 28.2512L0.367932 28.2729L0.392962 28.2916L0.69233 27.8911ZM-3.25919 24.0842L-2.91228 23.7241L-3.72773 24.2588L-3.25919 24.0842ZM-3.18492 24.2836L-3.65346 24.4581L-3.61453 24.5626L-3.53489 24.6407L-3.18492 24.2836ZM0.723605 28.1139L0.373641 28.471L0.396099 28.493L0.421137 28.5121L0.723605 28.1139ZM5.05035 31.401L4.74788 31.7991L4.77244 31.8178L4.79911 31.8333L5.05035 31.401ZM9.74448 34.1291L9.49324 34.5614L9.51931 34.5766L9.547 34.5885L9.74448 34.1291ZM14.7357 36.2749L14.5382 36.7343L14.5647 36.7457L14.5923 36.7539L14.7357 36.2749ZM19.9457 37.8344L19.8024 38.3134L19.8297 38.3216L19.8578 38.3266L19.9457 37.8344ZM25.2848 38.7881L25.1969 39.2803L25.2243 39.2852L25.2521 39.287L25.2848 38.7881ZM30.659 39.1399L30.6264 39.6388L30.6546 39.6407L30.6829 39.6393L30.659 39.1399ZM35.9629 38.8858L35.9868 39.3853L36.0161 39.3838L36.0451 39.379L35.9629 38.8858ZM41.0987 38.0299L41.1809 38.5231L41.2112 38.518L41.2407 38.5093L41.0987 38.0299ZM45.9687 36.5876L46.1107 37.067L46.1434 37.0573L46.1745 37.0433L45.9687 36.5876ZM50.3736 34.5982L50.5794 35.0539L50.6064 35.0417L50.6316 35.0265L50.3736 34.5982ZM54.247 32.2648L54.505 32.6931L54.52 32.684L54.5344 32.6739L54.247 32.2648ZM58.1086 29.5523L58.396 29.9614L58.4094 29.952L58.4221 29.9418L58.1086 29.5523ZM61.6693 26.6873L61.9827 27.0769L62.0239 27.0437L62.0572 27.0027L61.6693 26.6873ZM62.0601 26.2066L62.4481 26.522L61.7467 25.817L62.0601 26.2066ZM57.9541 28.8695L54.1199 31.5625L54.6946 32.3808L58.5289 29.6878L57.9541 28.8695ZM54.1492 31.5434L50.3032 33.8611L50.8193 34.7176L54.6653 32.3999L54.1492 31.5434ZM50.3573 33.8329L45.9211 35.8145L46.329 36.7275L50.7652 34.7459L50.3573 33.8329ZM45.9843 35.7912L41.0947 37.2257L41.3762 38.1852L46.2658 36.7508L45.9843 35.7912ZM41.1539 37.2122L36.0025 38.0642L36.1657 39.0508L41.3171 38.1987L41.1539 37.2122ZM36.0598 38.0581L30.7403 38.3161L30.7888 39.3149L36.1083 39.0569L36.0598 38.0581ZM30.7964 38.3165L25.4105 37.9725L25.3467 38.9705L30.7327 39.3145L30.7964 38.3165ZM25.4652 37.9791L20.1105 37.0371L19.9373 38.022L25.292 38.964L25.4652 37.9791ZM20.1655 37.05L14.9359 35.5062L14.6527 36.4652L19.8824 38.0091L20.1655 37.05ZM14.9895 35.5254L9.97484 33.3991L9.58448 34.3198L14.5991 36.446L14.9895 35.5254ZM10.0282 33.4256L5.30669 30.7209L4.80963 31.5886L9.53112 34.2933L10.0282 33.4256ZM5.35753 30.7543L0.991699 27.4907L0.392962 28.2916L4.75879 31.5552L5.35753 30.7543ZM1.03923 27.5311L-2.91228 23.7241L-3.60609 24.4443L0.345427 28.2512L1.03923 27.5311ZM-3.72773 24.2588L-3.65346 24.4581L-2.71638 24.109L-2.79065 23.9097L-3.72773 24.2588ZM-3.53489 24.6407L0.373641 28.471L1.07357 27.7568L-2.83496 23.9265L-3.53489 24.6407ZM0.421137 28.5121L4.74788 31.7991L5.35282 31.0029L1.02607 27.7158L0.421137 28.5121ZM4.79911 31.8333L9.49324 34.5614L9.99572 33.6969L5.30159 30.9687L4.79911 31.8333ZM9.547 34.5885L14.5382 36.7343L14.9332 35.8156L9.94196 33.6698L9.547 34.5885ZM14.5923 36.7539L19.8024 38.3134L20.0891 37.3554L14.8791 35.7959L14.5923 36.7539ZM19.8578 38.3266L25.1969 39.2803L25.3727 38.2959L20.0337 37.3422L19.8578 38.3266ZM25.2521 39.287L30.6264 39.6388L30.6917 38.6409L25.3175 38.2892L25.2521 39.287ZM30.6829 39.6393L35.9868 39.3853L35.939 38.3864L30.6351 38.6405L30.6829 39.6393ZM36.0451 39.379L41.1809 38.5231L41.0165 37.5367L35.8807 38.3926L36.0451 39.379ZM41.2407 38.5093L46.1107 37.067L45.8268 36.1082L40.9567 37.5504L41.2407 38.5093ZM46.1745 37.0433L50.5794 35.0539L50.1678 34.1425L45.7629 36.1319L46.1745 37.0433ZM50.6316 35.0265L54.505 32.6931L53.989 31.8365L50.1156 34.1699L50.6316 35.0265ZM54.5344 32.6739L58.396 29.9614L57.8212 29.1431L53.9596 31.8556L54.5344 32.6739ZM58.4221 29.9418L61.9827 27.0769L61.3558 26.2978L57.7952 29.1627L58.4221 29.9418ZM62.0572 27.0027L62.4481 26.522L61.6722 25.8911L61.2813 26.3719L62.0572 27.0027ZM61.7467 25.817L57.9281 28.8891L58.5549 29.6682L62.3736 26.5961L61.7467 25.817Z" fill="#18191F" mask="url(#path-8-inside-1_2_420)"/>
<path d="M52.5465 16.4237L49.7793 19.2808L46.1287 22.138L42.1772 24.4909L40.1213 25.4719L38.0146 26.3279L35.8649 27.0549L33.6761 27.6568L31.46 28.1297L29.2204 28.4776L26.9652 28.7004L24.7061 28.7981L20.1722 28.63L15.6969 27.9812L11.3311 26.8634L7.1294 25.296L3.14271 23.291L-0.578214 20.8716L-3.99426 18.0535L-7.06636 14.8642L-9.76325 11.327C-10.8029 9.73229 -10.7677 9.83 -11.7879 7.9969C-12.851 6.08954 -11.0413 9.35316 -13.8711 4.09619L-13.9962 5.03033C-12.8354 7.49661 -12.8783 7.42626 -12.3859 8.35258L-11.3931 10.0723C-10.8615 10.9361 -10.7951 11.0299 -10.3534 11.7139L-7.63701 15.2902L-4.53364 18.5148L-1.07459 21.368L2.70496 23.8225L6.762 25.855L11.0458 27.4496L15.5054 28.5831L20.0784 29.2437L24.71 29.4156L27.0277 29.314L29.3377 29.0873L31.6281 28.7316L33.895 28.247L36.1307 27.6373L38.3273 26.8985L40.4809 26.0269L42.5837 25.0264L46.6055 22.6383L50.2835 19.7459L53.4337 16.494L52.5465 16.4237Z" fill="#DAB202"/>
<path d="M50.4401 12.761C53.5917 11.3041 69.0002 4.18191 72.6211 2.51335C72.0954 4.48263 70.4305 10.7233 68.8186 16.7652L66.3716 25.9376L65.5771 28.9158L65.3972 29.5901L62.2468 26.0446L62.0888 25.8667L61.9034 26.0157L58.091 29.0789L54.2704 31.7662L50.449 34.0714L46.0422 36.04L41.1834 37.4692L36.0612 38.3165L30.7702 38.573L25.4121 38.2309L20.0849 37.2898L14.8825 35.7579L9.89475 33.6392L5.19544 30.9494L0.854351 27.7043L-3.07467 23.9191L-6.54957 19.6163C-6.9516 18.9725 -7.30743 18.4068 -7.62724 17.8983C-9.52581 14.8798 -10.155 13.8794 -11.6441 10.5558L-12.2294 9.13802L-11.6134 10.2051L-11.6135 10.2051L-11.61 10.2109C-11.1466 10.9656 -11.0657 11.0901 -10.7057 11.6443C-10.6636 11.709 -10.6177 11.7796 -10.5669 11.8578L-10.5619 11.8656L-10.5563 11.8729L-7.8399 15.4492L-7.83107 15.4608L-7.82095 15.4714L-4.71757 18.6959L-4.70761 18.7062L-4.69652 18.7154L-1.23749 21.5686L-1.22651 21.5777L-1.21457 21.5854L2.56498 24.04L2.57669 24.0476L2.58917 24.0538L6.64622 26.0863L6.65831 26.0923L6.67098 26.097L10.9547 27.6917L10.9673 27.6964L10.9804 27.6997L15.44 28.8332L15.4528 28.8364L15.4658 28.8383L20.0388 29.4989L20.052 29.5008L20.0653 29.5013L24.6969 29.6732L24.707 29.6736L24.7171 29.6732L27.0349 29.5716L27.0349 29.5719L27.0483 29.5706L29.3583 29.3439L29.3583 29.3443L29.3722 29.3421L31.6626 28.9865L31.6627 28.9869L31.6765 28.9839L33.9435 28.4992L33.9435 28.4996L33.957 28.496L36.1927 27.8862L36.1997 27.8843L36.2066 27.882L38.4032 27.1433L38.4103 27.1409L38.4173 27.1381L40.5709 26.2665L40.5778 26.2637L40.5845 26.2605L42.6873 25.2599L42.6976 25.255L42.7075 25.2491L46.7294 22.861L46.7434 22.8526L46.7563 22.8425L50.4342 19.9502L50.4475 19.9398L50.4592 19.9277L53.6095 16.6758L53.7709 16.5092L53.6168 16.3358L50.4401 12.761Z" fill="#FECF02" stroke="#18191F" stroke-width="0.5"/>
</svg>
