<svg width="71" height="19" viewBox="0 0 71 19" fill="none" xmlns="http://www.w3.org/2000/svg">
<path d="M3.03052 6.13041V12.8698L2.13924 13.3819V5.62354L3.03052 6.13041Z" fill="white"/>
<path d="M15.6858 5.61814L14.7945 6.13019L8.9099 2.76307V1.74414L15.6858 5.61814Z" fill="white"/>
<path d="M15.6858 13.3819L8.91512 17.261V16.2421L14.7997 12.875L15.6858 13.3819Z" fill="white"/>
<g opacity="0.3">
<path opacity="0.3" d="M8.91511 16.237V17.256L2.14445 13.3768L3.03574 12.8647L8.91511 16.237Z" fill="white"/>
</g>
<g opacity="0.3">
<path opacity="0.3" d="M15.6858 5.61816V13.3765L14.7945 12.8644V6.13022L15.6858 5.61816Z" fill="white"/>
</g>
<g opacity="0.3">
<path opacity="0.3" d="M8.91511 1.73926V2.75819L3.03574 6.12531L2.14445 5.61326L8.91511 1.73926Z" fill="white"/>
</g>
<path fill-rule="evenodd" clip-rule="evenodd" d="M8.9099 6.02686L11.2398 6.72511C11.271 6.74062 11.3023 6.76648 11.3179 6.79752C11.3336 6.82855 11.3388 6.86993 11.3232 6.90096C11.3127 6.93717 11.2919 6.96303 11.2606 6.98372C11.2293 7.00441 11.1929 7.00958 11.1564 7.00441L8.9099 6.33202L6.66865 7.00441C6.63217 7.00958 6.59568 7.00441 6.56441 6.98372C6.53314 6.96303 6.51229 6.93717 6.50186 6.90096C6.49144 6.86476 6.49144 6.82855 6.50708 6.79752C6.52271 6.76648 6.54877 6.74062 6.58526 6.72511L8.9099 6.02686Z" fill="white"/>
<path fill-rule="evenodd" clip-rule="evenodd" d="M12.2718 7.13877C12.2666 7.10774 12.2509 7.0767 12.2301 7.05601C12.2092 7.03532 12.178 7.01981 12.1467 7.01463C12.1154 7.00946 12.0841 7.01464 12.0529 7.03015C12.0268 7.04567 12.0007 7.06636 11.9851 7.09739L10.6351 9.71454H7.18987L5.83991 7.09739C5.82427 7.07153 5.80343 7.05084 5.77736 7.03532C5.7513 7.01981 5.72003 7.01463 5.68876 7.01463C5.65748 7.01981 5.621 7.03015 5.60015 7.05601C5.57409 7.0767 5.55845 7.10773 5.55324 7.14394C5.42815 7.99219 5.47506 8.85078 5.68354 9.68351C6.01713 10.9817 6.85108 12.4972 8.84736 13.4644L8.90991 13.4954L8.97245 13.4644C10.9635 12.5024 11.8079 10.9817 12.1363 9.67833C12.35 8.8456 12.3969 7.98184 12.2718 7.13877ZM5.97543 9.60592C5.81906 8.96457 5.75652 8.30769 5.79821 7.65082L6.97096 9.92143L8.56069 12.9834C6.96054 12.0627 6.2621 10.749 5.97543 9.60592ZM8.90991 13.0144L7.34103 10.0042H10.4788L8.90991 13.0144ZM11.8548 9.60592C11.5629 10.749 10.8645 12.0627 9.26434 12.9834L10.8593 9.9266L12.032 7.65599C12.0737 8.30769 12.0112 8.96457 11.8548 9.60592Z" fill="white"/>
<path fill-rule="evenodd" clip-rule="evenodd" d="M20.3455 10.1024C20.4341 10.1955 20.5436 10.2679 20.6634 10.3145C20.7833 10.361 20.9136 10.3869 21.0387 10.3869H25.933V9.73002H21.0387C20.9553 9.73002 20.8719 9.69899 20.8094 9.64209C20.752 9.58003 20.7208 9.49727 20.7208 9.41452V5.51466C20.7208 5.47328 20.726 5.4319 20.7416 5.3957C20.7573 5.35949 20.7781 5.32329 20.8094 5.29743C20.8406 5.26639 20.8719 5.24053 20.9136 5.22502C20.9553 5.2095 20.997 5.19915 21.0387 5.19915H25.933V4.54228H21.0387C20.9084 4.54228 20.7833 4.56814 20.6634 4.61469C20.5436 4.66124 20.4341 4.73365 20.3455 4.82675C20.2517 4.91985 20.1839 5.0233 20.1318 5.14226C20.0849 5.26122 20.0588 5.38535 20.0588 5.51466V9.41452C20.0588 9.54382 20.0797 9.66795 20.1318 9.78692C20.1787 9.90588 20.2517 10.0145 20.3455 10.1024ZM29.7327 4.53711V10.3869H35.1117V9.73002H30.3946V7.79561H34.1839V7.13357H30.3946V5.19915H35.1117V4.54228H29.7327V4.53711ZM38.8958 10.3869V4.54745H43.8109C44.0715 4.55263 44.3165 4.65607 44.5041 4.8371C44.6865 5.01813 44.7908 5.26639 44.796 5.525V7.23701C44.796 7.36632 44.7751 7.49045 44.723 7.60941C44.6761 7.72837 44.6031 7.83699 44.5093 7.92492C44.4207 8.01802 44.3112 8.09043 44.1914 8.13698C44.0715 8.18353 43.9412 8.20939 43.8161 8.20939H42.9144L44.7647 10.3817V10.3869H43.889L42.0491 8.20939L39.5681 8.19904V10.3817H38.8958V10.3869ZM39.8809 7.54217H43.8109C43.8526 7.54217 43.8943 7.537 43.9307 7.52148C43.9672 7.50597 44.0037 7.48528 44.0298 7.45424C44.0611 7.42321 44.0819 7.39218 44.0975 7.35597C44.1132 7.31977 44.1184 7.27839 44.1184 7.23701V5.525C44.1184 5.48363 44.1132 5.44225 44.0975 5.40604C44.0819 5.36984 44.0611 5.33363 44.0298 5.30777C44.0037 5.27674 43.9672 5.25088 43.9307 5.23536C43.8943 5.21984 43.8526 5.2095 43.8109 5.2095H39.8809C39.8392 5.2095 39.7975 5.21984 39.7558 5.23536C39.7141 5.25088 39.6828 5.27674 39.6515 5.30777C39.6202 5.3388 39.5994 5.36984 39.5838 5.40604C39.5681 5.44225 39.5629 5.48363 39.5629 5.525V7.23701C39.5629 7.27839 39.5681 7.31977 39.5838 7.35597C39.5994 7.39218 39.6202 7.42838 39.6515 7.45424C39.7141 7.51114 39.7923 7.54217 39.8809 7.54217ZM50.9047 5.19398V10.3869H51.5666V5.19398H54.178V4.53711H48.2882V5.19398H50.9047ZM57.6858 4.53711H58.3581V10.3869H57.6858V4.53711ZM62.3976 4.53711V10.3869H63.07V7.79561H64.9672L67.1616 10.3869H68.0216V10.3817L65.551 7.46459L68.0164 4.54745V4.54228H67.1668L64.9724 7.13357H63.0752V4.54228H62.3976V4.53711Z" fill="white"/>
<path d="M58.3686 10.4028H57.6702V4.52715H58.3634V10.4028H58.3686ZM57.6962 10.3769H58.3425V4.55301H57.6962V10.3769ZM68.0372 10.3976H67.1616L67.1564 10.3924L64.9673 7.80634H63.0856V10.3976H62.3872V4.52715H63.0856V7.11843H64.9673L67.1616 4.52715H68.032V4.55301L68.0268 4.55818L65.5719 7.47014L68.0425 10.3821L68.0372 10.3976ZM67.172 10.3769H68.006L65.5406 7.46497L65.5458 7.45462L68.0008 4.54783H67.1772L64.9829 7.13912H63.0648V4.54783H62.4133V10.3718H63.0596V7.78047H64.9777L64.9829 7.78565L67.172 10.3769ZM51.5875 10.3976H50.8995V5.20471H48.283V4.52197H54.204V5.20471H51.5927V10.3976H51.5875ZM50.9203 10.3769H51.5614V5.18402H54.1728V4.55301H48.2986V5.18402H50.9151L50.9203 10.3769ZM44.7751 10.3976H43.8786L43.8734 10.3924L42.0335 8.22011L39.5681 8.21494V10.3976H38.8801V4.53232H43.8057C44.0663 4.53232 44.3217 4.64093 44.5041 4.82196C44.6917 5.00816 44.796 5.25643 44.796 5.51504V7.23222C44.796 7.36152 44.7699 7.49083 44.723 7.60979C44.6761 7.72875 44.5979 7.83737 44.5093 7.93047C44.4155 8.02357 44.306 8.09598 44.1862 8.1477C44.0663 8.19943 43.936 8.22011 43.8057 8.22011H42.93L44.7647 10.3718L44.7751 10.3976ZM43.8891 10.3769H44.7387L42.8831 8.19943H43.8109C43.936 8.19943 44.0611 8.17874 44.1809 8.12701C44.2956 8.08046 44.4051 8.00805 44.4937 7.91495C44.5823 7.82702 44.6553 7.71841 44.7022 7.60462C44.7491 7.48566 44.7751 7.36152 44.7751 7.23739V5.52538C44.7751 5.27194 44.6709 5.02885 44.4885 4.84782C44.306 4.66679 44.0611 4.56335 43.8057 4.56335H38.9062V10.3821H39.5473V8.18908L42.0492 8.19943L42.0544 8.2046L43.8891 10.3769ZM35.1221 10.3976H29.7171V4.52715H35.1221V5.20471H30.4051V7.11326H34.1943V7.80634H30.4051V9.71489H35.1221V10.3976ZM29.7431 10.3769H35.0961V9.74075H30.379V7.78047H34.1683V7.13912H30.379V5.17884H35.0961V4.54783H29.7431V10.3769ZM25.9538 10.3976H21.0439C20.9136 10.3976 20.7833 10.3769 20.6634 10.3252C20.5436 10.2735 20.4341 10.2011 20.3403 10.108C20.2465 10.0149 20.1735 9.90626 20.1214 9.7873C20.0692 9.66834 20.0484 9.53903 20.0484 9.40973V5.50987C20.0484 5.38056 20.0745 5.25126 20.1214 5.13229C20.1735 5.01333 20.2465 4.90472 20.3351 4.81162C20.4289 4.71852 20.5383 4.64611 20.6582 4.59956C20.7781 4.54783 20.9084 4.52715 21.0387 4.52715H25.9486V5.20988H21.0439C21.0022 5.20988 20.9605 5.22022 20.9241 5.23574C20.8876 5.25126 20.8511 5.27712 20.825 5.30298C20.799 5.32884 20.7729 5.36505 20.7573 5.40125C20.7416 5.43746 20.7364 5.47883 20.7364 5.51504V9.4149C20.7364 9.45628 20.7416 9.49765 20.7573 9.53386C20.7729 9.57006 20.7937 9.60627 20.825 9.63213C20.8563 9.66316 20.8876 9.68385 20.9241 9.69937C20.9605 9.71489 21.0022 9.72006 21.0439 9.72006H25.9486L25.9538 10.3976ZM20.3559 10.0925C20.4445 10.1856 20.554 10.2528 20.6687 10.3045C20.7885 10.3511 20.9136 10.3769 21.0439 10.3718H25.9278V9.74075H21.0439C20.9553 9.74075 20.8719 9.70971 20.8042 9.64765C20.7416 9.58558 20.7104 9.49765 20.7104 9.40973V5.50987C20.7104 5.46849 20.7156 5.42711 20.7312 5.38573C20.7468 5.34436 20.7729 5.31332 20.8042 5.28229C20.8354 5.25126 20.8719 5.22539 20.9136 5.20988C20.9553 5.19436 20.997 5.18402 21.0439 5.18402H25.9278V4.54783H21.0439C20.9188 4.54783 20.7885 4.57369 20.6739 4.62024C20.554 4.66679 20.4497 4.73921 20.3611 4.82713C20.2725 4.91506 20.1996 5.02368 20.1526 5.13747C20.1057 5.25643 20.0797 5.38056 20.0797 5.5047V9.40455C20.0797 9.53386 20.1005 9.65799 20.1526 9.77178C20.1943 9.90109 20.2621 10.0045 20.3559 10.0925ZM43.8109 7.55807H39.8809C39.7923 7.55807 39.7089 7.52704 39.6411 7.46497C39.6098 7.43394 39.5838 7.39773 39.5681 7.36152C39.5525 7.32015 39.5421 7.27877 39.5473 7.23739V5.52538C39.5473 5.48401 39.5525 5.44263 39.5681 5.40125C39.5838 5.35987 39.6098 5.32884 39.6411 5.29781C39.6724 5.26677 39.7089 5.24091 39.7506 5.2254C39.7923 5.20988 39.834 5.19953 39.8809 5.19953H43.8109C43.8526 5.19953 43.8995 5.20988 43.936 5.2254C43.9777 5.24091 44.0089 5.26677 44.0402 5.30298C44.0715 5.33401 44.0976 5.37022 44.1132 5.40642C44.1288 5.4478 44.1392 5.48918 44.134 5.53056V7.24256C44.134 7.28394 44.1236 7.32532 44.108 7.3667C44.0923 7.40807 44.0663 7.43911 44.0402 7.47014C44.0089 7.50117 43.9725 7.52186 43.936 7.53738C43.8943 7.54772 43.8526 7.55807 43.8109 7.55807ZM39.8809 5.21505C39.8392 5.21505 39.7975 5.2254 39.761 5.24091C39.7245 5.25643 39.688 5.28229 39.662 5.30815C39.6359 5.33401 39.6098 5.37022 39.5994 5.40642C39.5838 5.44263 39.5786 5.48401 39.5786 5.52021V7.23222C39.5786 7.2736 39.5838 7.3098 39.5994 7.34601C39.615 7.38221 39.6359 7.41325 39.662 7.44428C39.7193 7.50117 39.8027 7.53221 39.8809 7.53221H43.8109C43.8526 7.53221 43.8891 7.52703 43.9255 7.51152C43.962 7.496 43.9933 7.47531 44.0246 7.44428C44.0506 7.41842 44.0767 7.38221 44.0923 7.34601C44.108 7.3098 44.1132 7.26842 44.1132 7.23222V5.52021C44.1132 5.47883 44.108 5.44263 44.0923 5.40642C44.0767 5.37022 44.0559 5.33918 44.0246 5.30815C43.9985 5.27712 43.9672 5.25643 43.9308 5.23574C43.8943 5.22022 43.8526 5.20988 43.8161 5.20988H39.8809V5.21505Z" fill="white"/>
<path d="M22.0186 14.054H21.7997V13.9764C21.7997 13.9506 21.7893 13.9247 21.7684 13.904C21.7476 13.8833 21.7215 13.873 21.6955 13.873H20.3976C20.3716 13.873 20.3455 13.8833 20.3246 13.904C20.3038 13.9247 20.2934 13.9506 20.2934 13.9764V14.4109C20.2934 14.4368 20.3038 14.4626 20.3246 14.4833C20.3455 14.504 20.3716 14.5143 20.3976 14.5143H21.6955C21.7372 14.5143 21.7789 14.5247 21.8206 14.5402C21.8623 14.5557 21.8935 14.5816 21.9248 14.6126C21.9561 14.6437 21.9769 14.6799 21.9978 14.7161C22.0134 14.7574 22.0238 14.7988 22.0238 14.8402V15.2747C22.0238 15.316 22.0186 15.3574 21.9978 15.3988C21.9821 15.4402 21.9561 15.4764 21.9248 15.5022C21.8935 15.5333 21.857 15.554 21.8206 15.5747C21.7789 15.5902 21.7372 15.6005 21.6955 15.6005H20.3976C20.3559 15.6005 20.3142 15.5902 20.2725 15.5747C20.2308 15.5591 20.1996 15.5333 20.1683 15.5022C20.137 15.4712 20.1162 15.435 20.1005 15.3988C20.0849 15.3574 20.0745 15.316 20.0745 15.2747V15.1971H20.2934V15.2747C20.2934 15.3005 20.3038 15.3264 20.3246 15.3471C20.3455 15.3678 20.3716 15.3781 20.3976 15.3781H21.6955C21.7215 15.3781 21.7476 15.3678 21.7684 15.3471C21.7893 15.3264 21.7997 15.3005 21.7997 15.2747V14.8402C21.7997 14.8143 21.7893 14.7885 21.7684 14.7678C21.7476 14.7471 21.7215 14.7368 21.6955 14.7368H20.3976C20.3559 14.7368 20.3142 14.7264 20.2725 14.7109C20.2308 14.6954 20.1996 14.6695 20.1683 14.6385C20.137 14.6075 20.1162 14.5712 20.1005 14.535C20.0849 14.4937 20.0745 14.4523 20.0745 14.4109V13.9764C20.0745 13.9351 20.0797 13.8937 20.1005 13.8523C20.1162 13.8109 20.1422 13.7799 20.1683 13.7489C20.1996 13.7178 20.236 13.6971 20.2725 13.6816C20.3142 13.6661 20.3559 13.6558 20.3976 13.6558H21.6955C21.7372 13.6558 21.7789 13.6609 21.8206 13.6816C21.8623 13.6971 21.8987 13.723 21.9248 13.7489C21.9561 13.7799 21.9769 13.8161 21.9978 13.8523C22.0134 13.8937 22.0238 13.9351 22.0238 13.9764V14.054H22.0186Z" fill="white"/>
<path d="M21.6902 15.6056H20.3924C20.3455 15.6056 20.3038 15.5952 20.2621 15.5797C20.2204 15.5642 20.1839 15.5383 20.1526 15.5073C20.1214 15.4763 20.0953 15.4401 20.0797 15.3987C20.064 15.3573 20.0536 15.3159 20.0536 15.2694V15.1815H20.3038V15.2694C20.3038 15.2952 20.3142 15.3159 20.3299 15.3315C20.3455 15.347 20.3716 15.3573 20.3924 15.3573H21.6902C21.7163 15.3573 21.7372 15.347 21.7528 15.3315C21.7684 15.3159 21.7789 15.2901 21.7789 15.2694V14.8349C21.7789 14.8091 21.7684 14.7884 21.7528 14.7729C21.7372 14.7573 21.7111 14.747 21.6902 14.747H20.3872C20.2986 14.747 20.21 14.7108 20.1474 14.6487C20.0849 14.5867 20.0484 14.4987 20.0484 14.4108V13.9763C20.0484 13.9298 20.0588 13.8884 20.0745 13.847C20.0901 13.8056 20.1162 13.7694 20.1474 13.7384C20.1787 13.7074 20.2152 13.6815 20.2569 13.666C20.2986 13.6505 20.3403 13.6401 20.3872 13.6401H21.685C21.7319 13.6401 21.7736 13.6505 21.8153 13.666C21.857 13.6815 21.8935 13.7074 21.9248 13.7384C21.9561 13.7694 21.9821 13.8056 21.9978 13.847C22.0134 13.8884 22.0238 13.9298 22.0238 13.9763V14.0643H21.7736V13.9763C21.7736 13.9505 21.7632 13.9298 21.7476 13.9143C21.7319 13.8987 21.7059 13.8884 21.685 13.8884H20.3872C20.3611 13.8884 20.3403 13.8987 20.3246 13.9143C20.309 13.9298 20.2986 13.9556 20.2986 13.9763V14.4108C20.2986 14.4367 20.309 14.4573 20.3246 14.4729C20.3403 14.4884 20.3663 14.4987 20.3872 14.4987H21.685C21.7736 14.4987 21.8623 14.5349 21.9248 14.597C21.9873 14.6591 22.0238 14.747 22.0238 14.8349V15.2694C22.0238 15.3159 22.0134 15.3573 21.9978 15.3987C21.9821 15.4401 21.9561 15.4763 21.9248 15.5073C21.8935 15.5383 21.857 15.5642 21.8153 15.5797C21.7789 15.5952 21.7372 15.6056 21.6902 15.6056ZM20.0849 15.2073V15.2694C20.0849 15.3108 20.0901 15.3521 20.1057 15.3883C20.1214 15.4246 20.1422 15.4608 20.1735 15.4866C20.2048 15.5177 20.236 15.5383 20.2725 15.5539C20.309 15.5694 20.3507 15.5745 20.3924 15.5745H21.6902C21.7319 15.5745 21.7736 15.5694 21.8101 15.5539C21.8466 15.5383 21.8831 15.5177 21.9092 15.4866C21.9404 15.4556 21.9613 15.4246 21.9769 15.3883C21.9926 15.3521 21.9978 15.3108 21.9978 15.2694V14.8349C21.9978 14.7522 21.9665 14.6746 21.9039 14.6177C21.8466 14.5608 21.7684 14.5298 21.685 14.5246H20.382C20.3507 14.5246 20.3194 14.5142 20.2986 14.4884C20.2777 14.4677 20.2621 14.4367 20.2621 14.4056V13.9712C20.2621 13.9401 20.2777 13.9091 20.2986 13.8884C20.3194 13.8677 20.3507 13.8522 20.382 13.8522H21.6798C21.7111 13.8522 21.7424 13.8677 21.7632 13.8884C21.7841 13.9091 21.7997 13.9401 21.7997 13.9712V14.0332H21.9926V13.9712C21.9926 13.9298 21.9873 13.8884 21.9717 13.8522C21.9561 13.816 21.9352 13.7798 21.9039 13.7539C21.8727 13.7229 21.8414 13.7022 21.8049 13.6867C21.7684 13.6712 21.7267 13.666 21.685 13.666H20.3872C20.3455 13.666 20.3038 13.6712 20.2673 13.6867C20.2308 13.7022 20.1943 13.7229 20.1683 13.7539C20.137 13.785 20.1162 13.816 20.1005 13.8522C20.0849 13.8884 20.0797 13.9298 20.0797 13.9712V14.4056C20.0797 14.4884 20.1109 14.566 20.1683 14.6229C20.2256 14.6798 20.3038 14.7108 20.3872 14.7108H21.685C21.7163 14.7108 21.7476 14.7211 21.7684 14.747C21.7893 14.7677 21.8049 14.7987 21.8049 14.8297V15.2642C21.8049 15.2952 21.7893 15.3263 21.7684 15.347C21.7476 15.3677 21.7163 15.3832 21.685 15.3832H20.3872C20.3559 15.3832 20.3246 15.3677 20.3038 15.347C20.283 15.3263 20.2673 15.2952 20.2673 15.2642V15.2021L20.0849 15.2073Z" fill="white"/>
<path d="M21.6902 15.5952H20.3924C20.3507 15.5952 20.3038 15.5849 20.2673 15.5694C20.2256 15.5539 20.1891 15.528 20.1579 15.497C20.1266 15.4659 20.1005 15.4297 20.0849 15.3883C20.0692 15.347 20.0588 15.3056 20.0588 15.2642V15.1815H20.2934V15.2642C20.2934 15.2901 20.3038 15.3159 20.3246 15.3315C20.3455 15.3521 20.3663 15.3625 20.3924 15.3625H21.6902C21.7163 15.3625 21.7424 15.3521 21.758 15.3315C21.7789 15.3108 21.7893 15.2901 21.7893 15.2642V14.8297C21.7893 14.8039 21.7789 14.778 21.758 14.7625C21.7372 14.747 21.7163 14.7366 21.6902 14.7366H20.3872C20.2986 14.7366 20.2152 14.7004 20.1526 14.6384C20.0901 14.5763 20.0536 14.4936 20.0536 14.4056V13.9712C20.0536 13.9298 20.064 13.8832 20.0797 13.847C20.0953 13.8056 20.1214 13.7694 20.1526 13.7384C20.1839 13.7074 20.2204 13.6815 20.2621 13.666C20.3038 13.6505 20.3455 13.6401 20.3872 13.6401H21.685C21.7267 13.6401 21.7736 13.6453 21.8101 13.666C21.8466 13.6867 21.8883 13.7074 21.9196 13.7384C21.9509 13.7694 21.9769 13.8056 21.9926 13.847C22.0082 13.8884 22.0186 13.9298 22.0186 13.9712V14.0539H21.7841V13.9712C21.7841 13.9453 21.7736 13.9194 21.7528 13.9039C21.7319 13.8832 21.7111 13.8729 21.685 13.8729H20.3872C20.3611 13.8729 20.3351 13.8832 20.3194 13.9039C20.2986 13.9246 20.2882 13.9453 20.2882 13.9712V14.4056C20.2882 14.4315 20.2986 14.4573 20.3194 14.4729C20.3403 14.4884 20.3611 14.4987 20.3872 14.4987H21.685C21.7736 14.4987 21.857 14.5349 21.9196 14.597C21.9821 14.6591 22.0186 14.7418 22.0186 14.8297V15.2642C22.0186 15.3056 22.0134 15.3521 21.9926 15.3883C21.9769 15.4297 21.9509 15.4659 21.9196 15.497C21.8883 15.528 21.8518 15.5539 21.8101 15.5694C21.7789 15.5901 21.7372 15.5952 21.6902 15.5952ZM20.0745 15.197V15.2642C20.0745 15.3056 20.0797 15.347 20.0953 15.3832C20.1109 15.4194 20.137 15.4556 20.1631 15.4866C20.1943 15.5177 20.2256 15.5383 20.2673 15.5539C20.3038 15.5694 20.3455 15.5797 20.3872 15.5745H21.685C21.7267 15.5745 21.7684 15.5694 21.8049 15.5539C21.8414 15.5383 21.8779 15.5125 21.9092 15.4866C21.9404 15.4608 21.9613 15.4246 21.9769 15.3832C21.9926 15.347 22.003 15.3056 21.9978 15.2642V14.8297C21.9978 14.747 21.9665 14.6642 21.9039 14.6073C21.8466 14.5504 21.7632 14.5142 21.6798 14.5142H20.382C20.3507 14.5142 20.3246 14.5039 20.3038 14.4832C20.283 14.4625 20.2725 14.4367 20.2725 14.4056V13.9712C20.2725 13.9401 20.283 13.9143 20.3038 13.8936C20.3246 13.8729 20.3507 13.8625 20.382 13.8625H21.6798C21.7111 13.8625 21.7372 13.8729 21.758 13.8936C21.7789 13.9143 21.7893 13.9453 21.7893 13.9712V14.0384H21.9926V13.9712C21.9926 13.9298 21.9873 13.8884 21.9717 13.8522C21.9561 13.816 21.93 13.7798 21.9039 13.7488C21.8779 13.7177 21.8414 13.697 21.7997 13.6815C21.7632 13.666 21.7215 13.6557 21.6798 13.6608H20.382C20.3403 13.6608 20.2986 13.666 20.2621 13.6815C20.2256 13.697 20.1891 13.7229 20.1579 13.7488C20.1266 13.7798 20.1057 13.8108 20.0901 13.8522C20.0745 13.8884 20.064 13.9298 20.0692 13.9712V14.4056C20.0692 14.4884 20.1005 14.5711 20.1631 14.628C20.2204 14.6849 20.3038 14.7211 20.3872 14.7211H21.685C21.7163 14.7211 21.7424 14.7315 21.7632 14.7522C21.7841 14.7729 21.7945 14.7987 21.7997 14.8297V15.2642C21.7997 15.2952 21.7893 15.3211 21.7684 15.3418C21.7476 15.3625 21.7163 15.3728 21.6902 15.3728H20.3924C20.3611 15.3728 20.3351 15.3625 20.3142 15.3418C20.2934 15.3211 20.283 15.2901 20.283 15.2642V15.197H20.0745Z" fill="white"/>
<path d="M21.6903 15.6109H20.3924C20.3455 15.6109 20.2986 15.6058 20.2569 15.5851C20.2152 15.5696 20.1735 15.5437 20.1422 15.5127C20.111 15.4816 20.0849 15.4403 20.0693 15.3989C20.0536 15.3575 20.0432 15.3109 20.0432 15.2644V15.1713H20.3038V15.2644C20.3038 15.2851 20.3142 15.3058 20.3299 15.3213C20.3455 15.3368 20.3664 15.3472 20.3872 15.3472H21.685C21.7059 15.3472 21.7267 15.3368 21.7424 15.3213C21.758 15.3058 21.7684 15.2851 21.7684 15.2644V14.8299C21.7684 14.8092 21.758 14.7886 21.7424 14.773C21.7267 14.7575 21.7059 14.7472 21.685 14.7472H20.3872C20.2934 14.7472 20.2048 14.711 20.1422 14.6437C20.0745 14.5765 20.038 14.4937 20.038 14.4006V13.9662C20.038 13.9196 20.0484 13.8782 20.064 13.8317C20.0797 13.7903 20.1057 13.7541 20.137 13.7179C20.1683 13.6869 20.21 13.661 20.2517 13.6455C20.2934 13.63 20.3403 13.6196 20.3872 13.6196H21.685C21.732 13.6196 21.7737 13.6248 21.8206 13.6455C21.8623 13.661 21.904 13.6869 21.9352 13.7179C21.9665 13.7489 21.9926 13.7903 22.0082 13.8317C22.0238 13.8731 22.0343 13.9196 22.0343 13.9662V14.0644H21.7737V13.9662C21.7737 13.9455 21.7632 13.9248 21.7476 13.9093C21.732 13.8938 21.7111 13.8834 21.6903 13.8834H20.3872C20.3664 13.8834 20.3455 13.8938 20.3299 13.9093C20.3142 13.9248 20.3038 13.9455 20.3038 13.9662V14.4006C20.3038 14.4213 20.3142 14.442 20.3299 14.4575C20.3455 14.473 20.3664 14.4834 20.3872 14.4834H21.685C21.7789 14.4834 21.8675 14.5196 21.93 14.5868C21.9978 14.6541 22.0343 14.742 22.0343 14.8299V15.2644C22.0343 15.3109 22.0238 15.3523 22.0082 15.3989C21.9926 15.4403 21.9665 15.4765 21.9352 15.5127C21.904 15.5437 21.8623 15.5696 21.8206 15.5851C21.7841 15.6006 21.7372 15.6109 21.6903 15.6109ZM20.0901 15.2127V15.2696C20.0901 15.3109 20.0953 15.3472 20.111 15.3834C20.1266 15.4196 20.1474 15.4558 20.1787 15.4816C20.2048 15.5075 20.2413 15.5334 20.2777 15.5489C20.3142 15.5644 20.3559 15.5696 20.3924 15.5696H21.6903C21.732 15.5696 21.7684 15.5644 21.8049 15.5489C21.8414 15.5334 21.8779 15.5127 21.904 15.4816C21.93 15.4558 21.9561 15.4196 21.9717 15.3834C21.9874 15.3472 21.9926 15.3058 21.9926 15.2696V14.8351C21.9926 14.7575 21.9613 14.6799 21.904 14.623C21.8466 14.5661 21.7684 14.5351 21.6903 14.5351H20.3924C20.3611 14.5351 20.3299 14.5196 20.3038 14.4989C20.2777 14.4782 20.2673 14.4472 20.2673 14.411V13.9765C20.2673 13.9455 20.283 13.9144 20.3038 13.8886C20.3299 13.8627 20.3611 13.8524 20.3924 13.8524H21.6903C21.7215 13.8524 21.7528 13.8679 21.7789 13.8886C21.8049 13.9144 21.8154 13.9455 21.8154 13.9765V14.0334H21.9926V13.9765C21.9926 13.9351 21.9874 13.8989 21.9717 13.8627C21.9561 13.8265 21.9352 13.7903 21.904 13.7645C21.8779 13.7386 21.8414 13.7127 21.8049 13.6972C21.7684 13.6817 21.7267 13.6765 21.6903 13.6765H20.3924C20.3507 13.6765 20.3142 13.6817 20.2777 13.6972C20.2413 13.7127 20.2048 13.7334 20.1787 13.7645C20.1526 13.7903 20.1266 13.8265 20.111 13.8627C20.0953 13.8989 20.0901 13.9403 20.0901 13.9765V14.411C20.0901 14.4886 20.1214 14.5661 20.1787 14.623C20.236 14.6799 20.3142 14.711 20.3924 14.711H21.6903C21.7215 14.711 21.7528 14.7265 21.7789 14.7472C21.8049 14.7679 21.8154 14.7989 21.8154 14.8351V15.2696C21.8154 15.3006 21.7997 15.3368 21.7789 15.3575C21.7528 15.3834 21.7215 15.3937 21.6903 15.3937H20.3924C20.3611 15.3937 20.3247 15.3782 20.3038 15.3575C20.2777 15.3316 20.2673 15.3006 20.2673 15.2696V15.2127H20.0901Z" fill="white"/>
<path d="M24.4996 13.873H22.9412V14.5143H24.1973V14.7368H22.9412V15.3781H24.4996V15.5953H22.7171V13.6558H24.4944L24.4996 13.873Z" fill="white"/>
<path d="M24.5101 15.6058H22.7014V13.6455H24.5101V13.8938H22.9516V14.5041H24.2077V14.7524H22.9516V15.3627H24.5101V15.6058ZM22.7327 15.5747H24.484V15.3834H22.9255V14.7162H24.1817V14.5248H22.9255V13.8576H24.484V13.6714H22.7327V15.5747Z" fill="white"/>
<path d="M24.51 15.5954H22.7118V13.6455H24.51V13.8783H22.9464V14.5041H24.2025V14.7368H22.9464V15.3627H24.51V15.5954ZM22.7275 15.5851H24.4944V15.3782H22.9308V14.7265H24.1869V14.5196H22.9308V13.8627H24.4892V13.661H22.7223L22.7275 15.5851Z" fill="white"/>
<path d="M24.5205 15.611H22.6962V13.6353H24.5205V13.8939H22.9568V14.4938H24.2129V14.7576H22.9568V15.3576H24.5205V15.611ZM22.7379 15.5697H24.4736V15.3938H22.9151V14.7111H24.1713V14.53H22.9151V13.8473H24.4736V13.6715H22.7379V15.5697Z" fill="white"/>
<path d="M25.5212 13.8733C25.4952 13.8733 25.4691 13.8836 25.4482 13.9043C25.4274 13.925 25.417 13.9509 25.417 13.9767V15.2646C25.417 15.2905 25.4274 15.3163 25.4482 15.337C25.4691 15.3577 25.4952 15.3681 25.5212 15.3681H27.1422V15.5853H25.5212C25.4795 15.5853 25.4378 15.5749 25.3961 15.5594C25.3544 15.5439 25.3232 15.5181 25.2919 15.487C25.2606 15.456 25.2398 15.4198 25.2241 15.3836C25.2085 15.3422 25.1981 15.3008 25.1981 15.2594V13.9716C25.1981 13.9302 25.2085 13.8888 25.2241 13.8474C25.2398 13.806 25.2658 13.775 25.2919 13.744C25.3232 13.7129 25.3596 13.6923 25.3961 13.6767C25.4378 13.6612 25.4795 13.6509 25.5212 13.6509H27.1422V13.8681H25.5212V13.8733Z" fill="white"/>
<path d="M27.1526 15.6058H25.5212C25.4743 15.6058 25.4326 15.5954 25.3909 15.5799C25.3492 15.5644 25.3127 15.5385 25.2815 15.5075C25.2502 15.4765 25.2241 15.4403 25.2085 15.3989C25.1929 15.3575 25.1824 15.3161 25.1824 15.2696V13.9817C25.1824 13.9352 25.1929 13.8938 25.2085 13.8524C25.2241 13.811 25.2502 13.7748 25.2815 13.7438C25.3127 13.7127 25.3492 13.6869 25.3909 13.6714C25.4326 13.6559 25.4743 13.6455 25.5212 13.6455H27.1526V13.8938H25.5212C25.4952 13.8938 25.4743 13.9041 25.4587 13.9196C25.443 13.9352 25.4326 13.961 25.4326 13.9817V15.2696C25.4326 15.2954 25.443 15.3161 25.4587 15.3317C25.4743 15.3472 25.5004 15.3575 25.5212 15.3575H27.1526V15.6058ZM25.5212 13.6714C25.4795 13.6714 25.4378 13.6765 25.4013 13.6921C25.3649 13.7076 25.3284 13.7283 25.3023 13.7593C25.271 13.7903 25.2502 13.8214 25.2345 13.8576C25.2189 13.8938 25.2137 13.9352 25.2137 13.9765V15.2644C25.2137 15.3058 25.2189 15.3472 25.2345 15.3834C25.2502 15.4196 25.271 15.4558 25.3023 15.4816C25.3336 15.5127 25.3649 15.5334 25.4013 15.5489C25.4378 15.5644 25.4795 15.5696 25.5212 15.5696H27.1266V15.3782H25.5212C25.4899 15.3782 25.4587 15.3627 25.4378 15.342C25.417 15.3213 25.4013 15.2903 25.4013 15.2592V13.9714C25.4013 13.9403 25.417 13.9093 25.4378 13.8886C25.4587 13.8679 25.4899 13.8524 25.5212 13.8524H27.1266V13.6714H25.5212Z" fill="white"/>
<path d="M27.1474 15.5954H25.5212C25.4795 15.5954 25.4326 15.5851 25.3961 15.5696C25.3544 15.5541 25.3179 15.5282 25.2867 15.4972C25.2554 15.4661 25.2293 15.4299 25.2137 15.3885C25.1981 15.3472 25.1876 15.3058 25.1876 15.2644V13.9765C25.1876 13.9352 25.1981 13.8886 25.2137 13.8524C25.2293 13.811 25.2554 13.7748 25.2867 13.7438C25.3179 13.7127 25.3544 13.6869 25.3961 13.6714C25.4378 13.6559 25.4795 13.6455 25.5212 13.6455H27.1474V13.8783H25.5212C25.4952 13.8783 25.4691 13.8886 25.4535 13.9093C25.4326 13.93 25.4222 13.9507 25.4222 13.9765V15.2644C25.4222 15.2903 25.4326 15.3161 25.4535 15.3317C25.4743 15.3523 25.4952 15.3627 25.5212 15.3627H27.1474V15.5954ZM25.5212 13.661C25.4795 13.661 25.4378 13.6662 25.4013 13.6817C25.3649 13.6972 25.3284 13.7231 25.2971 13.749C25.2658 13.78 25.245 13.811 25.2293 13.8524C25.2137 13.8886 25.2033 13.93 25.2085 13.9714V15.2592C25.2085 15.3006 25.2137 15.342 25.2293 15.3782C25.245 15.4144 25.271 15.4506 25.2971 15.4816C25.3232 15.5127 25.3596 15.5334 25.4013 15.5489C25.4378 15.5644 25.4795 15.5747 25.5212 15.5696H27.1318V15.3782H25.5212C25.4899 15.3782 25.4639 15.3679 25.443 15.3472C25.4222 15.3265 25.4118 15.2954 25.4118 15.2696V13.9817C25.4118 13.9507 25.4222 13.9248 25.443 13.9041C25.4639 13.8834 25.4899 13.8731 25.5212 13.8731H27.1318V13.6714H25.5212V13.661Z" fill="white"/>
<path d="M27.1579 15.6108H25.516C25.4691 15.6108 25.4274 15.6057 25.3805 15.585C25.3388 15.5695 25.2971 15.5436 25.2658 15.5126C25.2346 15.4815 25.2085 15.4402 25.1929 15.3988C25.1772 15.3574 25.1668 15.3109 25.1668 15.2643V13.9764C25.1668 13.9299 25.1772 13.8885 25.1929 13.8419C25.2085 13.8006 25.2346 13.7644 25.2658 13.7282C25.2971 13.6971 25.3388 13.6713 25.3805 13.6557C25.4222 13.6402 25.4691 13.6299 25.516 13.6299H27.1579V13.8885H25.516C25.4952 13.8885 25.4743 13.8988 25.4587 13.9144C25.443 13.9299 25.4326 13.9506 25.4326 13.9712V15.2591C25.4326 15.2798 25.443 15.3005 25.4587 15.316C25.4743 15.3315 25.4952 15.3419 25.516 15.3419H27.1579V15.6108ZM25.5212 13.6764C25.4795 13.6764 25.443 13.6816 25.4066 13.6971C25.3701 13.7126 25.3336 13.7333 25.3075 13.7644C25.2815 13.7954 25.2554 13.8264 25.2398 13.8626C25.2241 13.8988 25.2189 13.9402 25.2189 13.9764V15.2643C25.2189 15.3057 25.2241 15.3419 25.2398 15.3781C25.2554 15.4143 25.2762 15.4505 25.3075 15.4764C25.3336 15.5022 25.3701 15.5281 25.4066 15.5436C25.443 15.5591 25.4847 15.5643 25.5212 15.5643H27.1214V15.3884H25.5212C25.4899 15.3884 25.4535 15.3729 25.4326 15.3522C25.4066 15.3264 25.3961 15.2953 25.3961 15.2643V13.9764C25.3961 13.9454 25.4118 13.9144 25.4326 13.8885C25.4587 13.8626 25.4899 13.8523 25.5212 13.8523H27.1214V13.6764H25.5212Z" fill="white"/>
<path d="M29.5503 13.6558H29.7692V15.2695C29.7692 15.3109 29.7587 15.3523 29.7431 15.3936C29.7275 15.435 29.7014 15.4712 29.6701 15.4971C29.6389 15.5281 29.6024 15.5488 29.5659 15.5695C29.5242 15.585 29.4825 15.5953 29.4408 15.5953H28.143C28.1013 15.5953 28.0596 15.585 28.0179 15.5695C27.9762 15.554 27.9397 15.5281 27.9136 15.4971C27.8823 15.466 27.8615 15.4298 27.8407 15.3936C27.825 15.3523 27.8146 15.3109 27.8146 15.2695V13.6558H28.0335V15.2695C28.0335 15.2954 28.0439 15.3212 28.0648 15.3419C28.0856 15.3626 28.1117 15.3729 28.1377 15.3729H29.4356C29.4616 15.3729 29.4877 15.3626 29.5086 15.3419C29.5294 15.3212 29.5398 15.2954 29.5398 15.2695V13.6558H29.5503Z" fill="white"/>
<path d="M29.446 15.6058H28.1482C28.1013 15.6058 28.0596 15.6006 28.0179 15.5799C27.9762 15.5644 27.9397 15.5385 27.9084 15.5075C27.8771 15.4765 27.8511 15.4403 27.8354 15.3989C27.8198 15.3575 27.8094 15.3161 27.8094 15.2696V13.6455H28.0596V15.2748C28.0596 15.3006 28.07 15.3213 28.0856 15.3368C28.1013 15.3523 28.1273 15.3627 28.1482 15.3627H29.446C29.4721 15.3627 29.4929 15.3523 29.5086 15.3368C29.5242 15.3213 29.5346 15.2954 29.5346 15.2748V13.6455H29.7848V15.2748C29.7848 15.3213 29.7744 15.3627 29.7587 15.4041C29.7431 15.4454 29.717 15.4816 29.6858 15.5127C29.6545 15.5437 29.618 15.5696 29.5763 15.5851C29.5346 15.5954 29.4929 15.6058 29.446 15.6058ZM27.8354 13.6714V15.2696C27.8354 15.311 27.8407 15.3523 27.8563 15.3885C27.8719 15.4248 27.8928 15.461 27.924 15.4868C27.9553 15.5179 27.9866 15.5385 28.0231 15.5541C28.0596 15.5696 28.1013 15.5747 28.143 15.5747H29.4408C29.4825 15.5747 29.5242 15.5696 29.5607 15.5541C29.5972 15.5385 29.6337 15.5179 29.6597 15.4868C29.691 15.4558 29.7118 15.4248 29.7275 15.3885C29.7431 15.3523 29.7483 15.311 29.7483 15.2696V13.6714H29.5555V15.2696C29.5555 15.3006 29.5398 15.3317 29.519 15.3523C29.4981 15.373 29.4669 15.3885 29.4356 15.3885H28.1378C28.1065 15.3885 28.0752 15.373 28.0544 15.3523C28.0335 15.3317 28.0179 15.3006 28.0179 15.2696V13.6714H27.8354Z" fill="white"/>
<path d="M29.446 15.5954H28.1482C28.1065 15.5954 28.0596 15.5851 28.0231 15.5696C27.9814 15.5541 27.9449 15.5282 27.9136 15.4972C27.8823 15.4661 27.8563 15.4299 27.8407 15.3885C27.825 15.3472 27.8146 15.3058 27.8146 15.2644V13.6455H28.0491V15.2644C28.0491 15.2903 28.0596 15.3161 28.0804 15.3317C28.1013 15.3523 28.1221 15.3627 28.1482 15.3627H29.446C29.4721 15.3627 29.4981 15.3523 29.5138 15.3317C29.5346 15.311 29.545 15.2903 29.545 15.2644V13.6455H29.7744V15.2644C29.7744 15.3058 29.7692 15.3523 29.7483 15.3885C29.7327 15.4299 29.7066 15.4661 29.6754 15.4972C29.6441 15.5282 29.6076 15.5541 29.5659 15.5696C29.5346 15.5903 29.4877 15.5954 29.446 15.5954ZM27.8302 13.661V15.2644C27.8302 15.3058 27.8354 15.3472 27.8511 15.3834C27.8667 15.4196 27.8928 15.4558 27.9188 15.4868C27.9501 15.5179 27.9814 15.5385 28.0231 15.5541C28.0596 15.5696 28.1013 15.5799 28.143 15.5747H29.4408C29.4825 15.5747 29.5242 15.5696 29.5607 15.5541C29.5972 15.5385 29.6337 15.5127 29.6649 15.4868C29.6962 15.4558 29.717 15.4248 29.7327 15.3834C29.7483 15.3472 29.7587 15.3058 29.7535 15.2644V13.661H29.5503V15.2644C29.5503 15.2954 29.5398 15.3213 29.519 15.342C29.4981 15.3627 29.4669 15.373 29.4408 15.373H28.143C28.1117 15.373 28.0856 15.3627 28.0648 15.342C28.0439 15.3213 28.0335 15.2903 28.0335 15.2644V13.661H27.8302Z" fill="white"/>
<path d="M29.446 15.6108H28.1482C28.1013 15.6108 28.0596 15.6057 28.0127 15.585C27.971 15.5695 27.9293 15.5436 27.898 15.5126C27.8667 15.4815 27.8407 15.4402 27.825 15.3988C27.8094 15.3574 27.799 15.3109 27.799 15.2643V13.6299H28.0596V15.2643C28.0596 15.285 28.07 15.3057 28.0856 15.3212C28.1013 15.3367 28.1221 15.3471 28.143 15.3471H29.4408C29.4617 15.3471 29.4825 15.3367 29.4981 15.3212C29.5138 15.3057 29.5242 15.285 29.5242 15.2643V13.6299H29.7848V15.2643C29.7848 15.3109 29.7744 15.3522 29.7587 15.3936C29.7431 15.435 29.717 15.4712 29.6858 15.5074C29.6545 15.5384 29.618 15.5643 29.5711 15.5798C29.5346 15.6005 29.4929 15.6108 29.446 15.6108ZM27.8407 13.6764V15.2695C27.8407 15.3109 27.8459 15.3471 27.8615 15.3833C27.8771 15.4195 27.898 15.4557 27.9293 15.4815C27.9553 15.5074 27.9918 15.5333 28.0283 15.5488C28.0648 15.5643 28.1065 15.5695 28.143 15.5695H29.4408C29.4825 15.5695 29.519 15.5643 29.5555 15.5488C29.592 15.5333 29.6284 15.5126 29.6545 15.4815C29.6806 15.4557 29.7066 15.4195 29.7223 15.3833C29.7379 15.3471 29.7431 15.3057 29.7431 15.2695V13.6764H29.5659V15.2695C29.5659 15.3005 29.5503 15.3367 29.5294 15.3574C29.5033 15.3833 29.4721 15.3936 29.4408 15.3936H28.143C28.1117 15.3936 28.0752 15.3781 28.0544 15.3574C28.0283 15.3315 28.0179 15.3005 28.0179 15.2695V13.6764H27.8407Z" fill="white"/>
<path d="M32.4222 14.5454C32.4222 14.5868 32.4118 14.6281 32.3961 14.6695C32.3805 14.7109 32.3544 14.7419 32.3284 14.773C32.2971 14.804 32.2606 14.8247 32.2241 14.8454C32.1824 14.8609 32.1407 14.8712 32.099 14.8712H31.8019L32.417 15.5902H32.1251L31.5153 14.8712H30.8012C30.7647 14.8712 30.7282 14.8661 30.6969 14.8609V15.5902H30.478V13.6558H32.1042C32.1459 13.6558 32.1876 13.6661 32.2293 13.6816C32.271 13.6971 32.3023 13.723 32.3336 13.754C32.3649 13.7851 32.3857 13.8213 32.4013 13.8575C32.417 13.8989 32.4274 13.9402 32.4274 13.9816L32.4222 14.5454ZM32.099 14.6488C32.1147 14.6488 32.1251 14.6437 32.1407 14.6385C32.1512 14.6333 32.1668 14.6281 32.172 14.6178C32.1824 14.6074 32.1876 14.5971 32.1928 14.5868C32.1981 14.5764 32.2033 14.5609 32.2033 14.5454V13.9764C32.2033 13.9506 32.1928 13.9247 32.172 13.904C32.1511 13.8833 32.1251 13.873 32.099 13.873H30.8012C30.7751 13.873 30.7491 13.8833 30.7282 13.904C30.7074 13.9247 30.6969 13.9506 30.6969 13.9764V14.5454C30.6969 14.5712 30.7074 14.5971 30.7282 14.6178C30.7491 14.6385 30.7751 14.6488 30.8012 14.6488H32.099Z" fill="white"/>
<path d="M32.443 15.6056H32.1147L31.5048 14.8815H30.796C30.7647 14.8815 30.7334 14.8763 30.7022 14.8711V15.6004H30.452V13.6401H32.0938C32.1824 13.6401 32.271 13.6763 32.3336 13.7384C32.3961 13.8005 32.4326 13.8884 32.4326 13.9763V14.5453C32.4326 14.6332 32.3961 14.7211 32.3336 14.7832C32.271 14.8453 32.1824 14.8815 32.0938 14.8815H31.8228L32.443 15.6056ZM32.1303 15.5745H32.3857L31.7707 14.8556H32.099C32.1824 14.8556 32.2606 14.8246 32.3179 14.7625C32.3753 14.7056 32.4066 14.628 32.4118 14.5453V13.9763C32.4118 13.8936 32.3805 13.816 32.3232 13.7591C32.2658 13.7022 32.1876 13.6712 32.1042 13.6712H30.4937V15.5745H30.6865V14.8401L30.7178 14.8453C30.7491 14.8504 30.7751 14.8556 30.8064 14.8556H31.5257L32.1303 15.5745ZM32.099 14.6642H30.8012C30.7699 14.6642 30.7386 14.6539 30.7178 14.628C30.6969 14.6073 30.6813 14.5763 30.6813 14.5453V13.9763C30.6813 13.9453 30.6969 13.9143 30.7178 13.8936C30.7386 13.8729 30.7699 13.8574 30.8012 13.8574H32.099C32.1303 13.8574 32.1616 13.8729 32.1824 13.8936C32.2033 13.9143 32.2189 13.9453 32.2189 13.9763V14.5453C32.2189 14.5763 32.2085 14.6073 32.1824 14.628C32.1616 14.6487 32.1303 14.6642 32.099 14.6642ZM30.796 13.8884C30.7699 13.8884 30.7491 13.8987 30.7334 13.9143C30.7178 13.9298 30.7074 13.9556 30.7074 13.9763V14.5453C30.7074 14.5711 30.7178 14.5918 30.7334 14.6073C30.7491 14.6229 30.7751 14.6332 30.796 14.6332H32.0938C32.1199 14.6332 32.1407 14.6229 32.1564 14.6073C32.172 14.5918 32.1824 14.566 32.1824 14.5453V13.9763C32.1824 13.9505 32.172 13.9298 32.1564 13.9143C32.1407 13.8987 32.1147 13.8884 32.0938 13.8884H30.796Z" fill="white"/>
<path d="M32.4274 15.5956H32.1199L31.51 14.8767H30.8012C30.7699 14.8767 30.7386 14.8715 30.7074 14.8664H30.7022V15.5956H30.4676V13.6509H32.099C32.1876 13.6509 32.271 13.6871 32.3336 13.7492C32.3961 13.8112 32.4326 13.894 32.4326 13.9819V14.5508C32.4326 14.6388 32.3961 14.7215 32.3336 14.7836C32.271 14.8457 32.1876 14.8819 32.099 14.8819H31.8176L32.4274 15.5956ZM32.1251 15.5853H32.3961L31.7863 14.8612H32.099C32.1824 14.8612 32.2658 14.8301 32.3232 14.7681C32.3805 14.7112 32.417 14.6284 32.417 14.5457V13.9767C32.417 13.894 32.3857 13.8112 32.3232 13.7543C32.2658 13.6974 32.1824 13.6612 32.099 13.6612H30.4832V15.5853H30.6865V14.856H30.7074C30.7386 14.8612 30.7699 14.8664 30.796 14.8664H31.5153L32.1251 15.5853ZM32.099 14.6543H30.8012C30.7699 14.6543 30.7439 14.6439 30.723 14.6233C30.7022 14.6026 30.6917 14.5767 30.6917 14.5457V13.9767C30.6917 13.9457 30.7022 13.9198 30.723 13.8991C30.7439 13.8785 30.7699 13.8681 30.8012 13.8681H32.099C32.1303 13.8681 32.1564 13.8785 32.1772 13.9043C32.1981 13.925 32.2085 13.9509 32.2085 13.9819V14.5508C32.2085 14.5664 32.2033 14.5819 32.1981 14.5922C32.1929 14.6077 32.1824 14.6181 32.172 14.6284C32.1616 14.6388 32.1512 14.6491 32.1355 14.6543C32.1251 14.6543 32.1147 14.6543 32.099 14.6543ZM30.796 13.8836C30.7699 13.8836 30.7439 13.894 30.7282 13.9147C30.7074 13.9354 30.6969 13.956 30.6969 13.9819V14.5508C30.6969 14.5767 30.7074 14.6026 30.7282 14.6181C30.7491 14.6336 30.7699 14.6439 30.796 14.6439H32.0938C32.1199 14.6439 32.1459 14.6336 32.1616 14.6181C32.1772 14.6026 32.1876 14.5767 32.1876 14.5508V13.9819C32.1876 13.956 32.1772 13.9302 32.1616 13.9147C32.1459 13.894 32.1199 13.8836 32.0938 13.8836H30.796Z" fill="white"/>
<path d="M32.4587 15.6108H32.1147L31.5048 14.8918H30.796C30.7699 14.8918 30.7386 14.8866 30.7126 14.8866V15.6159H30.452V13.6401H32.099C32.1928 13.6401 32.2815 13.6763 32.344 13.7436C32.4118 13.8108 32.4482 13.8987 32.4482 13.9867V14.5556C32.4482 14.6487 32.4118 14.7315 32.344 14.7987C32.2762 14.8608 32.1928 14.897 32.099 14.897H31.8436L32.4587 15.6108ZM32.1303 15.5694H32.3648L31.755 14.8504H32.099C32.1772 14.8504 32.2554 14.8194 32.3127 14.7625C32.3701 14.7056 32.4013 14.628 32.4013 14.5504V13.9815C32.4013 13.9039 32.3701 13.8263 32.3127 13.7694C32.2554 13.7125 32.1772 13.6815 32.099 13.6815H30.4937V15.5745H30.6709V14.8401L30.7074 14.8453C30.7386 14.8504 30.7647 14.8504 30.796 14.8556H31.5205L31.5257 14.8608L32.1303 15.5694ZM32.099 14.6694H30.8012C30.7699 14.6694 30.7386 14.6539 30.7126 14.6332C30.6865 14.6125 30.6761 14.5815 30.6761 14.5453V13.9763C30.6761 13.9453 30.6917 13.9143 30.7126 13.8884C30.7386 13.8625 30.7699 13.8522 30.8012 13.8522H32.099C32.1303 13.8522 32.1616 13.8677 32.1876 13.8884C32.2085 13.9143 32.2241 13.9453 32.2241 13.9763V14.5453C32.2241 14.5763 32.2085 14.6073 32.1876 14.6332C32.1616 14.6591 32.1303 14.6694 32.099 14.6694ZM30.796 13.8936C30.7751 13.8936 30.7543 13.9039 30.7386 13.9194C30.723 13.935 30.7126 13.9556 30.7126 13.9763V14.5453C30.7126 14.566 30.723 14.5867 30.7386 14.6022C30.7543 14.6177 30.7751 14.628 30.796 14.628H32.0938C32.1147 14.628 32.1355 14.6177 32.1511 14.6022C32.1668 14.5867 32.1772 14.566 32.1772 14.5453V13.9763C32.1772 13.9556 32.1668 13.935 32.1511 13.9194C32.1355 13.9039 32.1147 13.8936 32.0938 13.8936H30.796Z" fill="white"/>
<path d="M33.1206 13.6558H33.3395V15.5902H33.1206V13.6558Z" fill="white"/>
<path d="M33.3552 15.6058H33.105V13.6455H33.3552V15.6058ZM33.131 15.5747H33.3239V13.6714H33.131V15.5747Z" fill="white"/>
<path d="M33.3447 15.5954H33.1102V13.6455H33.3447V15.5954ZM33.1258 15.5851H33.3291V13.6662H33.1258V15.5851Z" fill="white"/>
<path d="M33.3604 15.611H33.0998V13.6353H33.3604V15.611ZM33.1415 15.5697H33.3187V13.6766H33.1415V15.5697Z" fill="white"/>
<path d="M35.9717 13.6558V13.873H35.1065V15.5902H34.8876V13.873H34.0223V13.6558H35.9717Z" fill="white"/>
<path d="M35.1221 15.6056H34.8719V13.8884H34.0067V13.6401H35.9873V13.8884H35.1221V15.6056ZM34.9032 15.5745H35.096V13.8574H35.9613V13.6712H34.038V13.8625H34.9032V15.5745Z" fill="white"/>
<path d="M35.1169 15.5954H34.8823V13.8783H34.0171V13.6455H35.9821V13.8783H35.1169V15.5954ZM34.898 15.5851H35.1013V13.8679H35.9665V13.6662H34.0328V13.8679H34.898V15.5851Z" fill="white"/>
<path d="M35.1273 15.611H34.8667V13.8939H34.0015V13.6353H35.9925V13.8939H35.1273V15.611ZM34.9084 15.5697H35.0856V13.8525H35.9509V13.6766H34.0432V13.8525H34.9084V15.5697Z" fill="white"/>
<path d="M38.4892 13.6558L37.5927 14.8609V15.5902H37.3738V14.8609C37.0819 14.4678 36.7744 14.0489 36.4773 13.6558H36.7275L37.4832 14.6023C37.7178 14.3023 37.994 13.9558 38.2286 13.6558H38.4892Z" fill="white"/>
<path d="M37.6031 15.6056H37.3529V14.866C37.0663 14.4729 36.7588 14.0694 36.4669 13.6712L36.446 13.6401H36.7327L37.4833 14.5815C37.6657 14.3487 37.869 14.0901 38.067 13.8419L38.2234 13.6453H38.5153L38.4996 13.666L37.6031 14.866V15.6056ZM37.3842 15.5745H37.5771V14.8556V14.8504L38.4579 13.666H38.2338L38.0827 13.8574C37.8846 14.1108 37.6761 14.3694 37.4885 14.6073L37.478 14.6229L36.7223 13.6712H36.5034C36.7952 14.0643 37.0975 14.4677 37.3842 14.8556L37.3894 14.8608L37.3842 15.5745Z" fill="white"/>
<path d="M37.5979 15.5954H37.3634V14.861C37.0767 14.4679 36.7692 14.0593 36.4721 13.6662L36.4564 13.6455H36.7275V13.6507L37.478 14.5869C37.6605 14.3489 37.869 14.0955 38.067 13.8421L38.2234 13.6455H38.4996L38.4892 13.6559L37.5979 14.861V15.5954ZM37.379 15.5851H37.5823V14.861L38.4684 13.6662H38.2286L38.0774 13.8576C37.8794 14.111 37.6709 14.3696 37.4832 14.6075L37.478 14.6127L37.4728 14.6075L36.717 13.6662H36.4825C36.7796 14.0593 37.0819 14.4679 37.3686 14.861L37.379 15.5851Z" fill="white"/>
<path d="M37.6136 15.611H37.3529V14.8714C37.0767 14.4938 36.7848 14.1059 36.4669 13.6766L36.4356 13.6353H36.7379L36.7431 13.6404L37.4832 14.5663C37.6448 14.3542 37.8273 14.1266 38.0045 13.9094L38.2234 13.6353H38.5309L37.6136 14.8662V15.611ZM37.3946 15.5697H37.5719V14.8559V14.8507L38.4475 13.6766H38.239L38.0879 13.8628C37.869 14.137 37.6761 14.3852 37.4937 14.6128L37.478 14.6335L37.4624 14.6128L36.7118 13.6766H36.5138C36.79 14.0439 37.0975 14.4628 37.3842 14.8507V14.8559V14.8611L37.3946 15.5697Z" fill="white"/>
<path d="M40.3187 13.6509H40.5376V15.3681H42.2681V15.5853H40.3187V13.6509Z" fill="white"/>
<path d="M42.2785 15.6056H40.3031V13.6401H40.5532V15.3625H42.2837L42.2785 15.6056ZM40.3291 15.5745H42.2524V15.3832H40.522V13.666H40.3291V15.5745Z" fill="white"/>
<path d="M42.2733 15.5954H40.3083V13.6455H40.5428V15.3679H42.2733V15.5954ZM40.3239 15.5851H42.2576V15.3782H40.5272V13.6559H40.3239V15.5851Z" fill="white"/>
<path d="M42.2889 15.6108H40.2978V13.6299H40.5584V15.3522H42.2889V15.6108ZM40.3343 15.5695H42.242V15.3936H40.5115V13.6713H40.3343V15.5695Z" fill="white"/>
<path d="M44.6135 13.873H43.0551V14.5143H44.3112V14.7368H43.0551V15.3781H44.6135V15.5953H42.8362V13.6558H44.6135V13.873Z" fill="white"/>
<path d="M44.6292 15.6058H42.8206V13.6455H44.6292V13.8938H43.0707V14.5041H44.3269V14.7524H43.0707V15.3627H44.6292V15.6058ZM42.8466 15.5747H44.5979V15.3834H43.0395V14.7162H44.2956V14.5248H43.0395V13.8576H44.5979V13.6714H42.8466V15.5747Z" fill="white"/>
<path d="M44.624 15.5954H42.831V13.6455H44.624V13.8783H43.0655V14.5041H44.3217V14.7368H43.0655V15.3627H44.624V15.5954ZM42.8414 15.5851H44.6083V15.3782H43.0499V14.7265H44.306V14.5196H43.0499V13.8627H44.6083V13.661H42.8414V15.5851Z" fill="white"/>
<path d="M44.6344 15.611H42.8153V13.6353H44.6344V13.8939H43.0759V14.4938H44.3269V14.7576H43.0759V15.3576H44.6344V15.611ZM42.857 15.5697H44.5979V15.3938H43.0343V14.7111H44.2904V14.53H43.0343V13.8473H44.5927V13.6715H42.8518L42.857 15.5697Z" fill="white"/>
<path d="M46.9382 13.6558C46.9799 13.6558 47.0216 13.6609 47.0633 13.6816C47.105 13.6971 47.1415 13.723 47.1675 13.7489C47.1988 13.7799 47.2197 13.8161 47.2405 13.8523C47.2561 13.8937 47.2666 13.9351 47.2666 13.9764V15.5902H47.0477V14.8816H45.5413V15.5902H45.3172V13.9764C45.3172 13.9351 45.3276 13.8937 45.3433 13.8523C45.3589 13.8109 45.385 13.7799 45.4162 13.7489C45.4475 13.7178 45.484 13.6971 45.5205 13.6816C45.5622 13.6661 45.6039 13.6558 45.6456 13.6558H46.9382ZM47.0477 14.6643V13.9713C47.0477 13.9454 47.0372 13.9195 47.0164 13.8989C46.9955 13.8782 46.9695 13.8678 46.9434 13.8678H45.6456C45.6195 13.8678 45.5935 13.8782 45.5726 13.8989C45.5518 13.9195 45.5413 13.9454 45.5413 13.9713V14.6643H47.0477Z" fill="white"/>
<path d="M47.277 15.6056H47.0268V14.897H45.5465V15.6056H45.2964V13.9763C45.2964 13.9298 45.3068 13.8884 45.3224 13.847C45.3381 13.8056 45.3641 13.7694 45.3954 13.7384C45.4267 13.7074 45.4631 13.6815 45.5048 13.666C45.5465 13.6505 45.5882 13.6401 45.6351 13.6401H46.933C46.9799 13.6401 47.0216 13.6505 47.0633 13.666C47.105 13.6815 47.1415 13.7074 47.1727 13.7384C47.204 13.7694 47.2301 13.8056 47.2457 13.847C47.2613 13.8884 47.2718 13.9298 47.2718 13.9763L47.277 15.6056ZM47.0581 15.5745H47.2509V13.9763C47.2509 13.935 47.2457 13.8936 47.2301 13.8574C47.2144 13.8212 47.1936 13.785 47.1623 13.7591C47.131 13.7281 47.0998 13.7074 47.0633 13.6919C47.0268 13.6763 46.9851 13.6712 46.9434 13.6712H45.6456C45.6039 13.6712 45.5622 13.6763 45.5257 13.6919C45.4892 13.7074 45.4527 13.7281 45.4267 13.7591C45.3954 13.7901 45.3745 13.8212 45.3589 13.8574C45.3433 13.8936 45.3381 13.935 45.3381 13.9763V15.5745H45.5309V14.866H47.0685L47.0581 15.5745ZM47.0581 14.6798H45.5205V13.9763C45.5205 13.9453 45.5361 13.9143 45.557 13.8936C45.5778 13.8729 45.6091 13.8574 45.6404 13.8574H46.9382C46.9695 13.8574 47.0007 13.8729 47.0216 13.8936C47.0424 13.9143 47.0581 13.9453 47.0581 13.9763V14.6798ZM45.5465 14.6539H47.032V13.9815C47.032 13.9556 47.0216 13.935 47.006 13.9194C46.9903 13.9039 46.9643 13.8936 46.9434 13.8936H45.6456C45.6195 13.8936 45.5987 13.9039 45.583 13.9194C45.5674 13.935 45.557 13.9608 45.557 13.9815L45.5465 14.6539Z" fill="white"/>
<path d="M47.2718 15.5954H47.0372V14.8868H45.5413V15.5954H45.3068V13.9765C45.3068 13.9352 45.312 13.8886 45.3328 13.8524C45.3485 13.811 45.3745 13.7748 45.4058 13.7438C45.4371 13.7127 45.4736 13.6869 45.5153 13.6714C45.557 13.6559 45.5987 13.6455 45.6404 13.6455H46.9382C46.9799 13.6455 47.0268 13.6507 47.0685 13.6714C47.1102 13.6869 47.1467 13.7127 47.178 13.7438C47.2092 13.7748 47.2353 13.811 47.2509 13.8524C47.2666 13.8938 47.277 13.9352 47.277 13.9817V15.5954H47.2718ZM47.0529 15.5851H47.2561V13.9817C47.2561 13.9403 47.2509 13.8989 47.2301 13.8627C47.2144 13.8265 47.1884 13.7903 47.1623 13.7593C47.1311 13.7283 47.0998 13.7076 47.0581 13.6921C47.0164 13.6765 46.9799 13.6662 46.9382 13.6714H45.6404C45.5987 13.6714 45.557 13.6765 45.5205 13.6921C45.484 13.7076 45.4475 13.7334 45.4162 13.7593C45.385 13.7903 45.3641 13.8214 45.3485 13.8627C45.3328 13.8989 45.3224 13.9403 45.3224 13.9817V15.5851H45.5257V14.8765H47.0529V15.5851ZM47.0529 14.6748H45.5257V13.9817C45.5257 13.9507 45.5361 13.9248 45.557 13.9041C45.5778 13.8834 45.6091 13.8731 45.6351 13.8731H46.933C46.9643 13.8731 46.9903 13.8834 47.0112 13.9041C47.032 13.9248 47.0424 13.9558 47.0424 13.9817V14.6748H47.0529ZM45.5413 14.6593H47.0372V13.9765C47.0372 13.9507 47.0268 13.9248 47.006 13.9093C46.9851 13.8886 46.9643 13.8783 46.9382 13.8783H45.6404C45.6143 13.8783 45.5882 13.8886 45.5726 13.9093C45.5518 13.93 45.5413 13.9507 45.5413 13.9765V14.6593Z" fill="white"/>
<path d="M47.2874 15.6108H47.0268V14.9022H45.557V15.6108H45.2964V13.9764C45.2964 13.9299 45.3068 13.8885 45.3224 13.8419C45.3381 13.8006 45.3641 13.7644 45.3954 13.7282C45.4267 13.6971 45.4684 13.6713 45.5101 13.6557C45.5518 13.6402 45.5987 13.6299 45.6456 13.6299H46.9434C46.9903 13.6299 47.032 13.6351 47.0789 13.6557C47.1206 13.6713 47.1623 13.6971 47.1936 13.7282C47.2249 13.7592 47.2509 13.8006 47.2666 13.8419C47.2822 13.8833 47.2926 13.9299 47.2926 13.9764L47.2874 15.6108ZM47.0685 15.5695H47.2457V13.9764C47.2457 13.935 47.2405 13.8988 47.2249 13.8626C47.2092 13.8264 47.1884 13.7902 47.1571 13.7644C47.131 13.7385 47.0946 13.7126 47.0581 13.6971C47.0216 13.6816 46.9799 13.6764 46.9434 13.6764H45.6456C45.6039 13.6764 45.5674 13.6816 45.5309 13.6971C45.4944 13.7126 45.4579 13.7333 45.4319 13.7644C45.4058 13.7902 45.3798 13.8264 45.3641 13.8626C45.3485 13.8988 45.3433 13.9402 45.3433 13.9764V15.5695H45.5205V14.8609H47.0737V15.5695H47.0685ZM47.0685 14.685H45.5153V13.9764C45.5153 13.9454 45.5309 13.9144 45.5518 13.8885C45.5778 13.8626 45.6091 13.8523 45.6404 13.8523H46.9382C46.9695 13.8523 47.0059 13.8678 47.0268 13.8885C47.0529 13.9144 47.0633 13.9454 47.0633 13.9764V14.685H47.0685ZM45.557 14.6436H47.0268V13.9764C47.0268 13.9557 47.0164 13.935 47.0007 13.9195C46.9851 13.904 46.9642 13.8937 46.9434 13.8937H45.6456C45.6247 13.8937 45.6039 13.904 45.5882 13.9195C45.5726 13.935 45.5622 13.9557 45.5622 13.9764V14.6436H45.557Z" fill="white"/>
<path d="M49.6121 13.6558C49.6538 13.6558 49.6954 13.6609 49.7371 13.6816C49.7788 13.6971 49.8153 13.723 49.8414 13.7489C49.8727 13.7799 49.8935 13.8161 49.9144 13.8523C49.93 13.8937 49.9404 13.9351 49.9404 13.9764V15.2643C49.9404 15.3057 49.9352 15.3471 49.9144 15.3885C49.8987 15.4298 49.8727 15.466 49.8414 15.4919C49.8101 15.5229 49.7736 15.5436 49.7371 15.5643C49.6954 15.5798 49.6538 15.5902 49.6121 15.5902H47.9859V13.6558H49.6121ZM49.7163 13.9764C49.7163 13.9506 49.7059 13.9247 49.685 13.904C49.6642 13.8833 49.6381 13.873 49.6121 13.873H48.3142C48.2882 13.873 48.2621 13.8833 48.2412 13.904C48.2204 13.9247 48.21 13.9506 48.21 13.9764V15.2643C48.21 15.2902 48.2204 15.316 48.2412 15.3367C48.2621 15.3574 48.2882 15.3678 48.3142 15.3678H49.6121C49.6381 15.3678 49.6642 15.3574 49.685 15.3367C49.7059 15.316 49.7163 15.2902 49.7163 15.2643V13.9764Z" fill="white"/>
<path d="M49.6121 15.6058H47.9702V13.6455H49.6121C49.659 13.6455 49.7007 13.6559 49.7424 13.6714C49.7841 13.6869 49.8206 13.7127 49.8518 13.7438C49.8831 13.7748 49.9092 13.811 49.9248 13.8524C49.9404 13.8938 49.9509 13.9352 49.9509 13.9817V15.2696C49.9509 15.3161 49.9404 15.3575 49.9248 15.3989C49.9092 15.4403 49.8831 15.4765 49.8518 15.5075C49.8206 15.5385 49.7841 15.5644 49.7424 15.5799C49.7007 15.5954 49.6538 15.6058 49.6121 15.6058ZM48.0015 15.5747H49.6121C49.6538 15.5747 49.6955 15.5696 49.7319 15.5541C49.7684 15.5385 49.8049 15.5179 49.831 15.4868C49.8622 15.4558 49.8831 15.4248 49.8987 15.3885C49.9144 15.3523 49.9196 15.311 49.9196 15.2696V13.9817C49.9196 13.9403 49.9144 13.8989 49.8987 13.8627C49.8831 13.8265 49.8622 13.7903 49.831 13.7645C49.7997 13.7334 49.7684 13.7127 49.7319 13.6972C49.6955 13.6817 49.6538 13.6765 49.6121 13.6765H48.0015V15.5747ZM49.6121 15.3885H48.3142C48.283 15.3885 48.2517 15.373 48.2308 15.3523C48.21 15.3317 48.1944 15.3006 48.1944 15.2696V13.9817C48.1944 13.9507 48.21 13.9196 48.2308 13.8989C48.2517 13.8783 48.283 13.8627 48.3142 13.8627H49.6121C49.6433 13.8627 49.6746 13.8783 49.6955 13.8989C49.7163 13.9196 49.7319 13.9507 49.7319 13.9817V15.2696C49.7319 15.3006 49.7163 15.3317 49.6955 15.3523C49.6746 15.373 49.6433 15.3834 49.6121 15.3885ZM48.3142 13.8886C48.2882 13.8886 48.2673 13.8989 48.2517 13.9145C48.236 13.93 48.2256 13.9558 48.2256 13.9765V15.2644C48.2256 15.2903 48.236 15.311 48.2517 15.3265C48.2673 15.342 48.2934 15.3523 48.3142 15.3523H49.6121C49.6381 15.3523 49.659 15.342 49.6746 15.3265C49.6902 15.311 49.7007 15.2851 49.7007 15.2644V13.9765C49.7007 13.9507 49.6902 13.93 49.6746 13.9145C49.659 13.8989 49.6329 13.8886 49.6121 13.8886H48.3142Z" fill="white"/>
<path d="M49.6121 15.5954H47.9806V13.6455H49.6121C49.6538 13.6455 49.7007 13.6507 49.7372 13.6714C49.7788 13.6869 49.8153 13.7127 49.8466 13.7438C49.8779 13.7748 49.9039 13.811 49.9196 13.8524C49.9352 13.8938 49.9456 13.9352 49.9456 13.9765V15.2644C49.9456 15.3058 49.9352 15.3523 49.9196 15.3885C49.9039 15.4299 49.8779 15.4661 49.8466 15.4972C49.8153 15.5282 49.7788 15.5541 49.7372 15.5696C49.7007 15.5903 49.6538 15.5954 49.6121 15.5954ZM47.9911 15.5851H49.6068C49.6485 15.5851 49.6902 15.5799 49.7267 15.5644C49.7632 15.5489 49.7997 15.523 49.831 15.4972C49.8622 15.4661 49.8831 15.4351 49.8987 15.3937C49.9144 15.3575 49.9248 15.3161 49.9196 15.2748V13.9869C49.9196 13.9455 49.9144 13.9041 49.8935 13.8679C49.8779 13.8317 49.8518 13.7955 49.8258 13.7645C49.7945 13.7334 49.7632 13.7127 49.7215 13.6972C49.685 13.6817 49.6433 13.6714 49.6016 13.6765H47.9859V15.5851H47.9911ZM49.6121 15.3782H48.3142C48.2829 15.3782 48.2569 15.3679 48.236 15.3472C48.2152 15.3265 48.2048 15.2954 48.2048 15.2696V13.9817C48.2048 13.9507 48.2152 13.9248 48.236 13.9041C48.2569 13.8834 48.2882 13.8731 48.3142 13.8731H49.6121C49.6433 13.8731 49.6694 13.8834 49.6902 13.9041C49.7111 13.9248 49.7215 13.9558 49.7215 13.9817V15.2696C49.7215 15.3006 49.7111 15.3265 49.6902 15.3472C49.6694 15.3679 49.6433 15.3782 49.6121 15.3782ZM48.3142 13.8783C48.2882 13.8783 48.2621 13.8886 48.2465 13.9093C48.2256 13.93 48.2152 13.9507 48.2152 13.9765V15.2644C48.2152 15.2903 48.2256 15.3161 48.2465 15.3317C48.2673 15.3523 48.2882 15.3627 48.3142 15.3627H49.6121C49.6381 15.3627 49.6642 15.3523 49.6798 15.3317C49.7007 15.311 49.7111 15.2903 49.7111 15.2644V13.9714C49.7111 13.9455 49.7007 13.9196 49.6798 13.9041C49.659 13.8834 49.6381 13.8731 49.6121 13.8731L48.3142 13.8783Z" fill="white"/>
<path d="M49.6121 15.611H47.965V13.6353H49.6121C49.659 13.6353 49.7007 13.6404 49.7476 13.6611C49.7893 13.6766 49.831 13.7025 49.8622 13.7335C49.8935 13.7646 49.9196 13.8059 49.9352 13.8473C49.9508 13.8887 49.9613 13.9352 49.9613 13.9818V15.2697C49.9613 15.3162 49.9508 15.3576 49.9352 15.4042C49.9196 15.4455 49.8935 15.4817 49.8622 15.5179C49.831 15.549 49.7893 15.5748 49.7476 15.5904C49.7007 15.6007 49.659 15.611 49.6121 15.611ZM48.0067 15.5697H49.6121C49.6538 15.5697 49.6902 15.5645 49.7267 15.549C49.7632 15.5335 49.7997 15.5128 49.8258 15.4817C49.8518 15.4559 49.8779 15.4197 49.8935 15.3835C49.9092 15.3473 49.9144 15.3059 49.9144 15.2697V13.9818C49.9144 13.9404 49.9092 13.9042 49.8935 13.868C49.8779 13.8318 49.857 13.7956 49.8258 13.7697C49.7945 13.7439 49.7632 13.718 49.7267 13.7025C49.6902 13.687 49.6485 13.6818 49.6121 13.6818H48.0067V15.5697ZM49.6121 15.3938H48.3142C48.2829 15.3938 48.2465 15.3783 48.2256 15.3576C48.1995 15.3317 48.1891 15.3007 48.1891 15.2697V13.9818C48.1891 13.9508 48.2048 13.9146 48.2256 13.8939C48.2517 13.868 48.2829 13.8577 48.3142 13.8577H49.6121C49.6433 13.8577 49.6798 13.8732 49.7007 13.8939C49.7267 13.9197 49.7371 13.9508 49.7371 13.9818V15.2697C49.7371 15.3007 49.7215 15.3369 49.7007 15.3576C49.6746 15.3783 49.6433 15.3938 49.6121 15.3938ZM48.3142 13.8939C48.2934 13.8939 48.2725 13.9042 48.2569 13.9197C48.2412 13.9352 48.2308 13.9559 48.2308 13.9766V15.2645C48.2308 15.2852 48.2412 15.3059 48.2569 15.3214C48.2725 15.3369 48.2934 15.3473 48.3142 15.3473H49.6121C49.6329 15.3473 49.6538 15.3369 49.6694 15.3214C49.685 15.3059 49.6955 15.2852 49.6955 15.2645V13.9766C49.6955 13.9559 49.685 13.9352 49.6694 13.9197C49.6538 13.9042 49.6329 13.8939 49.6121 13.8939H48.3142Z" fill="white"/>
<path d="M52.4319 13.873H50.8734V14.5143H52.1296V14.7368H50.8734V15.3781H52.4319V15.5953H50.6545V13.6558H52.4319V13.873Z" fill="white"/>
<path d="M52.4423 15.6058H50.6337V13.6455H52.4423V13.8938H50.8838V14.5041H52.14V14.7524H50.8838V15.3627H52.4423V15.6058ZM50.6649 15.5747H52.4162V15.3834H50.8578V14.7162H52.1139V14.5248H50.8578V13.8576H52.4162V13.6714H50.6649V15.5747Z" fill="white"/>
<path d="M52.4371 15.5954H50.6441V13.6455H52.4371V13.8783H50.8786V14.5041H52.1348V14.7368H50.8786V15.3627H52.4371V15.5954ZM50.6597 15.5851H52.4267V15.3782H50.8682V14.7265H52.1243V14.5196H50.8682V13.8627H52.4267V13.661H50.6597V15.5851Z" fill="white"/>
<path d="M52.4527 15.611H50.6337V13.6353H52.4527V13.8939H50.8943V14.4938H52.1504V14.7576H50.8943V15.3576H52.4527V15.611ZM50.6701 15.5697H52.411V15.3938H50.8526V14.7111H52.1087V14.53H50.8526V13.8473H52.411V13.6715H50.6701V15.5697Z" fill="white"/>
<path d="M55.0745 14.5454C55.0745 14.5868 55.064 14.6281 55.0484 14.6695C55.0328 14.7109 55.0067 14.7419 54.9754 14.773C54.9442 14.804 54.9077 14.8247 54.8712 14.8454C54.8295 14.8609 54.7878 14.8712 54.7461 14.8712H54.449L55.0588 15.5902H54.7669L54.1571 14.8712H53.4482C53.4118 14.8712 53.3753 14.8661 53.344 14.8609V15.5902H53.1251V13.6558H54.7513C54.793 13.6558 54.8347 13.6661 54.8764 13.6816C54.9181 13.6971 54.9494 13.723 54.9806 13.754C55.0119 13.7851 55.0328 13.8213 55.0484 13.8575C55.064 13.8989 55.0745 13.9402 55.0745 13.9816V14.5454ZM54.7513 14.6488C54.7774 14.6488 54.8034 14.6385 54.8243 14.6178C54.8451 14.5971 54.8555 14.5712 54.8555 14.5454V13.9764C54.8555 13.9506 54.8451 13.9247 54.8243 13.904C54.8034 13.8833 54.7774 13.873 54.7513 13.873H53.4482C53.4222 13.873 53.3961 13.8833 53.3753 13.904C53.3544 13.9247 53.344 13.9506 53.344 13.9764V14.5454C53.344 14.5712 53.3544 14.5971 53.3753 14.6178C53.3961 14.6385 53.4222 14.6488 53.4482 14.6488H54.7513Z" fill="white"/>
<path d="M55.0953 15.6058H54.7722L54.1623 14.8868H53.4483C53.417 14.8868 53.3857 14.8817 53.3544 14.8765V15.6058H53.1042V13.6455H54.7461C54.8347 13.6455 54.9233 13.6817 54.9859 13.7438C55.0484 13.8058 55.0849 13.8938 55.0849 13.9817V14.5506C55.0849 14.6386 55.0484 14.7265 54.9859 14.7886C54.9233 14.8506 54.8347 14.8868 54.7461 14.8868H54.4751L55.0953 15.6058ZM54.7826 15.5747H55.038L54.4229 14.8558H54.7513C54.8347 14.8558 54.9129 14.8248 54.9702 14.7627C55.0276 14.7058 55.064 14.6282 55.064 14.5455V13.9765C55.064 13.8938 55.0328 13.8162 54.9702 13.7593C54.9077 13.7024 54.8347 13.6714 54.7513 13.6714H53.1355V15.5747H53.3284V14.8403L53.3544 14.8455C53.3857 14.8506 53.417 14.8506 53.443 14.8558H54.1623L54.7826 15.5747ZM54.7513 14.6644H53.4483C53.417 14.6644 53.3857 14.6541 53.3649 14.6282C53.344 14.6075 53.3284 14.5765 53.3284 14.5455V13.9765C53.3284 13.9455 53.3388 13.9145 53.3649 13.8938C53.3857 13.8731 53.417 13.8576 53.4483 13.8576H54.7461C54.7774 13.8576 54.8086 13.8731 54.8295 13.8938C54.8503 13.9145 54.866 13.9455 54.866 13.9765V14.5455C54.866 14.5765 54.8555 14.6075 54.8295 14.6282C54.8086 14.6489 54.7826 14.6644 54.7513 14.6644ZM53.4483 13.8886C53.4222 13.8886 53.4013 13.8989 53.3857 13.9145C53.3701 13.93 53.3596 13.9558 53.3596 13.9765V14.5455C53.3596 14.5713 53.3701 14.592 53.3857 14.6075C53.4013 14.6231 53.4274 14.6334 53.4483 14.6334H54.7461C54.7669 14.6334 54.793 14.6231 54.8086 14.6075C54.8243 14.592 54.8347 14.5662 54.8347 14.5455V13.9765C54.8347 13.9507 54.8243 13.93 54.8086 13.9145C54.793 13.8989 54.7669 13.8886 54.7461 13.8886H53.4483Z" fill="white"/>
<path d="M55.0797 15.5956H54.7722L54.1623 14.8767H53.4483C53.417 14.8767 53.3857 14.8715 53.3544 14.8664H53.3492V15.5956H53.1147V13.6509H54.7461C54.8347 13.6509 54.9181 13.6871 54.9806 13.7492C55.0432 13.8112 55.0797 13.894 55.0797 13.9819V14.5508C55.0797 14.6388 55.0432 14.7215 54.9806 14.7836C54.9181 14.8457 54.8347 14.8819 54.7461 14.8819H54.4646L55.0797 15.5956ZM54.7774 15.5853H55.0484L54.4386 14.8612H54.7513C54.8347 14.8612 54.9181 14.8301 54.9754 14.7681C55.0328 14.706 55.0692 14.6284 55.0692 14.5457V13.9767C55.0692 13.894 55.038 13.8112 54.9754 13.7543C54.9181 13.6974 54.8347 13.6612 54.7513 13.6612H53.1355V15.5853H53.3388V14.856H53.3596C53.3909 14.8612 53.4222 14.8612 53.4535 14.8664H54.1728L54.7774 15.5853ZM54.7513 14.6543H53.4483C53.417 14.6543 53.3909 14.6439 53.3701 14.6233C53.3492 14.6026 53.3388 14.5767 53.3388 14.5457V13.9767C53.3388 13.9457 53.3492 13.9198 53.3701 13.8991C53.3909 13.8785 53.417 13.8681 53.4483 13.8681H54.7461C54.7774 13.8681 54.8034 13.8785 54.8243 13.9043C54.8451 13.925 54.8555 13.9509 54.8555 13.9819V14.5508C54.8555 14.5664 54.8503 14.5819 54.8451 14.5922C54.8399 14.6077 54.8295 14.6181 54.8191 14.6284C54.8086 14.6388 54.7982 14.6491 54.7826 14.6543C54.7774 14.6543 54.7617 14.6543 54.7513 14.6543ZM53.4483 13.8836C53.4222 13.8836 53.3961 13.894 53.3805 13.9147C53.3596 13.9354 53.3492 13.956 53.3492 13.9819V14.5508C53.3492 14.5767 53.3596 14.6026 53.3805 14.6181C53.4013 14.6336 53.4222 14.6439 53.4483 14.6439H54.7461C54.7722 14.6439 54.793 14.6336 54.8138 14.6181C54.8295 14.6026 54.8399 14.5767 54.8399 14.5508V13.9819C54.8399 13.956 54.8295 13.9302 54.8138 13.9147C54.7982 13.894 54.7722 13.8836 54.7461 13.8836H53.4483Z" fill="white"/>
<path d="M55.111 15.6108H54.7669L54.1571 14.8918H53.4483C53.4222 14.8918 53.3909 14.8866 53.3649 14.8866V15.6159H53.1042V13.6401H54.7513C54.8451 13.6401 54.9337 13.6763 54.9963 13.7436C55.0588 13.8108 55.1005 13.8987 55.1005 13.9867V14.5556C55.1005 14.6487 55.064 14.7315 54.9963 14.7987C54.9337 14.8608 54.8451 14.897 54.7513 14.897H54.4959L55.111 15.6108ZM54.7826 15.5694H55.0171L54.4073 14.8504H54.7513C54.8295 14.8504 54.9077 14.8194 54.965 14.7625C55.0223 14.7056 55.0536 14.628 55.0536 14.5504V13.9815C55.0536 13.9039 55.0223 13.8263 54.965 13.7694C54.9077 13.7125 54.8295 13.6815 54.7513 13.6815H53.1459V15.5745H53.3232V14.8401L53.3596 14.8453C53.3909 14.8504 53.417 14.8504 53.4483 14.8556H54.1728L54.178 14.8608L54.7826 15.5694ZM54.7513 14.6694H53.4483C53.417 14.6694 53.3857 14.6539 53.3596 14.6332C53.3336 14.6125 53.3232 14.5815 53.3232 14.5453V13.9763C53.3232 13.9453 53.3388 13.9143 53.3596 13.8884C53.3857 13.8625 53.417 13.8522 53.4483 13.8522H54.7461C54.7774 13.8522 54.8086 13.8677 54.8347 13.8884C54.8555 13.9143 54.8712 13.9453 54.8712 13.9763V14.5453C54.8712 14.5763 54.8608 14.6073 54.8347 14.6332C54.8139 14.6591 54.7826 14.6694 54.7513 14.6694ZM53.4483 13.8936C53.4274 13.8936 53.4066 13.9039 53.3909 13.9194C53.3753 13.935 53.3649 13.9556 53.3649 13.9763V14.5453C53.3649 14.566 53.3753 14.5867 53.3909 14.6022C53.4066 14.6177 53.4274 14.628 53.4483 14.628H54.7461C54.7669 14.628 54.7878 14.6177 54.8034 14.6022C54.8191 14.5867 54.8295 14.566 54.8295 14.5453V13.9763C54.8295 13.9556 54.8191 13.935 54.8086 13.9194C54.793 13.9039 54.7722 13.8936 54.7513 13.8936H53.4483Z" fill="white"/>
<path d="M57.618 14.5764C57.6493 14.6075 57.6806 14.6437 57.6962 14.685C57.7171 14.7264 57.7275 14.773 57.7275 14.8143V15.2643C57.7275 15.3057 57.717 15.3471 57.7014 15.3885C57.6858 15.4298 57.6597 15.4609 57.6337 15.4919C57.6024 15.5229 57.5659 15.5436 57.5294 15.5643C57.4929 15.585 57.446 15.5902 57.4043 15.5902H55.7781V13.6558H57.3209C57.3626 13.6558 57.4043 13.6609 57.446 13.6816C57.4877 13.6971 57.519 13.723 57.5503 13.7489C57.5815 13.7799 57.6024 13.8161 57.618 13.8523C57.6337 13.8937 57.6441 13.9351 57.6441 13.9764V14.3902C57.6441 14.4419 57.6337 14.4885 57.6076 14.5299L57.618 14.5764ZM56.1013 13.873C56.0752 13.873 56.0491 13.8833 56.0283 13.904C56.0074 13.9247 55.997 13.9506 55.997 13.9764V14.3902C55.997 14.4161 56.0074 14.4419 56.0283 14.4626C56.0491 14.4833 56.0752 14.4937 56.1013 14.4937H57.3157C57.3418 14.4937 57.3678 14.4833 57.3887 14.4626C57.4095 14.4419 57.42 14.4161 57.42 14.3902V13.9764C57.42 13.9506 57.4095 13.9247 57.3887 13.904C57.3678 13.8833 57.3418 13.873 57.3157 13.873H56.1013ZM57.5086 14.8143C57.5086 14.7885 57.4981 14.7626 57.4773 14.7419C57.4564 14.7212 57.4304 14.7109 57.4043 14.7109H56.1065C56.0804 14.7109 56.0544 14.7212 56.0335 14.7419C56.0127 14.7626 56.0022 14.7885 56.0022 14.8143V15.2643C56.0022 15.2902 56.0127 15.316 56.0335 15.3367C56.0544 15.3574 56.0804 15.3678 56.1065 15.3678H57.4043C57.4304 15.3678 57.4564 15.3574 57.4773 15.3367C57.4981 15.316 57.5086 15.2902 57.5086 15.2643V14.8143Z" fill="white"/>
<path d="M57.3991 15.6058H55.7573V13.6455H57.3105C57.3522 13.6455 57.3991 13.6559 57.4408 13.6714C57.4825 13.6869 57.519 13.7127 57.5503 13.7438C57.5815 13.7748 57.6076 13.811 57.6232 13.8524C57.6389 13.8938 57.6493 13.9352 57.6493 13.9817V14.3955C57.6493 14.4472 57.6389 14.4938 57.6128 14.5403L57.6232 14.5765C57.6597 14.6075 57.6858 14.6489 57.7014 14.6903C57.7223 14.7317 57.7327 14.7782 57.7327 14.8248V15.2748C57.7327 15.3161 57.7223 15.3627 57.7066 15.4041C57.691 15.4454 57.6649 15.4816 57.6337 15.5127C57.6024 15.5437 57.5659 15.5696 57.5242 15.5851C57.4877 15.5954 57.446 15.6058 57.3991 15.6058ZM55.7885 15.5747H57.3991C57.4408 15.5747 57.4825 15.5696 57.519 15.5541C57.5555 15.5385 57.592 15.5179 57.6232 15.4868C57.6545 15.4558 57.6754 15.4248 57.691 15.3885C57.7066 15.3523 57.7171 15.311 57.7118 15.2696V14.8196C57.7118 14.7782 57.7014 14.7317 57.6858 14.6955C57.6701 14.6593 57.6441 14.6231 57.6076 14.592H57.6024L57.592 14.5351V14.53C57.6128 14.4886 57.6232 14.442 57.6284 14.3955V13.9817C57.6284 13.9403 57.6232 13.8989 57.6076 13.8627C57.592 13.8265 57.5711 13.7903 57.5398 13.7645C57.5086 13.7334 57.4773 13.7127 57.4408 13.6972C57.4043 13.6817 57.3626 13.6765 57.3209 13.6765H55.7937L55.7885 15.5747ZM57.3991 15.3885H56.0961C56.0648 15.3885 56.0335 15.373 56.0127 15.3523C55.9918 15.3317 55.9762 15.3006 55.9762 15.2696V14.8196C55.9762 14.7886 55.9866 14.7575 56.0127 14.7368C56.0335 14.7162 56.0648 14.7006 56.0961 14.7006H57.3991C57.4304 14.7006 57.4617 14.7162 57.4825 14.7368C57.5034 14.7575 57.519 14.7886 57.519 14.8196V15.2696C57.519 15.3006 57.5086 15.3317 57.4825 15.3523C57.4617 15.373 57.4304 15.3834 57.3991 15.3885ZM56.1013 14.7265C56.0752 14.7265 56.0544 14.7368 56.0387 14.7524C56.0231 14.7679 56.0127 14.7937 56.0127 14.8144V15.2644C56.0127 15.2903 56.0231 15.311 56.0387 15.3265C56.0544 15.342 56.0804 15.3523 56.1013 15.3523H57.4043C57.4304 15.3523 57.4512 15.342 57.4669 15.3265C57.4825 15.311 57.4929 15.2851 57.4929 15.2644V14.8144C57.4929 14.7886 57.4825 14.7679 57.4669 14.7524C57.4512 14.7368 57.4252 14.7265 57.4043 14.7265H56.1013ZM57.3157 14.5093H56.1013C56.07 14.5093 56.0387 14.4938 56.0179 14.4731C55.997 14.4524 55.9814 14.4213 55.9814 14.3903V13.9765C55.9814 13.9455 55.9918 13.9145 56.0179 13.8938C56.0387 13.8731 56.07 13.8576 56.1013 13.8576H57.3157C57.347 13.8576 57.3783 13.8731 57.3991 13.8938C57.42 13.9145 57.4356 13.9455 57.4356 13.9765V14.3903C57.4356 14.4213 57.4252 14.4524 57.3991 14.4731C57.3783 14.4938 57.347 14.5093 57.3157 14.5093ZM56.1013 13.8886C56.0752 13.8886 56.0544 13.8989 56.0387 13.9145C56.0231 13.93 56.0127 13.9558 56.0127 13.9765V14.3903C56.0127 14.4162 56.0231 14.4369 56.0387 14.4524C56.0544 14.4679 56.0804 14.4782 56.1013 14.4782H57.3157C57.3418 14.4782 57.3626 14.4679 57.3783 14.4524C57.3939 14.4369 57.4043 14.411 57.4043 14.3903V13.9765C57.4043 13.9507 57.3939 13.93 57.3783 13.9145C57.3626 13.8989 57.3366 13.8886 57.3157 13.8886H56.1013Z" fill="white"/>
<path d="M57.3991 15.5954H55.7677V13.6455H57.3157C57.3574 13.6455 57.4043 13.6559 57.4408 13.6714C57.4825 13.6869 57.519 13.7127 57.5503 13.7438C57.5815 13.7748 57.6076 13.811 57.6232 13.8524C57.6389 13.8938 57.6493 13.9352 57.6493 13.9765V14.3903C57.6493 14.442 57.6389 14.4886 57.6128 14.5351L57.6232 14.5765C57.6597 14.6075 57.6858 14.6437 57.7014 14.6851C57.7223 14.7265 57.7327 14.7731 57.7327 14.8196V15.2696C57.7327 15.311 57.7223 15.3575 57.7066 15.3937C57.691 15.4351 57.6649 15.4713 57.6337 15.5023C57.6024 15.5334 57.5659 15.5592 57.5242 15.5747C57.4877 15.5903 57.446 15.5954 57.3991 15.5954ZM55.7833 15.5851H57.4043C57.446 15.5851 57.4877 15.5799 57.5242 15.5644C57.5607 15.5489 57.5972 15.523 57.6284 15.4972C57.6597 15.4661 57.6806 15.4351 57.6962 15.3937C57.7118 15.3575 57.7223 15.3161 57.7171 15.2748V14.8248C57.7171 14.7782 57.7066 14.7368 57.6858 14.6955C57.6701 14.6541 57.6389 14.6179 57.6076 14.592L57.5972 14.5403C57.618 14.4989 57.6337 14.4472 57.6337 14.4007V13.9869C57.6337 13.9455 57.6284 13.9041 57.6076 13.8679C57.592 13.8317 57.5659 13.7955 57.5398 13.7645C57.5086 13.7334 57.4773 13.7127 57.4356 13.6972C57.3939 13.6817 57.3574 13.6714 57.3157 13.6765H55.7833V15.5851ZM57.3991 15.3782H56.0961C56.0648 15.3782 56.0387 15.3679 56.0179 15.3472C55.997 15.3265 55.9866 15.2954 55.9866 15.2696V14.8196C55.9866 14.7886 55.997 14.7627 56.0179 14.742C56.0387 14.7213 56.07 14.711 56.0961 14.711H57.3991C57.4304 14.711 57.4564 14.7213 57.4773 14.742C57.4981 14.7627 57.5086 14.7937 57.5086 14.8196V15.2696C57.5086 15.3006 57.4981 15.3265 57.4773 15.3472C57.4617 15.3679 57.4304 15.3782 57.3991 15.3782ZM56.1013 14.7162C56.0752 14.7162 56.0491 14.7265 56.0335 14.7472C56.0127 14.7679 56.0022 14.7886 56.0022 14.8144V15.2644C56.0022 15.2903 56.0127 15.3161 56.0335 15.3317C56.0491 15.3523 56.0752 15.3627 56.1013 15.3627H57.4043C57.4304 15.3627 57.4564 15.3523 57.4721 15.3317C57.4877 15.311 57.5034 15.2903 57.5034 15.2644V14.8144C57.5034 14.7886 57.4929 14.7627 57.4721 14.7472C57.4512 14.7265 57.4304 14.7162 57.4043 14.7162H56.1013ZM57.3157 14.4989H56.1013C56.07 14.4989 56.0439 14.4886 56.0231 14.4679C56.0022 14.4472 55.9918 14.4213 55.9918 14.3903V13.9765C55.9918 13.9455 56.0022 13.9196 56.0231 13.8989C56.0439 13.8783 56.0752 13.8679 56.1013 13.8679H57.3157C57.347 13.8679 57.373 13.8783 57.3939 13.9041C57.4147 13.9248 57.4252 13.9507 57.4252 13.9817V14.3955C57.4252 14.4265 57.4147 14.4524 57.3939 14.4731C57.373 14.4886 57.347 14.4989 57.3157 14.4989ZM56.1013 13.8783C56.0752 13.8783 56.0491 13.8886 56.0335 13.9093C56.0127 13.93 56.0022 13.9507 56.0022 13.9765V14.3903C56.0022 14.4162 56.0127 14.442 56.0335 14.4575C56.0491 14.4782 56.0752 14.4886 56.1013 14.4886H57.3157C57.3418 14.4886 57.3678 14.4782 57.3835 14.4575C57.3991 14.4369 57.4095 14.4162 57.4095 14.3903V13.9765C57.4095 13.9507 57.3991 13.9248 57.3835 13.9093C57.3678 13.8886 57.3418 13.8783 57.3157 13.8783H56.1013Z" fill="white"/>
<path d="M57.3991 15.611H55.752V13.6353H57.3157C57.3626 13.6353 57.4043 13.6404 57.4512 13.6611C57.4929 13.6766 57.5346 13.7025 57.5659 13.7335C57.5972 13.7646 57.6232 13.8059 57.6389 13.8473C57.6545 13.8887 57.6649 13.9352 57.6649 13.9818V14.3956C57.6649 14.4473 57.6545 14.4938 57.6284 14.5404L57.6389 14.5714C57.6754 14.6025 57.7014 14.6438 57.7171 14.6852C57.7379 14.7266 57.7483 14.7731 57.7483 14.8197V15.2697C57.7483 15.3162 57.7379 15.3576 57.7223 15.4042C57.7066 15.4455 57.6806 15.4817 57.6493 15.5179C57.618 15.549 57.5763 15.5748 57.5346 15.5904C57.4929 15.6007 57.446 15.611 57.3991 15.611ZM55.799 15.5697H57.4043C57.446 15.5697 57.4825 15.5645 57.519 15.549C57.5555 15.5335 57.592 15.5128 57.618 15.4817C57.6493 15.4559 57.6701 15.4197 57.6858 15.3835C57.7014 15.3473 57.7066 15.3059 57.7066 15.2697V14.8197C57.7066 14.7783 57.6962 14.7369 57.6806 14.6956C57.6649 14.6594 57.6389 14.6231 57.6076 14.5921L57.6024 14.5869L57.5972 14.5818L57.5815 14.5249V14.5197C57.6024 14.4783 57.618 14.4318 57.618 14.3852V13.9714C57.618 13.9301 57.6128 13.8939 57.5972 13.8577C57.5815 13.8215 57.5607 13.7852 57.5294 13.7594C57.5034 13.7335 57.4669 13.7077 57.4304 13.6922C57.3939 13.6766 57.3522 13.6715 57.3157 13.6715H55.7937L55.799 15.5697ZM57.3991 15.3938H56.0961C56.0648 15.3938 56.0335 15.3783 56.0074 15.3576C55.9814 15.3317 55.971 15.3007 55.971 15.2697V14.8197C55.971 14.7887 55.9866 14.7525 56.0074 14.7318C56.0283 14.7059 56.0648 14.6956 56.0961 14.6956H57.3991C57.4304 14.6956 57.4617 14.7111 57.4877 14.7318C57.5086 14.7576 57.5242 14.7887 57.5242 14.8197V15.2697C57.5242 15.3007 57.5086 15.3317 57.4877 15.3576C57.4669 15.3783 57.4356 15.3938 57.3991 15.3938ZM56.1013 14.7318C56.0804 14.7318 56.0596 14.7421 56.0439 14.7576C56.0283 14.7731 56.0179 14.7938 56.0179 14.8145V15.2645C56.0179 15.2852 56.0283 15.3059 56.0439 15.3214C56.0596 15.3369 56.0804 15.3473 56.1013 15.3473H57.4043C57.4252 15.3473 57.446 15.3369 57.4617 15.3214C57.4773 15.3059 57.4877 15.2852 57.4877 15.2645V14.8145C57.4877 14.7938 57.4773 14.7731 57.4617 14.7576C57.446 14.7421 57.4252 14.7318 57.4043 14.7318H56.1013ZM57.3157 14.5145H56.1013C56.07 14.5145 56.0387 14.499 56.0127 14.4783C55.9866 14.4525 55.9762 14.4214 55.9762 14.3904V13.9766C55.9762 13.9456 55.9918 13.9094 56.0127 13.8887C56.0335 13.8628 56.07 13.8525 56.1013 13.8525H57.3157C57.347 13.8525 57.3783 13.868 57.4043 13.8887C57.4252 13.9146 57.4408 13.9456 57.4408 13.9766V14.3904C57.4408 14.4214 57.4304 14.4525 57.4043 14.4783C57.3835 14.499 57.3522 14.5145 57.3157 14.5145ZM56.1013 13.8939C56.0804 13.8939 56.0596 13.9042 56.0439 13.9197C56.0283 13.9352 56.0179 13.9559 56.0179 13.9766V14.3904C56.0179 14.4111 56.0283 14.4318 56.0439 14.4473C56.0596 14.4628 56.0804 14.4732 56.1013 14.4732H57.3157C57.3366 14.4732 57.3574 14.4628 57.373 14.4473C57.3887 14.4318 57.3991 14.4111 57.3991 14.3904V13.9766C57.3991 13.9559 57.3887 13.9352 57.373 13.9197C57.3574 13.9042 57.3366 13.8939 57.3157 13.8939H56.1013Z" fill="white"/>
<path d="M60.0469 13.6558C60.0886 13.6558 60.1303 13.6609 60.172 13.6816C60.2137 13.6971 60.2502 13.723 60.2762 13.7489C60.3075 13.7799 60.3284 13.8161 60.3492 13.8523C60.3649 13.8937 60.3753 13.9351 60.3753 13.9764V15.2643C60.3753 15.3057 60.3649 15.3471 60.3492 15.3885C60.3336 15.4298 60.3075 15.466 60.2815 15.4919C60.2502 15.5229 60.2137 15.5436 60.1772 15.5643C60.1355 15.5798 60.0938 15.5902 60.0521 15.5902H58.7543C58.7126 15.5902 58.6709 15.5798 58.6292 15.5643C58.5875 15.5488 58.5562 15.5229 58.5249 15.4919C58.4937 15.4609 58.4728 15.4247 58.4572 15.3885C58.4415 15.3471 58.4311 15.3057 58.4311 15.2643V13.9764C58.4311 13.9351 58.4415 13.8937 58.4572 13.8523C58.4728 13.8109 58.4989 13.7799 58.5249 13.7489C58.5562 13.7178 58.5927 13.6971 58.6292 13.6816C58.6709 13.6661 58.7126 13.6558 58.7543 13.6558H60.0469ZM60.0469 15.3729C60.073 15.3729 60.099 15.3626 60.1199 15.3419C60.1407 15.3212 60.1512 15.2954 60.1512 15.2695V13.9816C60.1512 13.9558 60.1407 13.9299 60.1199 13.9092C60.099 13.8885 60.073 13.8782 60.0469 13.8782H58.7491C58.723 13.8782 58.6969 13.8885 58.6761 13.9092C58.6553 13.9299 58.6448 13.9558 58.6448 13.9816V15.2695C58.6448 15.2954 58.6553 15.3212 58.6761 15.3419C58.6969 15.3626 58.723 15.3729 58.7491 15.3729H60.0469Z" fill="white"/>
<path d="M60.0469 15.6058H58.7491C58.7022 15.6058 58.6605 15.5954 58.6188 15.5799C58.5771 15.5644 58.5406 15.5385 58.5093 15.5075C58.478 15.4765 58.452 15.4403 58.4363 15.3989C58.4207 15.3575 58.4103 15.3161 58.4103 15.2696V13.9817C58.4103 13.9352 58.4207 13.8938 58.4363 13.8524C58.452 13.811 58.478 13.7748 58.5093 13.7438C58.5406 13.7127 58.5771 13.6869 58.6188 13.6714C58.6605 13.6559 58.7022 13.6455 58.7491 13.6455H60.0469C60.0938 13.6455 60.1355 13.6559 60.1772 13.6714C60.2189 13.6869 60.2554 13.7127 60.2867 13.7438C60.3179 13.7748 60.344 13.811 60.3596 13.8524C60.3753 13.8938 60.3857 13.9352 60.3857 13.9817V15.2696C60.3857 15.3161 60.3753 15.3575 60.3596 15.3989C60.344 15.4403 60.3179 15.4765 60.2867 15.5075C60.2554 15.5385 60.2189 15.5644 60.1772 15.5799C60.1355 15.5954 60.0938 15.6058 60.0469 15.6058ZM58.7491 13.6714C58.7074 13.6714 58.6657 13.6765 58.6292 13.6921C58.5927 13.7076 58.5562 13.7283 58.5302 13.7593C58.4989 13.7903 58.478 13.8214 58.4624 13.8576C58.4468 13.8938 58.4416 13.9352 58.4416 13.9765V15.2644C58.4416 15.3058 58.4468 15.3472 58.4624 15.3834C58.478 15.4196 58.4989 15.4558 58.5302 15.4816C58.5614 15.5127 58.5927 15.5334 58.6292 15.5489C58.6657 15.5644 58.7074 15.5696 58.7491 15.5696H60.0469C60.0886 15.5696 60.1303 15.5644 60.1668 15.5489C60.2033 15.5334 60.2398 15.5127 60.2658 15.4816C60.2971 15.4506 60.3179 15.4196 60.3336 15.3834C60.3492 15.3472 60.3596 15.3058 60.3544 15.2644V13.9765C60.3544 13.9352 60.3492 13.8938 60.3336 13.8576C60.3179 13.8214 60.2971 13.7852 60.2658 13.7593C60.2346 13.7283 60.2033 13.7076 60.1668 13.6921C60.1303 13.6765 60.0886 13.6714 60.0469 13.6714H58.7491ZM60.0469 15.3885H58.7491C58.7178 15.3885 58.6865 15.373 58.6657 15.3523C58.6448 15.3317 58.6292 15.3006 58.6292 15.2696V13.9817C58.6292 13.9507 58.6396 13.9196 58.6657 13.8989C58.6865 13.8783 58.7178 13.8627 58.7491 13.8627H60.0469C60.0782 13.8627 60.1095 13.8783 60.1303 13.8989C60.1512 13.9196 60.1668 13.9507 60.1668 13.9817V15.2696C60.1668 15.3006 60.1564 15.3317 60.1303 15.3523C60.1095 15.373 60.0782 15.3834 60.0469 15.3885ZM58.7491 13.8886C58.723 13.8886 58.7022 13.8989 58.6865 13.9145C58.6709 13.93 58.6605 13.9558 58.6605 13.9765V15.2644C58.6605 15.2903 58.6709 15.311 58.6865 15.3265C58.7022 15.342 58.7282 15.3523 58.7491 15.3523H60.0469C60.073 15.3523 60.0938 15.342 60.1095 15.3265C60.1251 15.311 60.1355 15.2851 60.1355 15.2644V13.9765C60.1355 13.9507 60.1251 13.93 60.1095 13.9145C60.0938 13.8989 60.0678 13.8886 60.0469 13.8886H58.7491Z" fill="white"/>
<path d="M60.0469 15.5954H58.7491C58.7074 15.5954 58.6605 15.5851 58.624 15.5696C58.5823 15.5541 58.5458 15.5282 58.5145 15.4972C58.4832 15.4661 58.4572 15.4299 58.4415 15.3885C58.4259 15.3472 58.4155 15.3058 58.4155 15.2644V13.9765C58.4155 13.9352 58.4259 13.8886 58.4415 13.8524C58.4572 13.811 58.4832 13.7748 58.5145 13.7438C58.5458 13.7127 58.5823 13.6869 58.624 13.6714C58.6657 13.6559 58.7074 13.6455 58.7491 13.6455H60.0469C60.0886 13.6455 60.1355 13.6507 60.1772 13.6714C60.2189 13.6921 60.2554 13.7127 60.2867 13.7438C60.3179 13.7748 60.344 13.811 60.3596 13.8524C60.3753 13.8938 60.3857 13.9352 60.3857 13.9765V15.2644C60.3857 15.3058 60.3753 15.3523 60.3596 15.3885C60.344 15.4299 60.3179 15.4661 60.2867 15.4972C60.2554 15.5282 60.2189 15.5541 60.1772 15.5696C60.1355 15.5903 60.0886 15.5954 60.0469 15.5954ZM58.7491 13.661C58.7074 13.661 58.6657 13.6662 58.6292 13.6817C58.5875 13.6972 58.5562 13.7231 58.5249 13.749C58.4937 13.78 58.4728 13.811 58.4572 13.8524C58.4415 13.8886 58.4363 13.93 58.4363 13.9714V15.2592C58.4363 15.3006 58.4468 15.342 58.4572 15.3782C58.4728 15.4144 58.4989 15.4506 58.5249 15.4816C58.5562 15.5127 58.5875 15.5334 58.6292 15.5489C58.6709 15.5644 58.7074 15.5747 58.7491 15.5696H60.0469C60.0886 15.5696 60.1303 15.5644 60.172 15.5489C60.2085 15.5334 60.245 15.5075 60.2762 15.4816C60.3075 15.4506 60.3284 15.4196 60.344 15.3782C60.3596 15.342 60.3701 15.3006 60.3701 15.2592V13.9714C60.3701 13.93 60.3596 13.8886 60.344 13.8524C60.3284 13.8162 60.3023 13.78 60.2762 13.749C60.245 13.7179 60.2137 13.6972 60.172 13.6817C60.1355 13.6662 60.0938 13.6559 60.0521 13.661H58.7491ZM60.0469 15.3782H58.7491C58.7178 15.3782 58.6917 15.3679 58.6709 15.3472C58.65 15.3265 58.6396 15.2954 58.6396 15.2696V13.9817C58.6396 13.9507 58.65 13.9248 58.6709 13.9041C58.6917 13.8834 58.723 13.8731 58.7491 13.8731H60.0469C60.0782 13.8731 60.1042 13.8834 60.1251 13.9041C60.1459 13.9248 60.1564 13.9558 60.1616 13.9817V15.2696C60.1616 15.3006 60.1511 15.3265 60.1251 15.3472C60.1042 15.3679 60.0782 15.3782 60.0469 15.3782ZM58.7491 13.8783C58.723 13.8783 58.6969 13.8886 58.6813 13.9093C58.6605 13.93 58.65 13.9507 58.65 13.9765V15.2644C58.65 15.2903 58.6605 15.3161 58.6813 15.3317C58.7022 15.3523 58.723 15.3627 58.7491 15.3627H60.0469C60.073 15.3627 60.099 15.3523 60.1199 15.3317C60.1407 15.311 60.1511 15.2903 60.1511 15.2644V13.9714C60.1511 13.9455 60.1407 13.9196 60.1199 13.9041C60.099 13.8834 60.0782 13.8731 60.0469 13.8731L58.7491 13.8783Z" fill="white"/>
<path d="M60.0469 15.6108H58.7491C58.7022 15.6108 58.6553 15.6057 58.6136 15.585C58.5719 15.5695 58.5302 15.5436 58.4989 15.5126C58.4676 15.4815 58.4416 15.4402 58.4259 15.3988C58.4103 15.3574 58.3999 15.3109 58.3999 15.2643V13.9764C58.3999 13.9299 58.4103 13.8885 58.4259 13.8419C58.4416 13.8006 58.4676 13.7644 58.4989 13.7282C58.5302 13.6971 58.5719 13.6713 58.6136 13.6557C58.6553 13.6402 58.7022 13.6299 58.7491 13.6299H60.0469C60.0938 13.6299 60.1407 13.6351 60.1824 13.6557C60.2241 13.6713 60.2658 13.6971 60.2971 13.7282C60.3284 13.7592 60.3544 13.8006 60.3701 13.8419C60.3857 13.8833 60.3961 13.9299 60.3961 13.9764V15.2643C60.3961 15.3109 60.3857 15.3522 60.3701 15.3988C60.3544 15.4453 60.3284 15.4764 60.2971 15.5126C60.2658 15.5436 60.2241 15.5695 60.1824 15.585C60.1407 15.6005 60.0938 15.6108 60.0469 15.6108ZM58.7491 13.6764C58.7074 13.6764 58.6709 13.6816 58.6344 13.6971C58.5979 13.7126 58.5614 13.7333 58.5354 13.7644C58.5093 13.7902 58.4833 13.8264 58.4676 13.8626C58.452 13.8988 58.4468 13.9402 58.4468 13.9764V15.2643C58.4468 15.3057 58.452 15.3419 58.4676 15.3781C58.4833 15.4143 58.5041 15.4505 58.5354 15.4764C58.5666 15.5022 58.5979 15.5281 58.6344 15.5436C58.6709 15.5591 58.7126 15.5643 58.7491 15.5643H60.0469C60.0886 15.5643 60.1251 15.5591 60.1616 15.5436C60.1981 15.5281 60.2345 15.5074 60.2606 15.4764C60.2867 15.4505 60.3127 15.4143 60.3284 15.3781C60.344 15.3419 60.3492 15.3005 60.3492 15.2643V13.9764C60.3492 13.935 60.344 13.8988 60.3284 13.8626C60.3127 13.8264 60.2919 13.7902 60.2606 13.7644C60.2345 13.7385 60.1981 13.7126 60.1616 13.6971C60.1251 13.6816 60.0834 13.6764 60.0469 13.6764H58.7491ZM60.0469 15.3936H58.7491C58.7178 15.3936 58.6865 15.3781 58.6605 15.3574C58.6344 15.3315 58.624 15.3005 58.624 15.2695V13.9816C58.624 13.9506 58.6396 13.9195 58.6605 13.8937C58.6813 13.8678 58.7178 13.8575 58.7491 13.8575H60.0469C60.0782 13.8575 60.1095 13.873 60.1355 13.8937C60.1564 13.9195 60.172 13.9506 60.172 13.9816V15.2695C60.172 15.3005 60.1564 15.3367 60.1355 15.3574C60.1147 15.3781 60.0782 15.3936 60.0469 15.3936ZM58.7491 13.8937C58.7282 13.8937 58.7074 13.904 58.6917 13.9195C58.6761 13.935 58.6657 13.9557 58.6657 13.9764V15.2643C58.6657 15.285 58.6761 15.3057 58.6917 15.3212C58.7074 15.3367 58.7282 15.3471 58.7491 15.3471H60.0469C60.0678 15.3471 60.0886 15.3367 60.1095 15.3212C60.1251 15.3057 60.1355 15.285 60.1355 15.2643V13.9764C60.1355 13.9557 60.1251 13.935 60.1095 13.9195C60.0938 13.904 60.073 13.8937 60.0521 13.8937H58.7491Z" fill="white"/>
<path d="M62.7051 13.6558C62.7468 13.6558 62.7885 13.6609 62.8302 13.6816C62.8719 13.6971 62.9084 13.723 62.9345 13.7489C62.9657 13.7799 62.9866 13.8161 63.0022 13.8523C63.0179 13.8937 63.0283 13.9351 63.0283 13.9764V15.5902H62.8094V14.8816H61.2978V15.5902H61.0789V13.9764C61.0789 13.9351 61.0841 13.8937 61.105 13.8523C61.1206 13.8109 61.1467 13.7799 61.1727 13.7489C61.204 13.7178 61.2405 13.6971 61.277 13.6816C61.3187 13.6661 61.3604 13.6558 61.4021 13.6558H62.7051ZM62.8146 14.6643V13.9713C62.8146 13.9454 62.8042 13.9195 62.7833 13.8989C62.7625 13.8782 62.7364 13.8678 62.7103 13.8678H61.4125C61.3864 13.8678 61.3604 13.8782 61.3395 13.8989C61.3187 13.9195 61.3083 13.9454 61.3083 13.9713V14.6643H62.8146Z" fill="white"/>
<path d="M63.0439 15.6056H62.7937V14.897H61.3083V15.6056H61.0581V13.9763C61.0581 13.9298 61.0685 13.8884 61.0841 13.847C61.0998 13.8056 61.1258 13.7694 61.1571 13.7384C61.1884 13.7074 61.2249 13.6815 61.2666 13.666C61.3083 13.6505 61.35 13.6401 61.3969 13.6401H62.6947C62.7416 13.6401 62.7833 13.6505 62.825 13.666C62.8667 13.6815 62.9032 13.7074 62.9345 13.7384C62.9657 13.7694 62.9918 13.8056 63.0074 13.847C63.0231 13.8884 63.0335 13.9298 63.0335 13.9763L63.0439 15.6056ZM62.825 15.5745H63.0179V13.9763C63.0179 13.935 63.0127 13.8936 62.997 13.8574C62.9814 13.8212 62.9605 13.785 62.9293 13.7591C62.9032 13.7281 62.8667 13.7074 62.8302 13.6919C62.7937 13.6763 62.752 13.6712 62.7103 13.6712H61.4125C61.3708 13.6712 61.3291 13.6763 61.2926 13.6919C61.2561 13.7074 61.2197 13.7281 61.1936 13.7591C61.1623 13.7901 61.1415 13.8212 61.1258 13.8574C61.1102 13.8936 61.105 13.935 61.105 13.9763V15.5745H61.2978V14.866H62.8407L62.825 15.5745ZM62.825 14.6798H61.2822V13.9763C61.2822 13.9453 61.2926 13.9143 61.3187 13.8936C61.3395 13.8729 61.3708 13.8574 61.4021 13.8574H62.6999C62.7312 13.8574 62.7625 13.8729 62.7833 13.8936C62.8042 13.9143 62.8198 13.9453 62.8198 13.9763L62.825 14.6798ZM61.3135 14.6539H62.799V13.9815C62.799 13.9556 62.7885 13.935 62.7729 13.9194C62.7573 13.9039 62.7312 13.8936 62.7103 13.8936H61.4125C61.3864 13.8936 61.3656 13.9039 61.35 13.9194C61.3343 13.935 61.3239 13.9608 61.3239 13.9815V14.6539H61.3135Z" fill="white"/>
<path d="M63.0387 15.5954H62.8042V14.8868H61.3083V15.5954H61.0737V13.9765C61.0737 13.9352 61.0841 13.8886 61.0998 13.8524C61.1154 13.811 61.1415 13.7748 61.1727 13.7438C61.204 13.7127 61.2405 13.6869 61.2822 13.6714C61.3239 13.6559 61.3656 13.6455 61.4073 13.6455H62.7051C62.7468 13.6455 62.7937 13.6507 62.8354 13.6714C62.8771 13.6921 62.9136 13.7127 62.9449 13.7438C62.9762 13.7748 63.0022 13.811 63.0179 13.8524C63.0335 13.8938 63.0439 13.9352 63.0439 13.9765V15.5954H63.0387ZM62.8198 15.5851H63.0231V13.9817C63.0231 13.9403 63.0127 13.8989 62.997 13.8627C62.9814 13.8265 62.9553 13.7903 62.9293 13.7593C62.898 13.7283 62.8667 13.7076 62.825 13.6921C62.7885 13.6765 62.7468 13.6662 62.7051 13.6714H61.4073C61.3656 13.6714 61.3239 13.6765 61.2874 13.6921C61.2457 13.7076 61.2144 13.7334 61.1832 13.7593C61.1519 13.7903 61.131 13.8214 61.1154 13.8627C61.0998 13.8989 61.0946 13.9403 61.0946 13.9817V15.5851H61.2978V14.8765H62.825L62.8198 15.5851ZM62.8198 14.6748H61.2926V13.9817C61.2926 13.9507 61.303 13.9248 61.3239 13.9041C61.3447 13.8834 61.376 13.8731 61.4021 13.8731H62.6999C62.7312 13.8731 62.7573 13.8834 62.7781 13.9041C62.799 13.9248 62.8094 13.9558 62.8146 13.9817V14.6748H62.8198ZM61.3083 14.6593H62.8042V13.9765C62.8042 13.9507 62.7937 13.9248 62.7729 13.9093C62.752 13.8886 62.7312 13.8783 62.7051 13.8783H61.4073C61.3812 13.8783 61.3552 13.8886 61.3395 13.9093C61.3187 13.93 61.3083 13.9507 61.3083 13.9765V14.6593Z" fill="white"/>
<path d="M63.0544 15.6108H62.7937V14.9022H61.3239V15.6108H61.0633V13.9764C61.0633 13.9299 61.0737 13.8885 61.0894 13.8419C61.105 13.8006 61.1311 13.7644 61.1623 13.7282C61.1936 13.6971 61.2353 13.6713 61.277 13.6557C61.3187 13.6402 61.3656 13.6299 61.4125 13.6299H62.7103C62.7573 13.6299 62.8042 13.6351 62.8459 13.6557C62.8876 13.6713 62.9293 13.6971 62.9605 13.7282C62.9918 13.7592 63.0179 13.8006 63.0335 13.8419C63.0491 13.8833 63.0596 13.9299 63.0596 13.9764L63.0544 15.6108ZM62.8354 15.5695H63.0127V13.9764C63.0127 13.935 63.0074 13.8988 62.9918 13.8626C62.9762 13.8264 62.9553 13.7902 62.9241 13.7644C62.8928 13.7385 62.8615 13.7126 62.825 13.6971C62.7885 13.6816 62.7468 13.6764 62.7103 13.6764H61.4125C61.3708 13.6764 61.3343 13.6816 61.2978 13.6971C61.2614 13.7126 61.2249 13.7333 61.1988 13.7644C61.1675 13.7902 61.1467 13.8264 61.1311 13.8626C61.1154 13.8988 61.1102 13.9402 61.1102 13.9764V15.5695H61.2874V14.8609H62.8407V15.5695H62.8354ZM62.8354 14.685H61.2822V13.9764C61.2822 13.9454 61.2978 13.9144 61.3187 13.8885C61.3448 13.8626 61.376 13.8523 61.4073 13.8523H62.7051C62.7364 13.8523 62.7677 13.8678 62.7937 13.8885C62.8146 13.9144 62.8302 13.9454 62.8302 13.9764V14.685H62.8354ZM61.3239 14.6436H62.7937V13.9764C62.7937 13.9557 62.7833 13.935 62.7677 13.9195C62.7521 13.904 62.7312 13.8937 62.7103 13.8937H61.4125C61.3917 13.8937 61.3708 13.904 61.3552 13.9195C61.3395 13.935 61.3291 13.9557 61.3291 13.9764V14.6436H61.3239Z" fill="white"/>
<path d="M65.6969 14.5454C65.6969 14.5868 65.6865 14.6281 65.6709 14.6695C65.6552 14.7109 65.6292 14.7419 65.5979 14.773C65.5666 14.804 65.5301 14.8247 65.4937 14.8454C65.452 14.8609 65.4103 14.8712 65.3686 14.8712H65.0715L65.6813 15.5902H65.3894L64.7796 14.8712H64.0655C64.029 14.8712 63.9925 14.8661 63.9613 14.8609V15.5902H63.7424V13.6558H65.3686C65.4103 13.6558 65.452 13.6661 65.4937 13.6816C65.5354 13.6971 65.5666 13.723 65.5979 13.754C65.6292 13.7851 65.65 13.8213 65.6709 13.8575C65.6865 13.8989 65.6969 13.9402 65.6969 13.9816V14.5454ZM65.3686 14.6488C65.3946 14.6488 65.4207 14.6385 65.4415 14.6178C65.4624 14.5971 65.4728 14.5712 65.4728 14.5454V13.9764C65.4728 13.9506 65.4624 13.9247 65.4415 13.904C65.4207 13.8833 65.3946 13.873 65.3686 13.873H64.0707C64.0447 13.873 64.0186 13.8833 63.9978 13.904C63.9769 13.9247 63.9665 13.9506 63.9665 13.9764V14.5454C63.9665 14.5712 63.9769 14.5971 63.9978 14.6178C64.0186 14.6385 64.0447 14.6488 64.0707 14.6488H65.3686Z" fill="white"/>
<path d="M65.7126 15.6058H65.3894L64.7796 14.8868H64.0707C64.0395 14.8868 64.0082 14.8817 63.9769 14.8765V15.6058H63.7267V13.6455H65.3686C65.4572 13.6455 65.5458 13.6817 65.6083 13.7438C65.6709 13.8058 65.7074 13.8938 65.7074 13.9817V14.5506C65.7074 14.6386 65.6709 14.7265 65.6083 14.7886C65.5458 14.8506 65.4572 14.8868 65.3686 14.8868H65.0975L65.7126 15.6058ZM65.3999 15.5747H65.6552L65.0454 14.8558H65.3738C65.4572 14.8558 65.5354 14.8248 65.5927 14.7627C65.65 14.7058 65.6865 14.6282 65.6865 14.5455V13.9765C65.6865 13.8938 65.6552 13.8162 65.5927 13.7593C65.5302 13.7024 65.4572 13.6714 65.3738 13.6714H63.7632V15.5747H63.9561V14.8403L63.9821 14.8455C64.0134 14.8506 64.0447 14.8506 64.0707 14.8558H64.79L65.3999 15.5747ZM65.3686 14.6644H64.0707C64.0395 14.6644 64.0082 14.6541 63.9873 14.6282C63.9665 14.6075 63.9509 14.5765 63.9509 14.5455V13.9765C63.9509 13.9455 63.9613 13.9145 63.9873 13.8938C64.0082 13.8731 64.0395 13.8576 64.0707 13.8576H65.3686C65.3998 13.8576 65.4311 13.8731 65.452 13.8938C65.4728 13.9145 65.4885 13.9455 65.4885 13.9765V14.5455C65.4885 14.5765 65.478 14.6075 65.452 14.6282C65.4259 14.6489 65.3998 14.6644 65.3686 14.6644ZM64.0707 13.8886C64.0447 13.8886 64.0238 13.8989 64.0082 13.9145C63.9925 13.93 63.9821 13.9558 63.9821 13.9765V14.5455C63.9821 14.5713 63.9925 14.592 64.0082 14.6075C64.0238 14.6231 64.0499 14.6334 64.0707 14.6334H65.3686C65.3894 14.6334 65.4155 14.6231 65.4311 14.6075C65.4468 14.592 65.4572 14.5662 65.4572 14.5455V13.9765C65.4572 13.9507 65.4468 13.93 65.4311 13.9145C65.4155 13.8989 65.3894 13.8886 65.3686 13.8886H64.0707Z" fill="white"/>
<path d="M65.6969 15.5956H65.3894L64.7796 14.8767H64.0655C64.0342 14.8767 64.003 14.8715 63.9717 14.8664H63.9665V15.5956H63.7319V13.6509H65.3634C65.452 13.6509 65.5354 13.6871 65.5979 13.7492C65.6605 13.8112 65.6969 13.894 65.6969 13.9819V14.5508C65.6969 14.6388 65.6605 14.7215 65.5979 14.7836C65.5354 14.8457 65.452 14.8819 65.3634 14.8819H65.0819L65.6969 15.5956ZM65.3946 15.5853H65.6657L65.0558 14.8664H65.3686C65.4103 14.8664 65.452 14.856 65.4884 14.8405C65.5249 14.825 65.5614 14.7991 65.5927 14.7733C65.624 14.7422 65.6448 14.7112 65.6605 14.6698C65.6761 14.6336 65.6865 14.5922 65.6865 14.5508V13.9819C65.6865 13.8991 65.6552 13.8164 65.5927 13.7595C65.5354 13.7026 65.452 13.6664 65.3686 13.6664H63.7528V15.5853H63.9561V14.856H63.9769C64.0082 14.8612 64.0395 14.8612 64.0707 14.8664H64.79L65.3946 15.5853ZM65.3686 14.6543H64.0707C64.0395 14.6543 64.0134 14.6439 63.9926 14.6233C63.9717 14.6026 63.9613 14.5767 63.9561 14.5457V13.9767C63.9561 13.9457 63.9665 13.9198 63.9873 13.8991C64.0082 13.8785 64.0342 13.8681 64.0655 13.8681H65.3634C65.3946 13.8681 65.4207 13.8785 65.4415 13.9043C65.4624 13.925 65.4728 13.9509 65.4728 13.9819V14.5508C65.4728 14.5664 65.4676 14.5819 65.4624 14.5922C65.4572 14.6077 65.4468 14.6181 65.4363 14.6284C65.4259 14.6388 65.4155 14.6491 65.3998 14.6543C65.3998 14.6543 65.3842 14.6543 65.3686 14.6543ZM64.0707 13.8836C64.0447 13.8836 64.0186 13.894 64.003 13.9147C63.9821 13.9354 63.9717 13.956 63.9717 13.9819V14.5508C63.9717 14.5767 63.9821 14.6026 64.003 14.6181C64.0238 14.6336 64.0447 14.6439 64.0707 14.6439H65.3686C65.3946 14.6439 65.4155 14.6336 65.4363 14.6181C65.452 14.6026 65.4624 14.5767 65.4624 14.5508V13.9819C65.4624 13.956 65.452 13.9302 65.4363 13.9147C65.4207 13.894 65.3946 13.8836 65.3686 13.8836H64.0707Z" fill="white"/>
<path d="M65.7282 15.6108H65.3842L64.7744 14.8918H64.0707C64.0447 14.8918 64.0134 14.8866 63.9873 14.8866V15.6159H63.7267V13.6401H65.3738C65.4676 13.6401 65.5562 13.6763 65.6188 13.7436C65.6813 13.8108 65.723 13.8987 65.723 13.9867V14.5556C65.723 14.6487 65.6865 14.7315 65.6188 14.7987C65.5562 14.8608 65.4676 14.897 65.3738 14.897H65.1184L65.7282 15.6108ZM65.4051 15.5694H65.6396L65.0246 14.8504H65.3686C65.4468 14.8504 65.5249 14.8194 65.5823 14.7625C65.6396 14.7056 65.6709 14.628 65.6709 14.5504V13.9815C65.6709 13.9039 65.6396 13.8263 65.5823 13.7694C65.5249 13.7125 65.4468 13.6815 65.3686 13.6815H63.7632V15.5745H63.9404V14.8401L63.9769 14.8453C64.0082 14.8504 64.0395 14.8504 64.0655 14.8556H64.79L64.7952 14.8608L65.4051 15.5694ZM65.3686 14.6694H64.0707C64.0395 14.6694 64.0082 14.6539 63.9821 14.6332C63.9561 14.6125 63.9456 14.5815 63.9456 14.5453V13.9763C63.9456 13.9453 63.9613 13.9143 63.9821 13.8884C64.0082 13.8625 64.0395 13.8522 64.0707 13.8522H65.3686C65.3998 13.8522 65.4311 13.8677 65.4572 13.8884C65.478 13.9143 65.4937 13.9453 65.4937 13.9763V14.5453C65.4937 14.5763 65.4832 14.6073 65.4572 14.6332C65.4311 14.6591 65.3998 14.6694 65.3686 14.6694ZM64.0707 13.8936C64.0499 13.8936 64.029 13.9039 64.0134 13.9194C63.9978 13.935 63.9873 13.9556 63.9873 13.9763V14.5453C63.9873 14.566 63.9978 14.5867 64.0134 14.6022C64.029 14.6177 64.0499 14.628 64.0707 14.628H65.3686C65.3894 14.628 65.4103 14.6177 65.4259 14.6022C65.4415 14.5867 65.452 14.566 65.452 14.5453V13.9763C65.452 13.9556 65.4415 13.935 65.4311 13.9194C65.4155 13.9039 65.3946 13.8936 65.3738 13.8936H64.0707Z" fill="white"/>
<path d="M68.0164 13.6558C68.0581 13.6558 68.0998 13.6609 68.1415 13.6816C68.1832 13.6971 68.2144 13.723 68.2457 13.7489C68.277 13.7799 68.2978 13.8161 68.3135 13.8523C68.3291 13.8937 68.3395 13.9351 68.3395 13.9764V15.2643C68.3395 15.3057 68.3291 15.3471 68.3135 15.3885C68.2978 15.4298 68.2718 15.466 68.2457 15.4919C68.2144 15.5229 68.178 15.5436 68.1415 15.5643C68.0998 15.5798 68.0581 15.5902 68.0164 15.5902H66.3902V13.6558H68.0164ZM68.1258 13.9764C68.1258 13.9506 68.1154 13.9247 68.0946 13.904C68.0737 13.8833 68.0476 13.873 68.0216 13.873H66.7185C66.6925 13.873 66.6612 13.8833 66.6456 13.904C66.6247 13.9247 66.6143 13.9506 66.6143 13.9764V15.2643C66.6143 15.2902 66.6247 15.316 66.6456 15.3367C66.6664 15.3574 66.6925 15.3678 66.7185 15.3678H68.0164C68.0424 15.3678 68.0737 15.3574 68.0893 15.3367C68.1102 15.316 68.1206 15.2902 68.1206 15.2643L68.1258 13.9764Z" fill="white"/>
<path d="M68.0164 15.6058H66.3745V13.6455H68.0164C68.0581 13.6455 68.105 13.6559 68.1467 13.6714C68.1884 13.6869 68.2249 13.7127 68.2561 13.7438C68.2874 13.7748 68.3135 13.811 68.3291 13.8524C68.3447 13.8938 68.3552 13.9352 68.3552 13.9817V15.2696C68.3552 15.3161 68.3447 15.3575 68.3291 15.3989C68.3135 15.4403 68.2874 15.4765 68.2561 15.5075C68.2249 15.5385 68.1884 15.5644 68.1467 15.5799C68.105 15.5954 68.0633 15.6058 68.0164 15.6058ZM66.4058 15.5747H68.0164C68.0581 15.5747 68.0998 15.5696 68.1363 15.5541C68.1727 15.5385 68.2092 15.5179 68.2353 15.4868C68.2666 15.4558 68.2874 15.4248 68.303 15.3885C68.3187 15.3523 68.3239 15.311 68.3239 15.2696V13.9817C68.3239 13.9403 68.3187 13.8989 68.303 13.8627C68.2874 13.8265 68.2666 13.7903 68.2353 13.7645C68.2092 13.7334 68.1727 13.7127 68.1363 13.6972C68.0998 13.6817 68.0581 13.6765 68.0164 13.6765H66.4058V15.5747ZM68.0164 15.3885H66.7133C66.6821 15.3885 66.6508 15.373 66.6299 15.3523C66.6091 15.3317 66.5934 15.3006 66.5934 15.2696V13.9817C66.5934 13.9507 66.6039 13.9196 66.6299 13.8989C66.6508 13.8783 66.6821 13.8627 66.7133 13.8627H68.0112C68.0424 13.8627 68.0737 13.8783 68.0946 13.8989C68.1154 13.9196 68.131 13.9507 68.131 13.9817V15.2696C68.131 15.3006 68.1206 15.3317 68.0946 15.3523C68.0789 15.373 68.0477 15.3834 68.0164 15.3885ZM66.7185 13.8886C66.6925 13.8886 66.6716 13.8989 66.656 13.9145C66.6404 13.93 66.6299 13.9558 66.6299 13.9765V15.2644C66.6299 15.2903 66.6404 15.311 66.656 15.3265C66.6716 15.342 66.6977 15.3523 66.7185 15.3523H68.0164C68.0424 15.3523 68.0633 15.342 68.0789 15.3265C68.0946 15.311 68.105 15.2851 68.105 15.2644V13.9765C68.105 13.9507 68.0946 13.93 68.0789 13.9145C68.0633 13.8989 68.0372 13.8886 68.0164 13.8886H66.7185Z" fill="white"/>
<path d="M68.0164 15.5954H66.385V13.6455H68.0164C68.0581 13.6455 68.105 13.6507 68.1415 13.6714C68.1832 13.6869 68.2197 13.7127 68.2509 13.7438C68.2822 13.7748 68.3083 13.811 68.3239 13.8524C68.3395 13.8938 68.35 13.9352 68.35 13.9765V15.2644C68.35 15.3058 68.3395 15.3523 68.3239 15.3885C68.3083 15.4299 68.2822 15.4661 68.2509 15.4972C68.2197 15.5282 68.1832 15.5541 68.1415 15.5696C68.105 15.5903 68.0633 15.5954 68.0164 15.5954ZM66.4006 15.5851H68.0164C68.0581 15.5851 68.0998 15.5799 68.1363 15.5644C68.178 15.5489 68.2092 15.523 68.2405 15.4972C68.2718 15.4661 68.2926 15.4351 68.3083 15.3937C68.3239 15.3575 68.3291 15.3161 68.3291 15.2748V13.9869C68.3291 13.9455 68.3239 13.9041 68.3083 13.8679C68.2926 13.8317 68.2666 13.7955 68.2405 13.7645C68.2092 13.7334 68.178 13.7127 68.1363 13.6972C68.0998 13.6817 68.0581 13.6714 68.0164 13.6765H66.4006V15.5851ZM68.0164 15.3782H66.7133C66.6821 15.3782 66.656 15.3679 66.6351 15.3472C66.6143 15.3265 66.6039 15.2954 66.6039 15.2696V13.9817C66.6039 13.9507 66.6143 13.9248 66.6351 13.9041C66.656 13.8834 66.6873 13.8731 66.7133 13.8731H68.0112C68.0424 13.8731 68.0685 13.8834 68.0894 13.9041C68.1102 13.9248 68.1206 13.9558 68.1258 13.9817V15.2696C68.1258 15.3006 68.1154 15.3265 68.0946 15.3472C68.0737 15.3679 68.0477 15.3782 68.0164 15.3782ZM66.7185 13.8783C66.6925 13.8783 66.6664 13.8886 66.6508 13.9093C66.6299 13.93 66.6195 13.9507 66.6195 13.9765V15.2644C66.6195 15.2903 66.6299 15.3161 66.6508 15.3317C66.6716 15.3523 66.6925 15.3627 66.7185 15.3627H68.0164C68.0424 15.3627 68.0685 15.3523 68.0894 15.3317C68.1102 15.311 68.1206 15.2903 68.1206 15.2644V13.9714C68.1206 13.9455 68.1102 13.9196 68.0894 13.9041C68.0685 13.8834 68.0477 13.8731 68.0164 13.8731L66.7185 13.8783Z" fill="white"/>
<path d="M68.0164 15.611H66.3745V13.6353H68.0216C68.0685 13.6353 68.1154 13.6404 68.1571 13.6611C68.1988 13.6766 68.2353 13.7025 68.2718 13.7335C68.3031 13.7646 68.3291 13.8059 68.3448 13.8473C68.3604 13.8887 68.3708 13.9352 68.3708 13.9818V15.2697C68.3708 15.3162 68.3604 15.3576 68.3448 15.4042C68.3291 15.4455 68.3031 15.4817 68.2718 15.5179C68.2405 15.549 68.1988 15.5748 68.1571 15.5904C68.1102 15.6007 68.0633 15.611 68.0164 15.611ZM66.4162 15.5697H68.0216C68.0633 15.5697 68.0998 15.5645 68.1363 15.549C68.1727 15.5335 68.2092 15.5128 68.2353 15.4817C68.2614 15.4559 68.2874 15.4197 68.3031 15.3835C68.3187 15.3473 68.3239 15.3059 68.3239 15.2697V13.9818C68.3239 13.9404 68.3187 13.9042 68.3031 13.868C68.2874 13.8318 68.2666 13.7956 68.2353 13.7697C68.204 13.7439 68.1727 13.718 68.1363 13.7025C68.0998 13.687 68.0581 13.6818 68.0216 13.6818H66.4162V15.5697ZM68.0164 15.3938H66.7133C66.6821 15.3938 66.6456 15.3783 66.6247 15.3576C66.5987 15.3317 66.5882 15.3007 66.5882 15.2697V13.9818C66.5882 13.9508 66.6039 13.9146 66.6247 13.8939C66.6508 13.868 66.6821 13.8577 66.7133 13.8577H68.0112C68.0424 13.8577 68.0737 13.8732 68.0998 13.8939C68.1206 13.9197 68.1363 13.9508 68.1363 13.9818V15.2697C68.1363 15.3007 68.1206 15.3317 68.0998 15.3576C68.0841 15.3783 68.0529 15.3938 68.0164 15.3938ZM66.7185 13.8939C66.6977 13.8939 66.6768 13.9042 66.656 13.9197C66.6404 13.9352 66.6299 13.9559 66.6299 13.9766V15.2645C66.6299 15.2852 66.6404 15.3059 66.656 15.3214C66.6716 15.3369 66.6925 15.3473 66.7185 15.3473H68.0164C68.0372 15.3473 68.0581 15.3369 68.0789 15.3214C68.0946 15.3059 68.105 15.2852 68.105 15.2645V13.9766C68.105 13.9559 68.0946 13.9352 68.0789 13.9197C68.0633 13.9042 68.0424 13.8939 68.0164 13.8939H66.7185Z" fill="white"/>
</svg>
