<svg width="118" height="30" viewBox="0 0 118 30" fill="none" xmlns="http://www.w3.org/2000/svg">
<path d="M0 5.22955V29.0814H6.88725V10.2747C6.88725 8.43998 8.26469 8.71509 9.18299 9.81604L24.3349 26.604C29.8447 32.5669 35.3545 27.5213 35.3545 23.8518V0.642264H28.0081L28.4673 18.9898C28.1 21.1915 26.7837 20.213 26.1715 19.4486L12.8562 3.39479C5.50979 -3.78115 0 2.18189 0 5.22955Z" fill="white"/>
<path d="M73.5649 9.5498V28.4416H80.8383V9.5498H73.5649Z" fill="#5CA19C"/>
<path d="M73.5649 7.26611V4.24385e-05H80.8383V7.26611H73.5649Z" fill="#5CA19C"/>
<path d="M39.5107 3.66951V28.4387H46.8571V18.8062H68.8963V11.9259H46.8571V7.33902H69.3555V0H42.7248C40.1536 0.733902 39.5107 2.75213 39.5107 3.66951Z" fill="white"/>
<path d="M97.7976 7.33902V28.4387H105.144V7.33902H118V0H84.9414V7.33902H97.7976Z" fill="white"/>
</svg>
