<svg width="20" height="23" viewBox="0 0 20 23" fill="none" xmlns="http://www.w3.org/2000/svg">
<path d="M19 7.66346V15.1538C19 15.6435 18.8104 16.1131 18.4728 16.4593C18.1352 16.8055 17.6774 17 17.2 17H8.8C8.32261 17 7.86477 16.8055 7.52721 16.4593C7.18964 16.1131 7 15.6435 7 15.1538V2.84615C7 2.35652 7.18964 1.88695 7.52721 1.54073C7.86477 1.19451 8.32261 1 8.8 1H12.5031C12.8213 1.00005 13.1264 1.12968 13.3514 1.36038L18.6486 6.79346C18.8736 7.02422 19 7.33715 19 7.66346Z" stroke="#18191F" stroke-linejoin="round"/>
<path d="M13 1.30786V5.92325C13 6.24967 13.1264 6.56272 13.3515 6.79353C13.5765 7.02434 13.8817 7.15401 14.2 7.15401H18.7" stroke="#18191F" stroke-linecap="round" stroke-linejoin="round"/>
<path d="M13 12.6635V20.1538C13 20.6435 12.8104 21.1131 12.4728 21.4593C12.1352 21.8055 11.6774 22 11.2 22H2.8C2.32261 22 1.86477 21.8055 1.52721 21.4593C1.18964 21.1131 1 20.6435 1 20.1538V7.84615C1 7.35652 1.18964 6.88695 1.52721 6.54073C1.86477 6.19451 2.32261 6 2.8 6H6.50313C6.82127 6.00005 7.12638 6.12968 7.35138 6.36038L12.6486 11.7935C12.8736 12.0242 13 12.3372 13 12.6635Z" fill="#FFEAD9" stroke="#18191F" stroke-linejoin="round"/>
<path d="M7 6.30786V10.9232C7 11.2497 7.12643 11.5627 7.35147 11.7935C7.57652 12.0243 7.88174 12.154 8.2 12.154H12.7" fill="#FFEAD9"/>
<path d="M7 6.30786V10.9232C7 11.2497 7.12643 11.5627 7.35147 11.7935C7.57652 12.0243 7.88174 12.154 8.2 12.154H12.7" stroke="#18191F" stroke-linecap="round" stroke-linejoin="round"/>
</svg>
